<?xml version="1.0" encoding="utf-8"?>
<!-- Generator: Adobe Illustrator 21.0.0, SVG Export Plug-In . SVG Version: 6.00 Build 0)  -->
<svg version="1.1" id="图层_1" xmlns="http://www.w3.org/2000/svg" xmlns:xlink="http://www.w3.org/1999/xlink" x="0px" y="0px"
	 viewBox="0 0 350 630" style="enable-background:new 0 0 350 630;" xml:space="preserve">
<style type="text/css">
	.st0{fill:#FFFFFF;}
	.st1{fill:url(#path-1_1_);fill-opacity:0.6;}
	.st2{fill:url(#path-2_1_);fill-opacity:0.6;}
	.st3{fill:#0052FE;fill-opacity:0.6;}
	.st4{fill:url(#path-4_1_);}
</style>
<path id="path" class="st0" d="M0,0h350v630H0V0z"/>
<linearGradient id="path-1_1_" gradientUnits="userSpaceOnUse" x1="346.9228" y1="345.6544" x2="-17.7092" y2="213.1554" gradientTransform="matrix(1 0 0 -1 0 632)">
	<stop  offset="0" style="stop-color:#3989FA"/>
	<stop  offset="1" style="stop-color:#003E97"/>
</linearGradient>
<path id="path-1" class="st1" d="M36.2,66.9c-11.1-5.2-31-1.9-36.2,1.6V630h348.5L350,66.2c0,0-3.2,11.8-16.2,22.3
	c-14.8,11.9-34,23.8-61.3,10.3c-15.5-10.3-32.2-26.1-44.3-32.3c-19.2-9.8-31.1-6.1-38.4-5.2c-5.9,0.8-12.9,2.5-19.2,5.2
	c-9.4,4-33.5,14.1-52.4,23S82,98.3,74.6,92.3C50.9,73.4,43.2,70.2,36.2,66.9z"/>
<linearGradient id="path-2_1_" gradientUnits="userSpaceOnUse" x1="164.5781" y1="559.1631" x2="173.5111" y2="318.4922" gradientTransform="matrix(1 0 0 -1 0 632)">
	<stop  offset="0" style="stop-color:#3989FA"/>
	<stop  offset="1" style="stop-color:#003E97"/>
</linearGradient>
<path id="path-2" class="st2" d="M125.3,93.1C74,61.5,20.4,73.1,0,82.8L0.7,630H350V97.1c-15.5-8-23.6-11.2-30.2-14.3
	c-5.9-2.7-25.8-10.4-45.7-8.8c-12.3,1-27.3,3.8-38.3,8.8c-12.8,5.8-34.8,20.3-56,22.9C158.6,108.2,131.6,97.6,125.3,93.1z"/>
<path id="path-3" class="st3" d="M70.9,97.8c-20,5.2-65.5-0.8-70.9-4.4v536.8h350V72.7c-29.5,36.2-73.1,38.5-87.1,38.5
	c-16.3,0-50.2-22.8-50.2-22.8S193.6,73.6,179.5,68c-17.7-7.1-31-6.3-31-6.3c-8.9,0-23.6,3.8-34.7,11C96.7,83.7,87.9,93.4,70.9,97.8z
	"/>
<linearGradient id="path-4_1_" gradientUnits="userSpaceOnUse" x1="140.3749" y1="408.4731" x2="211.8079" y2="29.3032" gradientTransform="matrix(1 0 0 -1 0 632)">
	<stop  offset="0" style="stop-color:#135EC9;stop-opacity:0"/>
	<stop  offset="1" style="stop-color:#11BBED"/>
</linearGradient>
<path id="path-4" class="st4" d="M0,185.6h170.6H350V629H0V185.6z"/>
</svg>
