<?xml version="1.0" encoding="UTF-8"?>
<svg width="350px" height="630px" viewBox="0 0 350 630" xmlns="http://www.w3.org/2000/svg" xmlns:xlink="http://www.w3.org/1999/xlink" version="1.1">
 <!-- Generated by Pixelmator Pro 1.2.4 -->
 <defs>
  <linearGradient id="linear-gradient" gradientUnits="userSpaceOnUse" x1="47.996" y1="0" x2="217.724" y2="306.048">
   <stop offset="0" stop-color="#135ec9" stop-opacity="1"/>
   <stop offset="1" stop-color="#40cced" stop-opacity="1"/>
  </linearGradient>
 </defs>
 <path id="path" d="M0 0 L350 0 350 630 0 630 Z" fill-opacity="1" fill="url(#linear-gradient)" stroke="none"/>
 <defs>
  <linearGradient id="linear-gradient-1" gradientUnits="userSpaceOnUse" x1="175" y1="570.15" x2="175" y2="0">
   <stop offset="0" stop-color="#ffffff" stop-opacity="0.7"/>
   <stop offset="1" stop-color="#ffffff" stop-opacity="1"/>
  </linearGradient>
 </defs>
 <path id="path-1" d="M313.819 563.063 C324.895 568.213 344.831 564.948 350 561.488 L350 0 1.477 0 0 563.785 C0 563.785 3.242 552.028 16.245 541.531 31.013 529.61 50.211 517.688 77.531 531.199 93.038 541.531 109.727 557.311 121.835 563.504 141.034 573.323 152.905 569.64 160.232 568.654 166.139 567.859 173.175 566.161 179.43 563.504 188.783 559.53 212.954 549.357 231.857 540.455 250.759 531.553 268.038 531.728 275.422 537.657 299.051 556.632 306.783 559.791 313.819 563.063 Z" fill-opacity="0.6" fill="url(#linear-gradient-1)" stroke="none"/>
 <path id="path-2" d="M224.737 548.992 C276.021 581.381 329.614 569.505 350 559.518 L349.263 0 0 0 0 544.943 C15.474 553.146 23.579 556.385 30.21 559.518 36.105 562.304 56 570.15 75.895 568.531 88.24 567.526 103.158 564.657 114.211 559.518 126.982 553.58 148.989 538.733 170.211 536.142 191.432 533.551 218.351 544.404 224.737 548.992 Z" fill="#ffffff" fill-opacity="0.6" stroke="none"/>
 <defs>
  <linearGradient id="linear-gradient-2" gradientUnits="userSpaceOnUse" x1="175" y1="568.696" x2="164.024" y2="383.284">
   <stop offset="0" stop-color="#ffffff" stop-opacity="1"/>
   <stop offset="1" stop-color="#ffffff" stop-opacity="1"/>
  </linearGradient>
 </defs>
 <path id="path-3" d="M279.103 533.844 C299.144 528.591 344.584 534.616 350 538.297 L350 0 0 0 0 559.082 C29.485 522.803 73.057 520.436 87.089 520.436 103.345 520.436 137.308 543.308 137.308 543.308 137.308 543.308 156.362 558.136 170.541 563.814 188.266 570.913 201.559 570.124 201.559 570.124 210.421 570.124 225.191 566.283 236.269 559.082 253.255 548.041 262.117 538.297 279.103 533.844 Z" fill-opacity="1" fill="url(#linear-gradient-2)" stroke="none"/>
 <defs>
  <linearGradient id="linear-gradient-3" gradientUnits="userSpaceOnUse" x1="175" y1="0" x2="175" y2="502.425">
   <stop offset="0" stop-color="#fdfcfe" stop-opacity="1"/>
   <stop offset="1" stop-color="#ffffff" stop-opacity="0.17"/>
  </linearGradient>
 </defs>
 <path id="path-4" d="M0 0 L170.57 0 350 0 350 502.425 0 502.425 0 0 Z" fill-opacity="1" fill="url(#linear-gradient-3)" stroke="none"/>
</svg>
