<?xml version="1.0" encoding="UTF-8"?>
<!DOCTYPE svg PUBLIC "-//W3C//DTD SVG 1.1//EN" "http://www.w3.org/Graphics/SVG/1.1/DTD/svg11.dtd">
<svg xmlns="http://www.w3.org/2000/svg" version="1.1" width="350px" height="630px" style="shape-rendering:geometricPrecision; text-rendering:geometricPrecision; image-rendering:optimizeQuality; fill-rule:evenodd; clip-rule:evenodd" xmlns:xlink="http://www.w3.org/1999/xlink">
<g><path style="opacity:1" fill="#0154fc" d="M -0.5,-0.5 C 116.167,-0.5 232.833,-0.5 349.5,-0.5C 349.5,23.1667 349.5,46.8333 349.5,70.5C 344.861,78.4725 338.528,84.8058 330.5,89.5C 304.328,74.2704 276.661,70.937 247.5,79.5C 246.167,79.5 244.833,79.5 243.5,79.5C 223.63,60.3493 200.63,55.6826 174.5,65.5C 153.175,58.462 132.842,60.6287 113.5,72C 108.952,75.3879 104.286,78.5546 99.5,81.5C 83.3226,75.8651 66.6559,73.1984 49.5,73.5C 47.5648,72.8505 45.5648,72.5172 43.5,72.5C 33.201,65.8296 21.8677,63.663 9.5,66C 6.17598,66.9428 2.84264,67.7761 -0.5,68.5C -0.5,45.5 -0.5,22.5 -0.5,-0.5 Z"/></g>
<g><path style="opacity:1" fill="#fefefe" d="M 174.5,65.5 C 180.53,68.0122 186.53,70.8455 192.5,74C 200.733,79.7484 209.067,85.2484 217.5,90.5C 229.444,98.9021 242.444,105.402 256.5,110C 268.635,110.756 280.635,109.756 292.5,107C 294.723,106.434 296.723,105.6 298.5,104.5C 310.252,101.622 320.918,96.622 330.5,89.5C 338.528,84.8058 344.861,78.4725 349.5,70.5C 349.5,256.833 349.5,443.167 349.5,629.5C 232.833,629.5 116.167,629.5 -0.5,629.5C -0.5,450.5 -0.5,271.5 -0.5,92.5C 13.8773,97.3187 28.7106,99.3187 44,98.5C 53.201,98.5292 62.3676,98.0292 71.5,97C 74.3093,95.9066 76.976,94.7399 79.5,93.5C 86.8379,90.5028 93.5046,86.5028 99.5,81.5C 104.286,78.5546 108.952,75.3879 113.5,72C 132.842,60.6287 153.175,58.462 174.5,65.5 Z"/></g>
<g><path style="opacity:1" fill="#a7d0f0" d="M 243.5,79.5 C 234.542,82.6505 225.875,86.3171 217.5,90.5C 209.067,85.2484 200.733,79.7484 192.5,74C 186.53,70.8455 180.53,68.0122 174.5,65.5C 200.63,55.6826 223.63,60.3493 243.5,79.5 Z"/></g>
<g><path style="opacity:1" fill="#a1c3ed" d="M 43.5,72.5 C 28.0203,72.3951 13.3536,75.7285 -0.5,82.5C -0.5,77.8333 -0.5,73.1667 -0.5,68.5C 2.84264,67.7761 6.17598,66.9428 9.5,66C 21.8677,63.663 33.201,65.8296 43.5,72.5 Z"/></g>
<g><path style="opacity:1" fill="#dbe9f7" d="M 43.5,72.5 C 45.5648,72.5172 47.5648,72.8505 49.5,73.5C 58.2775,79.736 66.9442,86.236 75.5,93C 76.7932,93.49 78.1266,93.6567 79.5,93.5C 76.976,94.7399 74.3093,95.9066 71.5,97C 62.3676,98.0292 53.201,98.5292 44,98.5C 28.7106,99.3187 13.8773,97.3187 -0.5,92.5C -0.5,89.1667 -0.5,85.8333 -0.5,82.5C 13.3536,75.7285 28.0203,72.3951 43.5,72.5 Z"/></g>
<g><path style="opacity:1" fill="#a5caee" d="M 49.5,73.5 C 66.6559,73.1984 83.3226,75.8651 99.5,81.5C 93.5046,86.5028 86.8379,90.5028 79.5,93.5C 78.1266,93.6567 76.7932,93.49 75.5,93C 66.9442,86.236 58.2775,79.736 49.5,73.5 Z"/></g>
<g><path style="opacity:1" fill="#abd7f2" d="M 330.5,89.5 C 320.918,96.622 310.252,101.622 298.5,104.5C 286.255,104.821 275.255,101.321 265.5,94C 259.312,89.3027 253.312,84.4693 247.5,79.5C 276.661,70.937 304.328,74.2704 330.5,89.5 Z"/></g>
<g><path style="opacity:1" fill="#ddeff9" d="M 243.5,79.5 C 244.833,79.5 246.167,79.5 247.5,79.5C 253.312,84.4693 259.312,89.3027 265.5,94C 275.255,101.321 286.255,104.821 298.5,104.5C 296.723,105.6 294.723,106.434 292.5,107C 280.635,109.756 268.635,110.756 256.5,110C 242.444,105.402 229.444,98.9021 217.5,90.5C 225.875,86.3171 234.542,82.6505 243.5,79.5 Z"/></g>
</svg>
