<?xml version="1.0" encoding="UTF-8"?>
<svg width="119px" height="89px" viewBox="0 0 119 89" xmlns="http://www.w3.org/2000/svg" xmlns:xlink="http://www.w3.org/1999/xlink" version="1.1">
 <!-- Generated by Pixelmator Pro 1.2.4 -->
 <path id="path" d="M90 47.5 C90 67.106 73.434 83 53 83 32.565 83 16 67.106 16 47.5 16 27.894 32.565 12 53 12 73.434 12 90 27.894 90 47.5 Z" fill="#ffffff" fill-opacity="1" stroke="none"/>
 <path id="path-1" d="M98.611 39.784 C99.862 46.292 80.652 55.457 55.704 60.255 30.756 65.053 9.518 63.666 8.266 57.158 7.014 50.65 26.224 41.485 51.172 36.687 76.12 31.889 97.359 33.276 98.611 39.784 Z" fill="#ffffff" fill-opacity="1" stroke="none"/>
 <path id="path-2" d="M90 47.044 C90 66.65 73 84.044 52 83.044 52 83.044 80 66.65 80 47.044 80 27.438 52 12.044 52 12.044 72.5 11.044 90 27.438 90 47.044 Z" fill="#f8f8f8" fill-opacity="1" stroke="none"/>
 <path id="path-3" d="M99 12 L99.449 13.382 100.902 13.382 99.726 14.236 100.176 15.618 99 14.764 97.824 15.618 98.273 14.236 97.098 13.382 98.551 13.382 99 12 Z" fill="#ffffff" fill-opacity="1" stroke="none"/>
 <path id="path-4" d="M86 76 L86.449 77.382 87.902 77.382 86.726 78.236 87.176 79.618 86 78.764 84.824 79.618 85.273 78.236 84.098 77.382 85.551 77.382 86 76 Z" fill="#ffffff" fill-opacity="1" stroke="none"/>
 <path id="path-5" d="M5.5 69 L5.837 70.036 6.926 70.036 6.045 70.677 6.381 71.714 5.5 71.073 4.618 71.714 4.955 70.677 4.073 70.036 5.163 70.036 5.5 69 Z" fill="#ffffff" fill-opacity="1" stroke="none"/>
 <path id="path-6" d="M66 2 L66.673 4.073 68.853 4.073 67.09 5.354 67.763 7.427 66 6.146 64.236 7.427 64.91 5.354 63.147 4.073 65.326 4.073 66 2 Z" fill="#ffffff" fill-opacity="1" stroke="none"/>
 <path id="path-7" d="M112 45 L112.674 47.073 114.853 47.073 113.09 48.354 113.763 50.427 112 49.146 110.237 50.427 110.91 48.354 109.147 47.073 111.326 47.073 112 45 Z" fill="#ffffff" fill-opacity="1" stroke="none"/>
 <path id="path-8" d="M10 6 L10.898 8.764 13.804 8.764 11.453 10.472 12.351 13.236 10 11.528 7.649 13.236 8.547 10.472 6.196 8.764 9.102 8.764 10 6 Z" fill="#ffffff" fill-opacity="1" stroke="none"/>
 <path id="path-9" d="M33.199 30.677 C31.474 32.834 29.027 33.744 27.733 32.709 26.439 31.674 26.788 29.087 28.512 26.93 30.237 24.773 32.684 23.864 33.978 24.898 35.272 25.933 34.923 28.52 33.199 30.677 Z" fill="#f8f8f8" fill-opacity="1" stroke="none"/>
 <path id="path-10" d="M44.473 68.234 C45.649 70.732 45.387 73.33 43.888 74.036 42.389 74.741 40.221 73.288 39.044 70.79 37.868 68.291 38.13 65.694 39.629 64.988 41.128 64.282 43.297 65.736 44.473 68.234 Z" fill="#f8f8f8" fill-opacity="1" stroke="none"/>
 <path id="path-11" d="M31.602 56.451 C32.49 59.065 31.938 61.617 30.37 62.15 28.801 62.683 26.809 60.995 25.921 58.381 25.033 55.766 25.584 53.214 27.153 52.681 28.722 52.149 30.714 53.836 31.602 56.451 Z" fill="#f8f8f8" fill-opacity="1" stroke="none"/>
 <path id="path-12" d="M20.071 77.804 C19.841 79.445 18.324 80.589 16.683 80.358 15.043 80.128 13.899 78.612 14.129 76.971 14.359 75.33 15.876 74.187 17.516 74.417 19.157 74.647 20.301 76.163 20.071 77.804 Z" fill="#ffffff" fill-opacity="1" stroke="none"/>
 <path id="path-13" d="M21.061 77.943 C20.984 78.49 19.149 78.685 16.961 78.378 14.773 78.071 13.062 77.379 13.139 76.832 13.215 76.285 15.051 76.09 17.239 76.397 19.427 76.704 21.138 77.396 21.061 77.943 Z" fill="#ffffff" fill-opacity="1" stroke="none"/>
 <path id="path-14" d="M20.071 77.804 C19.841 79.445 18.324 80.589 16.683 80.358 16.683 80.358 17.77 79.141 18 77.5 18.23 75.859 17.516 74.417 17.516 74.417 19.157 74.647 20.301 76.163 20.071 77.804 Z" fill="#f8f8f8" fill-opacity="1" stroke="none"/>
</svg>
