<?xml version="1.0" encoding="UTF-8"?>
<!DOCTYPE svg PUBLIC "-//W3C//DTD SVG 1.1//EN" "http://www.w3.org/Graphics/SVG/1.1/DTD/svg11.dtd">
<svg xmlns="http://www.w3.org/2000/svg" version="1.1" width="250px" height="250px" style="shape-rendering:geometricPrecision; text-rendering:geometricPrecision; image-rendering:optimizeQuality; fill-rule:evenodd; clip-rule:evenodd" xmlns:xlink="http://www.w3.org/1999/xlink">
<g><path style="opacity:0.966" fill="#2175fe" d="M 99.5,-0.5 C 116.167,-0.5 132.833,-0.5 149.5,-0.5C 204.058,12.3906 237.392,46.0573 249.5,100.5C 249.5,116.5 249.5,132.5 249.5,148.5C 237.392,202.943 204.058,236.609 149.5,249.5C 132.833,249.5 116.167,249.5 99.5,249.5C 44.9417,236.609 11.6083,202.943 -0.5,148.5C -0.5,132.5 -0.5,116.5 -0.5,100.5C 11.6083,46.0573 44.9417,12.3906 99.5,-0.5 Z"/></g>
<g><path style="opacity:1" fill="#a6c6ff" d="M 214.5,80.5 C 207.798,80.3357 201.131,80.669 194.5,81.5C 194.5,81.1667 194.5,80.8333 194.5,80.5C 194.833,80.5 195.167,80.5 195.5,80.5C 201.963,79.2299 208.296,79.2299 214.5,80.5 Z"/></g>
<g><path style="opacity:1" fill="#fcfdfe" d="M 214.5,80.5 C 216.889,80.9788 218.556,82.3121 219.5,84.5C 219.5,88.5 219.5,92.5 219.5,96.5C 219.167,97.5 218.5,98.1667 217.5,98.5C 215.973,98.427 214.973,99.0937 214.5,100.5C 208.729,99.8872 203.396,100.554 198.5,102.5C 198.167,102.5 197.833,102.5 197.5,102.5C 194.188,102.149 191.855,103.482 190.5,106.5C 183.5,110.167 178.167,115.5 174.5,122.5C 172.952,122.821 172.285,123.821 172.5,125.5C 170.186,127.83 168.186,130.496 166.5,133.5C 164.938,133.733 163.605,134.4 162.5,135.5C 157.105,135.733 151.772,135.4 146.5,134.5C 145.738,132.738 144.404,131.738 142.5,131.5C 140.954,129.118 140.287,126.451 140.5,123.5C 141.791,123.737 142.791,123.404 143.5,122.5C 144.167,122.5 144.833,122.5 145.5,122.5C 148.888,121.652 151.221,119.652 152.5,116.5C 153.167,116.5 153.5,116.167 153.5,115.5C 155.688,114.556 157.021,112.889 157.5,110.5C 157.5,110.167 157.5,109.833 157.5,109.5C 163.429,101.901 170.096,94.9014 177.5,88.5C 179.945,87.6876 182.278,86.6876 184.5,85.5C 188.397,85.2739 191.73,83.9405 194.5,81.5C 201.131,80.669 207.798,80.3357 214.5,80.5 Z"/></g>
<g><path style="opacity:1" fill="#5d98ff" d="M 194.5,80.5 C 194.5,80.8333 194.5,81.1667 194.5,81.5C 191.131,82.3812 187.797,83.3812 184.5,84.5C 185.737,82.9032 187.404,81.7365 189.5,81C 191.134,80.5065 192.801,80.3398 194.5,80.5 Z"/></g>
<g><path style="opacity:1" fill="#caddff" d="M 194.5,81.5 C 191.73,83.9405 188.397,85.2739 184.5,85.5C 184.5,85.1667 184.5,84.8333 184.5,84.5C 187.797,83.3812 191.131,82.3812 194.5,81.5 Z"/></g>
<g><path style="opacity:1" fill="#7dadff" d="M 107.5,87.5 C 103.958,87.1872 100.625,87.5206 97.5,88.5C 96.8333,88.5 96.1667,88.5 95.5,88.5C 97.0478,87.2057 99.0478,86.5391 101.5,86.5C 103.696,86.5046 105.696,86.838 107.5,87.5 Z"/></g>
<g><path style="opacity:1" fill="#679eff" d="M 184.5,84.5 C 184.5,84.8333 184.5,85.1667 184.5,85.5C 182.278,86.6876 179.945,87.6876 177.5,88.5C 178.348,86.9069 179.681,85.7403 181.5,85C 182.448,84.5172 183.448,84.3505 184.5,84.5 Z"/></g>
<g><path style="opacity:1" fill="#d3e2ff" d="M 97.5,88.5 C 100.625,87.5206 103.958,87.1872 107.5,87.5C 110.852,87.53 113.518,88.8633 115.5,91.5C 109.762,89.2102 103.762,88.2102 97.5,88.5 Z"/></g>
<g><path style="opacity:1" fill="#dce9ff" d="M 146.5,87.5 C 146.973,88.9063 147.973,89.573 149.5,89.5C 149.5,89.8333 149.5,90.1667 149.5,90.5C 144.012,88.3062 138.346,87.9729 132.5,89.5C 132.611,88.8826 132.944,88.3826 133.5,88C 137.821,87.501 142.154,87.3343 146.5,87.5 Z"/></g>
<g><path style="opacity:1" fill="#fcfdfe" d="M 95.5,88.5 C 96.1667,88.5 96.8333,88.5 97.5,88.5C 103.762,88.2102 109.762,89.2102 115.5,91.5C 116.833,92.1667 117.833,93.1667 118.5,94.5C 118.5,95.8333 118.5,97.1667 118.5,98.5C 114.289,99.2173 110.955,101.217 108.5,104.5C 104.435,106.233 101.768,109.233 100.5,113.5C 100.167,114.833 99.8333,116.167 99.5,117.5C 98.8333,117.5 98.5,117.833 98.5,118.5C 96.8235,119.183 96.1568,120.517 96.5,122.5C 95.8902,123.391 95.5569,124.391 95.5,125.5C 94.5416,125.953 93.7083,126.619 93,127.5C 89.9278,134.219 86.7611,140.886 83.5,147.5C 82.8333,147.5 82.5,147.833 82.5,148.5C 80.5182,150.502 78.8516,152.835 77.5,155.5C 76.1667,155.5 75.5,156.167 75.5,157.5C 74.1667,157.5 73.5,158.167 73.5,159.5C 72.1667,159.5 71.5,160.167 71.5,161.5C 68.6338,161.633 66.6338,162.966 65.5,165.5C 63.901,165.232 62.5676,165.566 61.5,166.5C 55.6114,166.874 49.9448,166.207 44.5,164.5C 43.8333,164.5 43.1667,164.5 42.5,164.5C 41.7377,162.738 40.4044,161.738 38.5,161.5C 37.1802,159.183 35.5136,157.183 33.5,155.5C 33.5,154.833 33.5,154.167 33.5,153.5C 32.7833,150.763 31.4499,148.43 29.5,146.5C 29.0019,141.848 28.6686,137.181 28.5,132.5C 28.5,132.167 28.5,131.833 28.5,131.5C 30.1667,130.5 31.5,129.167 32.5,127.5C 32.8417,126.662 33.5084,126.328 34.5,126.5C 37.8333,126.5 41.1667,126.5 44.5,126.5C 44.8333,127.5 45.5,128.167 46.5,128.5C 46.9267,131.01 47.5933,133.343 48.5,135.5C 48.5,135.833 48.5,136.167 48.5,136.5C 48.1904,143.532 51.1904,146.532 57.5,145.5C 61.3871,142.728 64.0538,139.061 65.5,134.5C 67.7379,133.147 69.0713,131.147 69.5,128.5C 72.0119,126.535 73.3452,123.868 73.5,120.5C 75.8176,118.815 76.8176,116.481 76.5,113.5C 76.5,112.833 76.8333,112.5 77.5,112.5C 79.3465,110.97 80.3465,108.97 80.5,106.5C 81.1098,105.609 81.4431,104.609 81.5,103.5C 81.3284,102.508 81.6618,101.842 82.5,101.5C 83.4013,100.71 84.0679,99.7095 84.5,98.5C 88.225,95.1025 91.8917,91.7692 95.5,88.5 Z"/></g>
<g><path style="opacity:1" fill="#fbfcfe" d="M 149.5,90.5 C 150.906,90.9731 151.573,91.9731 151.5,93.5C 147.412,95.2539 144.745,98.2539 143.5,102.5C 142.069,103.903 140.902,105.569 140,107.5C 139.51,108.793 139.343,110.127 139.5,111.5C 138.883,111.611 138.383,111.944 138,112.5C 137.61,119.331 136.777,125.998 135.5,132.5C 134.883,132.611 134.383,132.944 134,133.5C 133.505,135.473 133.338,137.473 133.5,139.5C 133.107,141.284 132.441,142.95 131.5,144.5C 129.592,145.486 128.592,147.152 128.5,149.5C 125.9,150.468 123.566,151.801 121.5,153.5C 118.5,153.5 115.5,153.5 112.5,153.5C 112.5,153.167 112.5,152.833 112.5,152.5C 111.167,150.5 109.5,148.833 107.5,147.5C 104.545,142.869 104.878,138.536 108.5,134.5C 110.086,132.33 111.42,129.996 112.5,127.5C 114.588,125.664 115.921,123.331 116.5,120.5C 116.873,117.426 117.539,114.426 118.5,111.5C 120.213,110.365 120.88,108.698 120.5,106.5C 120.5,106.167 120.5,105.833 120.5,105.5C 122.074,103.898 122.741,101.898 122.5,99.5C 122.5,99.1667 122.5,98.8333 122.5,98.5C 125.205,94.7946 128.538,91.7946 132.5,89.5C 138.346,87.9729 144.012,88.3062 149.5,90.5 Z"/></g>
<g><path style="opacity:1" fill="#7dadff" d="M 146.5,87.5 C 148.027,87.427 149.027,88.0937 149.5,89.5C 147.973,89.573 146.973,88.9063 146.5,87.5 Z"/></g>
<g><path style="opacity:1" fill="#b9d1fc" d="M 219.5,84.5 C 221.265,87.1226 221.932,90.1226 221.5,93.5C 220.833,94.5 220.167,95.5 219.5,96.5C 219.5,92.5 219.5,88.5 219.5,84.5 Z"/></g>
<g><path style="opacity:1" fill="#7cabfc" d="M 149.5,90.5 C 149.5,90.1667 149.5,89.8333 149.5,89.5C 151.027,89.427 152.027,90.0937 152.5,91.5C 152.768,93.099 152.434,94.4324 151.5,95.5C 151.5,94.8333 151.5,94.1667 151.5,93.5C 151.573,91.9731 150.906,90.9731 149.5,90.5 Z"/></g>
<g><path style="opacity:1" fill="#4588fe" d="M 221.5,93.5 C 221.932,90.1226 221.265,87.1226 219.5,84.5C 218.556,82.3121 216.889,80.9788 214.5,80.5C 208.296,79.2299 201.963,79.2299 195.5,80.5C 198.598,79.179 202.098,78.5123 206,78.5C 211.105,78.441 215.938,79.441 220.5,81.5C 222.062,83.9573 223.062,86.624 223.5,89.5C 223.415,91.3328 222.748,92.6661 221.5,93.5 Z"/></g>
<g><path style="opacity:1" fill="#95bbff" d="M 95.5,88.5 C 91.8917,91.7692 88.225,95.1025 84.5,98.5C 86.9605,93.7 90.6272,90.3667 95.5,88.5 Z"/></g>
<g><path style="opacity:1" fill="#7eacff" d="M 146.5,87.5 C 142.154,87.3343 137.821,87.501 133.5,88C 132.944,88.3826 132.611,88.8826 132.5,89.5C 128.538,91.7946 125.205,94.7946 122.5,98.5C 122.5,98.1667 122.5,97.8333 122.5,97.5C 127.683,86.9092 135.683,83.5758 146.5,87.5 Z"/></g>
<g><path style="opacity:1" fill="#4d87f0" d="M 152.5,91.5 C 154.675,95.4335 156.175,99.7668 157,104.5C 157.671,105.252 158.504,105.586 159.5,105.5C 158.4,106.605 157.733,107.938 157.5,109.5C 157.5,109.833 157.5,110.167 157.5,110.5C 155.469,111.539 154.136,113.205 153.5,115.5C 153.5,116.167 153.167,116.5 152.5,116.5C 149.94,118.273 147.607,120.273 145.5,122.5C 144.833,122.5 144.167,122.5 143.5,122.5C 142.167,122.5 140.833,122.5 139.5,122.5C 139.552,118.802 139.886,115.135 140.5,111.5C 141.683,108.619 142.683,105.619 143.5,102.5C 145.543,99.4569 148.21,97.1236 151.5,95.5C 152.434,94.4324 152.768,93.099 152.5,91.5 Z"/></g>
<g><path style="opacity:1" fill="#a3c0f6" d="M 151.5,93.5 C 151.5,94.1667 151.5,94.8333 151.5,95.5C 148.21,97.1236 145.543,99.4569 143.5,102.5C 144.745,98.2539 147.412,95.2539 151.5,93.5 Z"/></g>
<g><path style="opacity:1" fill="#99bdfe" d="M 177.5,88.5 C 170.096,94.9014 163.429,101.901 157.5,109.5C 157.733,107.938 158.4,106.605 159.5,105.5C 164.233,98.4317 170.233,92.765 177.5,88.5 Z"/></g>
<g><path style="opacity:1" fill="#6ba1ff" d="M 84.5,98.5 C 84.0679,99.7095 83.4013,100.71 82.5,101.5C 82.2852,99.8212 82.9519,98.8212 84.5,98.5 Z"/></g>
<g><path style="opacity:1" fill="#9ab8ed" d="M 217.5,98.5 C 217.027,99.9063 216.027,100.573 214.5,100.5C 214.973,99.0937 215.973,98.427 217.5,98.5 Z"/></g>
<g><path style="opacity:1" fill="#9ebcef" d="M 214.5,100.5 C 212.052,101.473 209.385,101.806 206.5,101.5C 203.763,101.401 201.096,101.735 198.5,102.5C 203.396,100.554 208.729,99.8872 214.5,100.5 Z"/></g>
<g><path style="opacity:1" fill="#99bbf7" d="M 118.5,94.5 C 118.833,94.5 119.167,94.5 119.5,94.5C 120.301,96.0418 120.634,97.7085 120.5,99.5C 116.201,100.38 112.201,102.046 108.5,104.5C 110.955,101.217 114.289,99.2173 118.5,98.5C 118.5,97.1667 118.5,95.8333 118.5,94.5 Z"/></g>
<g><path style="opacity:1" fill="#4c87f0" d="M 119.5,94.5 C 120.9,95.0998 121.9,96.0998 122.5,97.5C 122.5,97.8333 122.5,98.1667 122.5,98.5C 122.5,98.8333 122.5,99.1667 122.5,99.5C 120.926,101.102 120.259,103.102 120.5,105.5C 120.5,105.833 120.5,106.167 120.5,106.5C 118.787,107.635 118.12,109.302 118.5,111.5C 117.539,114.426 116.873,117.426 116.5,120.5C 114.441,122.26 113.108,124.594 112.5,127.5C 111.42,129.996 110.086,132.33 108.5,134.5C 104.907,135.43 103.241,137.763 103.5,141.5C 102.639,135.171 101.973,128.671 101.5,122C 101.431,120.014 100.765,118.514 99.5,117.5C 99.8333,116.167 100.167,114.833 100.5,113.5C 103.138,110.526 105.805,107.526 108.5,104.5C 112.201,102.046 116.201,100.38 120.5,99.5C 120.634,97.7085 120.301,96.0418 119.5,94.5 Z"/></g>
<g><path style="opacity:1" fill="#5c8ee4" d="M 206.5,101.5 C 203.727,102.657 200.727,103.324 197.5,103.5C 197.5,103.167 197.5,102.833 197.5,102.5C 197.833,102.5 198.167,102.5 198.5,102.5C 201.096,101.735 203.763,101.401 206.5,101.5 Z"/></g>
<g><path style="opacity:1" fill="#b6cffa" d="M 122.5,99.5 C 122.741,101.898 122.074,103.898 120.5,105.5C 120.259,103.102 120.926,101.102 122.5,99.5 Z"/></g>
<g><path style="opacity:1" fill="#1c63de" d="M 221.5,93.5 C 221.432,99.3888 218.765,103.555 213.5,106C 208.167,106.333 202.833,106.667 197.5,107C 189.901,110.579 183.401,115.746 178,122.5C 173.985,129.736 169.152,136.236 163.5,142C 151.58,145.704 143.247,141.871 138.5,130.5C 137.828,131.949 137.161,133.282 136.5,134.5C 136.5,133.833 136.5,133.167 136.5,132.5C 136.5,131.5 136.5,130.5 136.5,129.5C 137.158,128.602 137.824,127.602 138.5,126.5C 139.134,128.772 140.468,130.439 142.5,131.5C 143.262,133.262 144.596,134.262 146.5,134.5C 146.973,135.906 147.973,136.573 149.5,136.5C 149.611,137.117 149.944,137.617 150.5,138C 153.696,138.805 156.696,138.638 159.5,137.5C 160.609,137.443 161.609,137.11 162.5,136.5C 164.404,136.262 165.738,135.262 166.5,133.5C 169.652,131.684 171.652,129.017 172.5,125.5C 173.401,124.71 174.068,123.71 174.5,122.5C 179.5,116.833 184.833,111.5 190.5,106.5C 193.119,106.075 195.453,105.075 197.5,103.5C 200.727,103.324 203.727,102.657 206.5,101.5C 209.385,101.806 212.052,101.473 214.5,100.5C 216.027,100.573 217.027,99.9063 217.5,98.5C 218.5,98.1667 219.167,97.5 219.5,96.5C 220.167,95.5 220.833,94.5 221.5,93.5 Z"/></g>
<g><path style="opacity:1" fill="#93baff" d="M 80.5,103.5 C 80.8333,103.5 81.1667,103.5 81.5,103.5C 81.4431,104.609 81.1098,105.609 80.5,106.5C 80.1667,106.5 79.8333,106.5 79.5,106.5C 79.5569,105.391 79.8902,104.391 80.5,103.5 Z"/></g>
<g><path style="opacity:1" fill="#8fafec" d="M 197.5,102.5 C 197.5,102.833 197.5,103.167 197.5,103.5C 195.453,105.075 193.119,106.075 190.5,106.5C 191.855,103.482 194.188,102.149 197.5,102.5 Z"/></g>
<g><path style="opacity:1" fill="#aac5f6" d="M 108.5,104.5 C 105.805,107.526 103.138,110.526 100.5,113.5C 101.768,109.233 104.435,106.233 108.5,104.5 Z"/></g>
<g><path style="opacity:1" fill="#acc6f7" d="M 143.5,102.5 C 142.683,105.619 141.683,108.619 140.5,111.5C 140.167,111.5 139.833,111.5 139.5,111.5C 139.343,110.127 139.51,108.793 140,107.5C 140.902,105.569 142.069,103.903 143.5,102.5 Z"/></g>
<g><path style="opacity:1" fill="#5e96ff" d="M 80.5,103.5 C 79.8902,104.391 79.5569,105.391 79.5,106.5C 78.2804,108.282 77.6138,110.282 77.5,112.5C 76.8333,112.5 76.5,112.833 76.5,113.5C 76.1667,113.5 75.8333,113.5 75.5,113.5C 76.1605,109.512 77.8272,106.178 80.5,103.5 Z"/></g>
<g><path style="opacity:1" fill="#9bbbf5" d="M 120.5,106.5 C 120.88,108.698 120.213,110.365 118.5,111.5C 118.12,109.302 118.787,107.635 120.5,106.5 Z"/></g>
<g><path style="opacity:1" fill="#cddfff" d="M 79.5,106.5 C 79.8333,106.5 80.1667,106.5 80.5,106.5C 80.3465,108.97 79.3465,110.97 77.5,112.5C 77.6138,110.282 78.2804,108.282 79.5,106.5 Z"/></g>
<g><path style="opacity:1" fill="#bed2f9" d="M 157.5,110.5 C 157.021,112.889 155.688,114.556 153.5,115.5C 154.136,113.205 155.469,111.539 157.5,110.5 Z"/></g>
<g><path style="opacity:1" fill="#8eb0ec" d="M 190.5,106.5 C 184.833,111.5 179.5,116.833 174.5,122.5C 178.167,115.5 183.5,110.167 190.5,106.5 Z"/></g>
<g><path style="opacity:1" fill="#bed5ff" d="M 75.5,113.5 C 75.8333,113.5 76.1667,113.5 76.5,113.5C 76.8176,116.481 75.8176,118.815 73.5,120.5C 73.6138,118.282 74.2804,116.282 75.5,114.5C 75.5,114.167 75.5,113.833 75.5,113.5 Z"/></g>
<g><path style="opacity:1" fill="#5d97ff" d="M 75.5,114.5 C 74.2804,116.282 73.6138,118.282 73.5,120.5C 72.8333,120.833 72.1667,121.167 71.5,121.5C 71.5741,118.341 72.9074,116.008 75.5,114.5 Z"/></g>
<g><path style="opacity:1" fill="#6091e6" d="M 99.5,117.5 C 99.7709,119.38 99.1042,120.713 97.5,121.5C 97.5569,120.391 97.8902,119.391 98.5,118.5C 98.5,117.833 98.8333,117.5 99.5,117.5 Z"/></g>
<g><path style="opacity:1" fill="#a9c4f7" d="M 152.5,116.5 C 151.221,119.652 148.888,121.652 145.5,122.5C 147.607,120.273 149.94,118.273 152.5,116.5 Z"/></g>
<g><path style="opacity:1" fill="#aac4f0" d="M 98.5,118.5 C 97.8902,119.391 97.5569,120.391 97.5,121.5C 97.5,121.833 97.5,122.167 97.5,122.5C 97.1667,122.5 96.8333,122.5 96.5,122.5C 96.1568,120.517 96.8235,119.183 98.5,118.5 Z"/></g>
<g><path style="opacity:1" fill="#6b99e8" d="M 96.5,122.5 C 96.8333,122.5 97.1667,122.5 97.5,122.5C 97.573,124.027 96.9063,125.027 95.5,125.5C 95.5569,124.391 95.8902,123.391 96.5,122.5 Z"/></g>
<g><path style="opacity:1" fill="#729eed" d="M 139.5,111.5 C 139.833,111.5 140.167,111.5 140.5,111.5C 139.886,115.135 139.552,118.802 139.5,122.5C 140.833,122.5 142.167,122.5 143.5,122.5C 142.791,123.404 141.791,123.737 140.5,123.5C 140.287,126.451 140.954,129.118 142.5,131.5C 140.468,130.439 139.134,128.772 138.5,126.5C 137.824,127.602 137.158,128.602 136.5,129.5C 137.976,123.655 138.976,117.655 139.5,111.5 Z"/></g>
<g><path style="opacity:1" fill="#b2c9f2" d="M 174.5,122.5 C 174.068,123.71 173.401,124.71 172.5,125.5C 172.285,123.821 172.952,122.821 174.5,122.5 Z"/></g>
<g><path style="opacity:1" fill="#94bbff" d="M 44.5,126.5 C 41.1667,126.5 37.8333,126.5 34.5,126.5C 35.4919,124.974 36.9919,124.307 39,124.5C 41.2206,124.393 43.0539,125.06 44.5,126.5 Z"/></g>
<g><path style="opacity:1" fill="#80afff" d="M 71.5,123.5 C 71.573,125.027 70.9063,126.027 69.5,126.5C 69.427,124.973 70.0937,123.973 71.5,123.5 Z"/></g>
<g><path style="opacity:1" fill="#caddff" d="M 73.5,120.5 C 73.3452,123.868 72.0119,126.535 69.5,128.5C 69.5,128.167 69.5,127.833 69.5,127.5C 69.5,127.167 69.5,126.833 69.5,126.5C 70.9063,126.027 71.573,125.027 71.5,123.5C 71.5,122.833 71.5,122.167 71.5,121.5C 72.1667,121.167 72.8333,120.833 73.5,120.5 Z"/></g>
<g><path style="opacity:1" fill="#c4d7f7" d="M 139.5,111.5 C 138.976,117.655 137.976,123.655 136.5,129.5C 136.5,130.5 136.5,131.5 136.5,132.5C 136.167,132.5 135.833,132.5 135.5,132.5C 136.777,125.998 137.61,119.331 138,112.5C 138.383,111.944 138.883,111.611 139.5,111.5 Z"/></g>
<g><path style="opacity:1" fill="#9ebdf6" d="M 116.5,120.5 C 115.921,123.331 114.588,125.664 112.5,127.5C 113.108,124.594 114.441,122.26 116.5,120.5 Z"/></g>
<g><path style="opacity:1" fill="#6097ff" d="M 44.5,126.5 C 46.632,126.554 47.9653,127.554 48.5,129.5C 47.8333,129.167 47.1667,128.833 46.5,128.5C 45.5,128.167 44.8333,127.5 44.5,126.5 Z"/></g>
<g><path style="opacity:1" fill="#99beff" d="M 32.5,127.5 C 31.5,129.167 30.1667,130.5 28.5,131.5C 28.8333,129.167 30.1667,127.833 32.5,127.5 Z"/></g>
<g><path style="opacity:1" fill="#a2bdef" d="M 172.5,125.5 C 171.652,129.017 169.652,131.684 166.5,133.5C 168.186,130.496 170.186,127.83 172.5,125.5 Z"/></g>
<g><path style="opacity:1" fill="#a4bfef" d="M 95.5,125.5 C 95.5,126.167 95.5,126.833 95.5,127.5C 92.614,131.451 90.2807,135.784 88.5,140.5C 86.9806,142.946 85.3139,145.279 83.5,147.5C 86.7611,140.886 89.9278,134.219 93,127.5C 93.7083,126.619 94.5416,125.953 95.5,125.5 Z"/></g>
<g><path style="opacity:1" fill="#9ab8ee" d="M 142.5,131.5 C 144.404,131.738 145.738,132.738 146.5,134.5C 144.596,134.262 143.262,133.262 142.5,131.5 Z"/></g>
<g><path style="opacity:1" fill="#99bdff" d="M 69.5,127.5 C 69.5,127.833 69.5,128.167 69.5,128.5C 69.0713,131.147 67.7379,133.147 65.5,134.5C 66.4676,131.9 67.8009,129.566 69.5,127.5 Z"/></g>
<g><path style="opacity:1" fill="#3574e5" d="M 95.5,127.5 C 94.8333,130.5 94.1667,133.5 93.5,136.5C 91.52,137.474 89.8533,138.807 88.5,140.5C 90.2807,135.784 92.614,131.451 95.5,127.5 Z"/></g>
<g><path style="opacity:1" fill="#bed6ff" d="M 46.5,128.5 C 47.1667,128.833 47.8333,129.167 48.5,129.5C 48.5,130.833 48.5,132.167 48.5,133.5C 48.5,134.167 48.5,134.833 48.5,135.5C 47.5933,133.343 46.9267,131.01 46.5,128.5 Z"/></g>
<g><path style="opacity:1" fill="#c5d6f5" d="M 135.5,132.5 C 134.85,134.435 134.517,136.435 134.5,138.5C 134.5,138.833 134.5,139.167 134.5,139.5C 134.167,139.5 133.833,139.5 133.5,139.5C 133.338,137.473 133.505,135.473 134,133.5C 134.383,132.944 134.883,132.611 135.5,132.5 Z"/></g>
<g><path style="opacity:1" fill="#9bb9ee" d="M 166.5,133.5 C 165.738,135.262 164.404,136.262 162.5,136.5C 162.5,136.167 162.5,135.833 162.5,135.5C 163.605,134.4 164.938,133.733 166.5,133.5 Z"/></g>
<g><path style="opacity:1" fill="#a6c3fa" d="M 28.5,132.5 C 28.6686,137.181 29.0019,141.848 29.5,146.5C 28.8333,144.833 28.1667,143.167 27.5,141.5C 26.8418,140.207 26.5085,138.707 26.5,137C 26.5687,135.014 27.2353,133.514 28.5,132.5 Z"/></g>
<g><path style="opacity:1" fill="#91b2f1" d="M 108.5,134.5 C 104.878,138.536 104.545,142.869 107.5,147.5C 105.31,146.025 103.977,144.025 103.5,141.5C 103.241,137.763 104.907,135.43 108.5,134.5 Z"/></g>
<g><path style="opacity:1" fill="#6294ed" d="M 135.5,132.5 C 135.833,132.5 136.167,132.5 136.5,132.5C 136.5,133.167 136.5,133.833 136.5,134.5C 136.34,136.153 135.674,137.486 134.5,138.5C 134.517,136.435 134.85,134.435 135.5,132.5 Z"/></g>
<g><path style="opacity:1" fill="#cfddf7" d="M 146.5,134.5 C 151.772,135.4 157.105,135.733 162.5,135.5C 162.5,135.833 162.5,136.167 162.5,136.5C 161.609,137.11 160.609,137.443 159.5,137.5C 156.098,137.658 152.764,137.324 149.5,136.5C 147.973,136.573 146.973,135.906 146.5,134.5 Z"/></g>
<g><path style="opacity:1" fill="#80affe" d="M 48.5,133.5 C 50.0739,135.102 50.7406,137.102 50.5,139.5C 49.8333,138.5 49.1667,137.5 48.5,136.5C 48.5,136.167 48.5,135.833 48.5,135.5C 48.5,134.833 48.5,134.167 48.5,133.5 Z"/></g>
<g><path style="opacity:1" fill="#729ee7" d="M 149.5,136.5 C 152.764,137.324 156.098,137.658 159.5,137.5C 156.696,138.638 153.696,138.805 150.5,138C 149.944,137.617 149.611,137.117 149.5,136.5 Z"/></g>
<g><path style="opacity:1" fill="#95bbff" d="M 65.5,134.5 C 64.0538,139.061 61.3871,142.728 57.5,145.5C 55.901,145.768 54.5676,145.434 53.5,144.5C 54.8734,144.657 56.2068,144.49 57.5,144C 60.3038,140.855 62.9704,137.688 65.5,134.5 Z"/></g>
<g><path style="opacity:1" fill="#81afff" d="M 50.5,140.5 C 51.9063,140.973 52.573,141.973 52.5,143.5C 51.0937,143.027 50.427,142.027 50.5,140.5 Z"/></g>
<g><path style="opacity:1" fill="#d0e1ff" d="M 48.5,136.5 C 49.1667,137.5 49.8333,138.5 50.5,139.5C 50.5,139.833 50.5,140.167 50.5,140.5C 50.427,142.027 51.0937,143.027 52.5,143.5C 52.5,144.167 52.8333,144.5 53.5,144.5C 54.5676,145.434 55.901,145.768 57.5,145.5C 51.1904,146.532 48.1904,143.532 48.5,136.5 Z"/></g>
<g><path style="opacity:1" fill="#aac2f0" d="M 131.5,144.5 C 130.89,145.391 130.557,146.391 130.5,147.5C 130.167,148.5 129.5,149.167 128.5,149.5C 128.592,147.152 129.592,145.486 131.5,144.5 Z"/></g>
<g><path style="opacity:1" fill="#4078e1" d="M 88.5,140.5 C 87.8149,145.231 85.4816,148.898 81.5,151.5C 81.5569,150.391 81.8902,149.391 82.5,148.5C 82.5,147.833 82.8333,147.5 83.5,147.5C 85.3139,145.279 86.9806,142.946 88.5,140.5 Z"/></g>
<g><path style="opacity:1" fill="#427be7" d="M 133.5,139.5 C 133.833,139.5 134.167,139.5 134.5,139.5C 134.693,142.811 133.693,145.478 131.5,147.5C 131.167,147.5 130.833,147.5 130.5,147.5C 130.557,146.391 130.89,145.391 131.5,144.5C 132.441,142.95 133.107,141.284 133.5,139.5 Z"/></g>
<g><path style="opacity:1" fill="#749de7" d="M 107.5,147.5 C 109.5,148.833 111.167,150.5 112.5,152.5C 110.589,151.925 108.922,150.925 107.5,149.5C 107.5,148.833 107.5,148.167 107.5,147.5 Z"/></g>
<g><path style="opacity:1" fill="#c5d7f5" d="M 29.5,146.5 C 31.4499,148.43 32.7833,150.763 33.5,153.5C 32.8333,152.833 32.1667,152.167 31.5,151.5C 30.4625,150.07 29.7959,148.403 29.5,146.5 Z"/></g>
<g><path style="opacity:1" fill="#a3beef" d="M 82.5,148.5 C 81.8902,149.391 81.5569,150.391 81.5,151.5C 81.1667,152.167 80.8333,152.833 80.5,153.5C 79.5,154.167 78.5,154.833 77.5,155.5C 78.8516,152.835 80.5182,150.502 82.5,148.5 Z"/></g>
<g><path style="opacity:1" fill="#5a88e3" d="M 31.5,151.5 C 32.1667,152.167 32.8333,152.833 33.5,153.5C 33.5,154.167 33.5,154.833 33.5,155.5C 31.8235,154.817 31.1568,153.483 31.5,151.5 Z"/></g>
<g><path style="opacity:1" fill="#155fdc" d="M 130.5,147.5 C 130.833,147.5 131.167,147.5 131.5,147.5C 130.375,154.497 126.208,158.164 119,158.5C 112.888,158.216 109.055,155.216 107.5,149.5C 108.922,150.925 110.589,151.925 112.5,152.5C 112.5,152.833 112.5,153.167 112.5,153.5C 116.311,154.645 120.311,154.812 124.5,154C 125.056,153.617 125.389,153.117 125.5,152.5C 126.833,151.833 127.833,150.833 128.5,149.5C 129.5,149.167 130.167,148.5 130.5,147.5 Z"/></g>
<g><path style="opacity:1" fill="#5a8ce3" d="M 125.5,152.5 C 125.389,153.117 125.056,153.617 124.5,154C 120.311,154.812 116.311,154.645 112.5,153.5C 115.5,153.5 118.5,153.5 121.5,153.5C 122.833,153.167 124.167,152.833 125.5,152.5 Z"/></g>
<g><path style="opacity:1" fill="#85aaea" d="M 128.5,149.5 C 127.833,150.833 126.833,151.833 125.5,152.5C 124.167,152.833 122.833,153.167 121.5,153.5C 123.566,151.801 125.9,150.468 128.5,149.5 Z"/></g>
<g><path style="opacity:1" fill="#9cbaef" d="M 77.5,155.5 C 77.1667,156.5 76.5,157.167 75.5,157.5C 75.5,156.167 76.1667,155.5 77.5,155.5 Z"/></g>
<g><path style="opacity:1" fill="#2d6fe8" d="M 27.5,141.5 C 28.1667,143.167 28.8333,144.833 29.5,146.5C 29.7959,148.403 30.4625,150.07 31.5,151.5C 31.1568,153.483 31.8235,154.817 33.5,155.5C 35.5136,157.183 37.1802,159.183 38.5,161.5C 38.8333,162.167 39.1667,162.833 39.5,163.5C 38.2022,162.884 37.2022,162.884 36.5,163.5C 34.289,161.456 32.289,159.123 30.5,156.5C 30.1191,153.959 29.2857,151.626 28,149.5C 27.5026,146.854 27.3359,144.187 27.5,141.5 Z"/></g>
<g><path style="opacity:1" fill="#9bbaee" d="M 75.5,157.5 C 75.1667,158.5 74.5,159.167 73.5,159.5C 73.5,158.167 74.1667,157.5 75.5,157.5 Z"/></g>
<g><path style="opacity:1" fill="#9bb9ee" d="M 73.5,159.5 C 73.1667,160.5 72.5,161.167 71.5,161.5C 71.5,160.167 72.1667,159.5 73.5,159.5 Z"/></g>
<g><path style="opacity:1" fill="#3874de" d="M 80.5,153.5 C 78.5,157.5 75.5,160.5 71.5,162.5C 71.5,162.167 71.5,161.833 71.5,161.5C 72.5,161.167 73.1667,160.5 73.5,159.5C 74.5,159.167 75.1667,158.5 75.5,157.5C 76.5,157.167 77.1667,156.5 77.5,155.5C 78.5,154.833 79.5,154.167 80.5,153.5 Z"/></g>
<g><path style="opacity:1" fill="#769fe8" d="M 38.5,161.5 C 40.4044,161.738 41.7377,162.738 42.5,164.5C 41.391,164.443 40.391,164.11 39.5,163.5C 39.1667,162.833 38.8333,162.167 38.5,161.5 Z"/></g>
<g><path style="opacity:1" fill="#a5bff0" d="M 71.5,161.5 C 71.5,161.833 71.5,162.167 71.5,162.5C 69.3968,163.35 67.3968,164.35 65.5,165.5C 66.6338,162.966 68.6338,161.633 71.5,161.5 Z"/></g>
<g><path style="opacity:1" fill="#1661e0" d="M 93.5,136.5 C 87.1949,148.631 79.1949,159.464 69.5,169C 59.0291,174.293 49.0291,173.626 39.5,167C 37.9371,166.241 36.9371,165.074 36.5,163.5C 37.2022,162.884 38.2022,162.884 39.5,163.5C 40.391,164.11 41.391,164.443 42.5,164.5C 42.9731,165.906 43.9731,166.573 45.5,166.5C 47.7432,167.812 50.4098,168.478 53.5,168.5C 56.3555,168.497 59.0221,168.164 61.5,167.5C 63.153,167.34 64.4863,166.674 65.5,165.5C 67.3968,164.35 69.3968,163.35 71.5,162.5C 75.5,160.5 78.5,157.5 80.5,153.5C 80.8333,152.833 81.1667,152.167 81.5,151.5C 85.4816,148.898 87.8149,145.231 88.5,140.5C 89.8533,138.807 91.52,137.474 93.5,136.5 Z"/></g>
<g><path style="opacity:1" fill="#3e7adf" d="M 45.5,166.5 C 46.391,167.11 47.391,167.443 48.5,167.5C 52.8333,167.5 57.1667,167.5 61.5,167.5C 59.0221,168.164 56.3555,168.497 53.5,168.5C 50.4098,168.478 47.7432,167.812 45.5,166.5 Z"/></g>
<g><path style="opacity:1" fill="#bed2f4" d="M 44.5,164.5 C 49.9448,166.207 55.6114,166.874 61.5,166.5C 61.5,166.833 61.5,167.167 61.5,167.5C 57.1667,167.5 52.8333,167.5 48.5,167.5C 47.4097,166.143 46.0764,165.143 44.5,164.5 Z"/></g>
<g><path style="opacity:1" fill="#6d99e6" d="M 42.5,164.5 C 43.1667,164.5 43.8333,164.5 44.5,164.5C 46.0764,165.143 47.4097,166.143 48.5,167.5C 47.391,167.443 46.391,167.11 45.5,166.5C 43.9731,166.573 42.9731,165.906 42.5,164.5 Z"/></g>
<g><path style="opacity:1" fill="#6d99e6" d="M 65.5,165.5 C 64.4863,166.674 63.153,167.34 61.5,167.5C 61.5,167.167 61.5,166.833 61.5,166.5C 62.5676,165.566 63.901,165.232 65.5,165.5 Z"/></g>
</svg>
