<?xml version="1.0" encoding="UTF-8"?>
<!DOCTYPE svg PUBLIC "-//W3C//DTD SVG 1.1//EN" "http://www.w3.org/Graphics/SVG/1.1/DTD/svg11.dtd">
<svg xmlns="http://www.w3.org/2000/svg" version="1.1" width="2000px" height="2000px" style="shape-rendering:geometricPrecision; text-rendering:geometricPrecision; image-rendering:optimizeQuality; fill-rule:evenodd; clip-rule:evenodd" xmlns:xlink="http://www.w3.org/1999/xlink">
<g><path style="opacity:0.999" fill="#7866d5" d="M 956.5,-0.5 C 985.833,-0.5 1015.17,-0.5 1044.5,-0.5C 1298.13,14.3601 1516.47,108.86 1699.5,283C 1878.3,461.482 1978.3,677.316 1999.5,930.5C 1999.5,976.833 1999.5,1023.17 1999.5,1069.5C 1977.97,1328.03 1874.64,1547.19 1689.5,1727C 1514.96,1889.08 1308.3,1979.91 1069.5,1999.5C 1023.5,1999.5 977.5,1999.5 931.5,1999.5C 678.006,1978.36 461.839,1878.36 283,1699.5C 108.866,1516.48 14.3662,1298.14 -0.5,1044.5C -0.5,1014.83 -0.5,985.167 -0.5,955.5C 15.9243,685.493 120.924,456.993 314.5,270C 495.686,103.935 709.686,13.7681 956.5,-0.5 Z"/></g>
<g><path style="opacity:1" fill="#fefefe" d="M 597.5,889.5 C 596.517,893.298 596.183,897.298 596.5,901.5C 905.167,901.5 1213.83,901.5 1522.5,901.5C 1559.74,902.351 1587.57,918.684 1606,950.5C 1615.02,970.926 1618.02,992.26 1615,1014.5C 1614.12,1030.66 1612.12,1046.66 1609,1062.5C 1598.75,1089.4 1579.59,1106.57 1551.5,1114C 1542.63,1116.24 1533.63,1117.57 1524.5,1118C 1215.17,1118.5 905.834,1118.67 596.5,1118.5C 597.11,1155.27 602.61,1191.27 613,1226.5C 626.611,1259.44 650.445,1281.28 684.5,1292C 735.147,1306.12 786.813,1313.12 839.5,1313C 1067.83,1314.28 1296.16,1314.95 1524.5,1315C 1575.7,1318.87 1606.2,1346.03 1616,1396.5C 1622.13,1457.1 1597.63,1499.93 1542.5,1525C 1518.66,1532.72 1494.32,1538.39 1469.5,1542C 1444.21,1544.55 1418.88,1546.55 1393.5,1548C 1220.17,1548.67 1046.83,1548.67 873.5,1548C 824.481,1547.28 775.481,1545.94 726.5,1544C 668.552,1539.84 611.552,1530.18 555.5,1515C 506.626,1501.9 463.293,1478.9 425.5,1446C 387.02,1408.46 360.52,1363.62 346,1311.5C 339.095,1285.51 333.762,1259.18 330,1232.5C 327.791,1208.11 325.124,1183.78 322,1159.5C 321.333,1066.83 321.333,974.167 322,881.5C 325.502,848.814 329.169,816.148 333,783.5C 339.614,736.325 354.614,691.992 378,650.5C 404.518,606.98 440.352,573.48 485.5,550C 542.107,522.263 601.774,504.93 664.5,498C 699.472,494.087 734.472,490.42 769.5,487C 983.5,486.333 1197.5,486.333 1411.5,487C 1443.99,489.243 1476.33,492.91 1508.5,498C 1595.1,512.307 1628.93,562.474 1610,648.5C 1600.45,683.384 1577.95,704.551 1542.5,712C 1529.89,713.861 1517.22,715.194 1504.5,716C 1271.5,717.745 1038.5,719.079 805.5,720C 767.547,721.658 730.214,727.324 693.5,737C 647.185,749.648 618.018,779.148 606,825.5C 600.871,846.532 598.038,867.865 597.5,889.5 Z"/></g>
<g><path style="opacity:1" fill="#8170d8" d="M 597.5,889.5 C 597.5,893.167 597.5,896.833 597.5,900.5C 906,900.167 1214.33,900.5 1522.5,901.5C 1213.83,901.5 905.167,901.5 596.5,901.5C 596.183,897.298 596.517,893.298 597.5,889.5 Z"/></g>
</svg>
