<?xml version="1.0" encoding="UTF-8"?>
<!DOCTYPE svg PUBLIC "-//W3C//DTD SVG 1.1//EN" "http://www.w3.org/Graphics/SVG/1.1/DTD/svg11.dtd">
<svg xmlns="http://www.w3.org/2000/svg" version="1.1" width="200px" height="200px" style="shape-rendering:geometricPrecision; text-rendering:geometricPrecision; image-rendering:optimizeQuality; fill-rule:evenodd; clip-rule:evenodd" xmlns:xlink="http://www.w3.org/1999/xlink">
<g><path style="opacity:0.075" fill="#fefffe" d="M -0.5,-0.5 C -0.166667,-0.5 0.166667,-0.5 0.5,-0.5C 0.31468,0.170143 -0.0186536,0.170143 -0.5,-0.5 Z"/></g>
<g><path style="opacity:0.004" fill="#a1fffe" d="M 1.5,-0.5 C 1.83333,-0.5 2.16667,-0.5 2.5,-0.5C 2.31468,0.170143 1.98135,0.170143 1.5,-0.5 Z"/></g>
<g><path style="opacity:0.004" fill="#a1fffe" d="M 196.5,-0.5 C 196.833,-0.5 197.167,-0.5 197.5,-0.5C 197.315,0.170143 196.981,0.170143 196.5,-0.5 Z"/></g>
<g><path style="opacity:0.075" fill="#fefffe" d="M 198.5,-0.5 C 198.833,-0.5 199.167,-0.5 199.5,-0.5C 199.5,-0.166667 199.5,0.166667 199.5,0.5C 199.167,0.166667 198.833,-0.166667 198.5,-0.5 Z"/></g>
<g><path style="opacity:0.004" fill="#a1fffe" d="M -0.5,1.5 C 0.833333,2.16667 0.833333,2.16667 -0.5,1.5 Z"/></g>
<g><path style="opacity:0.004" fill="#a1fffe" d="M 199.5,1.5 C 199.5,1.83333 199.5,2.16667 199.5,2.5C 198.83,2.01865 198.83,1.68532 199.5,1.5 Z"/></g>
<g><path style="opacity:0.999" fill="#004b6a" d="M 126.5,7.5 C 146.484,14.5267 162.484,25.6933 174.5,41C 175.552,42.1192 176.719,42.6192 178,42.5C 184.418,51.3351 189.251,61.0018 192.5,71.5C 192.167,72.8333 191.833,74.1667 191.5,75.5C 194.049,87.0244 195.049,98.6911 194.5,110.5C 193.532,112.607 193.198,114.941 193.5,117.5C 192.549,118.919 192.216,120.585 192.5,122.5C 191.566,123.568 191.232,124.901 191.5,126.5C 190.596,127.209 190.263,128.209 190.5,129.5C 189.596,130.209 189.263,131.209 189.5,132.5C 188.167,133.167 188.167,133.833 189.5,134.5C 188.572,138.362 187.072,142.029 185,145.5C 182.301,150.256 179.134,154.589 175.5,158.5C 175.167,157.167 174.833,157.167 174.5,158.5C 173.167,158.833 173.167,159.167 174.5,159.5C 173.92,161.749 172.587,163.415 170.5,164.5C 170.167,163.167 169.833,163.167 169.5,164.5C 168.833,164.5 168.5,164.833 168.5,165.5C 167.833,165.5 167.5,165.833 167.5,166.5C 166.833,166.5 166.5,166.833 166.5,167.5C 165.833,167.5 165.5,167.833 165.5,168.5C 164.833,168.5 164.5,168.833 164.5,169.5C 163.833,169.5 163.5,169.833 163.5,170.5C 162.833,170.5 162.5,170.833 162.5,171.5C 161.167,171.833 161.167,172.167 162.5,172.5C 162.027,173.906 161.027,174.573 159.5,174.5C 159.167,173.167 158.833,173.167 158.5,174.5C 157.833,174.5 157.5,174.833 157.5,175.5C 156.833,175.5 156.5,175.833 156.5,176.5C 155.508,176.328 154.842,176.662 154.5,177.5C 153.833,177.5 153.5,177.833 153.5,178.5C 152.508,178.328 151.842,178.662 151.5,179.5C 150.833,179.5 150.5,179.833 150.5,180.5C 149.508,180.328 148.842,180.662 148.5,181.5C 147.833,181.5 147.5,181.833 147.5,182.5C 146.508,182.328 145.842,182.662 145.5,183.5C 144.508,183.328 143.842,183.662 143.5,184.5C 142.508,184.328 141.842,184.662 141.5,185.5C 140.508,185.328 139.842,185.662 139.5,186.5C 138.508,186.328 137.842,186.662 137.5,187.5C 136.508,187.328 135.842,187.662 135.5,188.5C 134.209,188.263 133.209,188.596 132.5,189.5C 125.724,191.194 119.057,192.861 112.5,194.5C 78.9,197.163 51.0667,187.163 29,164.5C 27.8525,165.458 26.8525,165.125 26,163.5C 25.3828,162.551 25.5494,161.718 26.5,161C 25.2566,158.966 23.7566,158.133 22,158.5C 21.3828,157.551 21.5494,156.718 22.5,156C 21.4479,154.881 20.2812,154.381 19,154.5C 17.9055,152.922 17.0722,151.255 16.5,149.5C 17.8333,148.833 17.8333,148.167 16.5,147.5C 16.1667,146.167 15.8333,146.167 15.5,147.5C 12.4598,144.086 10.4598,140.086 9.5,135.5C 10.8333,134.833 10.8333,134.167 9.5,133.5C 9.73731,132.209 9.40397,131.209 8.5,130.5C 8.73731,129.209 8.40397,128.209 7.5,127.5C 7.73731,126.209 7.40397,125.209 6.5,124.5C 6.76781,122.901 6.43448,121.568 5.5,120.5C 5.78448,118.585 5.45115,116.919 4.5,115.5C 4.81,112.287 4.47667,109.287 3.5,106.5C 3.59621,98.8207 3.92954,91.154 4.5,83.5C 6.05671,77.1569 8.05671,70.8235 10.5,64.5C 10.0688,63.7065 9.73546,62.8732 9.5,62C 12.4395,54.6164 16.2729,47.7831 21,41.5C 22.3619,40.0753 23.8619,39.242 25.5,39C 24.3322,37.1291 24.8322,35.6291 27,34.5C 27.3333,34.8333 27.6667,35.1667 28,35.5C 55.3989,7.60423 88.2322,-1.7291 126.5,7.5 Z M 150.5,35.5 C 151.386,34.2241 152.386,34.2241 153.5,35.5C 152.767,36.087 151.767,36.087 150.5,35.5 Z M 150.5,53.5 C 152.162,85.6501 151.829,117.65 149.5,149.5C 147.833,149.5 146.167,149.5 144.5,149.5C 144.082,148.778 143.416,148.278 142.5,148C 143.495,119.24 143.829,90.4072 143.5,61.5C 142.599,60.7095 141.932,59.7095 141.5,58.5C 142.38,57.4687 141.88,56.802 140,56.5C 138.775,56.8623 137.609,57.3623 136.5,58C 137.094,58.4643 137.761,58.631 138.5,58.5C 137.5,59.1667 136.5,59.8333 135.5,60.5C 134.502,90.6621 134.169,120.995 134.5,151.5C 123.162,151.667 111.828,151.5 100.5,151C 97.9644,150.814 95.631,150.314 93.5,149.5C 95.8568,149.663 98.1902,149.497 100.5,149C 96.6609,148.764 92.9942,147.931 89.5,146.5C 102.167,145.833 114.833,145.167 127.5,144.5C 128.5,144.167 129.167,143.5 129.5,142.5C 130.498,113.005 130.831,83.338 130.5,53.5C 137.167,53.5 143.833,53.5 150.5,53.5 Z M 101.5,72.5 C 107.167,72.5 112.833,72.5 118.5,72.5C 118.5,94.1667 118.5,115.833 118.5,137.5C 117.5,137.5 116.5,137.5 115.5,137.5C 114.503,118.341 114.17,99.0072 114.5,79.5C 113.167,78.8333 111.833,78.1667 110.5,77.5C 111.239,77.631 111.906,77.4643 112.5,77C 108.894,74.7016 106.227,75.535 104.5,79.5C 103.503,98.6595 103.17,117.993 103.5,137.5C 92.495,137.333 81.495,137.5 70.5,138C 82.1667,138.333 93.8333,138.667 105.5,139C 93.5,139.667 81.5,139.667 69.5,139C 68.5842,138.722 67.9175,138.222 67.5,137.5C 68.2389,137.631 68.9056,137.464 69.5,137C 67.5932,135.878 65.5932,135.045 63.5,134.5C 74.6593,133.669 85.9926,133.169 97.5,133C 84.3268,132.173 71.3268,132.34 58.5,133.5C 57.0783,133.291 55.745,132.791 54.5,132C 69.6723,131.831 84.6723,131.331 99.5,130.5C 100.167,111.167 100.833,91.8333 101.5,72.5 Z M 17.5,86.5 C 18.7666,85.913 19.7666,85.913 20.5,86.5C 19.3864,87.7759 18.3864,87.7759 17.5,86.5 Z M 89.5,90.5 C 82.3134,90.1755 75.3134,90.5088 68.5,91.5C 67.9569,91.44 67.6236,91.1067 67.5,90.5C 74.9898,89.1806 82.3231,89.1806 89.5,90.5 Z M 69.5,91.5 C 75.5,91.5 81.5,91.5 87.5,91.5C 87.5,102.833 87.5,114.167 87.5,125.5C 86.5,125.5 85.5,125.5 84.5,125.5C 84.8266,116.318 84.4933,107.318 83.5,98.5C 80.8266,93.7366 77.8266,93.4033 74.5,97.5C 73.6618,97.8417 73.3284,98.5084 73.5,99.5C 72.507,107.984 72.1736,116.651 72.5,125.5C 63.5,125.5 54.5,125.5 45.5,125.5C 43.7857,124.262 41.7857,123.595 39.5,123.5C 48.5,122.833 57.5,122.167 66.5,121.5C 67.1667,121.5 67.5,121.167 67.5,120.5C 68.3382,120.158 68.6716,119.492 68.5,118.5C 69.4933,109.682 69.8266,100.682 69.5,91.5 Z M 66.5,120.5 C 66.5,120.833 66.5,121.167 66.5,121.5C 55.4484,121.189 44.4484,121.522 33.5,122.5C 32.5,122 31.5,121.5 30.5,121C 42.4954,120.5 54.4954,120.333 66.5,120.5 Z M 127.5,143.5 C 127.5,143.833 127.5,144.167 127.5,144.5C 112.99,144.171 98.6569,144.504 84.5,145.5C 83.0783,145.291 81.745,144.791 80.5,144C 96.1631,143.5 111.83,143.333 127.5,143.5 Z"/></g>
<g><path style="opacity:0.016" fill="#224a9e" d="M 126.5,7.5 C 127.251,6.42654 128.251,6.25988 129.5,7C 128.552,7.48278 127.552,7.64945 126.5,7.5 Z"/></g>
<g><path style="opacity:0.008" fill="#171e69" d="M 130.5,8.5 C 130.897,7.47498 131.563,7.30831 132.5,8C 131.906,8.46434 131.239,8.63101 130.5,8.5 Z"/></g>
<g><path style="opacity:0.024" fill="#084949" d="M 138.5,27.5 C 139.5,27.5 140.5,27.5 141.5,27.5C 141.5,28.1667 141.5,28.8333 141.5,29.5C 140.5,29.5 139.5,29.5 138.5,29.5C 138.5,28.8333 138.5,28.1667 138.5,27.5 Z"/></g>
<g><path style="opacity:0.016" fill="#004242" d="M 128.5,53.5 C 128.5,53.1667 128.5,52.8333 128.5,52.5C 135.833,52.5 143.167,52.5 150.5,52.5C 150.5,52.8333 150.5,53.1667 150.5,53.5C 143.833,53.5 137.167,53.5 130.5,53.5C 130.831,83.338 130.498,113.005 129.5,142.5C 129.831,112.662 129.498,82.9953 128.5,53.5 Z"/></g>
<g><path style="opacity:0.021" fill="#1c506c" d="M 168.5,57.5 C 169.5,57.5 170.5,57.5 171.5,57.5C 171.5,58.1667 171.5,58.8333 171.5,59.5C 170.5,59.5 169.5,59.5 168.5,59.5C 168.5,58.8333 168.5,58.1667 168.5,57.5 Z"/></g>
<g><path style="opacity:0.024" fill="#144971" d="M 174.5,70.5 C 175.5,70.5 176.5,70.5 177.5,70.5C 177.5,71.1667 177.5,71.8333 177.5,72.5C 176.5,72.5 175.5,72.5 174.5,72.5C 174.5,71.8333 174.5,71.1667 174.5,70.5 Z"/></g>
<g><path style="opacity:0.016" fill="#004949" d="M 101.5,72.5 C 101.5,72.1667 101.5,71.8333 101.5,71.5C 107.833,71.5 114.167,71.5 120.5,71.5C 120.5,71.8333 120.5,72.1667 120.5,72.5C 119.503,93.9936 119.169,115.66 119.5,137.5C 119.167,137.5 118.833,137.5 118.5,137.5C 118.5,115.833 118.5,94.1667 118.5,72.5C 112.833,72.5 107.167,72.5 101.5,72.5 Z"/></g>
<g><path style="opacity:0.008" fill="#11505b" d="M 4.5,83.5 C 3.38705,82.0536 3.22039,80.3869 4,78.5C 4.49351,80.1341 4.66018,81.8008 4.5,83.5 Z"/></g>
<g><path style="opacity:0.016" fill="#013f80" d="M 113.5,79.5 C 113.833,79.5 114.167,79.5 114.5,79.5C 114.17,99.0072 114.503,118.341 115.5,137.5C 115.5,137.833 115.5,138.167 115.5,138.5C 114.833,138.5 114.167,138.5 113.5,138.5C 113.5,118.833 113.5,99.1667 113.5,79.5 Z"/></g>
<g><path style="opacity:0.016" fill="#033e81" d="M 68.5,91.5 C 75.3134,90.5088 82.3134,90.1755 89.5,90.5C 89.5,90.8333 89.5,91.1667 89.5,91.5C 88.1667,102.833 88.1667,114.167 89.5,125.5C 89.5,125.833 89.5,126.167 89.5,126.5C 88.8333,126.5 88.1667,126.5 87.5,126.5C 87.5,126.167 87.5,125.833 87.5,125.5C 87.5,114.167 87.5,102.833 87.5,91.5C 81.5,91.5 75.5,91.5 69.5,91.5C 69.1667,91.5 68.8333,91.5 68.5,91.5 Z"/></g>
<g><path style="opacity:0.012" fill="#154550" d="M 195.5,110.5 C 195.334,103.492 195.5,96.4921 196,89.5C 196.821,96.6791 196.655,103.679 195.5,110.5 Z"/></g>
<g><path style="opacity:0.018" fill="#15516b" d="M 179.5,98.5 C 180.5,98.5 181.5,98.5 182.5,98.5C 182.5,99.1667 182.5,99.8333 182.5,100.5C 181.5,100.5 180.5,100.5 179.5,100.5C 179.5,99.8333 179.5,99.1667 179.5,98.5 Z"/></g>
<g><path style="opacity:0.016" fill="#17476d" d="M 3.5,106.5 C 3.66409,109.187 3.49742,111.854 3,114.5C 2.19927,111.633 2.36594,108.966 3.5,106.5 Z"/></g>
<g><path style="opacity:0.016" fill="#163359" d="M 194.5,110.5 C 194.833,110.5 195.167,110.5 195.5,110.5C 195.802,113.059 195.468,115.393 194.5,117.5C 194.5,115.167 194.5,112.833 194.5,110.5 Z"/></g>
<g><path style="opacity:0.008" fill="#12505c" d="M 4.5,115.5 C 4.5,117.167 4.5,118.833 4.5,120.5C 3.16667,118.833 3.16667,117.167 4.5,115.5 Z"/></g>
<g><path style="opacity:0.008" fill="#135360" d="M 193.5,117.5 C 193.833,117.5 194.167,117.5 194.5,117.5C 194.784,119.415 194.451,121.081 193.5,122.5C 193.5,120.833 193.5,119.167 193.5,117.5 Z"/></g>
<g><path style="opacity:0.016" fill="#14435c" d="M 4.5,120.5 C 4.83333,120.5 5.16667,120.5 5.5,120.5C 5.5,121.833 5.5,123.167 5.5,124.5C 4.56552,123.432 4.23219,122.099 4.5,120.5 Z"/></g>
<g><path style="opacity:0.016" fill="#14435c" d="M 192.5,122.5 C 192.833,122.5 193.167,122.5 193.5,122.5C 193.768,124.099 193.434,125.432 192.5,126.5C 192.5,125.167 192.5,123.833 192.5,122.5 Z"/></g>
<g><path style="opacity:0.016" fill="#113fa8" d="M 5.5,124.5 C 5.83333,124.5 6.16667,124.5 6.5,124.5C 6.5,125.5 6.5,126.5 6.5,127.5C 5.59603,126.791 5.26269,125.791 5.5,124.5 Z"/></g>
<g><path style="opacity:0.02" fill="#154f6d" d="M 174.5,126.5 C 175.5,126.5 176.5,126.5 177.5,126.5C 177.5,127.167 177.5,127.833 177.5,128.5C 176.5,128.5 175.5,128.5 174.5,128.5C 174.5,127.833 174.5,127.167 174.5,126.5 Z"/></g>
<g><path style="opacity:0.012" fill="#133a72" d="M 191.5,126.5 C 191.833,126.5 192.167,126.5 192.5,126.5C 192.737,127.791 192.404,128.791 191.5,129.5C 191.5,128.5 191.5,127.5 191.5,126.5 Z"/></g>
<g><path style="opacity:0.016" fill="#19427f" d="M 6.5,127.5 C 6.83333,127.5 7.16667,127.5 7.5,127.5C 7.5,128.5 7.5,129.5 7.5,130.5C 6.59603,129.791 6.26269,128.791 6.5,127.5 Z"/></g>
<g><path style="opacity:0.012" fill="#0c4040" d="M 190.5,129.5 C 190.833,129.5 191.167,129.5 191.5,129.5C 191.737,130.791 191.404,131.791 190.5,132.5C 190.5,131.5 190.5,130.5 190.5,129.5 Z"/></g>
<g><path style="opacity:0.004" fill="#000000" d="M 199.5,130.5 C 199.5,130.833 199.5,131.167 199.5,131.5C 198.83,131.019 198.83,130.685 199.5,130.5 Z"/></g>
<g><path style="opacity:0.016" fill="#163f5e" d="M 7.5,130.5 C 7.83333,130.5 8.16667,130.5 8.5,130.5C 8.5,131.5 8.5,132.5 8.5,133.5C 7.59603,132.791 7.26269,131.791 7.5,130.5 Z"/></g>
<g><path style="opacity:0.004" fill="#000000" d="M -0.5,132.5 C 0.833333,133.167 0.833333,133.167 -0.5,132.5 Z"/></g>
<g><path style="opacity:0.004" fill="#122b32" d="M 58.5,133.5 C 71.3268,132.34 84.3268,132.173 97.5,133C 85.9926,133.169 74.6593,133.669 63.5,134.5C 62.5,134.5 61.5,134.5 60.5,134.5C 60.1583,133.662 59.4916,133.328 58.5,133.5 Z"/></g>
<g><path style="opacity:0.012" fill="#004d4d" d="M 189.5,132.5 C 189.833,132.5 190.167,132.5 190.5,132.5C 190.672,133.492 190.338,134.158 189.5,134.5C 189.5,133.833 189.5,133.167 189.5,132.5 Z"/></g>
<g><path style="opacity:0.012" fill="#0f5570" d="M 8.5,133.5 C 8.83333,133.5 9.16667,133.5 9.5,133.5C 9.5,134.167 9.5,134.833 9.5,135.5C 8.66175,135.158 8.32842,134.492 8.5,133.5 Z"/></g>
<g><path style="opacity:0.016" fill="#084242" d="M 168.5,139.5 C 169.5,139.5 170.5,139.5 171.5,139.5C 171.5,140.167 171.5,140.833 171.5,141.5C 170.5,141.5 169.5,141.5 168.5,141.5C 168.5,140.833 168.5,140.167 168.5,139.5 Z"/></g>
<g><path style="opacity:0.016" fill="#10446e" d="M 84.5,145.5 C 98.6569,144.504 112.99,144.171 127.5,144.5C 114.833,145.167 102.167,145.833 89.5,146.5C 88.5,146.5 87.5,146.5 86.5,146.5C 86.1583,145.662 85.4916,145.328 84.5,145.5 Z"/></g>
<g><path style="opacity:0.008" fill="#007070" d="M 15.5,147.5 C 15.8333,147.5 16.1667,147.5 16.5,147.5C 16.5,148.167 16.5,148.833 16.5,149.5C 15.6618,149.158 15.3284,148.492 15.5,147.5 Z"/></g>
<g><path style="opacity:0.016" fill="#003e7f" d="M 174.5,158.5 C 174.833,158.5 175.167,158.5 175.5,158.5C 175.315,159.17 174.981,159.17 174.5,158.5 Z"/></g>
<g><path style="opacity:0.008" fill="#007f7e" d="M 169.5,164.5 C 169.833,164.5 170.167,164.5 170.5,164.5C 170.315,165.17 169.981,165.17 169.5,164.5 Z"/></g>
<g><path style="opacity:0.012" fill="#005554" d="M 168.5,165.5 C 168.833,165.5 169.167,165.5 169.5,165.5C 169.315,166.17 168.981,166.17 168.5,165.5 Z"/></g>
<g><path style="opacity:0.012" fill="#005554" d="M 167.5,166.5 C 167.833,166.5 168.167,166.5 168.5,166.5C 168.315,167.17 167.981,167.17 167.5,166.5 Z"/></g>
<g><path style="opacity:0.012" fill="#005554" d="M 166.5,167.5 C 166.833,167.5 167.167,167.5 167.5,167.5C 167.315,168.17 166.981,168.17 166.5,167.5 Z"/></g>
<g><path style="opacity:0.012" fill="#005554" d="M 165.5,168.5 C 165.833,168.5 166.167,168.5 166.5,168.5C 166.315,169.17 165.981,169.17 165.5,168.5 Z"/></g>
<g><path style="opacity:0.012" fill="#005554" d="M 164.5,169.5 C 164.833,169.5 165.167,169.5 165.5,169.5C 165.315,170.17 164.981,170.17 164.5,169.5 Z"/></g>
<g><path style="opacity:0.012" fill="#005554" d="M 163.5,170.5 C 163.833,170.5 164.167,170.5 164.5,170.5C 164.315,171.17 163.981,171.17 163.5,170.5 Z"/></g>
<g><path style="opacity:0.008" fill="#007f7e" d="M 162.5,171.5 C 162.833,171.5 163.167,171.5 163.5,171.5C 163.315,172.17 162.981,172.17 162.5,171.5 Z"/></g>
<g><path style="opacity:0.016" fill="#003e7f" d="M 158.5,174.5 C 158.833,174.5 159.167,174.5 159.5,174.5C 159.315,175.17 158.981,175.17 158.5,174.5 Z"/></g>
<g><path style="opacity:0.012" fill="#005554" d="M 157.5,175.5 C 157.833,175.5 158.167,175.5 158.5,175.5C 158.315,176.17 157.981,176.17 157.5,175.5 Z"/></g>
<g><path style="opacity:0.008" fill="#007f7e" d="M 156.5,176.5 C 156.833,176.5 157.167,176.5 157.5,176.5C 157.315,177.17 156.981,177.17 156.5,176.5 Z"/></g>
<g><path style="opacity:0.004" fill="#0e1f1f" d="M 154.5,178.5 C 154.5,178.167 154.5,177.833 154.5,177.5C 155.167,177.5 155.833,177.5 156.5,177.5C 156.158,178.338 155.492,178.672 154.5,178.5 Z"/></g>
<g><path style="opacity:0.016" fill="#003f3e" d="M 153.5,178.5 C 153.833,178.5 154.167,178.5 154.5,178.5C 154.315,179.17 153.981,179.17 153.5,178.5 Z"/></g>
<g><path style="opacity:0.008" fill="#145353" d="M 151.5,180.5 C 151.5,180.167 151.5,179.833 151.5,179.5C 152.167,179.5 152.833,179.5 153.5,179.5C 153.158,180.338 152.492,180.672 151.5,180.5 Z"/></g>
<g><path style="opacity:0.016" fill="#003f3e" d="M 150.5,180.5 C 150.833,180.5 151.167,180.5 151.5,180.5C 151.315,181.17 150.981,181.17 150.5,180.5 Z"/></g>
<g><path style="opacity:0.008" fill="#45a7a7" d="M 148.5,182.5 C 148.5,182.167 148.5,181.833 148.5,181.5C 149.167,181.5 149.833,181.5 150.5,181.5C 150.158,182.338 149.492,182.672 148.5,182.5 Z"/></g>
<g><path style="opacity:0.012" fill="#005554" d="M 147.5,182.5 C 147.833,182.5 148.167,182.5 148.5,182.5C 148.315,183.17 147.981,183.17 147.5,182.5 Z"/></g>
<g><path style="opacity:0.004" fill="#0e1f1f" d="M 145.5,184.5 C 145.5,184.167 145.5,183.833 145.5,183.5C 146.167,183.5 146.833,183.5 147.5,183.5C 147.158,184.338 146.492,184.672 145.5,184.5 Z"/></g>
<g><path style="opacity:0.008" fill="#007f7e" d="M 143.5,185.5 C 143.5,185.167 143.5,184.833 143.5,184.5C 144.167,184.5 144.833,184.5 145.5,184.5C 145.158,185.338 144.492,185.672 143.5,185.5 Z"/></g>
<g><path style="opacity:0.012" fill="#3c8989" d="M 141.5,186.5 C 141.5,186.167 141.5,185.833 141.5,185.5C 142.167,185.5 142.833,185.5 143.5,185.5C 143.158,186.338 142.492,186.672 141.5,186.5 Z"/></g>
<g><path style="opacity:0.012" fill="#0e3939" d="M 139.5,187.5 C 139.5,187.167 139.5,186.833 139.5,186.5C 140.167,186.5 140.833,186.5 141.5,186.5C 141.158,187.338 140.492,187.672 139.5,187.5 Z"/></g>
<g><path style="opacity:0.012" fill="#005554" d="M 137.5,188.5 C 137.5,188.167 137.5,187.833 137.5,187.5C 138.167,187.5 138.833,187.5 139.5,187.5C 139.158,188.338 138.492,188.672 137.5,188.5 Z"/></g>
<g><path style="opacity:0.008" fill="#11697f" d="M 135.5,189.5 C 135.5,189.167 135.5,188.833 135.5,188.5C 136.167,188.5 136.833,188.5 137.5,188.5C 137.158,189.338 136.492,189.672 135.5,189.5 Z"/></g>
<g><path style="opacity:0.012" fill="#0e4949" d="M 132.5,190.5 C 132.5,190.167 132.5,189.833 132.5,189.5C 133.5,189.5 134.5,189.5 135.5,189.5C 134.791,190.404 133.791,190.737 132.5,190.5 Z"/></g>
<g><path style="opacity:0.008" fill="#171e69" d="M 132.5,190.5 C 132.103,191.525 131.437,191.692 130.5,191C 131.094,190.536 131.761,190.369 132.5,190.5 Z"/></g>
<g><path style="opacity:0.008" fill="#164957" d="M 112.5,195.5 C 112.5,195.167 112.5,194.833 112.5,194.5C 120.5,194.833 120.5,195.167 112.5,195.5 Z"/></g>
<g><path style="opacity:0.012" fill="#114a61" d="M 112.5,195.5 C 104.01,196.657 95.3433,196.824 86.5,196C 95.1603,195.5 103.827,195.334 112.5,195.5 Z"/></g>
<g><path style="opacity:0.004" fill="#a1fffe" d="M -0.5,196.5 C 0.833333,197.167 0.833333,197.167 -0.5,196.5 Z"/></g>
<g><path style="opacity:0.004" fill="#a1fffe" d="M 199.5,196.5 C 199.5,196.833 199.5,197.167 199.5,197.5C 198.83,197.019 198.83,196.685 199.5,196.5 Z"/></g>
<g><path style="opacity:0.075" fill="#fefffe" d="M -0.5,198.5 C 0.166667,198.5 0.5,198.833 0.5,199.5C 0.166667,199.167 -0.166667,198.833 -0.5,198.5 Z"/></g>
<g><path style="opacity:0.004" fill="#a1fffe" d="M 2.5,199.5 C 1.83333,198.167 1.83333,198.167 2.5,199.5 Z"/></g>
<g><path style="opacity:0.004" fill="#000000" d="M 67.5,199.5 C 66.8333,198.167 66.8333,198.167 67.5,199.5 Z"/></g>
<g><path style="opacity:0.004" fill="#a1fffe" d="M 197.5,199.5 C 196.833,198.167 196.833,198.167 197.5,199.5 Z"/></g>
<g><path style="opacity:0.075" fill="#fefffe" d="M 199.5,198.5 C 199.5,198.833 199.5,199.167 199.5,199.5C 198.83,199.019 198.83,198.685 199.5,198.5 Z"/></g>
</svg>
