<?xml version="1.0" encoding="UTF-8"?>
<!DOCTYPE svg PUBLIC "-//W3C//DTD SVG 1.1//EN" "http://www.w3.org/Graphics/SVG/1.1/DTD/svg11.dtd">
<svg xmlns="http://www.w3.org/2000/svg" version="1.1" width="200px" height="200px" style="shape-rendering:geometricPrecision; text-rendering:geometricPrecision; image-rendering:optimizeQuality; fill-rule:evenodd; clip-rule:evenodd" xmlns:xlink="http://www.w3.org/1999/xlink">
<g><path style="opacity:1" fill="#b21514" d="M 88.5,-0.5 C 95.8333,-0.5 103.167,-0.5 110.5,-0.5C 110.791,0.649106 111.624,1.31577 113,1.5C 122.196,2.7884 131.029,5.2884 139.5,9C 144.776,11.807 150.109,14.307 155.5,16.5C 156.539,18.5311 158.205,19.8645 160.5,20.5C 163.455,22.1223 166.122,24.1223 168.5,26.5C 170.427,31.6975 173.761,35.6975 178.5,38.5C 180.446,39.0347 181.446,40.368 181.5,42.5C 182.34,44.8525 183.674,46.8525 185.5,48.5C 185.427,50.0269 186.094,51.0269 187.5,51.5C 188.486,53.4261 189.486,55.4261 190.5,57.5C 190.259,59.8984 190.926,61.8984 192.5,63.5C 194.868,65.9557 195.868,68.9557 195.5,72.5C 196.214,78.0939 197.547,83.4272 199.5,88.5C 199.5,95.8333 199.5,103.167 199.5,110.5C 197.933,111.681 197.099,113.347 197,115.5C 196.503,118.146 196.336,120.813 196.5,123.5C 195.883,123.611 195.383,123.944 195,124.5C 193.56,128.041 192.726,131.708 192.5,135.5C 190.144,137.557 189.144,140.224 189.5,143.5C 187.896,144.287 187.229,145.62 187.5,147.5C 187.573,149.027 186.906,150.027 185.5,150.5C 183.674,152.147 182.34,154.147 181.5,156.5C 180.512,157.795 179.512,159.128 178.5,160.5C 176.878,163.455 174.878,166.122 172.5,168.5C 169.573,169.757 167.239,171.757 165.5,174.5C 164.415,176.587 162.749,177.92 160.5,178.5C 158.596,178.738 157.262,179.738 156.5,181.5C 156.5,181.833 156.5,182.167 156.5,182.5C 154.5,182.5 152.5,182.5 150.5,182.5C 150.5,183.5 150.5,184.5 150.5,185.5C 147.674,185.998 145.34,187.331 143.5,189.5C 140.509,189.166 138.176,190.166 136.5,192.5C 131.996,192.619 127.996,193.952 124.5,196.5C 112.362,197.635 100.362,198.635 88.5,199.5C 87.8333,199.5 87.1667,199.5 86.5,199.5C 86.2089,198.351 85.3756,197.684 84,197.5C 79.8754,196.508 75.7087,195.841 71.5,195.5C 68.855,193.69 65.855,192.69 62.5,192.5C 60.4907,190.935 58.1573,189.935 55.5,189.5C 53.4336,187.801 51.1003,186.468 48.5,185.5C 47.4863,184.326 46.153,183.66 44.5,183.5C 44.5858,182.504 44.2524,181.671 43.5,181C 36.0318,176.024 29.0318,170.524 22.5,164.5C 22.5,164.167 22.5,163.833 22.5,163.5C 21.7735,160.712 20.1068,158.712 17.5,157.5C 17.5,157.167 17.5,156.833 17.5,156.5C 16.1235,153.817 14.4568,151.483 12.5,149.5C 11.2729,144.718 9.27288,140.385 6.5,136.5C 7.07503,132.845 6.07503,129.845 3.5,127.5C 1.30301,114.449 -0.0303278,101.449 -0.5,88.5C -0.5,88.1667 -0.5,87.8333 -0.5,87.5C 1.37319,83.4848 2.37319,79.1515 2.5,74.5C 4.43479,70.7866 5.76812,66.7866 6.5,62.5C 7.88461,61.4264 9.05127,60.0931 10,58.5C 10.8708,54.9912 12.0375,51.6578 13.5,48.5C 15.3725,47.1365 17.0392,45.4699 18.5,43.5C 19.3219,41.8614 19.9886,40.1947 20.5,38.5C 22.5869,37.4154 23.9202,35.7488 24.5,33.5C 27.8333,30.8333 30.8333,27.8333 33.5,24.5C 35.7488,23.9202 37.4154,22.5869 38.5,20.5C 40.4044,20.2624 41.7377,19.2624 42.5,17.5C 44.9663,16.7023 46.9663,15.369 48.5,13.5C 53.6318,11.9127 58.2985,9.57935 62.5,6.5C 62.8333,6.5 63.1667,6.5 63.5,6.5C 66.7458,5.94586 69.7458,4.94586 72.5,3.5C 77.0314,3.10603 81.5314,2.43937 86,1.5C 87.3756,1.31577 88.2089,0.649106 88.5,-0.5 Z M 60.5,45.5 C 60.5,46.8333 60.5,48.1667 60.5,49.5C 61.0441,59.9832 65.3774,68.3165 73.5,74.5C 74.1667,74.5 74.5,74.8333 74.5,75.5C 77.7214,78.2781 81.3881,80.2781 85.5,81.5C 85.8333,81.5 86.1667,81.5 86.5,81.5C 94.5106,85.4282 102.511,85.4282 110.5,81.5C 112.099,81.7678 113.432,81.4345 114.5,80.5C 116.027,80.573 117.027,79.9063 117.5,78.5C 117.833,78.5 118.167,78.5 118.5,78.5C 122.146,76.5181 125.146,73.8515 127.5,70.5C 128.5,70.1667 129.167,69.5 129.5,68.5C 131.047,67.2318 132.047,65.5652 132.5,63.5C 133.558,62.3998 134.392,61.0664 135,59.5C 136.156,54.878 136.99,50.2113 137.5,45.5C 142.833,45.5 148.167,45.5 153.5,45.5C 152.785,52.3053 151.452,58.972 149.5,65.5C 146.896,69.7091 144.563,74.0424 142.5,78.5C 137.833,82.8333 133.167,87.1667 128.5,91.5C 126.181,91.9925 124.181,92.9925 122.5,94.5C 119.603,95.129 116.936,96.129 114.5,97.5C 112.214,97.595 110.214,98.2616 108.5,99.5C 100.799,99.6911 93.1322,99.3577 85.5,98.5C 80.596,96.3525 75.596,94.3525 70.5,92.5C 69.1092,90.1097 67.1092,88.4431 64.5,87.5C 64.1667,87.5 63.8333,87.5 63.5,87.5C 63.1898,85.8564 62.1898,84.8564 60.5,84.5C 60.106,82.2901 58.7727,80.9568 56.5,80.5C 56.6716,79.5084 56.3382,78.8417 55.5,78.5C 54.6493,76.1184 53.316,74.1184 51.5,72.5C 51.573,70.9731 50.9063,69.9731 49.5,69.5C 49.1277,65.7029 47.7943,62.3695 45.5,59.5C 45.4599,54.8075 45.1266,50.1408 44.5,45.5C 49.8333,45.5 55.1667,45.5 60.5,45.5 Z M 103.5,46.5 C 110.522,51.1755 112.355,57.5088 109,65.5C 107.188,67.3003 105.355,68.9669 103.5,70.5C 100.167,70.5 96.8333,70.5 93.5,70.5C 92.4206,68.457 90.754,67.1237 88.5,66.5C 88.2964,64.3146 87.6298,62.3146 86.5,60.5C 86.31,56.9682 86.9767,53.6348 88.5,50.5C 90.754,49.8763 92.4206,48.543 93.5,46.5C 96.8333,45.1667 100.167,45.1667 103.5,46.5 Z M 152.5,110.5 C 152.5,116.167 152.5,121.833 152.5,127.5C 116.5,127.5 80.5,127.5 44.5,127.5C 44.5,121.833 44.5,116.167 44.5,110.5C 80.5,110.5 116.5,110.5 152.5,110.5 Z M 105.5,139.5 C 106.5,141.167 107.833,142.5 109.5,143.5C 110.36,147.434 110.693,151.434 110.5,155.5C 110.5,155.833 110.5,156.167 110.5,156.5C 107.292,159.601 103.625,161.934 99.5,163.5C 97.9582,162.699 96.2915,162.366 94.5,162.5C 92.5368,161.18 90.5368,159.846 88.5,158.5C 85.609,152.633 85.9424,146.966 89.5,141.5C 94.4303,138.338 99.7636,137.671 105.5,139.5 Z"/></g>
<g><path style="opacity:0.824" fill="#a93835" d="M 83.5,-0.5 C 85.1667,-0.5 86.8333,-0.5 88.5,-0.5C 88.2089,0.649106 87.3756,1.31577 86,1.5C 81.5314,2.43937 77.0314,3.10603 72.5,3.5C 76.0406,1.76477 79.7073,0.431442 83.5,-0.5 Z"/></g>
<g><path style="opacity:0.733" fill="#a83632" d="M 110.5,-0.5 C 112.167,-0.5 113.833,-0.5 115.5,-0.5C 123.424,1.92821 131.424,4.42821 139.5,7C 145.36,9.42403 150.693,12.5907 155.5,16.5C 150.109,14.307 144.776,11.807 139.5,9C 131.029,5.2884 122.196,2.7884 113,1.5C 111.624,1.31577 110.791,0.649106 110.5,-0.5 Z"/></g>
<g><path style="opacity:0.671" fill="#aa3937" d="M 72.5,3.5 C 69.7458,4.94586 66.7458,5.94586 63.5,6.5C 65.919,4.13764 68.919,3.13764 72.5,3.5 Z"/></g>
<g><path style="opacity:0.82" fill="#a73938" d="M 62.5,6.5 C 58.2985,9.57935 53.6318,11.9127 48.5,13.5C 52.5806,10.1263 57.2472,7.79302 62.5,6.5 Z"/></g>
<g><path style="opacity:0.659" fill="#a93837" d="M 48.5,13.5 C 46.9663,15.369 44.9663,16.7023 42.5,17.5C 43.8021,15.1782 45.8021,13.8449 48.5,13.5 Z"/></g>
<g><path style="opacity:1" fill="#aa3636" d="M 155.5,16.5 C 157.826,17.1447 159.493,18.478 160.5,20.5C 158.205,19.8645 156.539,18.5311 155.5,16.5 Z"/></g>
<g><path style="opacity:0.855" fill="#ab3938" d="M 42.5,17.5 C 41.7377,19.2624 40.4044,20.2624 38.5,20.5C 38.6941,18.0882 40.0274,17.0882 42.5,17.5 Z"/></g>
<g><path style="opacity:0.725" fill="#a83230" d="M 38.5,20.5 C 37.4154,22.5869 35.7488,23.9202 33.5,24.5C 34.5846,22.4131 36.2512,21.0798 38.5,20.5 Z"/></g>
<g><path style="opacity:0.635" fill="#a83c3c" d="M 33.5,24.5 C 30.8333,27.8333 27.8333,30.8333 24.5,33.5C 26.5,29.5 29.5,26.5 33.5,24.5 Z"/></g>
<g><path style="opacity:1" fill="#ad3835" d="M 168.5,26.5 C 172.58,29.9104 175.914,33.9104 178.5,38.5C 173.761,35.6975 170.427,31.6975 168.5,26.5 Z"/></g>
<g><path style="opacity:0.831" fill="#a63231" d="M 24.5,33.5 C 23.9202,35.7488 22.5869,37.4154 20.5,38.5C 21.0798,36.2512 22.4131,34.5846 24.5,33.5 Z"/></g>
<g><path style="opacity:0.6" fill="#ac4442" d="M 181.5,42.5 C 183.822,43.8021 185.155,45.8021 185.5,48.5C 183.674,46.8525 182.34,44.8525 181.5,42.5 Z"/></g>
<g><path style="opacity:1" fill="#a92a28" d="M 20.5,38.5 C 19.9886,40.1947 19.3219,41.8614 18.5,43.5C 17.0392,45.4699 15.3725,47.1365 13.5,48.5C 14.7734,45.3914 16.2734,42.3914 18,39.5C 18.6708,38.7476 19.5041,38.4142 20.5,38.5 Z"/></g>
<g><path style="opacity:1" fill="#a72e29" d="M 153.5,45.5 C 154.973,52.6464 153.64,59.3131 149.5,65.5C 151.452,58.972 152.785,52.3053 153.5,45.5 Z"/></g>
<g><path style="opacity:0.012" fill="#a63d3e" d="M 93.5,46.5 C 92.4206,48.543 90.754,49.8763 88.5,50.5C 89.5387,48.4689 91.2054,47.1355 93.5,46.5 Z"/></g>
<g><path style="opacity:0.557" fill="#ab3636" d="M 60.5,45.5 C 55.1667,45.5 49.8333,45.5 44.5,45.5C 45.1266,50.1408 45.4599,54.8075 45.5,59.5C 43.7623,54.7831 43.0956,49.7831 43.5,44.5C 49.358,44.1778 55.0247,44.5111 60.5,45.5 Z"/></g>
<g><path style="opacity:0.349" fill="#a73e40" d="M 185.5,48.5 C 186.906,48.9731 187.573,49.9731 187.5,51.5C 186.094,51.0269 185.427,50.0269 185.5,48.5 Z"/></g>
<g><path style="opacity:0.384" fill="#b45351" d="M 88.5,50.5 C 86.9767,53.6348 86.31,56.9682 86.5,60.5C 86.1667,60.5 85.8333,60.5 85.5,60.5C 85.3367,58.1432 85.5034,55.8098 86,53.5C 86.3768,52.0577 87.2101,51.0577 88.5,50.5 Z"/></g>
<g><path style="opacity:0.969" fill="#aa322f" d="M 13.5,48.5 C 12.0375,51.6578 10.8708,54.9912 10,58.5C 9.05127,60.0931 7.88461,61.4264 6.5,62.5C 6.68701,60.4357 7.18701,58.4357 8,56.5C 9.38872,53.4332 11.2221,50.7666 13.5,48.5 Z"/></g>
<g><path style="opacity:0.753" fill="#ae3b39" d="M 153.5,45.5 C 148.167,45.5 142.833,45.5 137.5,45.5C 136.99,50.2113 136.156,54.878 135,59.5C 134.392,61.0664 133.558,62.3998 132.5,63.5C 134.273,57.472 135.606,51.3053 136.5,45C 142.349,44.1816 148.015,44.3483 153.5,45.5 Z"/></g>
<g><path style="opacity:0.875" fill="#a93b39" d="M 190.5,57.5 C 192.074,59.1016 192.741,61.1016 192.5,63.5C 190.926,61.8984 190.259,59.8984 190.5,57.5 Z"/></g>
<g><path style="opacity:0.396" fill="#ad3739" d="M 85.5,60.5 C 85.8333,60.5 86.1667,60.5 86.5,60.5C 87.6298,62.3146 88.2964,64.3146 88.5,66.5C 86.0246,65.3126 85.0246,63.3126 85.5,60.5 Z"/></g>
<g><path style="opacity:0.875" fill="#a93936" d="M 45.5,59.5 C 47.7943,62.3695 49.1277,65.7029 49.5,69.5C 47.1034,66.691 45.7701,63.3576 45.5,59.5 Z"/></g>
<g><path style="opacity:0.482" fill="#a73a39" d="M 103.5,46.5 C 112.855,50.6092 115.021,57.2759 110,66.5C 108.362,68.7337 106.195,70.067 103.5,70.5C 105.355,68.9669 107.188,67.3003 109,65.5C 112.355,57.5088 110.522,51.1755 103.5,46.5 Z"/></g>
<g><path style="opacity:0.012" fill="#a94140" d="M 132.5,63.5 C 132.047,65.5652 131.047,67.2318 129.5,68.5C 129.259,65.9664 130.259,64.2998 132.5,63.5 Z"/></g>
<g><path style="opacity:0.788" fill="#a73734" d="M 6.5,62.5 C 5.76812,66.7866 4.43479,70.7866 2.5,74.5C 2.92638,70.0983 4.25972,66.0983 6.5,62.5 Z"/></g>
<g><path style="opacity:0.424" fill="#a43636" d="M 88.5,66.5 C 90.754,67.1237 92.4206,68.457 93.5,70.5C 90.796,70.3304 89.1293,68.9971 88.5,66.5 Z"/></g>
<g><path style="opacity:0.776" fill="#ad4140" d="M 60.5,49.5 C 62.4411,53.5544 63.9411,57.8877 65,62.5C 67.6892,66.6751 70.5225,70.6751 73.5,74.5C 65.3774,68.3165 61.0441,59.9832 60.5,49.5 Z"/></g>
<g><path style="opacity:0.82" fill="#b24345" d="M 49.5,69.5 C 50.9063,69.9731 51.573,70.9731 51.5,72.5C 50.0937,72.0269 49.427,71.0269 49.5,69.5 Z"/></g>
<g><path style="opacity:0.267" fill="#aa3734" d="M 127.5,70.5 C 125.146,73.8515 122.146,76.5181 118.5,78.5C 119.582,76.6614 120.415,74.6614 121,72.5C 121.414,72.9574 121.914,73.2907 122.5,73.5C 123.94,72.0476 125.606,71.0476 127.5,70.5 Z"/></g>
<g><path style="opacity:0.435" fill="#ae4141" d="M 51.5,72.5 C 53.316,74.1184 54.6493,76.1184 55.5,78.5C 53.2036,77.267 51.8702,75.267 51.5,72.5 Z"/></g>
<g><path style="opacity:0.753" fill="#ac3a37" d="M 149.5,65.5 C 148.477,70.5469 146.143,74.8802 142.5,78.5C 144.563,74.0424 146.896,69.7091 149.5,65.5 Z"/></g>
<g><path style="opacity:1" fill="#a9312e" d="M 74.5,75.5 C 79.1397,75.8251 82.8064,77.8251 85.5,81.5C 81.3881,80.2781 77.7214,78.2781 74.5,75.5 Z"/></g>
<g><path style="opacity:0.988" fill="#a83a37" d="M 195.5,72.5 C 196.987,76.1165 198.32,79.7831 199.5,83.5C 199.5,85.1667 199.5,86.8333 199.5,88.5C 197.547,83.4272 196.214,78.0939 195.5,72.5 Z"/></g>
<g><path style="opacity:0.741" fill="#aa403e" d="M 2.5,74.5 C 2.37319,79.1515 1.37319,83.4848 -0.5,87.5C -0.5,85.8333 -0.5,84.1667 -0.5,82.5C 0.5,79.8333 1.5,77.1667 2.5,74.5 Z"/></g>
<g><path style="opacity:0.086" fill="#b14d4d" d="M 117.5,78.5 C 117.027,79.9063 116.027,80.573 114.5,80.5C 114.973,79.0937 115.973,78.427 117.5,78.5 Z"/></g>
<g><path style="opacity:0.349" fill="#ae3b3c" d="M 56.5,80.5 C 58.7727,80.9568 60.106,82.2901 60.5,84.5C 58.2273,84.0432 56.894,82.7099 56.5,80.5 Z"/></g>
<g><path style="opacity:0.624" fill="#a93634" d="M 86.5,81.5 C 94.5037,82.7826 102.504,82.7826 110.5,81.5C 102.511,85.4282 94.5106,85.4282 86.5,81.5 Z"/></g>
<g><path style="opacity:0.827" fill="#ab403f" d="M 142.5,78.5 C 139.115,84.2185 134.448,88.5519 128.5,91.5C 133.167,87.1667 137.833,82.8333 142.5,78.5 Z"/></g>
<g><path style="opacity:0.035" fill="#aa4343" d="M 60.5,84.5 C 62.1898,84.8564 63.1898,85.8564 63.5,87.5C 61.8102,87.1436 60.8102,86.1436 60.5,84.5 Z"/></g>
<g><path style="opacity:0.671" fill="#ab3836" d="M 64.5,87.5 C 67.1092,88.4431 69.1092,90.1097 70.5,92.5C 67.2678,92.2283 65.2678,90.5616 64.5,87.5 Z"/></g>
<g><path style="opacity:0.714" fill="#a53836" d="M 122.5,94.5 C 120.383,96.6545 117.716,97.6545 114.5,97.5C 116.936,96.129 119.603,95.129 122.5,94.5 Z"/></g>
<g><path style="opacity:0.788" fill="#ab3837" d="M 70.5,92.5 C 75.596,94.3525 80.596,96.3525 85.5,98.5C 81.7076,98.2736 78.0409,97.4403 74.5,96C 72.9069,95.0513 71.5736,93.8846 70.5,92.5 Z"/></g>
<g><path style="opacity:0.882" fill="#a73632" d="M 114.5,97.5 C 113.01,99.2798 111.01,99.9465 108.5,99.5C 110.214,98.2616 112.214,97.595 114.5,97.5 Z"/></g>
<g><path style="opacity:0.525" fill="#9f3635" d="M 152.5,110.5 C 116.5,110.5 80.5,110.5 44.5,110.5C 44.5,116.167 44.5,121.833 44.5,127.5C 80.5,127.5 116.5,127.5 152.5,127.5C 116.337,128.498 80.0038,128.832 43.5,128.5C 43.5,122.167 43.5,115.833 43.5,109.5C 80.0038,109.168 116.337,109.502 152.5,110.5 Z"/></g>
<g><path style="opacity:0.843" fill="#ad3936" d="M -0.5,88.5 C -0.0303278,101.449 1.30301,114.449 3.5,127.5C 2.01312,123.884 0.679783,120.217 -0.5,116.5C -0.5,107.167 -0.5,97.8333 -0.5,88.5 Z"/></g>
<g><path style="opacity:0.714" fill="#a83733" d="M 199.5,110.5 C 199.5,112.167 199.5,113.833 199.5,115.5C 198.749,118.246 197.749,120.913 196.5,123.5C 196.336,120.813 196.503,118.146 197,115.5C 197.099,113.347 197.933,111.681 199.5,110.5 Z"/></g>
<g><path style="opacity:0.525" fill="#a8302d" d="M 3.5,127.5 C 6.07503,129.845 7.07503,132.845 6.5,136.5C 4.52751,133.916 3.52751,130.916 3.5,127.5 Z"/></g>
<g><path style="opacity:1" fill="#aa302d" d="M 196.5,123.5 C 196.067,126.166 195.567,128.832 195,131.5C 194.8,133.32 193.966,134.653 192.5,135.5C 192.726,131.708 193.56,128.041 195,124.5C 195.383,123.944 195.883,123.611 196.5,123.5 Z"/></g>
<g><path style="opacity:0.62" fill="#a93b3a" d="M 105.5,139.5 C 99.7636,137.671 94.4303,138.338 89.5,141.5C 91.4065,138.172 94.4065,136.506 98.5,136.5C 101.36,136.555 103.693,137.555 105.5,139.5 Z"/></g>
<g><path style="opacity:0.671" fill="#a83734" d="M 192.5,135.5 C 192.585,138.649 191.585,141.316 189.5,143.5C 189.144,140.224 190.144,137.557 192.5,135.5 Z"/></g>
<g><path style="opacity:0.776" fill="#ab4342" d="M 105.5,139.5 C 107.833,139.833 109.167,141.167 109.5,143.5C 107.833,142.5 106.5,141.167 105.5,139.5 Z"/></g>
<g><path style="opacity:1" fill="#ae352f" d="M 89.5,141.5 C 85.9424,146.966 85.609,152.633 88.5,158.5C 86.3862,157.64 85.2195,155.973 85,153.5C 84.5017,150.183 84.335,146.85 84.5,143.5C 86.3224,143.169 87.9891,142.502 89.5,141.5 Z"/></g>
<g><path style="opacity:0.424" fill="#a83938" d="M 6.5,136.5 C 9.27288,140.385 11.2729,144.718 12.5,149.5C 10.7052,146.596 8.87184,143.596 7,140.5C 6.50999,139.207 6.34332,137.873 6.5,136.5 Z"/></g>
<g><path style="opacity:0.416" fill="#b35252" d="M 189.5,143.5 C 189.34,145.153 188.674,146.486 187.5,147.5C 187.229,145.62 187.896,144.287 189.5,143.5 Z"/></g>
<g><path style="opacity:0.753" fill="#ac3b39" d="M 109.5,143.5 C 111.828,145.166 112.828,147.499 112.5,150.5C 112.333,151.833 112.167,153.167 112,154.5C 111.617,155.056 111.117,155.389 110.5,155.5C 110.693,151.434 110.36,147.434 109.5,143.5 Z"/></g>
<g><path style="opacity:0.102" fill="#ab413f" d="M 12.5,149.5 C 14.4568,151.483 16.1235,153.817 17.5,156.5C 14.7316,155.049 13.0649,152.716 12.5,149.5 Z"/></g>
<g><path style="opacity:0.349" fill="#a73a3b" d="M 185.5,150.5 C 185.155,153.198 183.822,155.198 181.5,156.5C 182.34,154.147 183.674,152.147 185.5,150.5 Z"/></g>
<g><path style="opacity:0.824" fill="#a63735" d="M 110.5,156.5 C 108.29,161.106 104.624,163.439 99.5,163.5C 103.625,161.934 107.292,159.601 110.5,156.5 Z"/></g>
<g><path style="opacity:0.012" fill="#ab4747" d="M 181.5,156.5 C 181.912,158.973 180.912,160.306 178.5,160.5C 179.512,159.128 180.512,157.795 181.5,156.5 Z"/></g>
<g><path style="opacity:0.137" fill="#ae3b3a" d="M 17.5,157.5 C 20.1068,158.712 21.7735,160.712 22.5,163.5C 20.1402,162.135 18.4735,160.135 17.5,157.5 Z"/></g>
<g><path style="opacity:0.765" fill="#ab3a37" d="M 88.5,158.5 C 90.5368,159.846 92.5368,161.18 94.5,162.5C 91.1216,163.109 89.1216,161.776 88.5,158.5 Z"/></g>
<g><path style="opacity:0.067" fill="#9e3634" d="M 172.5,168.5 C 170.761,171.243 168.427,173.243 165.5,174.5C 167.239,171.757 169.573,169.757 172.5,168.5 Z"/></g>
<g><path style="opacity:0.914" fill="#a93837" d="M 22.5,164.5 C 29.0318,170.524 36.0318,176.024 43.5,181C 44.2524,181.671 44.5858,182.504 44.5,183.5C 35.9878,178.663 28.6545,172.33 22.5,164.5 Z"/></g>
<g><path style="opacity:0.349" fill="#aa3d3c" d="M 160.5,178.5 C 160.306,180.912 158.973,181.912 156.5,181.5C 157.262,179.738 158.596,178.738 160.5,178.5 Z"/></g>
<g><path style="opacity:1" fill="#ae3935" d="M 156.5,182.5 C 154.819,184.008 152.819,185.008 150.5,185.5C 150.5,184.5 150.5,183.5 150.5,182.5C 152.5,182.5 154.5,182.5 156.5,182.5 Z"/></g>
<g><path style="opacity:0.102" fill="#ac4545" d="M 44.5,183.5 C 46.153,183.66 47.4863,184.326 48.5,185.5C 46.6203,185.771 45.287,185.104 44.5,183.5 Z"/></g>
<g><path style="opacity:0.855" fill="#ac423f" d="M 48.5,185.5 C 51.1003,186.468 53.4336,187.801 55.5,189.5C 52.4542,189.275 50.1209,187.942 48.5,185.5 Z"/></g>
<g><path style="opacity:0.482" fill="#ab403f" d="M 150.5,185.5 C 148.879,187.942 146.546,189.275 143.5,189.5C 145.34,187.331 147.674,185.998 150.5,185.5 Z"/></g>
<g><path style="opacity:0.824" fill="#a83534" d="M 143.5,189.5 C 141.68,191.448 139.346,192.448 136.5,192.5C 138.176,190.166 140.509,189.166 143.5,189.5 Z"/></g>
<g><path style="opacity:0.459" fill="#a63838" d="M 55.5,189.5 C 58.1573,189.935 60.4907,190.935 62.5,192.5C 59.509,192.834 57.1757,191.834 55.5,189.5 Z"/></g>
<g><path style="opacity:0.788" fill="#a62f2e" d="M 62.5,192.5 C 65.855,192.69 68.855,193.69 71.5,195.5C 68.0836,195.472 65.0836,194.472 62.5,192.5 Z"/></g>
<g><path style="opacity:0.235" fill="#a93a38" d="M 136.5,192.5 C 132.902,194.74 128.902,196.074 124.5,196.5C 127.996,193.952 131.996,192.619 136.5,192.5 Z"/></g>
<g><path style="opacity:0.529" fill="#a83a37" d="M 71.5,195.5 C 75.7087,195.841 79.8754,196.508 84,197.5C 85.3756,197.684 86.2089,198.351 86.5,199.5C 85.1667,199.5 83.8333,199.5 82.5,199.5C 78.7831,198.32 75.1165,196.987 71.5,195.5 Z"/></g>
<g><path style="opacity:1" fill="#b23533" d="M 124.5,196.5 C 121.833,197.5 119.167,198.5 116.5,199.5C 107.167,199.5 97.8333,199.5 88.5,199.5C 100.362,198.635 112.362,197.635 124.5,196.5 Z"/></g>
</svg>
