<?xml version="1.0" encoding="UTF-8"?>
<!DOCTYPE svg PUBLIC "-//W3C//DTD SVG 1.1//EN" "http://www.w3.org/Graphics/SVG/1.1/DTD/svg11.dtd">
<svg xmlns="http://www.w3.org/2000/svg" version="1.1" width="200px" height="200px" style="shape-rendering:geometricPrecision; text-rendering:geometricPrecision; image-rendering:optimizeQuality; fill-rule:evenodd; clip-rule:evenodd" xmlns:xlink="http://www.w3.org/1999/xlink">
<g><path style="opacity:0.986" fill="#fdfefd" d="M 85.5,-0.5 C 94.8333,-0.5 104.167,-0.5 113.5,-0.5C 161.167,9.16667 189.833,37.8333 199.5,85.5C 199.5,94.8333 199.5,104.167 199.5,113.5C 189.833,161.167 161.167,189.833 113.5,199.5C 104.167,199.5 94.8333,199.5 85.5,199.5C 37.8333,189.833 9.16667,161.167 -0.5,113.5C -0.5,104.167 -0.5,94.8333 -0.5,85.5C 9.16667,37.8333 37.8333,9.16667 85.5,-0.5 Z"/></g>
<g><path style="opacity:1" fill="#7894d8" d="M 142.5,72.5 C 142.665,69.4816 142.498,66.4816 142,63.5C 140.961,62.2899 139.794,61.2899 138.5,60.5C 138.5,60.1667 138.5,59.8333 138.5,59.5C 138.923,56.7569 137.756,55.4235 135,55.5C 131.236,56.9303 128.402,59.4303 126.5,63C 125.255,63.7914 123.922,64.2914 122.5,64.5C 126.185,59.6308 130.518,55.7975 135.5,53C 142.168,58.0965 144.501,64.5965 142.5,72.5 Z"/></g>
<g><path style="opacity:1" fill="#5c8cf6" d="M 138.5,59.5 C 137.778,59.0825 137.278,58.4158 137,57.5C 135.934,60.5631 133.767,62.0631 130.5,62C 131.603,63.6804 131.27,65.1804 129.5,66.5C 128.28,67.7111 127.113,67.7111 126,66.5C 126.668,70.4734 125.335,73.8067 122,76.5C 121.29,75.0267 120.124,74.3601 118.5,74.5C 118.5,75.5 118.5,76.5 118.5,77.5C 117.5,77.5 116.5,77.5 115.5,77.5C 116.244,80.9496 114.91,82.6162 111.5,82.5C 111.715,80.8212 111.048,79.8212 109.5,79.5C 110.891,77.4286 112.724,75.7619 115,74.5C 115.49,73.2068 115.657,71.8734 115.5,70.5C 117.808,68.5293 120.142,66.5293 122.5,64.5C 123.922,64.2914 125.255,63.7914 126.5,63C 128.402,59.4303 131.236,56.9303 135,55.5C 137.756,55.4235 138.923,56.7569 138.5,59.5 Z"/></g>
<g><path style="opacity:1" fill="#5877da" d="M 138.5,60.5 C 139.794,61.2899 140.961,62.2899 142,63.5C 142.498,66.4816 142.665,69.4816 142.5,72.5C 141.18,75.8057 139.347,78.8057 137,81.5C 130.997,86.6709 125.163,92.0043 119.5,97.5C 119.5,96.1667 119.5,94.8333 119.5,93.5C 120.5,93.5 121.5,93.5 122.5,93.5C 123.449,91.2627 124.116,88.9294 124.5,86.5C 126.167,86.5 127.833,86.5 129.5,86.5C 129.5,85.1667 129.5,83.8333 129.5,82.5C 131.827,82.7529 133.827,82.0863 135.5,80.5C 136.279,77.9344 137.779,75.9344 140,74.5C 141.079,71.9373 141.579,69.2706 141.5,66.5C 140.5,64.5 139.5,62.5 138.5,60.5 Z"/></g>
<g><path style="opacity:1" fill="#eefafe" d="M 104.5,32.5 C 83.2016,54.2986 61.7016,75.9653 40,97.5C 36.9645,103.224 36.7978,108.891 39.5,114.5C 39.8333,115.833 40.1667,117.167 40.5,118.5C 39.1779,118.33 38.0113,118.663 37,119.5C 35.1314,113.959 34.4647,108.293 35,102.5C 37.3025,98.573 39.6358,94.573 42,90.5C 45.6116,88.9946 48.1116,86.3279 49.5,82.5C 51.4935,80.5014 53.8268,79.0014 56.5,78C 62.1418,69.6915 69.1418,62.6915 77.5,57C 79.5538,51.7673 83.2205,48.6006 88.5,47.5C 88.3505,46.448 88.5172,45.448 89,44.5C 92.5364,41.2988 95.7031,37.7988 98.5,34C 99.4491,33.3828 100.282,33.5494 101,34.5C 101.71,33.0267 102.876,32.3601 104.5,32.5 Z"/></g>
<g><path style="opacity:1" fill="#7eb1fa" d="M 117.5,36.5 C 119.412,42.9135 118.578,48.9135 115,54.5C 92.6795,75.9639 70.6795,97.6305 49,119.5C 48.5172,120.448 48.3505,121.448 48.5,122.5C 47.1266,122.657 45.7932,122.49 44.5,122C 43.2949,120.624 41.9616,119.458 40.5,118.5C 40.1667,117.167 39.8333,115.833 39.5,114.5C 39.3345,110.486 39.5012,106.486 40,102.5C 44.3799,97.7886 48.3799,92.7886 52,87.5C 53.0113,86.6634 54.1779,86.33 55.5,86.5C 55.5,85.5 55.5,84.5 55.5,83.5C 56.552,83.6495 57.552,83.4828 58.5,83C 66.3706,76.2951 73.7039,69.1284 80.5,61.5C 81.8526,57.4152 84.5192,54.7486 88.5,53.5C 95.7311,46.4395 102.398,38.9395 108.5,31C 109.5,30.3333 110.5,30.3333 111.5,31C 112.881,33.5213 114.881,35.3546 117.5,36.5 Z"/></g>
<g><path style="opacity:1" fill="#7995e1" d="M 115.5,70.5 C 115.657,71.8734 115.49,73.2068 115,74.5C 112.724,75.7619 110.891,77.4286 109.5,79.5C 108.5,79.8333 107.833,80.5 107.5,81.5C 105.389,83.631 103.056,85.2977 100.5,86.5C 105.502,81.1573 110.502,75.824 115.5,70.5 Z"/></g>
<g><path style="opacity:1" fill="#5381f9" d="M 138.5,59.5 C 138.5,59.8333 138.5,60.1667 138.5,60.5C 139.5,62.5 140.5,64.5 141.5,66.5C 140.603,65.4019 139.77,65.4019 139,66.5C 138.186,73.1766 134.686,75.5099 128.5,73.5C 126.662,78.0299 124.328,82.3633 121.5,86.5C 120.726,87.7112 119.893,87.7112 119,86.5C 118.751,87.624 118.251,88.624 117.5,89.5C 115.742,90.1279 114.242,91.1279 113,92.5C 113.166,95.6803 111.333,97.5136 107.5,98C 105.533,100.436 103.866,102.936 102.5,105.5C 99.7277,105.595 97.7277,106.929 96.5,109.5C 96.7093,110.086 97.0426,110.586 97.5,111C 96.3333,111.5 95.5,112.333 95,113.5C 94.2825,112.549 93.4491,112.383 92.5,113C 91.5,114.667 90.5,116.333 89.5,118C 87.2992,118.825 85.4659,118.325 84,116.5C 83.5,117 83,117.5 82.5,118C 84.5763,119.884 84.9097,122.051 83.5,124.5C 82.2807,125.263 81.2807,126.263 80.5,127.5C 79.914,127.291 79.414,126.957 79,126.5C 77.2567,128.321 75.7567,130.321 74.5,132.5C 73.2638,133.246 71.9305,133.579 70.5,133.5C 70.1043,130.956 70.771,128.789 72.5,127C 68.8642,126.374 68.8642,125.207 72.5,123.5C 73.3094,121.929 73.6427,120.262 73.5,118.5C 71.8212,118.715 70.8212,118.048 70.5,116.5C 71.1667,116.5 71.8333,116.5 72.5,116.5C 73.9464,117.613 75.6131,117.78 77.5,117C 76.1388,113.017 76.9722,112.183 80,114.5C 80.5,114.333 81,114.167 81.5,114C 82.0897,112.491 82.7564,110.991 83.5,109.5C 84.086,109.709 84.586,110.043 85,110.5C 86.9923,107.01 89.8256,104.343 93.5,102.5C 94.8333,101.5 94.8333,100.5 93.5,99.5C 97.1667,99.1667 99.1667,97.1667 99.5,93.5C 100.425,94.6405 101.259,94.6405 102,93.5C 102.49,92.2068 102.657,90.8734 102.5,89.5C 105.14,89.046 107.473,87.8793 109.5,86C 107.963,84.8904 107.297,83.3904 107.5,81.5C 107.833,80.5 108.5,79.8333 109.5,79.5C 111.048,79.8212 111.715,80.8212 111.5,82.5C 114.91,82.6162 116.244,80.9496 115.5,77.5C 116.5,77.5 117.5,77.5 118.5,77.5C 118.5,76.5 118.5,75.5 118.5,74.5C 120.124,74.3601 121.29,75.0267 122,76.5C 125.335,73.8067 126.668,70.4734 126,66.5C 127.113,67.7111 128.28,67.7111 129.5,66.5C 131.27,65.1804 131.603,63.6804 130.5,62C 133.767,62.0631 135.934,60.5631 137,57.5C 137.278,58.4158 137.778,59.0825 138.5,59.5 Z"/></g>
<g><path style="opacity:1" fill="#5469d5" d="M 165.5,84.5 C 163.608,82.1261 161.274,80.1261 158.5,78.5C 156.479,79.8545 154.812,81.5212 153.5,83.5C 151.697,85.4813 150.03,87.648 148.5,90C 147.167,90.6667 145.833,91.3333 144.5,92C 142.57,95.0526 140.07,97.5526 137,99.5C 132.399,106.882 126.232,112.548 118.5,116.5C 131.298,103.202 144.298,90.0348 157.5,77C 161.826,77.4856 164.493,79.9856 165.5,84.5 Z"/></g>
<g><path style="opacity:1" fill="#738fd9" d="M 99.5,87.5 C 95.4939,93.5061 90.4939,98.5061 84.5,102.5C 85.7503,100.846 87.0837,99.1793 88.5,97.5C 92.1667,94.1667 95.8333,90.8333 99.5,87.5 Z"/></g>
<g><path style="opacity:1" fill="#8eb8e7" d="M 117.5,36.5 C 114.881,35.3546 112.881,33.5213 111.5,31C 110.5,30.3333 109.5,30.3333 108.5,31C 102.398,38.9395 95.7311,46.4395 88.5,53.5C 84.5192,54.7486 81.8526,57.4152 80.5,61.5C 73.7039,69.1284 66.3706,76.2951 58.5,83C 57.552,83.4828 56.552,83.6495 55.5,83.5C 55.5,84.5 55.5,85.5 55.5,86.5C 54.1779,86.33 53.0113,86.6634 52,87.5C 48.3799,92.7886 44.3799,97.7886 40,102.5C 39.5012,106.486 39.3345,110.486 39.5,114.5C 36.7978,108.891 36.9645,103.224 40,97.5C 61.7016,75.9653 83.2016,54.2986 104.5,32.5C 106.481,30.8564 108.481,29.1897 110.5,27.5C 113.565,29.979 115.898,32.979 117.5,36.5 Z"/></g>
<g><path style="opacity:1" fill="#5d8bf7" d="M 107.5,81.5 C 107.297,83.3904 107.963,84.8904 109.5,86C 107.473,87.8793 105.14,89.046 102.5,89.5C 102.657,90.8734 102.49,92.2068 102,93.5C 101.259,94.6405 100.425,94.6405 99.5,93.5C 99.1667,97.1667 97.1667,99.1667 93.5,99.5C 94.8333,100.5 94.8333,101.5 93.5,102.5C 89.8256,104.343 86.9923,107.01 85,110.5C 84.586,110.043 84.086,109.709 83.5,109.5C 82.7564,110.991 82.0897,112.491 81.5,114C 81,114.167 80.5,114.333 80,114.5C 76.9722,112.183 76.1388,113.017 77.5,117C 75.6131,117.78 73.9464,117.613 72.5,116.5C 73.5,116.5 74.5,116.5 75.5,116.5C 75.3433,115.127 75.51,113.793 76,112.5C 79.4124,109.593 82.2458,106.26 84.5,102.5C 90.4939,98.5061 95.4939,93.5061 99.5,87.5C 99.5,86.8333 99.8333,86.5 100.5,86.5C 103.056,85.2977 105.389,83.631 107.5,81.5 Z"/></g>
<g><path style="opacity:1" fill="#274af1" d="M 165.5,84.5 C 167.728,88.2424 168.062,92.2424 166.5,96.5C 166.167,96.5 165.833,96.5 165.5,96.5C 165.808,94.076 165.474,91.7427 164.5,89.5C 163.252,90.0402 162.085,90.7069 161,91.5C 159.693,94.669 158.193,98.169 156.5,102C 153.8,102.767 151.3,103.933 149,105.5C 147.591,104.219 146.091,103.219 144.5,102.5C 148.079,102.234 148.413,100.901 145.5,98.5C 145.833,98.1667 146.167,97.8333 146.5,97.5C 147.5,98.1667 148.5,98.8333 149.5,99.5C 150.848,97.3886 150.515,95.5553 148.5,94C 151.581,91.1864 153.247,87.6864 153.5,83.5C 154.812,81.5212 156.479,79.8545 158.5,78.5C 161.274,80.1261 163.608,82.1261 165.5,84.5 Z"/></g>
<g><path style="opacity:1" fill="#1d41f6" d="M 165.5,96.5 C 162.482,97.855 161.149,100.188 161.5,103.5C 160.5,103.5 159.5,103.5 158.5,103.5C 158.5,104.5 158.5,105.5 158.5,106.5C 156.876,106.36 155.71,107.027 155,108.5C 154.667,108.167 154.333,107.833 154,107.5C 153.517,108.448 153.351,109.448 153.5,110.5C 152.5,110.5 151.5,110.5 150.5,110.5C 150.5,111.833 150.5,113.167 150.5,114.5C 149.5,114.5 148.5,114.5 147.5,114.5C 147.5,115.833 147.5,117.167 147.5,118.5C 145.64,119.939 143.973,121.605 142.5,123.5C 140.508,123.672 138.842,123.005 137.5,121.5C 136.914,121.709 136.414,122.043 136,122.5C 136.65,116.104 135.65,116.104 133,122.5C 129.623,118.421 130.789,116.254 136.5,116C 136.727,114.865 137.06,113.698 137.5,112.5C 139.042,111.253 140.542,111.253 142,112.5C 142.317,110.699 142.984,110.366 144,111.5C 144.315,110.092 143.982,108.759 143,107.5C 139.101,105.448 138.768,103.114 142,100.5C 142.708,101.381 143.542,102.047 144.5,102.5C 146.091,103.219 147.591,104.219 149,105.5C 151.3,103.933 153.8,102.767 156.5,102C 158.193,98.169 159.693,94.669 161,91.5C 162.085,90.7069 163.252,90.0402 164.5,89.5C 165.474,91.7427 165.808,94.076 165.5,96.5 Z"/></g>
<g><path style="opacity:1" fill="#7694e0" d="M 84.5,102.5 C 82.2458,106.26 79.4124,109.593 76,112.5C 75.51,113.793 75.3433,115.127 75.5,116.5C 74.5,116.5 73.5,116.5 72.5,116.5C 71.8333,116.5 71.1667,116.5 70.5,116.5C 74.4245,111.242 79.0912,106.575 84.5,102.5 Z"/></g>
<g><path style="opacity:1" fill="#2f43d6" d="M 165.5,96.5 C 165.833,96.5 166.167,96.5 166.5,96.5C 166.509,98.3084 166.009,99.9751 165,101.5C 159.298,107.37 153.465,113.036 147.5,118.5C 147.5,117.167 147.5,115.833 147.5,114.5C 148.5,114.5 149.5,114.5 150.5,114.5C 150.5,113.167 150.5,111.833 150.5,110.5C 151.5,110.5 152.5,110.5 153.5,110.5C 153.351,109.448 153.517,108.448 154,107.5C 154.333,107.833 154.667,108.167 155,108.5C 155.71,107.027 156.876,106.36 158.5,106.5C 158.5,105.5 158.5,104.5 158.5,103.5C 159.5,103.5 160.5,103.5 161.5,103.5C 161.149,100.188 162.482,97.855 165.5,96.5 Z"/></g>
<g><path style="opacity:1" fill="#4b77f8" d="M 141.5,66.5 C 141.579,69.2706 141.079,71.9373 140,74.5C 137.779,75.9344 136.279,77.9344 135.5,80.5C 133.827,82.0863 131.827,82.7529 129.5,82.5C 129.5,83.8333 129.5,85.1667 129.5,86.5C 127.833,86.5 126.167,86.5 124.5,86.5C 124.116,88.9294 123.449,91.2627 122.5,93.5C 121.5,93.5 120.5,93.5 119.5,93.5C 119.5,94.8333 119.5,96.1667 119.5,97.5C 114.528,102.807 109.528,108.14 104.5,113.5C 104.167,113.5 103.833,113.5 103.5,113.5C 98.9832,113.02 96.6498,115.02 96.5,119.5C 95.1779,119.67 94.0113,119.337 93,118.5C 91.0858,119.676 91.2524,120.676 93.5,121.5C 92.624,122.251 91.624,122.751 90.5,123C 90.8333,123.333 91.1667,123.667 91.5,124C 90.2161,124.684 89.0495,124.517 88,123.5C 87.5065,125.134 87.3398,126.801 87.5,128.5C 83.988,129.005 81.6546,131.005 80.5,134.5C 79.3112,135.429 77.9778,135.762 76.5,135.5C 76.5,137.167 76.5,138.833 76.5,140.5C 73.5918,140.262 71.2585,141.262 69.5,143.5C 64.9919,140.149 63.6586,135.816 65.5,130.5C 67.6568,131.848 68.9901,133.848 69.5,136.5C 70.3857,135.675 70.719,134.675 70.5,133.5C 71.9305,133.579 73.2638,133.246 74.5,132.5C 75.7567,130.321 77.2567,128.321 79,126.5C 79.414,126.957 79.914,127.291 80.5,127.5C 81.2807,126.263 82.2807,125.263 83.5,124.5C 84.9097,122.051 84.5763,119.884 82.5,118C 83,117.5 83.5,117 84,116.5C 85.4659,118.325 87.2992,118.825 89.5,118C 90.5,116.333 91.5,114.667 92.5,113C 93.4491,112.383 94.2825,112.549 95,113.5C 95.5,112.333 96.3333,111.5 97.5,111C 97.0426,110.586 96.7093,110.086 96.5,109.5C 97.7277,106.929 99.7277,105.595 102.5,105.5C 103.866,102.936 105.533,100.436 107.5,98C 111.333,97.5136 113.166,95.6803 113,92.5C 114.242,91.1279 115.742,90.1279 117.5,89.5C 118.251,88.624 118.751,87.624 119,86.5C 119.893,87.7112 120.726,87.7112 121.5,86.5C 124.328,82.3633 126.662,78.0299 128.5,73.5C 134.686,75.5099 138.186,73.1766 139,66.5C 139.77,65.4019 140.603,65.4019 141.5,66.5 Z"/></g>
<g><path style="opacity:1" fill="#4d63d4" d="M 112.5,121.5 C 113.167,121.5 113.833,121.5 114.5,121.5C 111.58,126.581 107.58,130.247 102.5,132.5C 105.957,128.812 109.29,125.145 112.5,121.5 Z"/></g>
<g><path style="opacity:1" fill="#284cf2" d="M 153.5,83.5 C 153.247,87.6864 151.581,91.1864 148.5,94C 150.515,95.5553 150.848,97.3886 149.5,99.5C 148.5,98.8333 147.5,98.1667 146.5,97.5C 146.167,97.8333 145.833,98.1667 145.5,98.5C 148.413,100.901 148.079,102.234 144.5,102.5C 143.542,102.047 142.708,101.381 142,100.5C 138.768,103.114 139.101,105.448 143,107.5C 143.982,108.759 144.315,110.092 144,111.5C 142.984,110.366 142.317,110.699 142,112.5C 140.542,111.253 139.042,111.253 137.5,112.5C 137.06,113.698 136.727,114.865 136.5,116C 130.789,116.254 129.623,118.421 133,122.5C 135.65,116.104 136.65,116.104 136,122.5C 136.414,122.043 136.914,121.709 137.5,121.5C 138.842,123.005 140.508,123.672 142.5,123.5C 139.862,126.474 137.195,129.474 134.5,132.5C 133.167,132.5 131.833,132.5 130.5,132.5C 130.5,133.5 130.5,134.5 130.5,135.5C 129.833,136.833 128.833,137.833 127.5,138.5C 127.67,137.178 127.337,136.011 126.5,135C 127.449,134.383 128.282,134.549 129,135.5C 128.974,131.695 130.808,129.695 134.5,129.5C 134.662,127.473 134.495,125.473 134,123.5C 133.167,124.333 132.333,125.167 131.5,126C 126.258,128.068 120.925,129.902 115.5,131.5C 115.785,133.288 115.452,134.955 114.5,136.5C 111.721,137.673 111.054,139.507 112.5,142C 111.333,142.5 110.5,143.333 110,144.5C 107.41,143.55 105.41,141.884 104,139.5C 102.676,140.88 101.343,141.214 100,140.5C 99.6964,142.441 98.8631,144.107 97.5,145.5C 99.2788,148.115 99.9454,150.782 99.5,153.5C 96.7705,157.022 95.4371,161.022 95.5,165.5C 97.1667,165.5 98.8333,165.5 100.5,165.5C 96.6284,172.072 92.9617,172.072 89.5,165.5C 88.0119,160.641 87.3452,155.641 87.5,150.5C 88.5,150.5 89.5,150.5 90.5,150.5C 90.3433,149.127 90.51,147.793 91,146.5C 93.3745,144.461 95.3745,142.128 97,139.5C 98.3561,138.62 99.8561,138.286 101.5,138.5C 101.629,136.784 101.962,135.117 102.5,133.5C 102.5,133.167 102.5,132.833 102.5,132.5C 107.58,130.247 111.58,126.581 114.5,121.5C 115.833,119.833 117.167,118.167 118.5,116.5C 126.232,112.548 132.399,106.882 137,99.5C 140.07,97.5526 142.57,95.0526 144.5,92C 145.833,91.3333 147.167,90.6667 148.5,90C 150.03,87.648 151.697,85.4813 153.5,83.5 Z"/></g>
<g><path style="opacity:1" fill="#f0f6fc" d="M 88.5,97.5 C 87.0837,99.1793 85.7503,100.846 84.5,102.5C 79.0912,106.575 74.4245,111.242 70.5,116.5C 68.8564,116.81 67.8564,117.81 67.5,119.5C 61.8269,123.666 60.1602,128.999 62.5,135.5C 64.0324,139.26 66.0324,142.76 68.5,146C 72.6401,146.366 75.3067,144.533 76.5,140.5C 85.9145,131.752 94.9145,122.752 103.5,113.5C 103.833,113.5 104.167,113.5 104.5,113.5C 104.355,116.474 103.022,118.641 100.5,120C 103.738,121.985 106.238,121.152 108,117.5C 108.833,118.333 109.667,119.167 110.5,120C 108.3,122.534 105.8,124.701 103,126.5C 101.504,124.664 99.6711,123.831 97.5,124C 95.6667,125.833 93.8333,127.667 92,129.5C 91.2506,130.635 91.4173,131.635 92.5,132.5C 93.8139,133.313 94.9805,134.313 96,135.5C 96.9246,134.953 97.7579,134.287 98.5,133.5C 97.3595,132.575 97.3595,131.741 98.5,131C 103.836,128.675 108.336,125.175 112,120.5C 112.399,120.728 112.565,121.062 112.5,121.5C 109.29,125.145 105.957,128.812 102.5,132.5C 102.5,132.833 102.5,133.167 102.5,133.5C 101.527,133.987 100.527,134.487 99.5,135C 95.3011,140.028 90.9678,144.861 86.5,149.5C 87.0138,147.488 87.1805,145.488 87,143.5C 85.0283,142.695 83.5283,141.361 82.5,139.5C 78.4008,142.203 75.7341,145.536 74.5,149.5C 71.5,148.833 68.5,148.167 65.5,147.5C 64.3652,145.293 63.6985,142.96 63.5,140.5C 62.1667,140.5 60.8333,140.5 59.5,140.5C 59.334,135.156 59.5006,129.823 60,124.5C 61.5856,121.662 63.419,118.995 65.5,116.5C 65.2907,115.914 64.9574,115.414 64.5,115C 65.5786,114.044 66.7453,113.211 68,112.5C 69.1131,113.711 70.2798,113.711 71.5,112.5C 73.4928,108.507 76.4928,105.507 80.5,103.5C 80.2711,101.052 80.2711,98.5523 80.5,96C 83.0329,96.6111 85.6996,97.1111 88.5,97.5 Z"/></g>
<g><path style="opacity:1" fill="#7f9dd9" d="M 67.5,119.5 C 67.0469,123.027 65.5469,126.027 63,128.5C 62.5034,130.81 62.3367,133.143 62.5,135.5C 60.1602,128.999 61.8269,123.666 67.5,119.5 Z"/></g>
<g><path style="opacity:1" fill="#5c84ed" d="M 70.5,116.5 C 70.8212,118.048 71.8212,118.715 73.5,118.5C 73.6427,120.262 73.3094,121.929 72.5,123.5C 68.8642,125.207 68.8642,126.374 72.5,127C 70.771,128.789 70.1043,130.956 70.5,133.5C 70.719,134.675 70.3857,135.675 69.5,136.5C 68.9901,133.848 67.6568,131.848 65.5,130.5C 63.6586,135.816 64.9919,140.149 69.5,143.5C 71.2585,141.262 73.5918,140.262 76.5,140.5C 75.3067,144.533 72.6401,146.366 68.5,146C 66.0324,142.76 64.0324,139.26 62.5,135.5C 62.3367,133.143 62.5034,130.81 63,128.5C 65.5469,126.027 67.0469,123.027 67.5,119.5C 67.8564,117.81 68.8564,116.81 70.5,116.5 Z"/></g>
<g><path style="opacity:1" fill="#5375df" d="M 103.5,113.5 C 94.9145,122.752 85.9145,131.752 76.5,140.5C 76.5,138.833 76.5,137.167 76.5,135.5C 77.9778,135.762 79.3112,135.429 80.5,134.5C 81.6546,131.005 83.988,129.005 87.5,128.5C 87.3398,126.801 87.5065,125.134 88,123.5C 89.0495,124.517 90.2161,124.684 91.5,124C 91.1667,123.667 90.8333,123.333 90.5,123C 91.624,122.751 92.624,122.251 93.5,121.5C 91.2524,120.676 91.0858,119.676 93,118.5C 94.0113,119.337 95.1779,119.67 96.5,119.5C 96.6498,115.02 98.9832,113.02 103.5,113.5 Z"/></g>
<g><path style="opacity:1" fill="#4e60d0" d="M 134.5,132.5 C 133.564,133.974 132.23,134.974 130.5,135.5C 130.5,134.5 130.5,133.5 130.5,132.5C 131.833,132.5 133.167,132.5 134.5,132.5 Z"/></g>
<g><path style="opacity:1" fill="#2042f2" d="M 127.5,138.5 C 118.86,147.806 109.86,156.806 100.5,165.5C 98.8333,165.5 97.1667,165.5 95.5,165.5C 95.4371,161.022 96.7705,157.022 99.5,153.5C 99.9454,150.782 99.2788,148.115 97.5,145.5C 98.8631,144.107 99.6964,142.441 100,140.5C 101.343,141.214 102.676,140.88 104,139.5C 105.41,141.884 107.41,143.55 110,144.5C 110.5,143.333 111.333,142.5 112.5,142C 111.054,139.507 111.721,137.673 114.5,136.5C 115.452,134.955 115.785,133.288 115.5,131.5C 120.925,129.902 126.258,128.068 131.5,126C 132.333,125.167 133.167,124.333 134,123.5C 134.495,125.473 134.662,127.473 134.5,129.5C 130.808,129.695 128.974,131.695 129,135.5C 128.282,134.549 127.449,134.383 126.5,135C 127.337,136.011 127.67,137.178 127.5,138.5 Z"/></g>
<g><path style="opacity:1" fill="#485ed0" d="M 102.5,133.5 C 101.962,135.117 101.629,136.784 101.5,138.5C 99.8561,138.286 98.3561,138.62 97,139.5C 95.3745,142.128 93.3745,144.461 91,146.5C 90.51,147.793 90.3433,149.127 90.5,150.5C 89.5,150.5 88.5,150.5 87.5,150.5C 87.3452,155.641 88.0119,160.641 89.5,165.5C 88.2101,164.942 87.3768,163.942 87,162.5C 86.501,158.179 86.3343,153.846 86.5,149.5C 90.9678,144.861 95.3011,140.028 99.5,135C 100.527,134.487 101.527,133.987 102.5,133.5 Z"/></g>
</svg>
