<?xml version="1.0" encoding="UTF-8"?>
<!DOCTYPE svg PUBLIC "-//W3C//DTD SVG 1.1//EN" "http://www.w3.org/Graphics/SVG/1.1/DTD/svg11.dtd">
<svg xmlns="http://www.w3.org/2000/svg" version="1.1" width="200px" height="200px" style="shape-rendering:geometricPrecision; text-rendering:geometricPrecision; image-rendering:optimizeQuality; fill-rule:evenodd; clip-rule:evenodd" xmlns:xlink="http://www.w3.org/1999/xlink">
<g><path style="opacity:0.01" fill="#fffeff" d="M 75.5,0.5 C 75.5,0.166667 75.5,-0.166667 75.5,-0.5C 76.8333,-0.5 78.1667,-0.5 79.5,-0.5C 78.4324,0.434475 77.099,0.767809 75.5,0.5 Z"/></g>
<g><path style="opacity:0.861" fill="#fbfcfe" d="M 86.5,-0.5 C 95.1667,-0.5 103.833,-0.5 112.5,-0.5C 115.946,0.687399 119.613,1.35407 123.5,1.5C 125.599,2.61185 127.933,3.27852 130.5,3.5C 131.209,4.40397 132.209,4.73731 133.5,4.5C 133.842,5.33825 134.508,5.67158 135.5,5.5C 137.649,6.73623 139.982,7.73623 142.5,8.5C 142.842,9.33825 143.508,9.67158 144.5,9.5C 148.465,11.8184 152.465,14.1517 156.5,16.5C 156.5,17.1667 156.833,17.5 157.5,17.5C 161.311,20.2502 164.978,23.2502 168.5,26.5C 168.5,27.1667 168.833,27.5 169.5,27.5C 169.5,28.1667 169.833,28.5 170.5,28.5C 170.5,29.1667 170.833,29.5 171.5,29.5C 171.5,30.1667 171.833,30.5 172.5,30.5C 172.5,31.1667 172.833,31.5 173.5,31.5C 173.5,32.1667 173.833,32.5 174.5,32.5C 175.542,34.7914 177.042,35.7914 179,35.5C 179.617,36.4491 179.451,37.2825 178.5,38C 179.333,38.8333 180.167,39.6667 181,40.5C 181.667,39.1667 182.333,39.1667 183,40.5C 186.956,46.0794 190.123,52.0794 192.5,58.5C 191.167,59.1667 191.167,59.8333 192.5,60.5C 193.167,61.5 193.833,62.5 194.5,63.5C 193.167,64.1667 193.167,64.8333 194.5,65.5C 196.043,66.5598 197.043,68.0598 197.5,70C 196.591,71.7892 196.424,73.6226 197,75.5C 197.333,74.5 197.667,73.5 198,72.5C 198.232,73.7375 198.732,74.7375 199.5,75.5C 199.5,76.8333 199.5,78.1667 199.5,79.5C 198.167,81.8333 198.167,84.1667 199.5,86.5C 199.5,95.1667 199.5,103.833 199.5,112.5C 198.257,115.633 197.757,118.967 198,122.5C 198.232,121.263 198.732,120.263 199.5,119.5C 199.5,120.833 199.5,122.167 199.5,123.5C 198.732,124.263 198.232,125.263 198,126.5C 197.667,125.5 197.333,124.5 197,123.5C 196.691,124.766 196.191,125.933 195.5,127C 197.892,129.387 197.559,131.554 194.5,133.5C 193.167,134.167 193.167,134.833 194.5,135.5C 193.833,136.5 193.167,137.5 192.5,138.5C 191.662,138.842 191.328,139.508 191.5,140.5C 190.167,141.167 190.167,141.833 191.5,142.5C 189.872,147.09 187.705,151.423 185,155.5C 183.951,157.618 182.451,159.284 180.5,160.5C 180.167,159.167 179.833,159.167 179.5,160.5C 178.167,160.833 178.167,161.167 179.5,161.5C 179.573,163.027 178.906,164.027 177.5,164.5C 177.167,163.167 176.833,163.167 176.5,164.5C 175.833,164.5 175.5,164.833 175.5,165.5C 174.833,165.5 174.5,165.833 174.5,166.5C 173.833,166.5 173.5,166.833 173.5,167.5C 172.833,167.5 172.5,167.833 172.5,168.5C 171.833,168.5 171.5,168.833 171.5,169.5C 170.833,169.5 170.5,169.833 170.5,170.5C 169.833,170.5 169.5,170.833 169.5,171.5C 168.833,171.5 168.5,171.833 168.5,172.5C 167.833,172.5 167.5,172.833 167.5,173.5C 166.833,173.5 166.5,173.833 166.5,174.5C 165.833,174.5 165.5,174.833 165.5,175.5C 164.833,175.5 164.5,175.833 164.5,176.5C 163.833,176.5 163.5,176.833 163.5,177.5C 162.508,177.328 161.842,177.662 161.5,178.5C 160.833,178.5 160.5,178.833 160.5,179.5C 159.833,179.5 159.5,179.833 159.5,180.5C 158.508,180.328 157.842,180.662 157.5,181.5C 156.833,181.5 156.5,181.833 156.5,182.5C 155.508,182.328 154.842,182.662 154.5,183.5C 153.833,183.5 153.5,183.833 153.5,184.5C 152.508,184.328 151.842,184.662 151.5,185.5C 150.833,185.5 150.5,185.833 150.5,186.5C 149.508,186.328 148.842,186.662 148.5,187.5C 147.508,187.328 146.842,187.662 146.5,188.5C 145.508,188.328 144.842,188.662 144.5,189.5C 143.508,189.328 142.842,189.662 142.5,190.5C 141.508,190.328 140.842,190.662 140.5,191.5C 139.508,191.328 138.842,191.662 138.5,192.5C 137.209,192.263 136.209,192.596 135.5,193.5C 134.508,193.328 133.842,193.662 133.5,194.5C 132.209,194.263 131.209,194.596 130.5,195.5C 127.848,195.41 125.515,196.076 123.5,197.5C 119.613,197.646 115.946,198.313 112.5,199.5C 103.833,199.5 95.1667,199.5 86.5,199.5C 83.0542,198.313 79.3875,197.646 75.5,197.5C 74.4324,196.566 73.099,196.232 71.5,196.5C 69.7857,195.262 67.7857,194.595 65.5,194.5C 65.1583,193.662 64.4916,193.328 63.5,193.5C 62.791,192.596 61.791,192.263 60.5,192.5C 59.4863,191.326 58.153,190.66 56.5,190.5C 56.1583,189.662 55.4916,189.328 54.5,189.5C 50.5355,187.182 46.5355,184.848 42.5,182.5C 42.5,181.833 42.1667,181.5 41.5,181.5C 37.6892,178.75 34.0225,175.75 30.5,172.5C 30.5,171.833 30.1667,171.5 29.5,171.5C 29.5,170.833 29.1667,170.5 28.5,170.5C 28.5,169.833 28.1667,169.5 27.5,169.5C 27.5,168.833 27.1667,168.5 26.5,168.5C 26.5,167.833 26.1667,167.5 25.5,167.5C 25.5,166.833 25.1667,166.5 24.5,166.5C 23.4579,164.209 21.9579,163.209 20,163.5C 19.3828,162.551 19.5494,161.718 20.5,161C 19.5305,159.242 18.3639,158.742 17,159.5C 10.4554,151.176 6.6221,142.842 5.5,134.5C 4.23383,133.276 3.06717,131.943 2,130.5C 2.15536,128.189 2.15536,125.856 2,123.5C 1.66667,124.5 1.33333,125.5 1,126.5C 0.76791,125.263 0.26791,124.263 -0.5,123.5C -0.5,122.167 -0.5,120.833 -0.5,119.5C 0.833333,117.167 0.833333,114.833 -0.5,112.5C -0.5,103.833 -0.5,95.1667 -0.5,86.5C 0.833333,84.1667 0.833333,81.8333 -0.5,79.5C -0.5,78.1667 -0.5,76.8333 -0.5,75.5C 0.26791,74.7375 0.76791,73.7375 1,72.5C 1.33333,73.5 1.66667,74.5 2,75.5C 2.15536,73.144 2.15536,70.8107 2,68.5C 3.06717,67.0569 4.23383,65.7236 5.5,64.5C 5.16667,63.8333 4.83333,63.1667 4.5,62.5C 4.84569,61.3044 5.34569,61.3044 6,62.5C 6.5,61.5 7,60.5 7.5,59.5C 6.67443,58.549 6.50776,57.549 7,56.5C 8.13128,57.6039 8.96461,57.2705 9.5,55.5C 9.16667,54.8333 8.83333,54.1667 8.5,53.5C 11.0949,46.591 15.0949,41.4243 20.5,38C 19.5494,37.2825 19.3828,36.4491 20,35.5C 21.9579,35.7914 23.4579,34.7914 24.5,32.5C 25.1667,32.5 25.5,32.1667 25.5,31.5C 26.1667,31.5 26.5,31.1667 26.5,30.5C 27.1667,30.5 27.5,30.1667 27.5,29.5C 28.1667,29.5 28.5,29.1667 28.5,28.5C 29.1667,28.5 29.5,28.1667 29.5,27.5C 30.1667,27.5 30.5,27.1667 30.5,26.5C 34.0225,23.2502 37.6892,20.2502 41.5,17.5C 42.1667,17.5 42.5,17.1667 42.5,16.5C 46.5355,14.1517 50.5355,11.8184 54.5,9.5C 55.4916,9.67158 56.1583,9.33825 56.5,8.5C 59.0177,7.73623 61.351,6.73623 63.5,5.5C 64.4916,5.67158 65.1583,5.33825 65.5,4.5C 69.0477,3.86993 72.3811,2.86993 75.5,1.5C 79.3875,1.35407 83.0542,0.687399 86.5,-0.5 Z M 98.5,26.5 C 99.1667,26.8333 99.8333,27.1667 100.5,27.5C 100.427,29.0269 101.094,30.0269 102.5,30.5C 102.427,32.0269 103.094,33.0269 104.5,33.5C 104.5,34.1667 104.5,34.8333 104.5,35.5C 103.833,35.5 103.5,35.8333 103.5,36.5C 102.167,50.3172 101.501,64.4839 101.5,79C 101.501,93.5161 102.167,107.683 103.5,121.5C 104.231,121.942 105.231,122.109 106.5,122C 104.167,123.833 101.833,125.667 99.5,127.5C 95.4989,124.825 91.8323,121.825 88.5,118.5C 89.1667,118.5 89.8333,118.5 90.5,118.5C 91.7382,120.937 93.4048,121.937 95.5,121.5C 96.8327,107.683 97.4993,93.5161 97.5,79C 97.4993,64.4839 96.8327,50.3172 95.5,36.5C 95.1667,35.1667 94.8333,35.1667 94.5,36.5C 94.1667,36.5 93.8333,36.5 93.5,36.5C 93.5,35.8333 93.5,35.1667 93.5,34.5C 94.3382,34.1583 94.6716,33.4916 94.5,32.5C 95.9063,32.0269 96.573,31.0269 96.5,29.5C 97.9063,29.0269 98.573,28.0269 98.5,26.5 Z M 88.5,44.5 C 88.5,45.1667 88.5,45.8333 88.5,46.5C 87.8333,46.8333 87.1667,47.1667 86.5,47.5C 86.5,46.8333 86.5,46.1667 86.5,45.5C 87.1667,45.1667 87.8333,44.8333 88.5,44.5 Z M 114.5,51.5 C 115.167,51.8333 115.833,52.1667 116.5,52.5C 116.5,53.1667 116.5,53.8333 116.5,54.5C 115.833,54.1667 115.167,53.8333 114.5,53.5C 114.5,52.8333 114.5,52.1667 114.5,51.5 Z M 83.5,52.5 C 83.1667,53.8333 82.8333,55.1667 82.5,56.5C 81.8333,56.8333 81.1667,57.1667 80.5,57.5C 80.5,56.8333 80.5,56.1667 80.5,55.5C 81.3382,55.1583 81.6716,54.4916 81.5,53.5C 82.1667,53.1667 82.8333,52.8333 83.5,52.5 Z M 116.5,54.5 C 117.167,54.8333 117.833,55.1667 118.5,55.5C 118.5,56.1667 118.5,56.8333 118.5,57.5C 117.833,57.1667 117.167,56.8333 116.5,56.5C 116.5,55.8333 116.5,55.1667 116.5,54.5 Z M 80.5,57.5 C 80.5,58.1667 80.5,58.8333 80.5,59.5C 79.6618,59.8417 79.3284,60.5084 79.5,61.5C 78.6618,61.8417 78.3284,62.5084 78.5,63.5C 76.1782,64.8021 74.8449,66.8021 74.5,69.5C 73.6618,69.8417 73.3284,70.5084 73.5,71.5C 71.0499,73.6291 69.3833,76.2957 68.5,79.5C 66.7497,80.6594 65.7497,82.326 65.5,84.5C 63.7497,85.6594 62.7497,87.326 62.5,89.5C 61.0937,89.9731 60.427,90.9731 60.5,92.5C 59.1667,93.1667 59.1667,93.8333 60.5,94.5C 61.5,95.1667 62.5,95.8333 63.5,96.5C 63.1205,97.1331 62.7871,97.7997 62.5,98.5C 60.4559,96.7806 58.4559,95.1139 56.5,93.5C 58.9501,91.3709 60.6167,88.7043 61.5,85.5C 62.3382,85.1583 62.6716,84.4916 62.5,83.5C 63.9063,83.0269 64.573,82.0269 64.5,80.5C 65.9063,80.0269 66.573,79.0269 66.5,77.5C 67.9063,77.0269 68.573,76.0269 68.5,74.5C 70.2503,73.3406 71.2503,71.674 71.5,69.5C 72.3382,69.1583 72.6716,68.4916 72.5,67.5C 73.9063,67.0269 74.573,66.0269 74.5,64.5C 75.9063,64.0269 76.573,63.0269 76.5,61.5C 77.9063,61.0269 78.573,60.0269 78.5,58.5C 79.1667,58.1667 79.8333,57.8333 80.5,57.5 Z M 119.5,59.5 C 120.167,59.8333 120.833,60.1667 121.5,60.5C 121.427,62.0269 122.094,63.0269 123.5,63.5C 123.833,64.8333 124.167,66.1667 124.5,67.5C 123.833,67.1667 123.167,66.8333 122.5,66.5C 122.573,64.9731 121.906,63.9731 120.5,63.5C 120.672,62.5084 120.338,61.8417 119.5,61.5C 119.5,60.8333 119.5,60.1667 119.5,59.5 Z M 124.5,67.5 C 125.167,67.8333 125.833,68.1667 126.5,68.5C 126.427,70.0269 127.094,71.0269 128.5,71.5C 128.427,73.0269 129.094,74.0269 130.5,74.5C 130.427,76.0269 131.094,77.0269 132.5,77.5C 132.328,78.4916 132.662,79.1583 133.5,79.5C 133.427,81.0269 134.094,82.0269 135.5,82.5C 135.75,84.674 136.75,86.3406 138.5,87.5C 138.427,89.0269 139.094,90.0269 140.5,90.5C 140.427,92.0269 141.094,93.0269 142.5,93.5C 140.861,94.4725 139.527,95.8058 138.5,97.5C 137.833,97.5 137.167,97.5 136.5,97.5C 136.5,96.8333 136.167,96.5 135.5,96.5C 136.5,95.8333 137.5,95.1667 138.5,94.5C 139.043,94.44 139.376,94.1067 139.5,93.5C 138.479,92.0986 137.479,90.7653 136.5,89.5C 135.617,86.2957 133.95,83.6291 131.5,81.5C 131.672,80.5084 131.338,79.8417 130.5,79.5C 130.155,76.8021 128.822,74.8021 126.5,73.5C 126.672,72.5084 126.338,71.8417 125.5,71.5C 125.167,70.1667 124.833,68.8333 124.5,67.5 Z M 132.5,99.5 C 133.167,99.5 133.833,99.5 134.5,99.5C 134.167,100.167 133.833,100.833 133.5,101.5C 132.833,101.5 132.167,101.5 131.5,101.5C 131.833,100.833 132.167,100.167 132.5,99.5 Z M 65.5,100.5 C 66.1667,100.5 66.8333,100.5 67.5,100.5C 68.0606,103.187 67.3939,103.187 65.5,100.5 Z M 130.5,100.5 C 129.494,101.396 129.494,102.062 130.5,102.5C 130.5,102.833 130.5,103.167 130.5,103.5C 129.518,104.141 128.518,104.807 127.5,105.5C 127.542,104.479 127.542,103.479 127.5,102.5C 127.973,101.094 128.973,100.427 130.5,100.5 Z M 73.5,105.5 C 73.5,105.833 73.5,106.167 73.5,106.5C 71.8042,106.315 70.4709,105.481 69.5,104C 71.0657,103.7 72.399,104.2 73.5,105.5 Z M 74.5,107.5 C 75.1667,107.5 75.8333,107.5 76.5,107.5C 77.1667,108.5 77.8333,109.5 78.5,110.5C 76.5956,110.262 75.2623,109.262 74.5,107.5 Z M 122.5,107.5 C 123.167,107.5 123.833,107.5 124.5,107.5C 122.606,110.187 121.939,110.187 122.5,107.5 Z M 78.5,110.5 C 80.7488,111.08 82.4154,112.413 83.5,114.5C 81.2512,113.92 79.5846,112.587 78.5,110.5 Z M 119.5,112.5 C 118.833,112.5 118.167,112.5 117.5,112.5C 119.394,109.813 120.061,109.813 119.5,112.5 Z M 83.5,114.5 C 85.0618,114.733 86.3951,115.4 87.5,116.5C 87.8333,117.167 88.1667,117.833 88.5,118.5C 86.2512,117.92 84.5846,116.587 83.5,114.5 Z M 113.5,114.5 C 114.167,114.5 114.833,114.5 115.5,114.5C 115.167,115.167 114.833,115.833 114.5,116.5C 113.833,116.5 113.167,116.5 112.5,116.5C 112.833,115.833 113.167,115.167 113.5,114.5 Z M 111.5,117.5 C 111.5,117.833 111.5,118.167 111.5,118.5C 110.399,119.8 109.066,120.3 107.5,120C 108.471,118.519 109.804,117.685 111.5,117.5 Z M 69.5,144.5 C 70.4924,152.316 70.8257,160.316 70.5,168.5C 73.1873,168.336 75.854,168.503 78.5,169C 75.5184,169.498 72.5184,169.665 69.5,169.5C 69.5,161.167 69.5,152.833 69.5,144.5 Z M 97.5,145.5 C 95.5,145.5 93.5,145.5 91.5,145.5C 91.5,149.167 91.5,152.833 91.5,156.5C 93.5,156.5 95.5,156.5 97.5,156.5C 97.5,156.833 97.5,157.167 97.5,157.5C 95.712,157.215 94.0453,157.548 92.5,158.5C 94.1673,159.666 95.834,159.666 97.5,158.5C 97.5,159.833 97.5,161.167 97.5,162.5C 95.8863,160.925 93.8863,160.259 91.5,160.5C 91.6646,163.518 91.498,166.518 91,169.5C 90.5003,161.173 90.3336,152.84 90.5,144.5C 93.0593,144.198 95.3926,144.532 97.5,145.5 Z M 97.5,145.5 C 98.7773,146.694 99.4439,148.36 99.5,150.5C 99.4932,152.369 99.1599,154.036 98.5,155.5C 98.7471,152.061 98.4137,148.728 97.5,145.5 Z M 98.5,158.5 C 100.088,160.527 100.588,162.861 100,165.5C 99.7679,164.263 99.2679,163.263 98.5,162.5C 98.5,161.167 98.5,159.833 98.5,158.5 Z M 124.5,163.5 C 126.646,163.696 126.812,164.696 125,166.5C 124.517,165.552 124.351,164.552 124.5,163.5 Z M 115.5,166.5 C 116.5,166.833 117.167,167.5 117.5,168.5C 116.167,168.5 115.5,167.833 115.5,166.5 Z"/></g>
<g><path style="opacity:0.01" fill="#fffeff" d="M 119.5,-0.5 C 120.833,-0.5 122.167,-0.5 123.5,-0.5C 123.5,-0.166667 123.5,0.166667 123.5,0.5C 121.901,0.767809 120.568,0.434475 119.5,-0.5 Z"/></g>
<g><path style="opacity:0.01" fill="#fffeff" d="M 75.5,0.5 C 75.5,0.833333 75.5,1.16667 75.5,1.5C 71.5,1.16667 71.5,0.833333 75.5,0.5 Z"/></g>
<g><path style="opacity:0.01" fill="#fffeff" d="M 123.5,1.5 C 123.5,1.16667 123.5,0.833333 123.5,0.5C 127.5,0.833333 127.5,1.16667 123.5,1.5 Z"/></g>
<g><path style="opacity:0.012" fill="#fefffe" d="M 130.5,3.5 C 130.897,2.47498 131.563,2.30831 132.5,3C 131.906,3.46434 131.239,3.63101 130.5,3.5 Z"/></g>
<g><path style="opacity:0.008" fill="#fffeff" d="M 65.5,4.5 C 64.5084,4.32842 63.8417,4.66175 63.5,5.5C 61.6214,5.60682 61.2881,5.10682 62.5,4C 63.7494,3.25988 64.7494,3.42654 65.5,4.5 Z"/></g>
<g><path style="opacity:0.008" fill="#fffeff" d="M 133.5,4.5 C 134.849,3.2035 136.182,3.37017 137.5,5C 136.906,5.46434 136.239,5.63101 135.5,5.5C 135.158,4.66175 134.492,4.32842 133.5,4.5 Z"/></g>
<g><path style="opacity:0.007" fill="#fffeff" d="M 56.5,8.5 C 55.5084,8.32842 54.8417,8.66175 54.5,9.5C 52.6214,9.60682 52.2881,9.10682 53.5,8C 54.7494,7.25988 55.7494,7.42654 56.5,8.5 Z"/></g>
<g><path style="opacity:0.007" fill="#fffeff" d="M 142.5,8.5 C 143.849,7.2035 145.182,7.37017 146.5,9C 145.906,9.46434 145.239,9.63101 144.5,9.5C 144.158,8.66175 143.492,8.32842 142.5,8.5 Z"/></g>
<g><path style="opacity:0.996" fill="#317dfb" d="M 87.5,6.5 C 137.516,4.73447 171.349,27.0678 189,73.5C 197.718,111.143 188.218,143.31 160.5,170C 126.661,196.082 90.6605,199.416 52.5,180C 14.384,154.242 0.217337,118.742 10,73.5C 20.0069,42.8265 40.1735,21.9932 70.5,11C 76.2943,9.49065 81.961,7.99065 87.5,6.5 Z M 98.5,26.5 C 99.1667,26.8333 99.8333,27.1667 100.5,27.5C 100.427,29.0269 101.094,30.0269 102.5,30.5C 102.427,32.0269 103.094,33.0269 104.5,33.5C 104.5,34.1667 104.5,34.8333 104.5,35.5C 103.833,35.5 103.5,35.8333 103.5,36.5C 102.167,50.3172 101.501,64.4839 101.5,79C 101.501,93.5161 102.167,107.683 103.5,121.5C 104.231,121.942 105.231,122.109 106.5,122C 104.167,123.833 101.833,125.667 99.5,127.5C 95.4989,124.825 91.8323,121.825 88.5,118.5C 89.1667,118.5 89.8333,118.5 90.5,118.5C 91.7382,120.937 93.4048,121.937 95.5,121.5C 96.8327,107.683 97.4993,93.5161 97.5,79C 97.4993,64.4839 96.8327,50.3172 95.5,36.5C 95.1667,35.1667 94.8333,35.1667 94.5,36.5C 94.1667,36.5 93.8333,36.5 93.5,36.5C 93.5,35.8333 93.5,35.1667 93.5,34.5C 94.3382,34.1583 94.6716,33.4916 94.5,32.5C 95.9063,32.0269 96.573,31.0269 96.5,29.5C 97.9063,29.0269 98.573,28.0269 98.5,26.5 Z M 88.5,44.5 C 88.5,45.1667 88.5,45.8333 88.5,46.5C 87.8333,46.8333 87.1667,47.1667 86.5,47.5C 86.5,46.8333 86.5,46.1667 86.5,45.5C 87.1667,45.1667 87.8333,44.8333 88.5,44.5 Z M 114.5,51.5 C 115.167,51.8333 115.833,52.1667 116.5,52.5C 116.5,53.1667 116.5,53.8333 116.5,54.5C 115.833,54.1667 115.167,53.8333 114.5,53.5C 114.5,52.8333 114.5,52.1667 114.5,51.5 Z M 83.5,52.5 C 83.1667,53.8333 82.8333,55.1667 82.5,56.5C 81.8333,56.8333 81.1667,57.1667 80.5,57.5C 80.5,56.8333 80.5,56.1667 80.5,55.5C 81.3382,55.1583 81.6716,54.4916 81.5,53.5C 82.1667,53.1667 82.8333,52.8333 83.5,52.5 Z M 116.5,54.5 C 117.167,54.8333 117.833,55.1667 118.5,55.5C 118.5,56.1667 118.5,56.8333 118.5,57.5C 117.833,57.1667 117.167,56.8333 116.5,56.5C 116.5,55.8333 116.5,55.1667 116.5,54.5 Z M 80.5,57.5 C 80.5,58.1667 80.5,58.8333 80.5,59.5C 79.6618,59.8417 79.3284,60.5084 79.5,61.5C 78.6618,61.8417 78.3284,62.5084 78.5,63.5C 76.1782,64.8021 74.8449,66.8021 74.5,69.5C 73.6618,69.8417 73.3284,70.5084 73.5,71.5C 71.0499,73.6291 69.3833,76.2957 68.5,79.5C 66.7497,80.6594 65.7497,82.326 65.5,84.5C 63.7497,85.6594 62.7497,87.326 62.5,89.5C 61.0937,89.9731 60.427,90.9731 60.5,92.5C 59.1667,93.1667 59.1667,93.8333 60.5,94.5C 61.5,95.1667 62.5,95.8333 63.5,96.5C 63.1205,97.1331 62.7871,97.7997 62.5,98.5C 60.4559,96.7806 58.4559,95.1139 56.5,93.5C 58.9501,91.3709 60.6167,88.7043 61.5,85.5C 62.3382,85.1583 62.6716,84.4916 62.5,83.5C 63.9063,83.0269 64.573,82.0269 64.5,80.5C 65.9063,80.0269 66.573,79.0269 66.5,77.5C 67.9063,77.0269 68.573,76.0269 68.5,74.5C 70.2503,73.3406 71.2503,71.674 71.5,69.5C 72.3382,69.1583 72.6716,68.4916 72.5,67.5C 73.9063,67.0269 74.573,66.0269 74.5,64.5C 75.9063,64.0269 76.573,63.0269 76.5,61.5C 77.9063,61.0269 78.573,60.0269 78.5,58.5C 79.1667,58.1667 79.8333,57.8333 80.5,57.5 Z M 119.5,59.5 C 120.167,59.8333 120.833,60.1667 121.5,60.5C 121.427,62.0269 122.094,63.0269 123.5,63.5C 123.833,64.8333 124.167,66.1667 124.5,67.5C 123.833,67.1667 123.167,66.8333 122.5,66.5C 122.573,64.9731 121.906,63.9731 120.5,63.5C 120.672,62.5084 120.338,61.8417 119.5,61.5C 119.5,60.8333 119.5,60.1667 119.5,59.5 Z M 124.5,67.5 C 125.167,67.8333 125.833,68.1667 126.5,68.5C 126.427,70.0269 127.094,71.0269 128.5,71.5C 128.427,73.0269 129.094,74.0269 130.5,74.5C 130.427,76.0269 131.094,77.0269 132.5,77.5C 132.328,78.4916 132.662,79.1583 133.5,79.5C 133.427,81.0269 134.094,82.0269 135.5,82.5C 135.75,84.674 136.75,86.3406 138.5,87.5C 138.427,89.0269 139.094,90.0269 140.5,90.5C 140.427,92.0269 141.094,93.0269 142.5,93.5C 140.861,94.4725 139.527,95.8058 138.5,97.5C 137.833,97.5 137.167,97.5 136.5,97.5C 136.5,96.8333 136.167,96.5 135.5,96.5C 136.5,95.8333 137.5,95.1667 138.5,94.5C 139.043,94.44 139.376,94.1067 139.5,93.5C 138.479,92.0986 137.479,90.7653 136.5,89.5C 135.617,86.2957 133.95,83.6291 131.5,81.5C 131.672,80.5084 131.338,79.8417 130.5,79.5C 130.155,76.8021 128.822,74.8021 126.5,73.5C 126.672,72.5084 126.338,71.8417 125.5,71.5C 125.167,70.1667 124.833,68.8333 124.5,67.5 Z M 132.5,99.5 C 133.167,99.5 133.833,99.5 134.5,99.5C 134.167,100.167 133.833,100.833 133.5,101.5C 132.833,101.5 132.167,101.5 131.5,101.5C 131.833,100.833 132.167,100.167 132.5,99.5 Z M 65.5,100.5 C 66.1667,100.5 66.8333,100.5 67.5,100.5C 68.0606,103.187 67.3939,103.187 65.5,100.5 Z M 130.5,100.5 C 129.494,101.396 129.494,102.062 130.5,102.5C 130.5,102.833 130.5,103.167 130.5,103.5C 129.518,104.141 128.518,104.807 127.5,105.5C 127.542,104.479 127.542,103.479 127.5,102.5C 127.973,101.094 128.973,100.427 130.5,100.5 Z M 73.5,105.5 C 73.5,105.833 73.5,106.167 73.5,106.5C 71.8042,106.315 70.4709,105.481 69.5,104C 71.0657,103.7 72.399,104.2 73.5,105.5 Z M 74.5,107.5 C 75.1667,107.5 75.8333,107.5 76.5,107.5C 77.1667,108.5 77.8333,109.5 78.5,110.5C 76.5956,110.262 75.2623,109.262 74.5,107.5 Z M 122.5,107.5 C 123.167,107.5 123.833,107.5 124.5,107.5C 122.606,110.187 121.939,110.187 122.5,107.5 Z M 78.5,110.5 C 80.7488,111.08 82.4154,112.413 83.5,114.5C 81.2512,113.92 79.5846,112.587 78.5,110.5 Z M 119.5,112.5 C 118.833,112.5 118.167,112.5 117.5,112.5C 119.394,109.813 120.061,109.813 119.5,112.5 Z M 83.5,114.5 C 85.0618,114.733 86.3951,115.4 87.5,116.5C 87.8333,117.167 88.1667,117.833 88.5,118.5C 86.2512,117.92 84.5846,116.587 83.5,114.5 Z M 113.5,114.5 C 114.167,114.5 114.833,114.5 115.5,114.5C 115.167,115.167 114.833,115.833 114.5,116.5C 113.833,116.5 113.167,116.5 112.5,116.5C 112.833,115.833 113.167,115.167 113.5,114.5 Z M 111.5,117.5 C 111.5,117.833 111.5,118.167 111.5,118.5C 110.399,119.8 109.066,120.3 107.5,120C 108.471,118.519 109.804,117.685 111.5,117.5 Z M 69.5,144.5 C 69.5,152.833 69.5,161.167 69.5,169.5C 72.5184,169.665 75.5184,169.498 78.5,169C 75.854,168.503 73.1873,168.336 70.5,168.5C 70.8257,160.316 70.4924,152.316 69.5,144.5 Z M 97.5,145.5 C 95.5,145.5 93.5,145.5 91.5,145.5C 91.5,149.167 91.5,152.833 91.5,156.5C 93.5,156.5 95.5,156.5 97.5,156.5C 97.5,156.833 97.5,157.167 97.5,157.5C 95.712,157.215 94.0453,157.548 92.5,158.5C 94.1673,159.666 95.834,159.666 97.5,158.5C 97.5,159.833 97.5,161.167 97.5,162.5C 95.8863,160.925 93.8863,160.259 91.5,160.5C 91.6646,163.518 91.498,166.518 91,169.5C 90.5003,161.173 90.3336,152.84 90.5,144.5C 93.0593,144.198 95.3926,144.532 97.5,145.5 Z M 97.5,145.5 C 98.7773,146.694 99.4439,148.36 99.5,150.5C 99.4932,152.369 99.1599,154.036 98.5,155.5C 98.7471,152.061 98.4137,148.728 97.5,145.5 Z M 98.5,158.5 C 100.088,160.527 100.588,162.861 100,165.5C 99.7679,164.263 99.2679,163.263 98.5,162.5C 98.5,161.167 98.5,159.833 98.5,158.5 Z M 124.5,163.5 C 124.351,164.552 124.517,165.552 125,166.5C 126.812,164.696 126.646,163.696 124.5,163.5 Z M 115.5,166.5 C 116.5,166.833 117.167,167.5 117.5,168.5C 116.167,168.5 115.5,167.833 115.5,166.5 Z"/></g>
<g><path style="opacity:0.007" fill="#fffeff" d="M 42.5,16.5 C 41.8333,16.5 41.5,16.8333 41.5,17.5C 39.0248,17.2533 39.0248,16.5866 41.5,15.5C 42.1067,15.6236 42.44,15.9569 42.5,16.5 Z"/></g>
<g><path style="opacity:0.007" fill="#fffeff" d="M 156.5,16.5 C 157.497,15.2875 158.497,15.4542 159.5,17C 158.906,17.4643 158.239,17.631 157.5,17.5C 156.833,17.5 156.5,17.1667 156.5,16.5 Z"/></g>
<g><path style="opacity:0.008" fill="#fffeff" d="M 30.5,26.5 C 29.8333,26.5 29.5,26.8333 29.5,27.5C 28.8333,27.5 28.5,27.8333 28.5,28.5C 27.8333,28.5 27.5,28.8333 27.5,29.5C 26.8333,29.5 26.5,29.8333 26.5,30.5C 26.1667,30.5 25.8333,30.5 25.5,30.5C 26.2385,27.3737 27.9051,26.0403 30.5,26.5 Z"/></g>
<g><path style="opacity:0.008" fill="#fffeff" d="M 168.5,26.5 C 171.095,26.0403 172.762,27.3737 173.5,30.5C 173.167,30.5 172.833,30.5 172.5,30.5C 171.833,30.5 171.5,30.1667 171.5,29.5C 170.833,29.5 170.5,29.1667 170.5,28.5C 169.833,28.5 169.5,28.1667 169.5,27.5C 168.833,27.5 168.5,27.1667 168.5,26.5 Z"/></g>
<g><path style="opacity:0.01" fill="#fffeff" d="M 25.5,30.5 C 25.5,30.8333 25.5,31.1667 25.5,31.5C 24.8333,31.5 24.5,31.8333 24.5,32.5C 23.2426,31.3774 23.5759,30.7107 25.5,30.5 Z"/></g>
<g><path style="opacity:0.01" fill="#fffeff" d="M 173.5,31.5 C 173.5,31.1667 173.5,30.8333 173.5,30.5C 175.424,30.7107 175.757,31.3774 174.5,32.5C 173.833,32.5 173.5,32.1667 173.5,31.5 Z"/></g>
<g><path style="opacity:0.01" fill="#fefffe" d="M 192.5,58.5 C 193.833,59.1667 193.833,59.8333 192.5,60.5C 192.5,59.8333 192.5,59.1667 192.5,58.5 Z"/></g>
<g><path style="opacity:0.01" fill="#fefffe" d="M 194.5,63.5 C 195.833,64.1667 195.833,64.8333 194.5,65.5C 194.5,64.8333 194.5,64.1667 194.5,63.5 Z"/></g>
<g><path style="opacity:0.004" fill="#43adff" d="M 136.5,97.5 C 137.167,97.5 137.833,97.5 138.5,97.5C 138.5,97.8333 138.5,98.1667 138.5,98.5C 137.833,98.5 137.5,98.8333 137.5,99.5C 136.508,99.6716 135.842,99.3382 135.5,98.5C 136.167,98.5 136.5,98.1667 136.5,97.5 Z"/></g>
<g><path style="opacity:0.012" fill="#244efb" d="M 66.5,98.5 C 66.5,99.1667 66.8333,99.5 67.5,99.5C 67.5,99.8333 67.5,100.167 67.5,100.5C 66.8333,100.5 66.1667,100.5 65.5,100.5C 63.9689,99.0755 64.3023,98.4088 66.5,98.5 Z"/></g>
<g><path style="opacity:0.004" fill="#44aefe" d="M 131.5,101.5 C 132.167,101.5 132.833,101.5 133.5,101.5C 133.5,101.833 133.5,102.167 133.5,102.5C 132.833,102.5 132.5,102.833 132.5,103.5C 131.833,103.5 131.167,103.5 130.5,103.5C 130.5,103.167 130.5,102.833 130.5,102.5C 131.167,102.5 131.5,102.167 131.5,101.5 Z"/></g>
<g><path style="opacity:0.012" fill="#4276fc" d="M 73.5,106.5 C 73.5,106.167 73.5,105.833 73.5,105.5C 74.1667,105.5 74.8333,105.5 75.5,105.5C 75.5,106.167 75.8333,106.5 76.5,106.5C 76.5,106.833 76.5,107.167 76.5,107.5C 75.8333,107.5 75.1667,107.5 74.5,107.5C 74.5,106.833 74.1667,106.5 73.5,106.5 Z"/></g>
<g><path style="opacity:0.004" fill="#2956fe" d="M 123.5,105.5 C 125.698,105.409 126.031,106.075 124.5,107.5C 123.833,107.5 123.167,107.5 122.5,107.5C 122.5,107.167 122.5,106.833 122.5,106.5C 123.167,106.5 123.5,106.167 123.5,105.5 Z"/></g>
<g><path style="opacity:0.01" fill="#fefffe" d="M 194.5,133.5 C 195.833,134.167 195.833,134.833 194.5,135.5C 194.5,134.833 194.5,134.167 194.5,133.5 Z"/></g>
<g><path style="opacity:0.008" fill="#fefffe" d="M 192.5,138.5 C 193.833,139.167 193.833,139.833 192.5,140.5C 192.5,139.833 192.5,139.167 192.5,138.5 Z"/></g>
<g><path style="opacity:0.012" fill="#fefffe" d="M 191.5,140.5 C 191.833,140.5 192.167,140.5 192.5,140.5C 192.672,141.492 192.338,142.158 191.5,142.5C 191.5,141.833 191.5,141.167 191.5,140.5 Z"/></g>
<g><path style="opacity:0.795" fill="#377ffb" d="M 97.5,145.5 C 98.4137,148.728 98.7471,152.061 98.5,155.5C 97.8333,155.5 97.5,155.833 97.5,156.5C 95.5,156.5 93.5,156.5 91.5,156.5C 91.5,152.833 91.5,149.167 91.5,145.5C 93.5,145.5 95.5,145.5 97.5,145.5 Z"/></g>
<g><path style="opacity:0.016" fill="#4081fd" d="M 97.5,157.5 C 97.5,157.833 97.5,158.167 97.5,158.5C 95.834,159.666 94.1673,159.666 92.5,158.5C 94.0453,157.548 95.712,157.215 97.5,157.5 Z"/></g>
<g><path style="opacity:0.012" fill="#fefffe" d="M 179.5,160.5 C 179.833,160.5 180.167,160.5 180.5,160.5C 180.315,161.17 179.981,161.17 179.5,160.5 Z"/></g>
<g><path style="opacity:0.012" fill="#fefffe" d="M 176.5,164.5 C 176.833,164.5 177.167,164.5 177.5,164.5C 177.315,165.17 176.981,165.17 176.5,164.5 Z"/></g>
<g><path style="opacity:0.012" fill="#fefffe" d="M 175.5,165.5 C 175.833,165.5 176.167,165.5 176.5,165.5C 176.315,166.17 175.981,166.17 175.5,165.5 Z"/></g>
<g><path style="opacity:0.01" fill="#fffeff" d="M 24.5,166.5 C 25.1667,166.5 25.5,166.833 25.5,167.5C 25.5,167.833 25.5,168.167 25.5,168.5C 23.5759,168.289 23.2426,167.623 24.5,166.5 Z"/></g>
<g><path style="opacity:0.012" fill="#fefffe" d="M 174.5,166.5 C 174.833,166.5 175.167,166.5 175.5,166.5C 175.315,167.17 174.981,167.17 174.5,166.5 Z"/></g>
<g><path style="opacity:0.012" fill="#fefffe" d="M 173.5,167.5 C 173.833,167.5 174.167,167.5 174.5,167.5C 174.315,168.17 173.981,168.17 173.5,167.5 Z"/></g>
<g><path style="opacity:0.008" fill="#fffeff" d="M 25.5,168.5 C 25.8333,168.5 26.1667,168.5 26.5,168.5C 27.1667,168.5 27.5,168.833 27.5,169.5C 28.1667,169.5 28.5,169.833 28.5,170.5C 29.1667,170.5 29.5,170.833 29.5,171.5C 30.1667,171.5 30.5,171.833 30.5,172.5C 27.9051,172.96 26.2385,171.626 25.5,168.5 Z"/></g>
<g><path style="opacity:0.009" fill="#fffeff" d="M 172.5,168.5 C 172.833,168.5 173.167,168.5 173.5,168.5C 173.5,169.833 172.833,170.5 171.5,170.5C 171.5,170.167 171.5,169.833 171.5,169.5C 172.167,169.5 172.5,169.167 172.5,168.5 Z"/></g>
<g><path style="opacity:0.012" fill="#fefffe" d="M 170.5,170.5 C 170.833,170.5 171.167,170.5 171.5,170.5C 171.315,171.17 170.981,171.17 170.5,170.5 Z"/></g>
<g><path style="opacity:0.012" fill="#fefffe" d="M 169.5,171.5 C 169.833,171.5 170.167,171.5 170.5,171.5C 170.315,172.17 169.981,172.17 169.5,171.5 Z"/></g>
<g><path style="opacity:0.012" fill="#fefffe" d="M 168.5,172.5 C 168.833,172.5 169.167,172.5 169.5,172.5C 169.315,173.17 168.981,173.17 168.5,172.5 Z"/></g>
<g><path style="opacity:0.016" fill="#fefffe" d="M 167.5,173.5 C 167.833,173.5 168.167,173.5 168.5,173.5C 168.315,174.17 167.981,174.17 167.5,173.5 Z"/></g>
<g><path style="opacity:0.012" fill="#fefffe" d="M 166.5,174.5 C 166.833,174.5 167.167,174.5 167.5,174.5C 167.315,175.17 166.981,175.17 166.5,174.5 Z"/></g>
<g><path style="opacity:0.012" fill="#fefffe" d="M 165.5,175.5 C 165.833,175.5 166.167,175.5 166.5,175.5C 166.315,176.17 165.981,176.17 165.5,175.5 Z"/></g>
<g><path style="opacity:0.012" fill="#fefffe" d="M 164.5,176.5 C 164.833,176.5 165.167,176.5 165.5,176.5C 165.315,177.17 164.981,177.17 164.5,176.5 Z"/></g>
<g><path style="opacity:0.004" fill="#fefefe" d="M 163.5,177.5 C 163.833,177.5 164.167,177.5 164.5,177.5C 164.315,178.17 163.981,178.17 163.5,177.5 Z"/></g>
<g><path style="opacity:0.006" fill="#fffeff" d="M 161.5,179.5 C 161.5,179.167 161.5,178.833 161.5,178.5C 162.167,178.5 162.833,178.5 163.5,178.5C 163.158,179.338 162.492,179.672 161.5,179.5 Z"/></g>
<g><path style="opacity:0.016" fill="#fefffe" d="M 160.5,179.5 C 160.833,179.5 161.167,179.5 161.5,179.5C 161.315,180.17 160.981,180.17 160.5,179.5 Z"/></g>
<g><path style="opacity:0.012" fill="#fefffe" d="M 159.5,180.5 C 159.833,180.5 160.167,180.5 160.5,180.5C 160.315,181.17 159.981,181.17 159.5,180.5 Z"/></g>
<g><path style="opacity:0.007" fill="#fffeff" d="M 41.5,181.5 C 42.1667,181.5 42.5,181.833 42.5,182.5C 41.5029,183.713 40.5029,183.546 39.5,182C 40.0944,181.536 40.7611,181.369 41.5,181.5 Z"/></g>
<g><path style="opacity:0.008" fill="#fffeff" d="M 157.5,182.5 C 157.5,182.167 157.5,181.833 157.5,181.5C 158.167,181.5 158.833,181.5 159.5,181.5C 159.158,182.338 158.492,182.672 157.5,182.5 Z"/></g>
<g><path style="opacity:0.012" fill="#fefffe" d="M 156.5,182.5 C 156.833,182.5 157.167,182.5 157.5,182.5C 157.315,183.17 156.981,183.17 156.5,182.5 Z"/></g>
<g><path style="opacity:0.007" fill="#fffeff" d="M 154.5,183.5 C 155.167,183.5 155.833,183.5 156.5,183.5C 156.027,184.906 155.027,185.573 153.5,185.5C 153.5,185.167 153.5,184.833 153.5,184.5C 154.167,184.5 154.5,184.167 154.5,183.5 Z"/></g>
<g><path style="opacity:0.006" fill="#fffeff" d="M 151.5,186.5 C 151.5,186.167 151.5,185.833 151.5,185.5C 152.167,185.5 152.833,185.5 153.5,185.5C 153.158,186.338 152.492,186.672 151.5,186.5 Z"/></g>
<g><path style="opacity:0.012" fill="#fefffe" d="M 150.5,186.5 C 150.833,186.5 151.167,186.5 151.5,186.5C 151.315,187.17 150.981,187.17 150.5,186.5 Z"/></g>
<g><path style="opacity:0.016" fill="#fefffe" d="M 148.5,187.5 C 149.833,188.167 149.833,188.167 148.5,187.5 Z"/></g>
<g><path style="opacity:0.008" fill="#fefffe" d="M 146.5,189.5 C 146.5,189.167 146.5,188.833 146.5,188.5C 147.167,188.5 147.833,188.5 148.5,188.5C 148.158,189.338 147.492,189.672 146.5,189.5 Z"/></g>
<g><path style="opacity:0.007" fill="#fffeff" d="M 54.5,189.5 C 54.8417,190.338 55.5084,190.672 56.5,190.5C 55.1512,191.797 53.8179,191.63 52.5,190C 53.0944,189.536 53.7611,189.369 54.5,189.5 Z"/></g>
<g><path style="opacity:0.01" fill="#fefffe" d="M 144.5,190.5 C 144.5,190.167 144.5,189.833 144.5,189.5C 145.167,189.5 145.833,189.5 146.5,189.5C 146.158,190.338 145.492,190.672 144.5,190.5 Z"/></g>
<g><path style="opacity:0.008" fill="#fffeff" d="M 142.5,191.5 C 142.5,191.167 142.5,190.833 142.5,190.5C 143.167,190.5 143.833,190.5 144.5,190.5C 144.158,191.338 143.492,191.672 142.5,191.5 Z"/></g>
<g><path style="opacity:0.012" fill="#fefffe" d="M 140.5,192.5 C 140.5,192.167 140.5,191.833 140.5,191.5C 141.167,191.5 141.833,191.5 142.5,191.5C 142.158,192.338 141.492,192.672 140.5,192.5 Z"/></g>
<g><path style="opacity:0.008" fill="#fefffe" d="M 60.5,192.5 C 60.1034,193.525 59.4368,193.692 58.5,193C 59.0944,192.536 59.7611,192.369 60.5,192.5 Z"/></g>
<g><path style="opacity:0.008" fill="#fefffe" d="M 138.5,192.5 C 139.167,192.5 139.833,192.5 140.5,192.5C 139.833,193.833 139.167,193.833 138.5,192.5 Z"/></g>
<g><path style="opacity:0.008" fill="#fffeff" d="M 63.5,193.5 C 63.8417,194.338 64.5084,194.672 65.5,194.5C 64.1512,195.797 62.8179,195.63 61.5,194C 62.0944,193.536 62.7611,193.369 63.5,193.5 Z"/></g>
<g><path style="opacity:0.01" fill="#fefffe" d="M 135.5,194.5 C 135.5,194.167 135.5,193.833 135.5,193.5C 138.167,193.833 138.167,194.167 135.5,194.5 Z"/></g>
<g><path style="opacity:0.012" fill="#fefffe" d="M 133.5,194.5 C 134.167,194.5 134.833,194.5 135.5,194.5C 134.833,195.833 134.167,195.833 133.5,194.5 Z"/></g>
<g><path style="opacity:0.012" fill="#fefffe" d="M 130.5,196.5 C 130.5,196.167 130.5,195.833 130.5,195.5C 133.167,195.833 133.167,196.167 130.5,196.5 Z"/></g>
<g><path style="opacity:0.008" fill="#fffeff" d="M 71.5,196.5 C 70.7494,197.573 69.7494,197.74 68.5,197C 69.448,196.517 70.448,196.351 71.5,196.5 Z"/></g>
<g><path style="opacity:0.008" fill="#fffeff" d="M 130.5,196.5 C 129.749,197.573 128.749,197.74 127.5,197C 128.448,196.517 129.448,196.351 130.5,196.5 Z"/></g>
<g><path style="opacity:0.01" fill="#fffeff" d="M 75.5,197.5 C 75.5,197.833 75.5,198.167 75.5,198.5C 71.5,198.167 71.5,197.833 75.5,197.5 Z"/></g>
<g><path style="opacity:0.01" fill="#fffeff" d="M 123.5,198.5 C 123.5,198.167 123.5,197.833 123.5,197.5C 127.5,197.833 127.5,198.167 123.5,198.5 Z"/></g>
<g><path style="opacity:0.01" fill="#fffeff" d="M 75.5,199.5 C 75.5,199.167 75.5,198.833 75.5,198.5C 77.099,198.232 78.4324,198.566 79.5,199.5C 78.1667,199.5 76.8333,199.5 75.5,199.5 Z"/></g>
<g><path style="opacity:0.01" fill="#fffeff" d="M 119.5,199.5 C 120.568,198.566 121.901,198.232 123.5,198.5C 123.5,198.833 123.5,199.167 123.5,199.5C 122.167,199.5 120.833,199.5 119.5,199.5 Z"/></g>
</svg>
