<?xml version="1.0" encoding="UTF-8"?>
<!DOCTYPE svg PUBLIC "-//W3C//DTD SVG 1.1//EN" "http://www.w3.org/Graphics/SVG/1.1/DTD/svg11.dtd">
<svg xmlns="http://www.w3.org/2000/svg" version="1.1" width="200px" height="200px" style="shape-rendering:geometricPrecision; text-rendering:geometricPrecision; image-rendering:optimizeQuality; fill-rule:evenodd; clip-rule:evenodd" xmlns:xlink="http://www.w3.org/1999/xlink">
<g><path style="opacity:0.004" fill="#0b0831" d="M 73.5,-0.5 C 74.5,-0.5 75.5,-0.5 76.5,-0.5C 75.5,0.833333 74.5,0.833333 73.5,-0.5 Z"/></g>
<g><path style="opacity:0.998" fill="#172851" d="M 82.5,-0.5 C 93.8333,-0.5 105.167,-0.5 116.5,-0.5C 121.354,0.965185 126.354,2.29852 131.5,3.5C 132.209,4.40397 133.209,4.73731 134.5,4.5C 134.842,5.33825 135.508,5.67158 136.5,5.5C 139.314,7.06972 142.314,8.40305 145.5,9.5C 147.181,11.0075 149.181,12.0075 151.5,12.5C 151.973,13.9063 152.973,14.573 154.5,14.5C 154.5,15.1667 154.833,15.5 155.5,15.5C 156.172,16.2674 157.005,16.9341 158,17.5C 158.718,16.5494 159.551,16.3828 160.5,17C 160.743,19.2748 162.076,21.1082 164.5,22.5C 167.438,24.934 170.271,27.6007 173,30.5C 173.667,29.1667 174.333,29.1667 175,30.5C 176.113,31.7604 176.28,32.927 175.5,34C 177,35.5 178.5,37 180,38.5C 180.333,38.1667 180.667,37.8333 181,37.5C 183.167,40.3333 185.333,43.1667 187.5,46C 186.833,46.3333 186.167,46.6667 185.5,47C 192.22,54.2739 196.387,62.7739 198,72.5C 197.444,70.4049 196.944,70.2382 196.5,72C 196.899,73.7275 197.566,75.2275 198.5,76.5C 198.216,78.4147 198.549,80.0813 199.5,81.5C 199.5,93.5 199.5,105.5 199.5,117.5C 197.892,120.938 197.058,124.604 197,128.5C 197.556,126.405 198.056,126.238 198.5,128C 196.354,134.792 193.521,141.292 190,147.5C 189.667,146.833 189.333,146.167 189,145.5C 187.961,147.746 186.794,149.913 185.5,152C 186.167,152.333 186.833,152.667 187.5,153C 186.267,154.667 184.933,156.167 183.5,157.5C 183.167,156.167 182.833,156.167 182.5,157.5C 181.167,157.833 181.167,158.167 182.5,158.5C 182.573,160.027 181.906,161.027 180.5,161.5C 180.167,160.167 179.833,160.167 179.5,161.5C 178.833,161.5 178.5,161.833 178.5,162.5C 177.833,162.5 177.5,162.833 177.5,163.5C 176.833,163.5 176.5,163.833 176.5,164.5C 175.167,164.833 175.167,165.167 176.5,165.5C 175.974,167.23 174.974,168.564 173.5,169.5C 173.167,168.167 172.833,168.167 172.5,169.5C 171.833,169.5 171.5,169.833 171.5,170.5C 170.833,170.5 170.5,170.833 170.5,171.5C 169.833,171.5 169.5,171.833 169.5,172.5C 168.833,172.5 168.5,172.833 168.5,173.5C 167.833,173.5 167.5,173.833 167.5,174.5C 166.833,175.167 166.167,175.833 165.5,176.5C 165.167,175.167 164.833,175.167 164.5,176.5C 163.833,176.5 163.5,176.833 163.5,177.5C 162.833,177.5 162.5,177.833 162.5,178.5C 161.167,178.833 161.167,179.167 162.5,179.5C 161.738,181.262 160.404,182.262 158.5,182.5C 158.167,181.167 157.833,181.167 157.5,182.5C 156.508,182.328 155.842,182.662 155.5,183.5C 154.833,183.5 154.5,183.833 154.5,184.5C 152.973,184.427 151.973,185.094 151.5,186.5C 149.181,186.992 147.181,187.992 145.5,189.5C 144.508,189.328 143.842,189.662 143.5,190.5C 142.508,190.328 141.842,190.662 141.5,191.5C 138.833,191.833 138.833,192.167 141.5,192.5C 139.574,194.293 137.241,195.293 134.5,195.5C 133.5,194.167 132.5,194.167 131.5,195.5C 130.508,195.328 129.842,195.662 129.5,196.5C 124.948,197.057 120.615,198.057 116.5,199.5C 105.167,199.5 93.8333,199.5 82.5,199.5C 77.6462,198.035 72.6462,196.701 67.5,195.5C 66.791,194.596 65.791,194.263 64.5,194.5C 64.1583,193.662 63.4916,193.328 62.5,193.5C 57.6894,190.93 52.6894,188.597 47.5,186.5C 47.0269,185.094 46.0269,184.427 44.5,184.5C 44.5,183.833 44.1667,183.5 43.5,183.5C 42.828,182.733 41.9947,182.066 41,181.5C 39.1291,182.668 37.6291,182.168 36.5,180C 36.8333,179.667 37.1667,179.333 37.5,179C 35.9052,176.898 33.9052,175.398 31.5,174.5C 29.5045,171.279 27.0045,169.279 24,168.5C 22.887,167.24 22.7203,166.073 23.5,165C 22,163.5 20.5,162 19,160.5C 18.6667,160.833 18.3333,161.167 18,161.5C 15.8333,158.667 13.6667,155.833 11.5,153C 12.1667,152.667 12.8333,152.333 13.5,152C 6.77954,144.726 2.61287,136.226 1,126.5C 1.55563,128.595 2.05563,128.762 2.5,127C 2.10099,125.272 1.43433,123.772 0.5,122.5C 0.784479,120.585 0.451145,118.919 -0.5,117.5C -0.5,105.5 -0.5,93.5 -0.5,81.5C 1.10834,78.0623 1.94167,74.3957 2,70.5C 1.44437,72.5951 0.944374,72.7618 0.5,71C 2.64571,64.2078 5.47904,57.7078 9,51.5C 9.33333,52.1667 9.66667,52.8333 10,53.5C 11.0395,51.2537 12.2062,49.087 13.5,47C 12.8333,46.6667 12.1667,46.3333 11.5,46C 13.1233,43.9205 14.6233,41.7538 16,39.5C 18.8109,38.7772 21.3109,36.9438 23.5,34C 22.8499,32.3908 23.3499,30.8908 25,29.5C 25.3333,29.8333 25.6667,30.1667 26,30.5C 28.6837,27.4332 31.3503,25.0999 34,23.5C 36.6309,21.635 38.1309,19.4684 38.5,17C 39.4491,16.3828 40.2825,16.5494 41,17.5C 41.9947,16.9341 42.828,16.2674 43.5,15.5C 44.1667,15.5 44.5,15.1667 44.5,14.5C 46.0269,14.573 47.0269,13.9063 47.5,12.5C 51.5977,10.9523 55.5977,9.11894 59.5,7C 58.8333,6.66667 58.1667,6.33333 57.5,6C 59.6504,4.58859 61.9837,3.75526 64.5,3.5C 65.5,4.83333 66.5,4.83333 67.5,3.5C 68.4916,3.67158 69.1583,3.33825 69.5,2.5C 74.0516,1.94341 78.3849,0.943405 82.5,-0.5 Z"/></g>
<g><path style="opacity:0.004" fill="#000116" d="M 122.5,-0.5 C 123.5,-0.5 124.5,-0.5 125.5,-0.5C 124.5,0.833333 123.5,0.833333 122.5,-0.5 Z"/></g>
<g><path style="opacity:0.008" fill="#061258" d="M 69.5,1.5 C 70.2506,0.426544 71.2506,0.259877 72.5,1C 71.552,1.48278 70.552,1.64945 69.5,1.5 Z"/></g>
<g><path style="opacity:0.008" fill="#070f63" d="M 129.5,1.5 C 128.448,1.64945 127.448,1.48278 126.5,1C 127.749,0.259877 128.749,0.426544 129.5,1.5 Z"/></g>
<g><path style="opacity:0.004" fill="#0c183f" d="M 69.5,1.5 C 69.5,1.83333 69.5,2.16667 69.5,2.5C 68.5084,2.32842 67.8417,2.66175 67.5,3.5C 66.5,3.5 65.5,3.5 64.5,3.5C 65.7804,2.06873 67.4471,1.40206 69.5,1.5 Z"/></g>
<g><path style="opacity:0.004" fill="#0a1442" d="M 129.5,1.5 C 131.553,1.40206 133.22,2.06873 134.5,3.5C 133.5,3.5 132.5,3.5 131.5,3.5C 130.833,2.83333 130.167,2.16667 129.5,1.5 Z"/></g>
<g><path style="opacity:0.02" fill="#0d2651" d="M 134.5,4.5 C 134.5,4.16667 134.5,3.83333 134.5,3.5C 136.308,3.49136 137.975,3.99136 139.5,5C 138.552,5.48278 137.552,5.64945 136.5,5.5C 136.158,4.66175 135.492,4.32842 134.5,4.5 Z"/></g>
<g><path style="opacity:0.012" fill="#001a51" d="M 145.5,8.5 C 146.833,9.16667 146.833,9.16667 145.5,8.5 Z"/></g>
<g><path style="opacity:0.004" fill="#00001b" d="M 47.5,12.5 C 46.8333,11.1667 46.8333,11.1667 47.5,12.5 Z"/></g>
<g><path style="opacity:0.004" fill="#00001b" d="M 151.5,11.5 C 152.833,12.1667 152.833,12.1667 151.5,11.5 Z"/></g>
<g><path style="opacity:0.004" fill="#00001b" d="M 44.5,12.5 C 45.8333,13.1667 45.8333,13.1667 44.5,12.5 Z"/></g>
<g><path style="opacity:0.008" fill="#000600" d="M 154.5,13.5 C 153.833,12.1667 153.833,12.1667 154.5,13.5 Z"/></g>
<g><path style="opacity:0.004" fill="#090c3f" d="M 44.5,13.5 C 44.5,13.8333 44.5,14.1667 44.5,14.5C 43.8333,14.5 43.5,14.8333 43.5,15.5C 41.2071,14.6987 41.5404,14.032 44.5,13.5 Z"/></g>
<g><path style="opacity:0.004" fill="#0a1334" d="M 154.5,14.5 C 154.5,14.1667 154.5,13.8333 154.5,13.5C 157.46,14.032 157.793,14.6987 155.5,15.5C 154.833,15.5 154.5,15.1667 154.5,14.5 Z"/></g>
<g><path style="opacity:0.012" fill="#001a51" d="M 164.5,21.5 C 165.833,22.1667 165.833,22.1667 164.5,21.5 Z"/></g>
<g><path style="opacity:1" fill="#f9d43d" d="M 156.5,87.5 C 147.6,83.0546 138.267,79.7213 128.5,77.5C 116.969,73.2652 105.303,69.0986 93.5,65C 88.8333,62.6667 84.1667,60.3333 79.5,58C 73.3051,55.0194 72.3051,51.0194 76.5,46C 103.6,35.8831 126.766,41.7164 146,63.5C 151.414,70.662 154.914,78.662 156.5,87.5 Z"/></g>
<g><path style="opacity:1" fill="#fbd53d" d="M 110.5,116.5 C 112.515,117.924 114.848,118.59 117.5,118.5C 129.974,120.193 142.307,119.526 154.5,116.5C 155.583,117.365 155.749,118.365 155,119.5C 139.044,152.115 113.544,163.615 78.5,154C 51.7418,141.374 39.4085,120.208 41.5,90.5C 42.9238,88.4855 43.5905,86.1522 43.5,83.5C 46.5278,72.4508 52.3612,63.1175 61,55.5C 65.6762,85.6545 82.1762,105.988 110.5,116.5 Z"/></g>
<g><path style="opacity:0.004" fill="#0b0831" d="M -0.5,73.5 C 0.833333,74.5 0.833333,75.5 -0.5,76.5C -0.5,75.5 -0.5,74.5 -0.5,73.5 Z"/></g>
<g><path style="opacity:0.004" fill="#0b0831" d="M 199.5,73.5 C 199.5,74.5 199.5,75.5 199.5,76.5C 199.167,76.5 198.833,76.5 198.5,76.5C 198.263,75.209 198.596,74.209 199.5,73.5 Z"/></g>
<g><path style="opacity:1" fill="#f86e06" d="M 128.5,77.5 C 138.267,79.7213 147.6,83.0546 156.5,87.5C 157.817,93.6783 157.817,100.012 156.5,106.5C 144.38,99.3828 135.047,89.7162 128.5,77.5 Z"/></g>
<g><path style="opacity:1" fill="#78704a" d="M 43.5,83.5 C 43.5905,86.1522 42.9238,88.4855 41.5,90.5C 41.4095,87.8478 42.0762,85.5145 43.5,83.5 Z"/></g>
<g><path style="opacity:1" fill="#67624c" d="M 110.5,116.5 C 113.152,116.41 115.485,117.076 117.5,118.5C 114.848,118.59 112.515,117.924 110.5,116.5 Z"/></g>
<g><path style="opacity:0.004" fill="#0b0831" d="M -0.5,122.5 C -0.166667,122.5 0.166667,122.5 0.5,122.5C 0.737305,123.791 0.403972,124.791 -0.5,125.5C -0.5,124.5 -0.5,123.5 -0.5,122.5 Z"/></g>
<g><path style="opacity:0.004" fill="#0b0831" d="M 199.5,122.5 C 199.5,123.5 199.5,124.5 199.5,125.5C 198.167,124.5 198.167,123.5 199.5,122.5 Z"/></g>
<g><path style="opacity:0.012" fill="#001a51" d="M 182.5,157.5 C 182.833,157.5 183.167,157.5 183.5,157.5C 183.315,158.17 182.981,158.17 182.5,157.5 Z"/></g>
<g><path style="opacity:0.008" fill="#000f7f" d="M 179.5,161.5 C 179.833,161.5 180.167,161.5 180.5,161.5C 180.315,162.17 179.981,162.17 179.5,161.5 Z"/></g>
<g><path style="opacity:0.012" fill="#001a51" d="M 178.5,162.5 C 178.833,162.5 179.167,162.5 179.5,162.5C 179.315,163.17 178.981,163.17 178.5,162.5 Z"/></g>
<g><path style="opacity:0.008" fill="#000f7f" d="M 177.5,163.5 C 177.833,163.5 178.167,163.5 178.5,163.5C 178.315,164.17 177.981,164.17 177.5,163.5 Z"/></g>
<g><path style="opacity:0.004" fill="#00001b" d="M 176.5,164.5 C 176.833,164.5 177.167,164.5 177.5,164.5C 177.315,165.17 176.981,165.17 176.5,164.5 Z"/></g>
<g><path style="opacity:0.008" fill="#000600" d="M 172.5,169.5 C 172.833,169.5 173.167,169.5 173.5,169.5C 173.315,170.17 172.981,170.17 172.5,169.5 Z"/></g>
<g><path style="opacity:0.012" fill="#001a51" d="M 171.5,170.5 C 171.833,170.5 172.167,170.5 172.5,170.5C 172.315,171.17 171.981,171.17 171.5,170.5 Z"/></g>
<g><path style="opacity:0.012" fill="#001a51" d="M 170.5,171.5 C 170.833,171.5 171.167,171.5 171.5,171.5C 171.315,172.17 170.981,172.17 170.5,171.5 Z"/></g>
<g><path style="opacity:0.008" fill="#000600" d="M 169.5,172.5 C 169.833,172.5 170.167,172.5 170.5,172.5C 170.315,173.17 169.981,173.17 169.5,172.5 Z"/></g>
<g><path style="opacity:0.008" fill="#000600" d="M 168.5,173.5 C 168.833,173.5 169.167,173.5 169.5,173.5C 169.315,174.17 168.981,174.17 168.5,173.5 Z"/></g>
<g><path style="opacity:0.008" fill="#000600" d="M 31.5,174.5 C 30.8333,175.167 30.8333,175.167 31.5,174.5 Z"/></g>
<g><path style="opacity:0.004" fill="#00001b" d="M 167.5,174.5 C 167.833,174.5 168.167,174.5 168.5,174.5C 168.315,175.17 167.981,175.17 167.5,174.5 Z"/></g>
<g><path style="opacity:0.012" fill="#001a51" d="M 164.5,176.5 C 164.833,176.5 165.167,176.5 165.5,176.5C 165.315,177.17 164.981,177.17 164.5,176.5 Z"/></g>
<g><path style="opacity:0.008" fill="#000f7f" d="M 163.5,177.5 C 163.833,177.5 164.167,177.5 164.5,177.5C 164.315,178.17 163.981,178.17 163.5,177.5 Z"/></g>
<g><path style="opacity:0.012" fill="#001a51" d="M 162.5,178.5 C 162.833,178.5 163.167,178.5 163.5,178.5C 163.315,179.17 162.981,179.17 162.5,178.5 Z"/></g>
<g><path style="opacity:0.02" fill="#0d3353" d="M 157.5,182.5 C 157.833,182.5 158.167,182.5 158.5,182.5C 158.315,183.17 157.981,183.17 157.5,182.5 Z"/></g>
<g><path style="opacity:0.004" fill="#0a1334" d="M 43.5,183.5 C 44.1667,183.5 44.5,183.833 44.5,184.5C 44.5,184.833 44.5,185.167 44.5,185.5C 41.5404,184.968 41.2071,184.301 43.5,183.5 Z"/></g>
<g><path style="opacity:0.008" fill="#080f5a" d="M 155.5,184.5 C 155.5,184.167 155.5,183.833 155.5,183.5C 156.167,183.5 156.833,183.5 157.5,183.5C 157.158,184.338 156.492,184.672 155.5,184.5 Z"/></g>
<g><path style="opacity:0.012" fill="#001a51" d="M 154.5,184.5 C 154.833,184.5 155.167,184.5 155.5,184.5C 155.315,185.17 154.981,185.17 154.5,184.5 Z"/></g>
<g><path style="opacity:0.008" fill="#000600" d="M 44.5,185.5 C 45.8333,186.167 45.8333,186.167 44.5,185.5 Z"/></g>
<g><path style="opacity:0.004" fill="#00001b" d="M 154.5,185.5 C 153.833,186.167 153.833,186.167 154.5,185.5 Z"/></g>
<g><path style="opacity:0.004" fill="#00001b" d="M 47.5,186.5 C 46.8333,187.167 46.8333,187.167 47.5,186.5 Z"/></g>
<g><path style="opacity:0.004" fill="#00001b" d="M 151.5,186.5 C 152.833,187.167 152.833,187.167 151.5,186.5 Z"/></g>
<g><path style="opacity:0.008" fill="#000f7f" d="M 145.5,189.5 C 146.833,190.167 146.833,190.167 145.5,189.5 Z"/></g>
<g><path style="opacity:0.004" fill="#061526" d="M 143.5,191.5 C 143.5,191.167 143.5,190.833 143.5,190.5C 144.167,190.5 144.833,190.5 145.5,190.5C 145.158,191.338 144.492,191.672 143.5,191.5 Z"/></g>
<g><path style="opacity:0.008" fill="#0f1e70" d="M 141.5,192.5 C 141.5,192.167 141.5,191.833 141.5,191.5C 142.167,191.5 142.833,191.5 143.5,191.5C 143.158,192.338 142.492,192.672 141.5,192.5 Z"/></g>
<g><path style="opacity:0.016" fill="#0b2746" d="M 62.5,193.5 C 62.8417,194.338 63.5084,194.672 64.5,194.5C 64.5,194.833 64.5,195.167 64.5,195.5C 62.6916,195.509 61.0249,195.009 59.5,194C 60.448,193.517 61.448,193.351 62.5,193.5 Z"/></g>
<g><path style="opacity:0.004" fill="#091438" d="M 64.5,195.5 C 65.5,195.5 66.5,195.5 67.5,195.5C 68.1667,196.167 68.8333,196.833 69.5,197.5C 67.4471,197.598 65.7804,196.931 64.5,195.5 Z"/></g>
<g><path style="opacity:0.004" fill="#0c1643" d="M 131.5,195.5 C 132.5,195.5 133.5,195.5 134.5,195.5C 133.22,196.931 131.553,197.598 129.5,197.5C 129.5,197.167 129.5,196.833 129.5,196.5C 130.492,196.672 131.158,196.338 131.5,195.5 Z"/></g>
<g><path style="opacity:0.008" fill="#070f63" d="M 69.5,197.5 C 70.552,197.351 71.552,197.517 72.5,198C 71.2506,198.74 70.2506,198.573 69.5,197.5 Z"/></g>
<g><path style="opacity:0.008" fill="#061258" d="M 129.5,197.5 C 128.749,198.573 127.749,198.74 126.5,198C 127.448,197.517 128.448,197.351 129.5,197.5 Z"/></g>
<g><path style="opacity:0.004" fill="#000116" d="M 73.5,199.5 C 74.5,198.167 75.5,198.167 76.5,199.5C 75.5,199.5 74.5,199.5 73.5,199.5 Z"/></g>
<g><path style="opacity:0.004" fill="#0b0831" d="M 122.5,199.5 C 123.5,198.167 124.5,198.167 125.5,199.5C 124.5,199.5 123.5,199.5 122.5,199.5 Z"/></g>
</svg>
