<?xml version="1.0" encoding="UTF-8"?>
<!DOCTYPE svg PUBLIC "-//W3C//DTD SVG 1.1//EN" "http://www.w3.org/Graphics/SVG/1.1/DTD/svg11.dtd">
<svg xmlns="http://www.w3.org/2000/svg" version="1.1" width="200px" height="200px" style="shape-rendering:geometricPrecision; text-rendering:geometricPrecision; image-rendering:optimizeQuality; fill-rule:evenodd; clip-rule:evenodd" xmlns:xlink="http://www.w3.org/1999/xlink">
<g><path style="opacity:0.987" fill="#51ac9e" d="M 81.5,-0.5 C 93.5,-0.5 105.5,-0.5 117.5,-0.5C 121.735,1.47133 126.401,2.80467 131.5,3.5C 143.752,8.34681 155.085,14.6801 165.5,22.5C 168.777,25.6259 171.777,28.9592 174.5,32.5C 173.25,32.5774 172.417,33.244 172,34.5C 171.326,33.4216 170.326,32.7549 169,32.5C 165.804,35.0537 162.638,35.0537 159.5,32.5C 158.353,32.8178 157.519,33.4844 157,34.5C 155.763,32.8956 154.597,31.229 153.5,29.5C 152.548,31.0453 152.215,32.712 152.5,34.5C 150.857,34.5198 149.524,33.8532 148.5,32.5C 147.808,33.0253 147.308,33.6919 147,34.5C 144.928,31.9062 142.761,31.9062 140.5,34.5C 139.184,31.972 138.017,31.972 137,34.5C 134.942,30.9083 133.275,30.9083 132,34.5C 130.663,32.9963 128.996,31.9963 127,31.5C 123.024,33.3815 120.858,32.0482 120.5,27.5C 119.716,30.0485 118.549,32.3819 117,34.5C 116.798,32.7444 116.298,31.0777 115.5,29.5C 114.833,30.5 114.167,31.5 113.5,32.5C 111.398,32.5207 109.232,32.1874 107,31.5C 105.004,31.9963 103.337,32.9963 102,34.5C 99.8675,30.9265 98.3675,30.9265 97.5,34.5C 95.5,34.5 93.5,34.5 91.5,34.5C 90.9965,30.6646 89.9965,30.6646 88.5,34.5C 87.6143,33.675 87.281,32.675 87.5,31.5C 84.7486,31.5281 82.4153,32.5281 80.5,34.5C 79.052,27.9216 77.8854,27.9216 77,34.5C 76.2393,31.5693 74.4059,29.9026 71.5,29.5C 70.6644,32.187 69.1644,34.5203 67,36.5C 65.4079,32.8172 63.2412,32.1505 60.5,34.5C 59.6143,33.675 59.281,32.675 59.5,31.5C 55.8009,31.3533 52.4676,32.3533 49.5,34.5C 45.1383,33.0487 40.9716,31.382 37,29.5C 36.3678,31.5313 35.2012,33.198 33.5,34.5C 31.9292,31.9066 29.5959,30.9066 26.5,31.5C 26.5394,30.4168 26.8728,29.4168 27.5,28.5C 43.0463,14.0631 61.0463,4.39647 81.5,-0.5 Z"/></g>
<g><path style="opacity:0.992" fill="#54afa1" d="M 174.5,32.5 C 178.846,37.1839 182.846,42.1839 186.5,47.5C 184.856,47.7135 183.356,47.3802 182,46.5C 180.886,50.4557 180.053,50.4557 179.5,46.5C 175.247,46.3976 171.081,46.7309 167,47.5C 165.004,47.0037 163.337,46.0037 162,44.5C 161.798,46.2556 161.298,47.9223 160.5,49.5C 159.614,48.675 159.281,47.675 159.5,46.5C 157.857,46.5198 156.524,45.8532 155.5,44.5C 152.702,48.4325 151.369,47.7658 151.5,42.5C 147.485,42.2759 146.819,43.4425 149.5,46C 149.167,46.5 148.833,47 148.5,47.5C 147.264,46.7542 145.93,46.4208 144.5,46.5C 144.762,45.0222 144.429,43.6888 143.5,42.5C 142.702,44.0777 142.202,45.7444 142,47.5C 141.517,46.552 141.351,45.552 141.5,44.5C 140.022,44.238 138.689,44.5713 137.5,45.5C 138.025,46.1924 138.692,46.6924 139.5,47C 139,47.1667 138.5,47.3333 138,47.5C 135.945,46.3078 133.945,46.3078 132,47.5C 130.004,47.0037 128.337,46.0037 127,44.5C 125.599,46.1922 123.766,46.8588 121.5,46.5C 121.762,45.0222 121.429,43.6888 120.5,42.5C 119.147,43.6853 117.98,45.0186 117,46.5C 116.692,45.6919 116.192,45.0253 115.5,44.5C 114.481,45.6872 113.314,46.6872 112,47.5C 111.437,41.6595 110.27,41.3261 108.5,46.5C 107.808,45.9747 107.308,45.3081 107,44.5C 105.886,48.4557 105.053,48.4557 104.5,44.5C 102.833,44.5 101.167,44.5 99.5,44.5C 99.719,45.675 99.3857,46.675 98.5,47.5C 92.3538,46.6877 86.3538,46.6877 80.5,47.5C 79.8333,46.5 79.1667,45.5 78.5,44.5C 77.8076,45.0253 77.3076,45.6919 77,46.5C 76.4806,45.4844 75.6473,44.8178 74.5,44.5C 72.5801,45.6694 70.5801,46.6694 68.5,47.5C 67.2807,46.7366 66.2807,45.7366 65.5,44.5C 62.4624,48.1592 59.629,48.1592 57,44.5C 56.3261,45.5784 55.3261,46.2451 54,46.5C 52.4495,45.9465 50.9495,45.2798 49.5,44.5C 48.3527,44.8178 47.5194,45.4844 47,46.5C 46.3261,45.4216 45.3261,44.7549 44,44.5C 42.0488,45.2846 40.2155,46.2846 38.5,47.5C 37.3776,45.9564 37.711,44.623 39.5,43.5C 38.675,42.6143 37.675,42.281 36.5,42.5C 36.5,43.8333 36.5,45.1667 36.5,46.5C 33.5342,46.8897 30.8676,46.223 28.5,44.5C 27.8856,48.07 26.5523,48.4034 24.5,45.5C 26.9238,43.2864 26.2571,42.2864 22.5,42.5C 22.5,43.8333 22.5,45.1667 22.5,46.5C 20.1137,46.7413 18.1137,46.0746 16.5,44.5C 16.4208,43.0695 16.7542,41.7362 17.5,40.5C 19.9242,38.6965 21.5909,36.3632 22.5,33.5C 23.5769,32.2949 24.9102,31.6282 26.5,31.5C 29.5959,30.9066 31.9292,31.9066 33.5,34.5C 35.2012,33.198 36.3678,31.5313 37,29.5C 40.9716,31.382 45.1383,33.0487 49.5,34.5C 52.4676,32.3533 55.8009,31.3533 59.5,31.5C 59.281,32.675 59.6143,33.675 60.5,34.5C 63.2412,32.1505 65.4079,32.8172 67,36.5C 69.1644,34.5203 70.6644,32.187 71.5,29.5C 74.4059,29.9026 76.2393,31.5693 77,34.5C 77.8854,27.9216 79.052,27.9216 80.5,34.5C 82.4153,32.5281 84.7486,31.5281 87.5,31.5C 87.281,32.675 87.6143,33.675 88.5,34.5C 89.9965,30.6646 90.9965,30.6646 91.5,34.5C 93.5,34.5 95.5,34.5 97.5,34.5C 98.3675,30.9265 99.8675,30.9265 102,34.5C 103.337,32.9963 105.004,31.9963 107,31.5C 109.232,32.1874 111.398,32.5207 113.5,32.5C 114.167,31.5 114.833,30.5 115.5,29.5C 116.298,31.0777 116.798,32.7444 117,34.5C 118.549,32.3819 119.716,30.0485 120.5,27.5C 120.858,32.0482 123.024,33.3815 127,31.5C 128.996,31.9963 130.663,32.9963 132,34.5C 133.275,30.9083 134.942,30.9083 137,34.5C 138.017,31.972 139.184,31.972 140.5,34.5C 142.761,31.9062 144.928,31.9062 147,34.5C 147.308,33.6919 147.808,33.0253 148.5,32.5C 149.524,33.8532 150.857,34.5198 152.5,34.5C 152.215,32.712 152.548,31.0453 153.5,29.5C 154.597,31.229 155.763,32.8956 157,34.5C 157.519,33.4844 158.353,32.8178 159.5,32.5C 162.638,35.0537 165.804,35.0537 169,32.5C 170.326,32.7549 171.326,33.4216 172,34.5C 172.417,33.244 173.25,32.5774 174.5,32.5 Z"/></g>
<g><path style="opacity:0.996" fill="#56b2a4" d="M 186.5,47.5 C 190.032,54.7695 193.365,62.1028 196.5,69.5C 192.566,69.0211 188.899,69.6878 185.5,71.5C 184.142,67.0831 181.142,65.4164 176.5,66.5C 176.762,65.0222 176.429,63.6888 175.5,62.5C 172.982,62.4772 170.316,62.1438 167.5,61.5C 167.5,62.5 167.5,63.5 167.5,64.5C 166.5,64.5 165.5,64.5 164.5,64.5C 164.719,63.325 164.386,62.325 163.5,61.5C 162.865,63.7827 161.532,65.4493 159.5,66.5C 157.109,65.8086 157.109,64.8086 159.5,63.5C 155.538,60.9528 151.538,60.9528 147.5,63.5C 150.5,64.1667 153.5,64.8333 156.5,65.5C 151.739,67.5904 147.072,67.5904 142.5,65.5C 143.689,64.5713 145.022,64.238 146.5,64.5C 146.719,63.325 146.386,62.325 145.5,61.5C 144.28,62.7111 143.113,62.7111 142,61.5C 141.517,62.448 141.351,63.448 141.5,64.5C 140.022,64.762 138.689,64.4287 137.5,63.5C 140.131,61.9954 139.797,61.3287 136.5,61.5C 136.351,65.1233 135.184,65.4566 133,62.5C 131.78,63.3881 130.447,64.0548 129,64.5C 124.554,60.8017 120.054,60.8017 115.5,64.5C 114.004,60.6646 113.004,60.6646 112.5,64.5C 110.857,64.5198 109.524,63.8532 108.5,62.5C 107.808,63.0253 107.308,63.6919 107,64.5C 106.751,63.376 106.251,62.376 105.5,61.5C 100.534,61.7532 95.5336,61.7532 90.5,61.5C 89.5481,63.0453 89.2148,64.712 89.5,66.5C 87.4057,65.7578 85.239,65.0911 83,64.5C 80.9413,64.9929 78.9413,65.6596 77,66.5C 73.8943,66.0854 73.7276,65.0854 76.5,63.5C 73.3736,63.0161 70.7069,61.6827 68.5,59.5C 65.5695,63.0377 62.9028,63.0377 60.5,59.5C 59.6143,60.325 59.281,61.325 59.5,62.5C 56.2123,62.073 53.2123,62.7397 50.5,64.5C 48.3968,62.1201 47.2301,62.7868 47,66.5C 44.711,61.5436 41.8776,60.8769 38.5,64.5C 37.2624,60.6893 36.5958,60.6893 36.5,64.5C 35.0222,64.762 33.6888,64.4287 32.5,63.5C 35.1306,61.9954 34.7973,61.3287 31.5,61.5C 31.3671,64.8957 30.3671,65.2291 28.5,62.5C 27.7836,63.311 26.9503,63.9777 26,64.5C 24.0007,62.7224 21.6673,61.7224 19,61.5C 17.0892,62.4069 15.2559,62.4069 13.5,61.5C 12.6143,62.325 12.281,63.325 12.5,64.5C 9.5,64.1667 7.83333,62.5 7.5,59.5C 9.0108,55.6405 10.6775,51.8072 12.5,48C 13.4098,46.251 14.7431,45.0843 16.5,44.5C 18.1137,46.0746 20.1137,46.7413 22.5,46.5C 22.5,45.1667 22.5,43.8333 22.5,42.5C 26.2571,42.2864 26.9238,43.2864 24.5,45.5C 26.5523,48.4034 27.8856,48.07 28.5,44.5C 30.8676,46.223 33.5342,46.8897 36.5,46.5C 36.5,45.1667 36.5,43.8333 36.5,42.5C 37.675,42.281 38.675,42.6143 39.5,43.5C 37.711,44.623 37.3776,45.9564 38.5,47.5C 40.2155,46.2846 42.0488,45.2846 44,44.5C 45.3261,44.7549 46.3261,45.4216 47,46.5C 47.5194,45.4844 48.3527,44.8178 49.5,44.5C 50.9495,45.2798 52.4495,45.9465 54,46.5C 55.3261,46.2451 56.3261,45.5784 57,44.5C 59.629,48.1592 62.4624,48.1592 65.5,44.5C 66.2807,45.7366 67.2807,46.7366 68.5,47.5C 70.5801,46.6694 72.5801,45.6694 74.5,44.5C 75.6473,44.8178 76.4806,45.4844 77,46.5C 77.3076,45.6919 77.8076,45.0253 78.5,44.5C 79.1667,45.5 79.8333,46.5 80.5,47.5C 86.3538,46.6877 92.3538,46.6877 98.5,47.5C 99.3857,46.675 99.719,45.675 99.5,44.5C 101.167,44.5 102.833,44.5 104.5,44.5C 105.053,48.4557 105.886,48.4557 107,44.5C 107.308,45.3081 107.808,45.9747 108.5,46.5C 110.27,41.3261 111.437,41.6595 112,47.5C 113.314,46.6872 114.481,45.6872 115.5,44.5C 116.192,45.0253 116.692,45.6919 117,46.5C 117.98,45.0186 119.147,43.6853 120.5,42.5C 121.429,43.6888 121.762,45.0222 121.5,46.5C 123.766,46.8588 125.599,46.1922 127,44.5C 128.337,46.0037 130.004,47.0037 132,47.5C 133.945,46.3078 135.945,46.3078 138,47.5C 138.5,47.3333 139,47.1667 139.5,47C 138.692,46.6924 138.025,46.1924 137.5,45.5C 138.689,44.5713 140.022,44.238 141.5,44.5C 141.351,45.552 141.517,46.552 142,47.5C 142.202,45.7444 142.702,44.0777 143.5,42.5C 144.429,43.6888 144.762,45.0222 144.5,46.5C 145.93,46.4208 147.264,46.7542 148.5,47.5C 148.833,47 149.167,46.5 149.5,46C 146.819,43.4425 147.485,42.2759 151.5,42.5C 151.369,47.7658 152.702,48.4325 155.5,44.5C 156.524,45.8532 157.857,46.5198 159.5,46.5C 159.281,47.675 159.614,48.675 160.5,49.5C 161.298,47.9223 161.798,46.2556 162,44.5C 163.337,46.0037 165.004,47.0037 167,47.5C 171.081,46.7309 175.247,46.3976 179.5,46.5C 180.053,50.4557 180.886,50.4557 182,46.5C 183.356,47.3802 184.856,47.7135 186.5,47.5 Z"/></g>
<g><path style="opacity:1" fill="#58b5a6" d="M 7.5,59.5 C 7.83333,62.5 9.5,64.1667 12.5,64.5C 12.281,63.325 12.6143,62.325 13.5,61.5C 15.2559,62.4069 17.0892,62.4069 19,61.5C 21.6673,61.7224 24.0007,62.7224 26,64.5C 26.9503,63.9777 27.7836,63.311 28.5,62.5C 30.3671,65.2291 31.3671,64.8957 31.5,61.5C 34.7973,61.3287 35.1306,61.9954 32.5,63.5C 33.6888,64.4287 35.0222,64.762 36.5,64.5C 36.5958,60.6893 37.2624,60.6893 38.5,64.5C 41.8776,60.8769 44.711,61.5436 47,66.5C 47.2301,62.7868 48.3968,62.1201 50.5,64.5C 53.2123,62.7397 56.2123,62.073 59.5,62.5C 59.281,61.325 59.6143,60.325 60.5,59.5C 62.9028,63.0377 65.5695,63.0377 68.5,59.5C 70.7069,61.6827 73.3736,63.0161 76.5,63.5C 73.7276,65.0854 73.8943,66.0854 77,66.5C 78.9413,65.6596 80.9413,64.9929 83,64.5C 85.239,65.0911 87.4057,65.7578 89.5,66.5C 89.2148,64.712 89.5481,63.0453 90.5,61.5C 95.5336,61.7532 100.534,61.7532 105.5,61.5C 106.251,62.376 106.751,63.376 107,64.5C 107.308,63.6919 107.808,63.0253 108.5,62.5C 109.524,63.8532 110.857,64.5198 112.5,64.5C 113.004,60.6646 114.004,60.6646 115.5,64.5C 120.054,60.8017 124.554,60.8017 129,64.5C 130.447,64.0548 131.78,63.3881 133,62.5C 135.184,65.4566 136.351,65.1233 136.5,61.5C 139.797,61.3287 140.131,61.9954 137.5,63.5C 138.689,64.4287 140.022,64.762 141.5,64.5C 141.351,63.448 141.517,62.448 142,61.5C 143.113,62.7111 144.28,62.7111 145.5,61.5C 146.386,62.325 146.719,63.325 146.5,64.5C 145.022,64.238 143.689,64.5713 142.5,65.5C 147.072,67.5904 151.739,67.5904 156.5,65.5C 153.5,64.8333 150.5,64.1667 147.5,63.5C 151.538,60.9528 155.538,60.9528 159.5,63.5C 157.109,64.8086 157.109,65.8086 159.5,66.5C 161.532,65.4493 162.865,63.7827 163.5,61.5C 164.386,62.325 164.719,63.325 164.5,64.5C 165.5,64.5 166.5,64.5 167.5,64.5C 167.5,63.5 167.5,62.5 167.5,61.5C 170.316,62.1438 172.982,62.4772 175.5,62.5C 176.429,63.6888 176.762,65.0222 176.5,66.5C 181.142,65.4164 184.142,67.0831 185.5,71.5C 188.899,69.6878 192.566,69.0211 196.5,69.5C 197.021,73.4809 197.354,77.4809 197.5,81.5C 194.247,82.2466 190.914,82.2466 187.5,81.5C 187.5,82.5 187.5,83.5 187.5,84.5C 185.234,84.1412 183.401,84.8078 182,86.5C 180.763,84.8956 179.597,83.229 178.5,81.5C 177.281,82.2634 176.281,83.2634 175.5,84.5C 174.481,83.3128 173.314,82.3128 172,81.5C 167.804,81.6455 163.637,82.6455 159.5,84.5C 160.069,80.6707 159.402,77.3373 157.5,74.5C 157.837,71.1702 156.337,69.5036 153,69.5C 151.011,69.9209 149.177,70.5876 147.5,71.5C 146.849,70.9094 146.182,70.2427 145.5,69.5C 143.056,72.0706 140.556,72.0706 138,69.5C 137.05,70.0223 136.216,70.689 135.5,71.5C 134.075,66.2702 132.909,66.2702 132,71.5C 131.51,70.2068 131.343,68.8734 131.5,67.5C 127.743,67.2864 127.076,68.2864 129.5,70.5C 127.956,71.6224 126.623,71.289 125.5,69.5C 124.833,70.1667 124.167,70.8333 123.5,71.5C 122.634,69.4181 121.134,68.0848 119,67.5C 116.473,67.6696 115.973,68.6696 117.5,70.5C 115.007,71.2533 113.174,70.2533 112,67.5C 110.951,69.1066 109.451,69.7733 107.5,69.5C 107.178,72.812 105.845,72.812 103.5,69.5C 102.784,70.311 101.95,70.9777 101,71.5C 98.4439,68.9294 95.9439,68.9294 93.5,71.5C 92.8076,70.9747 92.3076,70.3081 92,69.5C 91.6924,70.3081 91.1924,70.9747 90.5,71.5C 89.8333,70.1667 89.1667,68.8333 88.5,67.5C 86.7445,70.0233 84.9112,70.0233 83,67.5C 80.4233,68.7285 77.9233,70.0618 75.5,71.5C 73.0561,68.9294 70.5561,68.9294 68,71.5C 66.3943,69.016 64.8943,69.016 63.5,71.5C 62.8076,70.9747 62.3076,70.3081 62,69.5C 60.9914,70.6582 59.6581,71.3248 58,71.5C 55.2299,70.4546 52.3966,69.788 49.5,69.5C 46.6915,69.6933 44.0248,70.36 41.5,71.5C 41.5,76.5 41.5,81.5 41.5,86.5C 40.0568,85.6649 39.0568,84.3316 38.5,82.5C 37.7189,83.7287 37.2189,85.062 37,86.5C 36.7699,82.7868 35.6032,82.1201 33.5,84.5C 32.7492,83.624 32.2492,82.624 32,81.5C 31.7978,83.2556 31.2978,84.9223 30.5,86.5C 29.1537,84.9866 27.6537,83.6533 26,82.5C 23.9226,85.4036 22.5893,85.0703 22,81.5C 20.8869,82.7111 19.7202,82.7111 18.5,81.5C 17.7492,82.376 17.2492,83.376 17,84.5C 15.8861,80.5443 15.0527,80.5443 14.5,84.5C 12.857,84.5198 11.5237,83.8532 10.5,82.5C 8.83333,85.1667 7.16667,85.1667 5.5,82.5C 4.7836,83.311 3.95027,83.9777 3,84.5C 1.9231,83.5705 0.756437,82.9038 -0.5,82.5C -0.5,82.1667 -0.5,81.8333 -0.5,81.5C 1.47133,77.2652 2.80467,72.5986 3.5,67.5C 4.41819,64.5158 5.75152,61.8492 7.5,59.5 Z"/></g>
<g><path style="opacity:0.999" fill="#5cb8a9" d="M 147.5,71.5 C 133.755,83.2129 119.421,94.2129 104.5,104.5C 104.5,103.5 104.5,102.5 104.5,101.5C 103.5,101.5 102.5,101.5 101.5,101.5C 100.833,105.5 100.167,105.5 99.5,101.5C 96.9664,101.259 95.2998,102.259 94.5,104.5C 80.5592,94.185 66.5592,83.8517 52.5,73.5C 51.1738,72.3578 50.1738,71.0245 49.5,69.5C 52.3966,69.788 55.2299,70.4546 58,71.5C 59.6581,71.3248 60.9914,70.6582 62,69.5C 62.3076,70.3081 62.8076,70.9747 63.5,71.5C 64.8943,69.016 66.3943,69.016 68,71.5C 70.5561,68.9294 73.0561,68.9294 75.5,71.5C 77.9233,70.0618 80.4233,68.7285 83,67.5C 84.9112,70.0233 86.7445,70.0233 88.5,67.5C 89.1667,68.8333 89.8333,70.1667 90.5,71.5C 91.1924,70.9747 91.6924,70.3081 92,69.5C 92.3076,70.3081 92.8076,70.9747 93.5,71.5C 95.9439,68.9294 98.4439,68.9294 101,71.5C 101.95,70.9777 102.784,70.311 103.5,69.5C 105.845,72.812 107.178,72.812 107.5,69.5C 109.451,69.7733 110.951,69.1066 112,67.5C 113.174,70.2533 115.007,71.2533 117.5,70.5C 115.973,68.6696 116.473,67.6696 119,67.5C 121.134,68.0848 122.634,69.4181 123.5,71.5C 124.167,70.8333 124.833,70.1667 125.5,69.5C 126.623,71.289 127.956,71.6224 129.5,70.5C 127.076,68.2864 127.743,67.2864 131.5,67.5C 131.343,68.8734 131.51,70.2068 132,71.5C 132.909,66.2702 134.075,66.2702 135.5,71.5C 136.216,70.689 137.05,70.0223 138,69.5C 140.556,72.0706 143.056,72.0706 145.5,69.5C 146.182,70.2427 146.849,70.9094 147.5,71.5 Z"/></g>
<g><path style="opacity:1" fill="#fdfefe" d="M 49.5,69.5 C 50.1738,71.0245 51.1738,72.3578 52.5,73.5C 66.5592,83.8517 80.5592,94.185 94.5,104.5C 94.5,105.167 94.5,105.833 94.5,106.5C 94.5,114.167 94.5,121.833 94.5,129.5C 91.8333,129.5 89.1667,129.5 86.5,129.5C 86.5,122.167 86.5,114.833 86.5,107.5C 85.1266,107.657 83.7932,107.49 82.5,107C 78.079,103.277 73.4123,99.777 68.5,96.5C 67.5853,95.6721 66.9186,94.6721 66.5,93.5C 62.1075,90.1141 57.4409,87.1141 52.5,84.5C 52.1788,82.9519 51.1788,82.2852 49.5,82.5C 49.5,98.1667 49.5,113.833 49.5,129.5C 46.8333,129.5 44.1667,129.5 41.5,129.5C 41.5,115.167 41.5,100.833 41.5,86.5C 41.5,81.5 41.5,76.5 41.5,71.5C 44.0248,70.36 46.6915,69.6933 49.5,69.5 Z"/></g>
<g><path style="opacity:1" fill="#fbfdfd" d="M 157.5,74.5 C 157.83,93.0076 157.497,111.341 156.5,129.5C 154.167,129.5 151.833,129.5 149.5,129.5C 149.5,113.833 149.5,98.1667 149.5,82.5C 147.821,82.2852 146.821,82.9519 146.5,84.5C 137.03,91.5959 127.363,98.5959 117.5,105.5C 116.174,106.642 115.174,107.976 114.5,109.5C 112.541,115.75 111.874,122.416 112.5,129.5C 109.833,129.5 107.167,129.5 104.5,129.5C 104.5,121.833 104.5,114.167 104.5,106.5C 104.5,105.833 104.5,105.167 104.5,104.5C 119.421,94.2129 133.755,83.2129 147.5,71.5C 149.177,70.5876 151.011,69.9209 153,69.5C 156.337,69.5036 157.837,71.1702 157.5,74.5 Z"/></g>
<g><path style="opacity:1" fill="#87cdc1" d="M 149.5,129.5 C 147.839,114.695 146.839,99.6945 146.5,84.5C 146.821,82.9519 147.821,82.2852 149.5,82.5C 149.5,98.1667 149.5,113.833 149.5,129.5 Z"/></g>
<g><path style="opacity:1" fill="#aeddd5" d="M 52.5,84.5 C 52.1614,99.6945 51.1614,114.695 49.5,129.5C 49.5,113.833 49.5,98.1667 49.5,82.5C 51.1788,82.2852 52.1788,82.9519 52.5,84.5 Z"/></g>
<g><path style="opacity:0.996" fill="#5dbcab" d="M 197.5,81.5 C 198.167,81.5 198.833,81.5 199.5,81.5C 199.5,93.5 199.5,105.5 199.5,117.5C 197.824,118.183 197.157,119.517 197.5,121.5C 195.857,121.52 194.524,120.853 193.5,119.5C 192.614,120.325 192.281,121.325 192.5,122.5C 189.833,121.167 187.167,121.167 184.5,122.5C 184.343,120.182 183.176,118.516 181,117.5C 179.053,118.686 177.22,120.02 175.5,121.5C 174.106,119.016 172.606,119.016 171,121.5C 170.05,120.978 169.216,120.311 168.5,119.5C 167.719,120.737 166.719,121.737 165.5,122.5C 163.591,121.652 161.591,121.318 159.5,121.5C 159.5,109.167 159.5,96.8333 159.5,84.5C 163.637,82.6455 167.804,81.6455 172,81.5C 173.314,82.3128 174.481,83.3128 175.5,84.5C 176.281,83.2634 177.281,82.2634 178.5,81.5C 179.597,83.229 180.763,84.8956 182,86.5C 183.401,84.8078 185.234,84.1412 187.5,84.5C 187.5,83.5 187.5,82.5 187.5,81.5C 190.914,82.2466 194.247,82.2466 197.5,81.5 Z"/></g>
<g><path style="opacity:0.989" fill="#5fbeae" d="M 41.5,86.5 C 41.5,100.833 41.5,115.167 41.5,129.5C 44.1667,129.5 46.8333,129.5 49.5,129.5C 51.1614,114.695 52.1614,99.6945 52.5,84.5C 57.4409,87.1141 62.1075,90.1141 66.5,93.5C 66.9186,94.6721 67.5853,95.6721 68.5,96.5C 73.4123,99.777 78.079,103.277 82.5,107C 83.7932,107.49 85.1266,107.657 86.5,107.5C 86.5,114.833 86.5,122.167 86.5,129.5C 89.1667,129.5 91.8333,129.5 94.5,129.5C 95.8232,126.062 96.4898,122.229 96.5,118C 96.4898,113.771 95.8232,109.938 94.5,106.5C 94.5,105.833 94.5,105.167 94.5,104.5C 95.2998,102.259 96.9664,101.259 99.5,101.5C 100.167,105.5 100.833,105.5 101.5,101.5C 102.5,101.5 103.5,101.5 104.5,101.5C 104.5,102.5 104.5,103.5 104.5,104.5C 104.5,105.167 104.5,105.833 104.5,106.5C 103.177,109.938 102.51,113.771 102.5,118C 102.51,122.229 103.177,126.062 104.5,129.5C 107.167,129.5 109.833,129.5 112.5,129.5C 114.459,123.25 115.126,116.584 114.5,109.5C 115.174,107.976 116.174,106.642 117.5,105.5C 127.363,98.5959 137.03,91.5959 146.5,84.5C 146.839,99.6945 147.839,114.695 149.5,129.5C 151.833,129.5 154.167,129.5 156.5,129.5C 156.785,131.288 156.452,132.955 155.5,134.5C 154.833,133.833 154.167,133.167 153.5,132.5C 152.5,133.833 151.5,135.167 150.5,136.5C 146.554,130.491 141.721,129.825 136,134.5C 133.444,131.929 130.944,131.929 128.5,134.5C 127.749,133.624 127.249,132.624 127,131.5C 126.43,134.844 125.264,135.177 123.5,132.5C 122.808,133.025 122.308,133.692 122,134.5C 119.928,131.906 117.761,131.906 115.5,134.5C 113.833,131.833 112.167,131.833 110.5,134.5C 108.155,131.188 106.822,131.188 106.5,134.5C 103.564,133.594 100.564,132.928 97.5,132.5C 97.6567,133.873 97.49,135.207 97,136.5C 96.7978,134.744 96.2978,133.078 95.5,131.5C 92.9084,131.936 90.5751,132.936 88.5,134.5C 86.0769,132.914 83.4102,131.914 80.5,131.5C 78.8662,131.968 77.6995,132.968 77,134.5C 75.7635,132.896 74.5968,131.229 73.5,129.5C 72.5481,131.045 72.2148,132.712 72.5,134.5C 69.3732,134.514 66.7065,133.514 64.5,131.5C 63.0445,132.39 61.7112,132.39 60.5,131.5C 59.8333,132.5 59.1667,133.5 58.5,134.5C 57.259,131.856 55.259,131.023 52.5,132C 53.3081,132.308 53.9747,132.808 54.5,133.5C 52.1349,137.755 51.1349,137.421 51.5,132.5C 47.9703,131.989 44.8037,132.656 42,134.5C 40.3333,131.833 38.6667,131.833 37,134.5C 35.7245,130.908 34.0579,130.908 32,134.5C 31.5172,133.552 31.3505,132.552 31.5,131.5C 27.8362,131.203 24.6696,132.203 22,134.5C 20.9826,131.972 19.8159,131.972 18.5,134.5C 17.7193,133.263 16.7193,132.263 15.5,131.5C 11.712,131.601 8.04529,131.935 4.5,132.5C 2.92752,127.349 1.26085,122.349 -0.5,117.5C -0.5,105.833 -0.5,94.1667 -0.5,82.5C 0.756437,82.9038 1.9231,83.5705 3,84.5C 3.95027,83.9777 4.7836,83.311 5.5,82.5C 7.16667,85.1667 8.83333,85.1667 10.5,82.5C 11.5237,83.8532 12.857,84.5198 14.5,84.5C 15.0527,80.5443 15.8861,80.5443 17,84.5C 17.2492,83.376 17.7492,82.376 18.5,81.5C 19.7202,82.7111 20.8869,82.7111 22,81.5C 22.5893,85.0703 23.9226,85.4036 26,82.5C 27.6537,83.6533 29.1537,84.9866 30.5,86.5C 31.2978,84.9223 31.7978,83.2556 32,81.5C 32.2492,82.624 32.7492,83.624 33.5,84.5C 35.6032,82.1201 36.7699,82.7868 37,86.5C 37.2189,85.062 37.7189,83.7287 38.5,82.5C 39.0568,84.3316 40.0568,85.6649 41.5,86.5 Z"/></g>
<g><path style="opacity:0.999" fill="#9ad6cc" d="M 94.5,106.5 C 95.8232,109.938 96.4898,113.771 96.5,118C 96.4898,122.229 95.8232,126.062 94.5,129.5C 94.5,121.833 94.5,114.167 94.5,106.5 Z"/></g>
<g><path style="opacity:1" fill="#87cfc2" d="M 114.5,109.5 C 115.126,116.584 114.459,123.25 112.5,129.5C 111.874,122.416 112.541,115.75 114.5,109.5 Z"/></g>
<g><path style="opacity:0.999" fill="#86cec2" d="M 104.5,106.5 C 104.5,114.167 104.5,121.833 104.5,129.5C 103.177,126.062 102.51,122.229 102.5,118C 102.51,113.771 103.177,109.938 104.5,106.5 Z"/></g>
<g><path style="opacity:0.992" fill="#62c3b1" d="M 157.5,74.5 C 159.402,77.3373 160.069,80.6707 159.5,84.5C 159.5,96.8333 159.5,109.167 159.5,121.5C 161.591,121.318 163.591,121.652 165.5,122.5C 166.719,121.737 167.719,120.737 168.5,119.5C 169.216,120.311 170.05,120.978 171,121.5C 172.606,119.016 174.106,119.016 175.5,121.5C 177.22,120.02 179.053,118.686 181,117.5C 183.176,118.516 184.343,120.182 184.5,122.5C 187.167,121.167 189.833,121.167 192.5,122.5C 192.281,121.325 192.614,120.325 193.5,119.5C 194.524,120.853 195.857,121.52 197.5,121.5C 197.056,126.723 195.722,131.723 193.5,136.5C 190.952,142.282 187.952,147.616 184.5,152.5C 181.614,152.3 179.114,151.3 177,149.5C 176.685,152.147 175.518,152.813 173.5,151.5C 172.749,152.376 172.249,153.376 172,154.5C 170.663,152.996 168.996,151.996 167,151.5C 166.781,150.062 166.281,148.729 165.5,147.5C 164.833,149.167 164.167,150.833 163.5,152.5C 162.5,151.167 161.5,151.167 160.5,152.5C 158.866,152.032 157.7,151.032 157,149.5C 154.579,151.98 151.746,152.647 148.5,151.5C 147.369,152.751 146.036,153.751 144.5,154.5C 142.132,152.619 139.632,150.953 137,149.5C 136.051,153.378 134.885,153.378 133.5,149.5C 132.73,151.272 131.397,152.272 129.5,152.5C 126.594,152.3 124.094,151.3 122,149.5C 121.3,151.032 120.134,152.032 118.5,152.5C 111.448,152.282 104.448,151.949 97.5,151.5C 97.6495,152.552 97.4828,153.552 97,154.5C 96.5065,152.866 96.3398,151.199 96.5,149.5C 93.5494,151.377 90.2161,152.377 86.5,152.5C 84.8333,152.333 83.1667,152.167 81.5,152C 82.9928,150.844 82.8261,150.01 81,149.5C 79.662,150.506 78.3287,151.506 77,152.5C 75.8869,151.289 74.7202,151.289 73.5,152.5C 71.5469,151.976 69.8802,150.976 68.5,149.5C 67.3914,152.911 65.7248,152.911 63.5,149.5C 62.1198,150.976 60.4531,151.976 58.5,152.5C 57.5,151.167 56.5,151.167 55.5,152.5C 54.8333,153.833 54.1667,155.167 53.5,156.5C 52.6858,154.234 52.1858,151.9 52,149.5C 50.2028,151.156 48.0361,152.156 45.5,152.5C 43.5981,157.706 42.5981,157.373 42.5,151.5C 41.5,151.5 40.5,151.5 39.5,151.5C 39.762,150.022 39.4287,148.689 38.5,147.5C 37.6858,149.766 37.1858,152.1 37,154.5C 35.9826,151.972 34.8159,151.972 33.5,154.5C 32.8076,153.975 32.3076,153.308 32,152.5C 31.0914,157.73 29.9247,157.73 28.5,152.5C 25.9639,152.156 23.7972,151.156 22,149.5C 20.9826,152.028 19.8159,152.028 18.5,149.5C 17.2008,150.694 15.8675,151.694 14.5,152.5C 10.1512,146.469 6.81786,139.803 4.5,132.5C 8.04529,131.935 11.712,131.601 15.5,131.5C 16.7193,132.263 17.7193,133.263 18.5,134.5C 19.8159,131.972 20.9826,131.972 22,134.5C 24.6696,132.203 27.8362,131.203 31.5,131.5C 31.3505,132.552 31.5172,133.552 32,134.5C 34.0579,130.908 35.7245,130.908 37,134.5C 38.6667,131.833 40.3333,131.833 42,134.5C 44.8037,132.656 47.9703,131.989 51.5,132.5C 51.1349,137.421 52.1349,137.755 54.5,133.5C 53.9747,132.808 53.3081,132.308 52.5,132C 55.259,131.023 57.259,131.856 58.5,134.5C 59.1667,133.5 59.8333,132.5 60.5,131.5C 61.7112,132.39 63.0445,132.39 64.5,131.5C 66.7065,133.514 69.3732,134.514 72.5,134.5C 72.2148,132.712 72.5481,131.045 73.5,129.5C 74.5968,131.229 75.7635,132.896 77,134.5C 77.6995,132.968 78.8662,131.968 80.5,131.5C 83.4102,131.914 86.0769,132.914 88.5,134.5C 90.5751,132.936 92.9084,131.936 95.5,131.5C 96.2978,133.078 96.7978,134.744 97,136.5C 97.49,135.207 97.6567,133.873 97.5,132.5C 100.564,132.928 103.564,133.594 106.5,134.5C 106.822,131.188 108.155,131.188 110.5,134.5C 112.167,131.833 113.833,131.833 115.5,134.5C 117.761,131.906 119.928,131.906 122,134.5C 122.308,133.692 122.808,133.025 123.5,132.5C 125.264,135.177 126.43,134.844 127,131.5C 127.249,132.624 127.749,133.624 128.5,134.5C 130.944,131.929 133.444,131.929 136,134.5C 141.721,129.825 146.554,130.491 150.5,136.5C 151.5,135.167 152.5,133.833 153.5,132.5C 154.167,133.167 154.833,133.833 155.5,134.5C 156.452,132.955 156.785,131.288 156.5,129.5C 157.497,111.341 157.83,93.0076 157.5,74.5 Z"/></g>
<g><path style="opacity:0.994" fill="#64c6b4" d="M 184.5,152.5 C 182.038,157.862 178.705,162.529 174.5,166.5C 173.905,163.887 173.071,163.887 172,166.5C 170.983,163.972 169.816,163.972 168.5,166.5C 167.5,165.167 166.5,163.833 165.5,162.5C 164.833,164.167 164.167,165.833 163.5,167.5C 161.657,167.245 159.657,167.078 157.5,167C 156.953,166.075 156.287,165.242 155.5,164.5C 154.481,165.687 153.314,166.687 152,167.5C 150.644,166.62 149.144,166.286 147.5,166.5C 147.657,165.127 147.49,163.793 147,162.5C 145.983,165.028 144.816,165.028 143.5,162.5C 142.719,163.729 142.219,165.062 142,166.5C 141.326,165.422 140.326,164.755 139,164.5C 136.645,165.513 134.311,166.513 132,167.5C 131.517,166.552 131.351,165.552 131.5,164.5C 134.988,164.101 135.154,163.434 132,162.5C 128.432,163.509 125.099,164.842 122,166.5C 120.408,162.817 118.241,162.151 115.5,164.5C 114.833,163.833 114.167,163.167 113.5,162.5C 112.605,164.307 111.272,165.64 109.5,166.5C 105.759,163.966 102.092,163.966 98.5,166.5C 97.8076,165.975 97.3076,165.308 97,164.5C 96.6924,165.308 96.1924,165.975 95.5,166.5C 92.1667,163.833 88.8333,163.833 85.5,166.5C 84.0753,161.27 82.9086,161.27 82,166.5C 80.3333,163.833 78.6667,163.833 77,166.5C 75.8261,163.747 73.9928,162.747 71.5,163.5C 73.0269,165.33 72.5269,166.33 70,166.5C 66.8943,166.085 66.7276,165.085 69.5,163.5C 68.2643,162.643 66.931,161.977 65.5,161.5C 63.335,162.498 61.1684,163.498 59,164.5C 56.9988,163.498 54.9988,162.498 53,161.5C 49.4749,162.118 48.9749,163.451 51.5,165.5C 48.5,166.833 45.5,166.833 42.5,165.5C 41.5429,162.85 39.8762,162.183 37.5,163.5C 40.1355,165.064 39.9689,166.397 37,167.5C 36.4304,164.156 35.2638,163.823 33.5,166.5C 32.4905,163.663 30.4905,162.33 27.5,162.5C 27.634,164.292 27.3007,165.958 26.5,167.5C 24.9102,167.372 23.5769,166.705 22.5,165.5C 19.3605,161.382 16.6939,157.048 14.5,152.5C 15.8675,151.694 17.2008,150.694 18.5,149.5C 19.8159,152.028 20.9826,152.028 22,149.5C 23.7972,151.156 25.9639,152.156 28.5,152.5C 29.9247,157.73 31.0914,157.73 32,152.5C 32.3076,153.308 32.8076,153.975 33.5,154.5C 34.8159,151.972 35.9826,151.972 37,154.5C 37.1858,152.1 37.6858,149.766 38.5,147.5C 39.4287,148.689 39.762,150.022 39.5,151.5C 40.5,151.5 41.5,151.5 42.5,151.5C 42.5981,157.373 43.5981,157.706 45.5,152.5C 48.0361,152.156 50.2028,151.156 52,149.5C 52.1858,151.9 52.6858,154.234 53.5,156.5C 54.1667,155.167 54.8333,153.833 55.5,152.5C 56.5,151.167 57.5,151.167 58.5,152.5C 60.4531,151.976 62.1198,150.976 63.5,149.5C 65.7248,152.911 67.3914,152.911 68.5,149.5C 69.8802,150.976 71.5469,151.976 73.5,152.5C 74.7202,151.289 75.8869,151.289 77,152.5C 78.3287,151.506 79.662,150.506 81,149.5C 82.8261,150.01 82.9928,150.844 81.5,152C 83.1667,152.167 84.8333,152.333 86.5,152.5C 90.2161,152.377 93.5494,151.377 96.5,149.5C 96.3398,151.199 96.5065,152.866 97,154.5C 97.4828,153.552 97.6495,152.552 97.5,151.5C 104.448,151.949 111.448,152.282 118.5,152.5C 120.134,152.032 121.3,151.032 122,149.5C 124.094,151.3 126.594,152.3 129.5,152.5C 131.397,152.272 132.73,151.272 133.5,149.5C 134.885,153.378 136.051,153.378 137,149.5C 139.632,150.953 142.132,152.619 144.5,154.5C 146.036,153.751 147.369,152.751 148.5,151.5C 151.746,152.647 154.579,151.98 157,149.5C 157.7,151.032 158.866,152.032 160.5,152.5C 161.5,151.167 162.5,151.167 163.5,152.5C 164.167,150.833 164.833,149.167 165.5,147.5C 166.281,148.729 166.781,150.062 167,151.5C 168.996,151.996 170.663,152.996 172,154.5C 172.249,153.376 172.749,152.376 173.5,151.5C 175.518,152.813 176.685,152.147 177,149.5C 179.114,151.3 181.614,152.3 184.5,152.5 Z"/></g>
<g><path style="opacity:0.981" fill="#67cab7" d="M 174.5,166.5 C 167.935,174.408 160.101,181.075 151,186.5C 144.658,189.838 138.158,192.838 131.5,195.5C 126.401,196.195 121.735,197.529 117.5,199.5C 105.5,199.5 93.5,199.5 81.5,199.5C 61.0234,194.593 43.0234,184.926 27.5,170.5C 26.8728,169.583 26.5394,168.583 26.5,167.5C 27.3007,165.958 27.634,164.292 27.5,162.5C 30.4905,162.33 32.4905,163.663 33.5,166.5C 35.2638,163.823 36.4304,164.156 37,167.5C 39.9689,166.397 40.1355,165.064 37.5,163.5C 39.8762,162.183 41.5429,162.85 42.5,165.5C 45.5,166.833 48.5,166.833 51.5,165.5C 48.9749,163.451 49.4749,162.118 53,161.5C 54.9988,162.498 56.9988,163.498 59,164.5C 61.1684,163.498 63.335,162.498 65.5,161.5C 66.931,161.977 68.2643,162.643 69.5,163.5C 66.7276,165.085 66.8943,166.085 70,166.5C 72.5269,166.33 73.0269,165.33 71.5,163.5C 73.9928,162.747 75.8261,163.747 77,166.5C 78.6667,163.833 80.3333,163.833 82,166.5C 82.9086,161.27 84.0753,161.27 85.5,166.5C 88.8333,163.833 92.1667,163.833 95.5,166.5C 96.1924,165.975 96.6924,165.308 97,164.5C 97.3076,165.308 97.8076,165.975 98.5,166.5C 102.092,163.966 105.759,163.966 109.5,166.5C 111.272,165.64 112.605,164.307 113.5,162.5C 114.167,163.167 114.833,163.833 115.5,164.5C 118.241,162.151 120.408,162.817 122,166.5C 125.099,164.842 128.432,163.509 132,162.5C 135.154,163.434 134.988,164.101 131.5,164.5C 131.351,165.552 131.517,166.552 132,167.5C 134.311,166.513 136.645,165.513 139,164.5C 140.326,164.755 141.326,165.422 142,166.5C 142.219,165.062 142.719,163.729 143.5,162.5C 144.816,165.028 145.983,165.028 147,162.5C 147.49,163.793 147.657,165.127 147.5,166.5C 149.144,166.286 150.644,166.62 152,167.5C 153.314,166.687 154.481,165.687 155.5,164.5C 156.287,165.242 156.953,166.075 157.5,167C 159.657,167.078 161.657,167.245 163.5,167.5C 164.167,165.833 164.833,164.167 165.5,162.5C 166.5,163.833 167.5,165.167 168.5,166.5C 169.816,163.972 170.983,163.972 172,166.5C 173.071,163.887 173.905,163.887 174.5,166.5 Z"/></g>
</svg>
