<?xml version="1.0" encoding="UTF-8"?>
<!DOCTYPE svg PUBLIC "-//W3C//DTD SVG 1.1//EN" "http://www.w3.org/Graphics/SVG/1.1/DTD/svg11.dtd">
<svg xmlns="http://www.w3.org/2000/svg" version="1.1" width="200px" height="200px" style="shape-rendering:geometricPrecision; text-rendering:geometricPrecision; image-rendering:optimizeQuality; fill-rule:evenodd; clip-rule:evenodd" xmlns:xlink="http://www.w3.org/1999/xlink">
<g><path style="opacity:0.994" fill="#6e56fc" d="M 87.5,-0.5 C 95.5,-0.5 103.5,-0.5 111.5,-0.5C 143.746,4.29578 168.413,20.6291 185.5,48.5C 128.331,48.8323 71.3309,48.499 14.5,47.5C 15.1283,44.91 16.295,42.5766 18,40.5C 35.6722,17.2897 58.8388,3.62307 87.5,-0.5 Z"/></g>
<g><path style="opacity:0.995" fill="#6560f7" d="M 14.5,47.5 C 71.3309,48.499 128.331,48.8323 185.5,48.5C 186.674,49.5137 187.34,50.847 187.5,52.5C 166.006,53.4973 144.34,53.8307 122.5,53.5C 119.167,53.1667 115.833,52.8333 112.5,52.5C 79.1091,53.2373 45.1091,53.5706 10.5,53.5C 10.9287,50.8527 12.2621,48.8527 14.5,47.5 Z"/></g>
<g><path style="opacity:1" fill="#fefefe" d="M 112.5,52.5 C 115.833,52.8333 119.167,53.1667 122.5,53.5C 123.82,55.8171 125.486,57.8171 127.5,59.5C 128.038,61.1172 128.371,62.7839 128.5,64.5C 128.5,66.1667 128.5,67.8333 128.5,69.5C 128.5,72.8333 128.5,76.1667 128.5,79.5C 128.5,83.1667 128.5,86.8333 128.5,90.5C 128.5,93.8333 128.5,97.1667 128.5,100.5C 120.167,100.5 111.833,100.5 103.5,100.5C 103.5,97.1667 103.5,93.8333 103.5,90.5C 103.5,88.8333 103.5,87.1667 103.5,85.5C 103.5,82.1667 103.5,78.8333 103.5,75.5C 103.5,71.8333 103.5,68.1667 103.5,64.5C 103.366,62.7085 103.699,61.0418 104.5,59.5C 106.573,56.4235 109.239,54.0902 112.5,52.5 Z"/></g>
<g><path style="opacity:0.983" fill="#5e67f3" d="M 187.5,52.5 C 189.195,54.5351 190.528,56.8684 191.5,59.5C 170.025,59.8809 148.692,59.8809 127.5,59.5C 125.486,57.8171 123.82,55.8171 122.5,53.5C 144.34,53.8307 166.006,53.4973 187.5,52.5 Z"/></g>
<g><path style="opacity:0.997" fill="#5e67f3" d="M 112.5,52.5 C 109.239,54.0902 106.573,56.4235 104.5,59.5C 72.1667,59.5 39.8333,59.5 7.5,59.5C 8.51385,57.4261 9.51385,55.4261 10.5,53.5C 45.1091,53.5706 79.1091,53.2373 112.5,52.5 Z"/></g>
<g><path style="opacity:0.998" fill="#586df0" d="M 7.5,59.5 C 39.8333,59.5 72.1667,59.5 104.5,59.5C 103.699,61.0418 103.366,62.7085 103.5,64.5C 70.8333,64.5 38.1667,64.5 5.5,64.5C 6.02412,62.6943 6.69079,61.0276 7.5,59.5 Z"/></g>
<g><path style="opacity:0.997" fill="#586df0" d="M 127.5,59.5 C 148.692,59.8809 170.025,59.8809 191.5,59.5C 192.458,61.3024 193.125,63.3024 193.5,65.5C 192.317,65.1558 191.484,65.8225 191,67.5C 190.308,66.9747 189.808,66.3081 189.5,65.5C 169.178,64.5004 148.844,64.167 128.5,64.5C 128.371,62.7839 128.038,61.1172 127.5,59.5 Z"/></g>
<g><path style="opacity:0.998" fill="#5175eb" d="M 128.5,64.5 C 148.844,64.167 169.178,64.5004 189.5,65.5C 189.808,66.3081 190.308,66.9747 191,67.5C 191.484,65.8225 192.317,65.1558 193.5,65.5C 194.993,67.9023 195.993,70.569 196.5,73.5C 189.619,76.2939 182.786,76.6272 176,74.5C 175.333,75.1667 174.667,75.8333 174,76.5C 169.263,75.5308 164.43,75.1975 159.5,75.5C 159.672,74.5084 159.338,73.8417 158.5,73.5C 155.97,67.5622 151.97,66.2288 146.5,69.5C 140.6,70.3658 134.6,70.3658 128.5,69.5C 128.5,67.8333 128.5,66.1667 128.5,64.5 Z"/></g>
<g><path style="opacity:1" fill="#5076eb" d="M 5.5,64.5 C 38.1667,64.5 70.8333,64.5 103.5,64.5C 103.5,68.1667 103.5,71.8333 103.5,75.5C 95.2027,74.6856 86.8694,74.6856 78.5,75.5C 78.5,74.8333 78.1667,74.5 77.5,74.5C 74.654,68.3963 70.3206,67.0629 64.5,70.5C 63.0476,71.9397 62.0476,73.6064 61.5,75.5C 54.6686,74.9243 48.1686,74.9243 42,75.5C 34.5092,73.7517 27.1759,73.7517 20,75.5C 14.0833,73.9697 8.24997,73.6363 2.5,74.5C 2.99952,70.9906 3.99952,67.6573 5.5,64.5 Z"/></g>
<g><path style="opacity:1" fill="#fefefe" d="M 158.5,73.5 C 158.5,82.5 158.5,91.5 158.5,100.5C 153.833,100.5 149.167,100.5 144.5,100.5C 144.5,97.1667 144.5,93.8333 144.5,90.5C 144.5,87.1667 144.5,83.8333 144.5,80.5C 144.111,76.5863 144.778,72.9196 146.5,69.5C 151.97,66.2288 155.97,67.5622 158.5,73.5 Z"/></g>
<g><path style="opacity:1" fill="#fefefe" d="M 77.5,74.5 C 77.5,83.1667 77.5,91.8333 77.5,100.5C 72.1667,100.5 66.8333,100.5 61.5,100.5C 61.5,97.1667 61.5,93.8333 61.5,90.5C 61.5,86.8333 61.5,83.1667 61.5,79.5C 61.5,78.1667 61.5,76.8333 61.5,75.5C 62.0476,73.6064 63.0476,71.9397 64.5,70.5C 70.3206,67.0629 74.654,68.3963 77.5,74.5 Z"/></g>
<g><path style="opacity:0.996" fill="#477fe6" d="M 61.5,75.5 C 61.5,76.8333 61.5,78.1667 61.5,79.5C 58.8806,79.2317 56.3806,79.565 54,80.5C 53.6667,79.8333 53.3333,79.1667 53,78.5C 49.6667,79.8333 46.3333,79.8333 43,78.5C 41,79.1667 39,79.8333 37,80.5C 28.5614,79.5236 20.5614,78.857 13,78.5C 12.3109,79.3567 11.4776,80.0233 10.5,80.5C 7.35957,79.9106 4.35957,79.2439 1.5,78.5C 1.43255,77.0413 1.76589,75.7079 2.5,74.5C 8.24997,73.6363 14.0833,73.9697 20,75.5C 27.1759,73.7517 34.5092,73.7517 42,75.5C 48.1686,74.9243 54.6686,74.9243 61.5,75.5 Z"/></g>
<g><path style="opacity:0.999" fill="#497ee7" d="M 128.5,69.5 C 134.6,70.3658 140.6,70.3658 146.5,69.5C 144.778,72.9196 144.111,76.5863 144.5,80.5C 140.782,78.849 137.282,79.1823 134,81.5C 132.416,80.1387 130.582,79.472 128.5,79.5C 128.5,76.1667 128.5,72.8333 128.5,69.5 Z"/></g>
<g><path style="opacity:0.998" fill="#4086e2" d="M 1.5,78.5 C 4.35957,79.2439 7.35957,79.9106 10.5,80.5C 11.4776,80.0233 12.3109,79.3567 13,78.5C 20.5614,78.857 28.5614,79.5236 37,80.5C 39,79.8333 41,79.1667 43,78.5C 46.3333,79.8333 49.6667,79.8333 53,78.5C 53.3333,79.1667 53.6667,79.8333 54,80.5C 56.3806,79.565 58.8806,79.2317 61.5,79.5C 61.5,83.1667 61.5,86.8333 61.5,90.5C 54.306,90.2541 47.306,90.2541 40.5,90.5C 38.7459,86.7797 35.7459,84.7797 31.5,84.5C 21.2107,84.6258 10.8774,84.6258 0.5,84.5C 0.205283,82.2646 0.538616,80.2646 1.5,78.5 Z"/></g>
<g><path style="opacity:0.999" fill="#4383e3" d="M 103.5,75.5 C 103.5,78.8333 103.5,82.1667 103.5,85.5C 97.1466,84.5436 90.6466,84.2103 84,84.5C 81.9907,84.7579 80.1573,85.4245 78.5,86.5C 78.5,82.8333 78.5,79.1667 78.5,75.5C 86.8694,74.6856 95.2027,74.6856 103.5,75.5 Z"/></g>
<g><path style="opacity:0.999" fill="#4284e3" d="M 196.5,73.5 C 198.002,77.3425 198.668,81.3425 198.5,85.5C 195.495,85.7798 192.661,85.4465 190,84.5C 189,85.1667 188,85.8333 187,86.5C 178.405,85.701 169.238,85.701 159.5,86.5C 159.5,82.8333 159.5,79.1667 159.5,75.5C 164.43,75.1975 169.263,75.5308 174,76.5C 174.667,75.8333 175.333,75.1667 176,74.5C 182.786,76.6272 189.619,76.2939 196.5,73.5 Z"/></g>
<g><path style="opacity:1" fill="#fcfdfe" d="M 31.5,84.5 C 35.7459,84.7797 38.7459,86.7797 40.5,90.5C 40.5,93.8333 40.5,97.1667 40.5,100.5C 35.5,100.5 30.5,100.5 25.5,100.5C 25.5,97.5 25.5,94.5 25.5,91.5C 26.0891,87.9138 28.0891,85.5805 31.5,84.5 Z"/></g>
<g><path style="opacity:0.999" fill="#3b8bdf" d="M 103.5,85.5 C 103.5,87.1667 103.5,88.8333 103.5,90.5C 94.5717,90.4522 86.2383,90.4522 78.5,90.5C 78.5,89.1667 78.5,87.8333 78.5,86.5C 80.1573,85.4245 81.9907,84.7579 84,84.5C 90.6466,84.2103 97.1466,84.5436 103.5,85.5 Z"/></g>
<g><path style="opacity:1" fill="#3d89e0" d="M 128.5,79.5 C 130.582,79.472 132.416,80.1387 134,81.5C 137.282,79.1823 140.782,78.849 144.5,80.5C 144.5,83.8333 144.5,87.1667 144.5,90.5C 139.024,89.7764 133.691,89.7764 128.5,90.5C 128.5,86.8333 128.5,83.1667 128.5,79.5 Z"/></g>
<g><path style="opacity:0.994" fill="#3890dd" d="M 0.5,84.5 C 10.8774,84.6258 21.2107,84.6258 31.5,84.5C 28.0891,85.5805 26.0891,87.9138 25.5,91.5C 24.5655,92.5676 24.2322,93.901 24.5,95.5C 16.3119,95.0362 7.97858,95.0362 -0.5,95.5C -0.5,92.8333 -0.5,90.1667 -0.5,87.5C 0.403972,86.791 0.737305,85.791 0.5,84.5 Z"/></g>
<g><path style="opacity:0.999" fill="#3394db" d="M 103.5,90.5 C 103.5,93.8333 103.5,97.1667 103.5,100.5C 95.1667,100.5 86.8333,100.5 78.5,100.5C 78.5,97.1667 78.5,93.8333 78.5,90.5C 86.2383,90.4522 94.5717,90.4522 103.5,90.5 Z"/></g>
<g><path style="opacity:0.994" fill="#3790dd" d="M 198.5,85.5 C 198.328,86.4916 198.662,87.1583 199.5,87.5C 199.5,90.1667 199.5,92.8333 199.5,95.5C 186.543,95.3098 173.21,95.3098 159.5,95.5C 159.5,92.5 159.5,89.5 159.5,86.5C 169.238,85.701 178.405,85.701 187,86.5C 188,85.8333 189,85.1667 190,84.5C 192.661,85.4465 195.495,85.7798 198.5,85.5 Z"/></g>
<g><path style="opacity:0.999" fill="#3396da" d="M 61.5,90.5 C 61.5,93.8333 61.5,97.1667 61.5,100.5C 54.5,100.5 47.5,100.5 40.5,100.5C 40.5,97.1667 40.5,93.8333 40.5,90.5C 47.306,90.2541 54.306,90.2541 61.5,90.5 Z"/></g>
<g><path style="opacity:1" fill="#3196da" d="M 144.5,90.5 C 144.5,93.8333 144.5,97.1667 144.5,100.5C 139.167,100.5 133.833,100.5 128.5,100.5C 128.5,97.1667 128.5,93.8333 128.5,90.5C 133.691,89.7764 139.024,89.7764 144.5,90.5 Z"/></g>
<g><path style="opacity:0.997" fill="#2c9dd6" d="M 25.5,91.5 C 25.5,94.5 25.5,97.5 25.5,100.5C 30.5,100.5 35.5,100.5 40.5,100.5C 40.5,102.5 40.5,104.5 40.5,106.5C 26.6067,106.487 12.94,106.82 -0.5,107.5C -0.5,103.5 -0.5,99.5 -0.5,95.5C 7.97858,95.0362 16.3119,95.0362 24.5,95.5C 24.2322,93.901 24.5655,92.5676 25.5,91.5 Z"/></g>
<g><path style="opacity:1" fill="#fdfefe" d="M 40.5,100.5 C 47.5,100.5 54.5,100.5 61.5,100.5C 61.5,104.167 61.5,107.833 61.5,111.5C 60.9242,120.29 56.2575,124.124 47.5,123C 45.1953,121.374 43.1953,119.54 41.5,117.5C 40.7564,113.881 40.423,110.215 40.5,106.5C 40.5,104.5 40.5,102.5 40.5,100.5 Z"/></g>
<g><path style="opacity:1" fill="#fefefe" d="M 78.5,100.5 C 86.8333,100.5 95.1667,100.5 103.5,100.5C 103.5,102.5 103.5,104.5 103.5,106.5C 103.5,108.833 103.5,111.167 103.5,113.5C 103.5,116.5 103.5,119.5 103.5,122.5C 103.5,126.5 103.5,130.5 103.5,134.5C 102.384,148.395 95.384,152.561 82.5,147C 79.9756,145.117 78.6423,142.617 78.5,139.5C 78.5,133.833 78.5,128.167 78.5,122.5C 78.5,115.167 78.5,107.833 78.5,100.5 Z"/></g>
<g><path style="opacity:0.998" fill="#299ed5" d="M 103.5,100.5 C 111.833,100.5 120.167,100.5 128.5,100.5C 128.5,102.5 128.5,104.5 128.5,106.5C 120.167,106.5 111.833,106.5 103.5,106.5C 103.5,104.5 103.5,102.5 103.5,100.5 Z"/></g>
<g><path style="opacity:1" fill="#fefefe" d="M 128.5,100.5 C 133.833,100.5 139.167,100.5 144.5,100.5C 144.5,104.167 144.5,107.833 144.5,111.5C 144.5,113.833 144.5,116.167 144.5,118.5C 144.5,120.167 144.5,121.833 144.5,123.5C 144.5,125.167 144.5,126.833 144.5,128.5C 144.291,133.289 141.958,136.289 137.5,137.5C 134.496,137.278 131.829,136.278 129.5,134.5C 128.577,130.936 128.244,127.269 128.5,123.5C 128.5,120.5 128.5,117.5 128.5,114.5C 128.5,111.833 128.5,109.167 128.5,106.5C 128.5,104.5 128.5,102.5 128.5,100.5 Z"/></g>
<g><path style="opacity:1" fill="#fefefe" d="M 158.5,100.5 C 163.5,100.5 168.5,100.5 173.5,100.5C 173.666,104.514 173.499,108.514 173,112.5C 167.642,118.107 162.809,117.774 158.5,111.5C 158.5,107.833 158.5,104.167 158.5,100.5 Z"/></g>
<g><path style="opacity:0.997" fill="#2f9dd7" d="M 158.5,73.5 C 159.338,73.8417 159.672,74.5084 159.5,75.5C 159.5,79.1667 159.5,82.8333 159.5,86.5C 159.5,89.5 159.5,92.5 159.5,95.5C 173.21,95.3098 186.543,95.3098 199.5,95.5C 199.5,99.5 199.5,103.5 199.5,107.5C 191.252,106.531 182.918,106.198 174.5,106.5C 174.795,104.265 174.461,102.265 173.5,100.5C 168.5,100.5 163.5,100.5 158.5,100.5C 158.5,91.5 158.5,82.5 158.5,73.5 Z"/></g>
<g><path style="opacity:0.999" fill="#25a3d3" d="M 61.5,100.5 C 66.8333,100.5 72.1667,100.5 77.5,100.5C 77.5,104.167 77.5,107.833 77.5,111.5C 72.1667,111.5 66.8333,111.5 61.5,111.5C 61.5,107.833 61.5,104.167 61.5,100.5 Z"/></g>
<g><path style="opacity:0.999" fill="#28a3d3" d="M 144.5,100.5 C 149.167,100.5 153.833,100.5 158.5,100.5C 158.5,104.167 158.5,107.833 158.5,111.5C 153.833,111.5 149.167,111.5 144.5,111.5C 144.5,107.833 144.5,104.167 144.5,100.5 Z"/></g>
<g><path style="opacity:0.999" fill="#20a8d0" d="M 103.5,106.5 C 111.833,106.5 120.167,106.5 128.5,106.5C 128.5,109.167 128.5,111.833 128.5,114.5C 120.466,114.137 112.133,113.804 103.5,113.5C 103.5,111.167 103.5,108.833 103.5,106.5 Z"/></g>
<g><path style="opacity:0.999" fill="#1faacf" d="M 40.5,106.5 C 40.423,110.215 40.7564,113.881 41.5,117.5C 28.2012,117.517 14.5345,117.517 0.5,117.5C 0.794717,115.265 0.461384,113.265 -0.5,111.5C -0.5,110.167 -0.5,108.833 -0.5,107.5C 12.94,106.82 26.6067,106.487 40.5,106.5 Z"/></g>
<g><path style="opacity:0.999" fill="#23accf" d="M 173.5,100.5 C 174.461,102.265 174.795,104.265 174.5,106.5C 182.918,106.198 191.252,106.531 199.5,107.5C 199.5,108.833 199.5,110.167 199.5,111.5C 198.539,113.265 198.205,115.265 198.5,117.5C 180.274,117.386 162.274,117.719 144.5,118.5C 144.5,116.167 144.5,113.833 144.5,111.5C 149.167,111.5 153.833,111.5 158.5,111.5C 162.809,117.774 167.642,118.107 173,112.5C 173.499,108.514 173.666,104.514 173.5,100.5 Z"/></g>
<g><path style="opacity:0.999" fill="#17b1cb" d="M 103.5,113.5 C 112.133,113.804 120.466,114.137 128.5,114.5C 128.5,117.5 128.5,120.5 128.5,123.5C 119.777,122.78 111.444,122.447 103.5,122.5C 103.5,119.5 103.5,116.5 103.5,113.5 Z"/></g>
<g><path style="opacity:0.989" fill="#16b2ca" d="M 198.5,117.5 C 198.371,119.216 198.038,120.883 197.5,122.5C 193.213,123.439 189.047,123.773 185,123.5C 182.667,122.833 180.333,122.167 178,121.5C 177.261,122.574 176.261,123.241 175,123.5C 169.283,123.449 162.95,123.449 156,123.5C 151.953,121.618 148.12,121.618 144.5,123.5C 144.5,121.833 144.5,120.167 144.5,118.5C 162.274,117.719 180.274,117.386 198.5,117.5 Z"/></g>
<g><path style="opacity:0.997" fill="#25b7ca" d="M 77.5,74.5 C 78.1667,74.5 78.5,74.8333 78.5,75.5C 78.5,79.1667 78.5,82.8333 78.5,86.5C 78.5,87.8333 78.5,89.1667 78.5,90.5C 78.5,93.8333 78.5,97.1667 78.5,100.5C 78.5,107.833 78.5,115.167 78.5,122.5C 77.5386,124.265 77.2053,126.265 77.5,128.5C 52.8245,128.139 28.1578,128.139 3.5,128.5C 2.29668,124.89 1.29668,121.223 0.5,117.5C 14.5345,117.517 28.2012,117.517 41.5,117.5C 43.1953,119.54 45.1953,121.374 47.5,123C 56.2575,124.124 60.9242,120.29 61.5,111.5C 66.8333,111.5 72.1667,111.5 77.5,111.5C 77.5,107.833 77.5,104.167 77.5,100.5C 77.5,91.8333 77.5,83.1667 77.5,74.5 Z"/></g>
<g><path style="opacity:0.999" fill="#10b9c6" d="M 197.5,122.5 C 196.637,124.421 195.971,126.421 195.5,128.5C 178.5,128.5 161.5,128.5 144.5,128.5C 144.5,126.833 144.5,125.167 144.5,123.5C 148.12,121.618 151.953,121.618 156,123.5C 162.95,123.449 169.283,123.449 175,123.5C 176.261,123.241 177.261,122.574 178,121.5C 180.333,122.167 182.667,122.833 185,123.5C 189.047,123.773 193.213,123.439 197.5,122.5 Z"/></g>
<g><path style="opacity:0.999" fill="#0dbdc4" d="M 103.5,122.5 C 111.444,122.447 119.777,122.78 128.5,123.5C 128.244,127.269 128.577,130.936 129.5,134.5C 120.84,134.61 112.174,134.61 103.5,134.5C 103.5,130.5 103.5,126.5 103.5,122.5 Z"/></g>
<g><path style="opacity:0.999" fill="#0ec3c2" d="M 78.5,122.5 C 78.5,128.167 78.5,133.833 78.5,139.5C 77.8485,138.909 77.1818,138.243 76.5,137.5C 74.6649,138.192 72.8316,137.858 71,136.5C 64.7385,138.649 58.5718,138.649 52.5,136.5C 50.9411,137.074 49.4411,137.74 48,138.5C 45.4566,138.365 42.7899,137.698 40,136.5C 37,137.167 34,137.833 31,138.5C 25.6965,138.39 20.0298,137.723 14,136.5C 13,137.833 12,137.833 11,136.5C 10.3086,138.891 9.30863,138.891 8,136.5C 7.61742,137.056 7.11742,137.389 6.5,137.5C 5.21336,134.594 4.21336,131.594 3.5,128.5C 28.1578,128.139 52.8245,128.139 77.5,128.5C 77.2053,126.265 77.5386,124.265 78.5,122.5 Z"/></g>
<g><path style="opacity:0.999" fill="#0bc3c1" d="M 144.5,128.5 C 161.5,128.5 178.5,128.5 195.5,128.5C 195.06,131.38 194.06,134.046 192.5,136.5C 191.542,136.953 190.708,137.619 190,138.5C 187.667,137.833 185.333,137.167 183,136.5C 181.667,137.833 180.333,137.833 179,136.5C 178.309,138.891 177.309,138.891 176,136.5C 169.855,137.209 163.855,137.209 158,136.5C 157.333,137.167 156.667,137.833 156,138.5C 153.814,137.978 151.481,137.978 149,138.5C 148.333,137.833 147.667,137.167 147,136.5C 143.943,137.451 140.777,137.784 137.5,137.5C 141.958,136.289 144.291,133.289 144.5,128.5 Z"/></g>
<g><path style="opacity:0.994" fill="#00c9bd" d="M 103.5,134.5 C 112.174,134.61 120.84,134.61 129.5,134.5C 131.829,136.278 134.496,137.278 137.5,137.5C 140.777,137.784 143.943,137.451 147,136.5C 147.667,137.167 148.333,137.833 149,138.5C 151.481,137.978 153.814,137.978 156,138.5C 156.667,137.833 157.333,137.167 158,136.5C 163.855,137.209 169.855,137.209 176,136.5C 177.309,138.891 178.309,138.891 179,136.5C 180.333,137.833 181.667,137.833 183,136.5C 185.333,137.167 187.667,137.833 190,138.5C 190.708,137.619 191.542,136.953 192.5,136.5C 185.183,154.328 173.85,169.161 158.5,181C 144.143,190.664 128.477,196.831 111.5,199.5C 103.5,199.5 95.5,199.5 87.5,199.5C 49.5136,193.18 22.5136,172.513 6.5,137.5C 7.11742,137.389 7.61742,137.056 8,136.5C 9.30863,138.891 10.3086,138.891 11,136.5C 12,137.833 13,137.833 14,136.5C 20.0298,137.723 25.6965,138.39 31,138.5C 34,137.833 37,137.167 40,136.5C 42.7899,137.698 45.4566,138.365 48,138.5C 49.4411,137.74 50.9411,137.074 52.5,136.5C 58.5718,138.649 64.7385,138.649 71,136.5C 72.8316,137.858 74.6649,138.192 76.5,137.5C 77.1818,138.243 77.8485,138.909 78.5,139.5C 78.6423,142.617 79.9756,145.117 82.5,147C 95.384,152.561 102.384,148.395 103.5,134.5 Z"/></g>
</svg>
