<?xml version="1.0" encoding="UTF-8"?>
<!DOCTYPE svg PUBLIC "-//W3C//DTD SVG 1.1//EN" "http://www.w3.org/Graphics/SVG/1.1/DTD/svg11.dtd">
<svg xmlns="http://www.w3.org/2000/svg" version="1.1" width="200px" height="200px" style="shape-rendering:geometricPrecision; text-rendering:geometricPrecision; image-rendering:optimizeQuality; fill-rule:evenodd; clip-rule:evenodd" xmlns:xlink="http://www.w3.org/1999/xlink">
<g><path style="opacity:0.936" fill="#111111" d="M 85.5,-0.5 C 94.8333,-0.5 104.167,-0.5 113.5,-0.5C 117.994,0.7339 122.661,1.7339 127.5,2.5C 141.507,6.75472 154.007,13.7547 165,23.5C 166.871,22.3322 168.371,22.8322 169.5,25C 169.167,25.3333 168.833,25.6667 168.5,26C 170.842,28.3847 173.342,30.2181 176,31.5C 176.617,32.4491 176.451,33.2825 175.5,34C 177.184,35.7396 179.018,36.9063 181,37.5C 183.257,39.957 184.257,42.6236 184,45.5C 185,45.8333 186,46.1667 187,46.5C 189.254,50.0066 191.254,53.6733 193,57.5C 193.595,58.8989 193.428,60.2322 192.5,61.5C 193.183,64.4614 194.016,64.7947 195,62.5C 194.893,67.9039 195.893,73.2373 198,78.5C 198.21,76.9419 198.71,75.6085 199.5,74.5C 199.5,76.1667 199.5,77.8333 199.5,79.5C 198.167,81.1667 198.167,82.8333 199.5,84.5C 199.5,94.5 199.5,104.5 199.5,114.5C 198.539,116.265 198.205,118.265 198.5,120.5C 197.566,121.568 197.232,122.901 197.5,124.5C 196.167,125.5 196.167,126.5 197.5,127.5C 194.881,139.069 189.881,149.402 182.5,158.5C 182.167,157.167 181.833,157.167 181.5,158.5C 180.167,158.833 180.167,159.167 181.5,159.5C 181.573,161.027 180.906,162.027 179.5,162.5C 179.167,161.167 178.833,161.167 178.5,162.5C 177.833,162.5 177.5,162.833 177.5,163.5C 176.167,163.833 176.167,164.167 177.5,164.5C 176.92,166.749 175.587,168.415 173.5,169.5C 173.167,168.167 172.833,168.167 172.5,169.5C 171.833,169.5 171.5,169.833 171.5,170.5C 170.833,170.5 170.5,170.833 170.5,171.5C 169.833,171.5 169.5,171.833 169.5,172.5C 168.833,172.5 168.5,172.833 168.5,173.5C 167.167,173.833 167.167,174.167 168.5,174.5C 167.738,176.262 166.404,177.262 164.5,177.5C 164.167,176.167 163.833,176.167 163.5,177.5C 162.833,177.5 162.5,177.833 162.5,178.5C 161.833,178.5 161.5,178.833 161.5,179.5C 160.508,179.328 159.842,179.662 159.5,180.5C 158.833,180.5 158.5,180.833 158.5,181.5C 157.833,181.5 157.5,181.833 157.5,182.5C 156.508,182.328 155.842,182.662 155.5,183.5C 154.833,183.5 154.5,183.833 154.5,184.5C 153.508,184.328 152.842,184.662 152.5,185.5C 151.508,185.328 150.842,185.662 150.5,186.5C 149.833,186.5 149.5,186.833 149.5,187.5C 148.508,187.328 147.842,187.662 147.5,188.5C 146.508,188.328 145.842,188.662 145.5,189.5C 144.508,189.328 143.842,189.662 143.5,190.5C 142.508,190.328 141.842,190.662 141.5,191.5C 140.508,191.328 139.842,191.662 139.5,192.5C 138.209,192.263 137.209,192.596 136.5,193.5C 135.508,193.328 134.842,193.662 134.5,194.5C 133.209,194.263 132.209,194.596 131.5,195.5C 130.209,195.263 129.209,195.596 128.5,196.5C 126.901,196.232 125.568,196.566 124.5,197.5C 122.901,197.232 121.568,197.566 120.5,198.5C 118.265,198.205 116.265,198.539 114.5,199.5C 104.5,199.5 94.5,199.5 84.5,199.5C 82.7354,198.539 80.7354,198.205 78.5,198.5C 66.2885,195.366 54.7885,190.366 44,183.5C 43.586,183.957 43.086,184.291 42.5,184.5C 41.1878,181.329 38.6878,178.663 35,176.5C 33.1291,177.668 31.6291,177.168 30.5,175C 30.8333,174.667 31.1667,174.333 31.5,174C 28.6538,170.416 25.4871,167.916 22,166.5C 21.3828,165.551 21.5494,164.718 22.5,164C 21.5305,162.242 20.3639,161.742 19,162.5C 17.3831,161.464 17.2164,160.297 18.5,159C 17.7471,157.513 16.9138,157.346 16,158.5C 7.03383,147.259 2.03383,134.592 1,120.5C 0.78997,122.058 0.28997,123.391 -0.5,124.5C -0.5,122.833 -0.5,121.167 -0.5,119.5C 0.833333,117.833 0.833333,116.167 -0.5,114.5C -0.5,104.5 -0.5,94.5 -0.5,84.5C 0.754383,79.7733 2.08772,74.94 3.5,70C 2.336,67.4587 2.50266,64.9587 4,62.5C 4.9836,64.7947 5.81694,64.4614 6.5,61.5C 5.75544,57.9235 6.58877,54.5902 9,51.5C 12,46.8333 15,42.1667 18,37.5C 19.9823,36.9063 21.8156,35.7396 23.5,34C 22.5494,33.2825 22.3828,32.4491 23,31.5C 24.3333,30.1667 25.6667,28.8333 27,27.5C 27.3333,27.8333 27.6667,28.1667 28,28.5C 28.0072,26.3807 29.1739,24.5474 31.5,23C 32.4491,22.3828 33.2825,22.5494 34,23.5C 48.9164,10.5875 66.083,2.58751 85.5,-0.5 Z"/></g>
<g><path style="opacity:0.009" fill="#000000" d="M 127.5,2.5 C 128.251,1.42654 129.251,1.25988 130.5,2C 129.552,2.48278 128.552,2.64945 127.5,2.5 Z"/></g>
<g><path style="opacity:0.012" fill="#000000" d="M 65.5,3.5 C 65.8966,2.47498 66.5632,2.30831 67.5,3C 66.9056,3.46434 66.2389,3.63101 65.5,3.5 Z"/></g>
<g><path style="opacity:0.012" fill="#000000" d="M 131.5,3.5 C 131.897,2.47498 132.563,2.30831 133.5,3C 132.906,3.46434 132.239,3.63101 131.5,3.5 Z"/></g>
<g><path style="opacity:1" fill="#fdfdfd" d="M 89.5,7.5 C 136.523,6.24928 169.023,27.2493 187,70.5C 198.414,115.483 185.248,151.316 147.5,178C 102.379,201.341 62.5455,194.508 28,157.5C 0.724243,118.796 0.724243,80.1297 28,41.5C 44.4493,22.695 64.9493,11.3617 89.5,7.5 Z"/></g>
<g><path style="opacity:1" fill="#151515" d="M 37.5,74.5 C 58.6666,73.499 68.4999,83.499 67,104.5C 62.8946,120.151 52.7279,126.651 36.5,124C 23.5797,118.001 18.0797,107.834 20,93.5C 22.9552,84.3831 28.7885,78.0498 37.5,74.5 Z"/></g>
<g><path style="opacity:1" fill="#141414" d="M 164.5,106.5 C 160.366,105.515 156.032,105.182 151.5,105.5C 151.5,103.167 151.5,100.833 151.5,98.5C 158.5,98.5 165.5,98.5 172.5,98.5C 172.5,106.833 172.5,115.167 172.5,123.5C 169.833,123.5 167.167,123.5 164.5,123.5C 164.66,121.801 164.494,120.134 164,118.5C 156.217,125.525 147.717,126.358 138.5,121C 128.61,111.559 126.11,100.393 131,87.5C 140.015,73.5248 151.848,70.6915 166.5,79C 170.524,82.2132 172.524,86.3799 172.5,91.5C 169.5,91.5 166.5,91.5 163.5,91.5C 161.004,84.5779 156.004,81.7446 148.5,83C 141.144,85.6905 137.477,91.0238 137.5,99C 137.966,113.148 144.966,118.481 158.5,115C 161.848,113.144 163.848,110.311 164.5,106.5 Z"/></g>
<g><path style="opacity:1" fill="#131313" d="M 114.5,123.5 C 114.667,112.495 114.5,101.495 114,90.5C 113.209,91.745 112.709,93.0783 112.5,94.5C 108.77,104.024 105.436,113.691 102.5,123.5C 99.5,123.5 96.5,123.5 93.5,123.5C 90.3682,113.438 87.0349,103.438 83.5,93.5C 83.0133,92.5266 82.5133,91.5266 82,90.5C 81.5002,101.161 81.3335,111.828 81.5,122.5C 79.1667,122.5 76.8333,122.5 74.5,122.5C 74.5,107.167 74.5,91.8333 74.5,76.5C 78.2693,76.244 81.9359,76.5773 85.5,77.5C 89.9285,88.6992 94.0952,100.033 98,111.5C 102.333,99.8333 106.667,88.1667 111,76.5C 114.73,75.5399 118.563,75.2065 122.5,75.5C 122.5,91.5 122.5,107.5 122.5,123.5C 119.833,123.5 117.167,123.5 114.5,123.5 Z"/></g>
<g><path style="opacity:1" fill="#3e3e3e" d="M 85.5,77.5 C 81.9359,76.5773 78.2693,76.244 74.5,76.5C 74.5,91.8333 74.5,107.167 74.5,122.5C 76.8333,122.5 79.1667,122.5 81.5,122.5C 81.5,122.833 81.5,123.167 81.5,123.5C 78.8333,123.5 76.1667,123.5 73.5,123.5C 73.5,107.5 73.5,91.5 73.5,75.5C 77.9707,74.9106 81.9707,75.5772 85.5,77.5 Z"/></g>
<g><path style="opacity:1" fill="#fafafa" d="M 37.5,83.5 C 54.794,82.6329 61.294,90.6329 57,107.5C 51.7723,115.557 44.6057,117.724 35.5,114C 28.5574,107.818 26.7241,100.318 30,91.5C 32.0282,88.3078 34.5282,85.6411 37.5,83.5 Z"/></g>
<g><path style="opacity:1" fill="#b1b1b1" d="M 83.5,93.5 C 82.8333,103.5 82.1667,113.5 81.5,123.5C 81.5,123.167 81.5,122.833 81.5,122.5C 81.3335,111.828 81.5002,101.161 82,90.5C 82.5133,91.5266 83.0133,92.5266 83.5,93.5 Z"/></g>
<g><path style="opacity:1" fill="#b6b6b6" d="M 114.5,123.5 C 113.833,113.833 113.167,104.167 112.5,94.5C 112.709,93.0783 113.209,91.745 114,90.5C 114.5,101.495 114.667,112.495 114.5,123.5 Z"/></g>
<g><path style="opacity:1" fill="#6f6f6f" d="M 172.5,123.5 C 172.5,115.167 172.5,106.833 172.5,98.5C 165.5,98.5 158.5,98.5 151.5,98.5C 151.5,100.833 151.5,103.167 151.5,105.5C 156.032,105.182 160.366,105.515 164.5,106.5C 159.833,106.5 155.167,106.5 150.5,106.5C 150.5,103.5 150.5,100.5 150.5,97.5C 158.167,97.5 165.833,97.5 173.5,97.5C 173.826,106.349 173.493,115.016 172.5,123.5 Z"/></g>
<g><path style="opacity:0.011" fill="#000000" d="M 198.5,120.5 C 198.833,120.5 199.167,120.5 199.5,120.5C 199.5,121.833 199.5,123.167 199.5,124.5C 199.167,124.5 198.833,124.5 198.5,124.5C 198.5,123.167 198.5,121.833 198.5,120.5 Z"/></g>
<g><path style="opacity:0.012" fill="#000000" d="M 197.5,124.5 C 197.833,124.5 198.167,124.5 198.5,124.5C 198.737,125.791 198.404,126.791 197.5,127.5C 197.5,126.5 197.5,125.5 197.5,124.5 Z"/></g>
<g><path style="opacity:0.012" fill="#000000" d="M 181.5,158.5 C 181.833,158.5 182.167,158.5 182.5,158.5C 182.315,159.17 181.981,159.17 181.5,158.5 Z"/></g>
<g><path style="opacity:0.012" fill="#000000" d="M 178.5,162.5 C 178.833,162.5 179.167,162.5 179.5,162.5C 179.315,163.17 178.981,163.17 178.5,162.5 Z"/></g>
<g><path style="opacity:0.016" fill="#000000" d="M 177.5,163.5 C 177.833,163.5 178.167,163.5 178.5,163.5C 178.315,164.17 177.981,164.17 177.5,163.5 Z"/></g>
<g><path style="opacity:0.008" fill="#000000" d="M 172.5,169.5 C 172.833,169.5 173.167,169.5 173.5,169.5C 173.315,170.17 172.981,170.17 172.5,169.5 Z"/></g>
<g><path style="opacity:0.012" fill="#000000" d="M 171.5,170.5 C 171.833,170.5 172.167,170.5 172.5,170.5C 172.315,171.17 171.981,171.17 171.5,170.5 Z"/></g>
<g><path style="opacity:0.012" fill="#000000" d="M 170.5,171.5 C 170.833,171.5 171.167,171.5 171.5,171.5C 171.315,172.17 170.981,172.17 170.5,171.5 Z"/></g>
<g><path style="opacity:0.008" fill="#000000" d="M 169.5,172.5 C 169.833,172.5 170.167,172.5 170.5,172.5C 170.315,173.17 169.981,173.17 169.5,172.5 Z"/></g>
<g><path style="opacity:0.008" fill="#000000" d="M 168.5,173.5 C 168.833,173.5 169.167,173.5 169.5,173.5C 169.315,174.17 168.981,174.17 168.5,173.5 Z"/></g>
<g><path style="opacity:0.016" fill="#000000" d="M 163.5,177.5 C 163.833,177.5 164.167,177.5 164.5,177.5C 164.315,178.17 163.981,178.17 163.5,177.5 Z"/></g>
<g><path style="opacity:0.016" fill="#000000" d="M 162.5,178.5 C 162.833,178.5 163.167,178.5 163.5,178.5C 163.315,179.17 162.981,179.17 162.5,178.5 Z"/></g>
<g><path style="opacity:0.008" fill="#000000" d="M 161.5,179.5 C 161.833,179.5 162.167,179.5 162.5,179.5C 162.315,180.17 161.981,180.17 161.5,179.5 Z"/></g>
<g><path style="opacity:0.008" fill="#000000" d="M 159.5,181.5 C 159.5,181.167 159.5,180.833 159.5,180.5C 160.167,180.5 160.833,180.5 161.5,180.5C 161.158,181.338 160.492,181.672 159.5,181.5 Z"/></g>
<g><path style="opacity:0.016" fill="#000000" d="M 158.5,181.5 C 158.833,181.5 159.167,181.5 159.5,181.5C 159.315,182.17 158.981,182.17 158.5,181.5 Z"/></g>
<g><path style="opacity:0.008" fill="#000000" d="M 157.5,182.5 C 157.833,182.5 158.167,182.5 158.5,182.5C 158.315,183.17 157.981,183.17 157.5,182.5 Z"/></g>
<g><path style="opacity:0.01" fill="#000000" d="M 155.5,184.5 C 155.5,184.167 155.5,183.833 155.5,183.5C 156.167,183.5 156.833,183.5 157.5,183.5C 157.158,184.338 156.492,184.672 155.5,184.5 Z"/></g>
<g><path style="opacity:0.012" fill="#000000" d="M 154.5,184.5 C 154.833,184.5 155.167,184.5 155.5,184.5C 155.315,185.17 154.981,185.17 154.5,184.5 Z"/></g>
<g><path style="opacity:0.01" fill="#000000" d="M 152.5,186.5 C 152.5,186.167 152.5,185.833 152.5,185.5C 153.167,185.5 153.833,185.5 154.5,185.5C 154.158,186.338 153.492,186.672 152.5,186.5 Z"/></g>
<g><path style="opacity:0.008" fill="#000000" d="M 150.5,187.5 C 150.5,187.167 150.5,186.833 150.5,186.5C 151.167,186.5 151.833,186.5 152.5,186.5C 152.158,187.338 151.492,187.672 150.5,187.5 Z"/></g>
<g><path style="opacity:0.012" fill="#000000" d="M 149.5,187.5 C 149.833,187.5 150.167,187.5 150.5,187.5C 150.315,188.17 149.981,188.17 149.5,187.5 Z"/></g>
<g><path style="opacity:0.01" fill="#000000" d="M 147.5,189.5 C 147.5,189.167 147.5,188.833 147.5,188.5C 148.167,188.5 148.833,188.5 149.5,188.5C 149.158,189.338 148.492,189.672 147.5,189.5 Z"/></g>
<g><path style="opacity:0.008" fill="#000000" d="M 145.5,190.5 C 145.5,190.167 145.5,189.833 145.5,189.5C 146.167,189.5 146.833,189.5 147.5,189.5C 147.158,190.338 146.492,190.672 145.5,190.5 Z"/></g>
<g><path style="opacity:0.01" fill="#000000" d="M 143.5,191.5 C 143.5,191.167 143.5,190.833 143.5,190.5C 144.167,190.5 144.833,190.5 145.5,190.5C 145.158,191.338 144.492,191.672 143.5,191.5 Z"/></g>
<g><path style="opacity:0.01" fill="#000000" d="M 141.5,192.5 C 141.5,192.167 141.5,191.833 141.5,191.5C 142.167,191.5 142.833,191.5 143.5,191.5C 143.158,192.338 142.492,192.672 141.5,192.5 Z"/></g>
<g><path style="opacity:0.01" fill="#000000" d="M 139.5,193.5 C 139.5,193.167 139.5,192.833 139.5,192.5C 140.167,192.5 140.833,192.5 141.5,192.5C 141.158,193.338 140.492,193.672 139.5,193.5 Z"/></g>
<g><path style="opacity:0.008" fill="#000000" d="M 136.5,194.5 C 136.5,194.167 136.5,193.833 136.5,193.5C 137.5,193.5 138.5,193.5 139.5,193.5C 138.791,194.404 137.791,194.737 136.5,194.5 Z"/></g>
<g><path style="opacity:0.012" fill="#000000" d="M 134.5,195.5 C 134.5,195.167 134.5,194.833 134.5,194.5C 135.167,194.5 135.833,194.5 136.5,194.5C 136.158,195.338 135.492,195.672 134.5,195.5 Z"/></g>
<g><path style="opacity:0.009" fill="#000000" d="M 131.5,196.5 C 131.5,196.167 131.5,195.833 131.5,195.5C 132.5,195.5 133.5,195.5 134.5,195.5C 133.791,196.404 132.791,196.737 131.5,196.5 Z"/></g>
<g><path style="opacity:0.01" fill="#000000" d="M 128.5,197.5 C 128.5,197.167 128.5,196.833 128.5,196.5C 129.5,196.5 130.5,196.5 131.5,196.5C 130.791,197.404 129.791,197.737 128.5,197.5 Z"/></g>
<g><path style="opacity:0.009" fill="#000000" d="M 124.5,198.5 C 124.5,198.167 124.5,197.833 124.5,197.5C 125.833,197.5 127.167,197.5 128.5,197.5C 127.432,198.434 126.099,198.768 124.5,198.5 Z"/></g>
<g><path style="opacity:0.011" fill="#000000" d="M 74.5,199.5 C 75.5676,198.566 76.901,198.232 78.5,198.5C 78.5,198.833 78.5,199.167 78.5,199.5C 77.1667,199.5 75.8333,199.5 74.5,199.5 Z"/></g>
<g><path style="opacity:0.011" fill="#000000" d="M 120.5,199.5 C 120.5,199.167 120.5,198.833 120.5,198.5C 121.833,198.5 123.167,198.5 124.5,198.5C 124.5,198.833 124.5,199.167 124.5,199.5C 123.167,199.5 121.833,199.5 120.5,199.5 Z"/></g>
</svg>
