<?xml version="1.0" encoding="UTF-8"?>
<!DOCTYPE svg PUBLIC "-//W3C//DTD SVG 1.1//EN" "http://www.w3.org/Graphics/SVG/1.1/DTD/svg11.dtd">
<svg xmlns="http://www.w3.org/2000/svg" version="1.1" width="200px" height="200px" style="shape-rendering:geometricPrecision; text-rendering:geometricPrecision; image-rendering:optimizeQuality; fill-rule:evenodd; clip-rule:evenodd" xmlns:xlink="http://www.w3.org/1999/xlink">
<g><path style="opacity:0.996" fill="#090122" d="M 84.5,-0.5 C 94.5,-0.5 104.5,-0.5 114.5,-0.5C 132.502,2.50159 148.502,9.83492 162.5,21.5C 162.586,22.4959 162.252,23.3292 161.5,24C 162.5,24.3333 163.5,24.6667 164.5,25C 161.333,25.1667 158.167,25.3333 155,25.5C 115.791,25.4606 77.1242,25.1273 39,24.5C 37.2657,25.6379 35.4324,26.1379 33.5,26C 37.0345,23.966 39.7012,21.1327 41.5,17.5C 54.5343,8.37802 68.8676,2.37802 84.5,-0.5 Z"/></g>
<g><path style="opacity:0.998" fill="#0a0228" d="M 41.5,17.5 C 39.7012,21.1327 37.0345,23.966 33.5,26C 35.4324,26.1379 37.2657,25.6379 39,24.5C 77.1242,25.1273 115.791,25.4606 155,25.5C 158.167,25.3333 161.333,25.1667 164.5,25C 163.5,24.6667 162.5,24.3333 161.5,24C 162.252,23.3292 162.586,22.4959 162.5,21.5C 163.707,22.1888 165.041,22.3554 166.5,22C 167.916,25.4871 170.416,28.6538 174,31.5C 175.147,30.5419 176.147,30.8753 177,32.5C 177.617,33.4491 177.451,34.2825 176.5,35C 177.743,37.0338 179.243,37.8671 181,37.5C 180.383,39.0948 180.716,40.4281 182,41.5C 183.625,40.5881 184.459,41.2547 184.5,43.5C 183.833,43.5 183.5,43.8333 183.5,44.5C 128.595,44.5382 74.0954,44.5382 20,44.5C 18.3333,45.5 17,46.8333 16,48.5C 15.2828,47.9558 14.7828,47.2891 14.5,46.5C 14.5,46.1667 14.5,45.8333 14.5,45.5C 15.1667,45.5 15.5,45.1667 15.5,44.5C 15.5,43.8333 15.1667,43.5 14.5,43.5C 14.5412,41.2547 15.3745,40.5881 17,41.5C 18.2837,40.4281 18.6171,39.0948 18,37.5C 19.7566,37.8671 21.2566,37.0338 22.5,35C 21.3322,33.1291 21.8322,31.6291 24,30.5C 24.3333,30.8333 24.6667,31.1667 25,31.5C 28.5838,28.6538 31.0838,25.4871 32.5,22C 33.4491,21.3828 34.2825,21.5494 35,22.5C 36.9263,20.4611 39.093,18.7945 41.5,17.5 Z"/></g>
<g><path style="opacity:1" fill="#0c032e" d="M 14.5,43.5 C 15.1667,43.5 15.5,43.8333 15.5,44.5C 15.5,45.1667 15.1667,45.5 14.5,45.5C 13.1667,45.8333 13.1667,46.1667 14.5,46.5C 14.7828,47.2891 15.2828,47.9558 16,48.5C 17,46.8333 18.3333,45.5 20,44.5C 74.0954,44.5382 128.595,44.5382 183.5,44.5C 184.167,44.5 184.5,44.1667 184.5,43.5C 190.068,50.6351 194.068,58.6351 196.5,67.5C 196.167,67.5 195.833,67.5 195.5,67.5C 195.167,64.8333 194.833,64.8333 194.5,67.5C 193.778,67.0825 193.278,66.4158 193,65.5C 192.586,65.9574 192.086,66.2907 191.5,66.5C 190.452,65.6171 189.285,64.9504 188,64.5C 180.32,65.195 172.486,65.195 164.5,64.5C 164.81,67.7131 164.477,70.7131 163.5,73.5C 163.5,66.8333 163.5,60.1667 163.5,53.5C 151.988,53.1719 140.654,53.5052 129.5,54.5C 126.072,54.5465 123.072,55.7132 120.5,58C 117.268,61.0623 114.268,64.229 111.5,67.5C 111.5,66.5 111.5,65.5 111.5,64.5C 103.825,65.8228 96.4916,65.8228 89.5,64.5C 88.6681,66.936 89.3347,69.1026 91.5,71C 90.9558,71.7172 90.2891,72.2172 89.5,72.5C 87.2654,66.7414 83.5987,61.9081 78.5,58C 75.8524,55.9504 72.8524,54.7837 69.5,54.5C 58.3456,53.5052 47.0123,53.1719 35.5,53.5C 35.5,60.1667 35.5,66.8333 35.5,73.5C 34.6829,71.0314 34.1829,68.3647 34,65.5C 33.586,65.0426 33.086,64.7093 32.5,64.5C 24.3896,64.3583 16.2229,64.6917 8,65.5C 7.76791,64.2625 7.26791,63.2625 6.5,62.5C 6.16667,59.8333 5.83333,59.8333 5.5,62.5C 5.16667,62.5 4.83333,62.5 4.5,62.5C 6.54288,55.4111 9.87622,49.0777 14.5,43.5 Z"/></g>
<g><path style="opacity:1" fill="#0499c7" d="M 69.5,54.5 C 58.5,54.5 47.5,54.5 36.5,54.5C 36.5,60.5 36.5,66.5 36.5,72.5C 46.015,72.1731 55.3483,72.5064 64.5,73.5C 54.8333,73.5 45.1667,73.5 35.5,73.5C 35.5,66.8333 35.5,60.1667 35.5,53.5C 47.0123,53.1719 58.3456,53.5052 69.5,54.5 Z"/></g>
<g><path style="opacity:1" fill="#0499c7" d="M 129.5,54.5 C 140.654,53.5052 151.988,53.1719 163.5,53.5C 163.5,60.1667 163.5,66.8333 163.5,73.5C 153.833,73.5 144.167,73.5 134.5,73.5C 143.652,72.5064 152.985,72.1731 162.5,72.5C 162.5,66.5 162.5,60.5 162.5,54.5C 151.5,54.5 140.5,54.5 129.5,54.5 Z"/></g>
<g><path style="opacity:1" fill="#00d0fd" d="M 69.5,54.5 C 72.8524,54.7837 75.8524,55.9504 78.5,58C 83.5987,61.9081 87.2654,66.7414 89.5,72.5C 85.3654,76.8059 81.3654,81.3059 77.5,86C 76.4232,86.4696 75.4232,86.3029 74.5,85.5C 72.1176,80.7524 68.7843,76.7524 64.5,73.5C 55.3483,72.5064 46.015,72.1731 36.5,72.5C 36.5,66.5 36.5,60.5 36.5,54.5C 47.5,54.5 58.5,54.5 69.5,54.5 Z"/></g>
<g><path style="opacity:1" fill="#00cffc" d="M 129.5,54.5 C 140.5,54.5 151.5,54.5 162.5,54.5C 162.5,60.5 162.5,66.5 162.5,72.5C 152.985,72.1731 143.652,72.5064 134.5,73.5C 128.753,78.9103 123.753,84.9103 119.5,91.5C 116.808,93.2026 114.808,95.536 113.5,98.5C 116.375,102.94 119.709,106.94 123.5,110.5C 126.173,115.687 129.84,120.187 134.5,124C 144.161,124.5 153.828,124.666 163.5,124.5C 163.5,127.5 163.5,130.5 163.5,133.5C 163.5,136.833 163.5,140.167 163.5,143.5C 151.495,143.667 139.495,143.5 127.5,143C 123.835,141.503 120.502,139.503 117.5,137C 111.659,129.662 105.659,122.496 99.5,115.5C 94.1742,121.664 89.0075,127.997 84,134.5C 80.9402,137.614 77.4402,140.114 73.5,142C 60.908,143.441 48.2414,143.941 35.5,143.5C 35.5,137.167 35.5,130.833 35.5,124.5C 45.1724,124.666 54.8391,124.5 64.5,124C 68.7185,120.284 72.3851,116.117 75.5,111.5C 81.4894,104.206 87.4894,96.8729 93.5,89.5C 99.8482,82.4819 105.848,75.1485 111.5,67.5C 114.268,64.229 117.268,61.0623 120.5,58C 123.072,55.7132 126.072,54.5465 129.5,54.5 Z"/></g>
<g><path style="opacity:0.998" fill="#0e0335" d="M 4.5,62.5 C 4.83333,65.1667 5.16667,65.1667 5.5,62.5C 5.83333,62.5 6.16667,62.5 6.5,62.5C 7.26791,63.2625 7.76791,64.2625 8,65.5C 16.2229,64.6917 24.3896,64.3583 32.5,64.5C 33.086,64.7093 33.586,65.0426 34,65.5C 34.1829,68.3647 34.6829,71.0314 35.5,73.5C 45.1667,73.5 54.8333,73.5 64.5,73.5C 68.7843,76.7524 72.1176,80.7524 74.5,85.5C 73.1759,86.9346 71.5092,87.9346 69.5,88.5C 47.0474,88.6031 24.7141,88.2697 2.5,87.5C 2.65668,88.8734 2.49001,90.2068 2,91.5C 1.83333,90.6667 1.66667,89.8333 1.5,89C 2.38631,86.1925 2.55298,83.3592 2,80.5C 1.76791,81.7375 1.26791,82.7375 0.5,83.5C 0.5,81.8333 0.5,80.1667 0.5,78.5C 1.7682,76.0948 2.43487,73.4282 2.5,70.5C 4.46383,67.9822 5.13049,65.3155 4.5,62.5 Z"/></g>
<g><path style="opacity:1" fill="#0d0636" d="M 111.5,67.5 C 105.848,75.1485 99.8482,82.4819 93.5,89.5C 93.3743,86.4424 91.8743,86.1091 89,88.5C 86.3333,88.5 83.6667,88.5 81,88.5C 79.6667,85.8333 78.3333,85.8333 77,88.5C 75.583,87.9221 74.7496,86.9221 74.5,85.5C 75.4232,86.3029 76.4232,86.4696 77.5,86C 81.3654,81.3059 85.3654,76.8059 89.5,72.5C 90.2891,72.2172 90.9558,71.7172 91.5,71C 89.3347,69.1026 88.6681,66.936 89.5,64.5C 96.4916,65.8228 103.825,65.8228 111.5,64.5C 111.5,65.5 111.5,66.5 111.5,67.5 Z"/></g>
<g><path style="opacity:0.998" fill="#0e0335" d="M 194.5,67.5 C 194.833,67.5 195.167,67.5 195.5,67.5C 195.263,68.791 195.596,69.791 196.5,70.5C 196.565,73.4282 197.232,76.0948 198.5,78.5C 198.5,80.1667 198.5,81.8333 198.5,83.5C 197.732,82.7375 197.232,81.7375 197,80.5C 196.892,84.1765 196.892,87.8432 197,91.5C 196.882,89.4267 195.882,88.0933 194,87.5C 172.411,87.9932 150.411,88.3266 128,88.5C 127,87.8333 126,87.1667 125,86.5C 123.296,88.3734 121.463,90.0401 119.5,91.5C 123.753,84.9103 128.753,78.9103 134.5,73.5C 144.167,73.5 153.833,73.5 163.5,73.5C 164.477,70.7131 164.81,67.7131 164.5,64.5C 172.486,65.195 180.32,65.195 188,64.5C 189.285,64.9504 190.452,65.6171 191.5,66.5C 192.086,66.2907 192.586,65.9574 193,65.5C 193.278,66.4158 193.778,67.0825 194.5,67.5 Z"/></g>
<g><path style="opacity:0.012" fill="#0a002f" d="M 2.5,70.5 C 1.42654,69.7494 1.25988,68.7494 2,67.5C 2.48278,68.448 2.64945,69.448 2.5,70.5 Z"/></g>
<g><path style="opacity:0.012" fill="#0a002f" d="M 196.5,67.5 C 197.833,68.5 197.833,69.5 196.5,70.5C 196.5,69.5 196.5,68.5 196.5,67.5 Z"/></g>
<g><path style="opacity:0.012" fill="#090033" d="M -0.5,74.5 C 0.434475,75.5676 0.767809,76.901 0.5,78.5C 0.166667,78.5 -0.166667,78.5 -0.5,78.5C -0.5,77.1667 -0.5,75.8333 -0.5,74.5 Z"/></g>
<g><path style="opacity:0.012" fill="#090033" d="M 199.5,74.5 C 199.5,75.8333 199.5,77.1667 199.5,78.5C 199.167,78.5 198.833,78.5 198.5,78.5C 198.232,76.901 198.566,75.5676 199.5,74.5 Z"/></g>
<g><path style="opacity:0.999" fill="#0f043b" d="M 74.5,85.5 C 74.7496,86.9221 75.583,87.9221 77,88.5C 78.3333,85.8333 79.6667,85.8333 81,88.5C 83.6667,88.5 86.3333,88.5 89,88.5C 91.8743,86.1091 93.3743,86.4424 93.5,89.5C 87.4894,96.8729 81.4894,104.206 75.5,111.5C 75.33,110.178 75.6634,109.011 76.5,108C 76,107.5 75.5,107 75,106.5C 51.7363,107.234 28.5696,107.234 5.5,106.5C 3.36217,107.429 2.1955,109.096 2,111.5C 1.66667,109.167 1.33333,106.833 1,104.5C 0.617425,105.056 0.117425,105.389 -0.5,105.5C -0.5,98.5 -0.5,91.5 -0.5,84.5C 0.166667,84.5 0.5,84.1667 0.5,83.5C 1.26791,82.7375 1.76791,81.7375 2,80.5C 2.55298,83.3592 2.38631,86.1925 1.5,89C 1.66667,89.8333 1.83333,90.6667 2,91.5C 2.49001,90.2068 2.65668,88.8734 2.5,87.5C 24.7141,88.2697 47.0474,88.6031 69.5,88.5C 71.5092,87.9346 73.1759,86.9346 74.5,85.5 Z"/></g>
<g><path style="opacity:0.999" fill="#0f043b" d="M 198.5,83.5 C 198.5,84.1667 198.833,84.5 199.5,84.5C 199.5,91.5 199.5,98.5 199.5,105.5C 198.883,105.389 198.383,105.056 198,104.5C 197.667,106.833 197.333,109.167 197,111.5C 196.667,109.833 196.333,108.167 196,106.5C 173.763,107.263 151.43,107.263 129,106.5C 127.601,107.227 126.101,107.727 124.5,108C 123.748,108.671 123.414,109.504 123.5,110.5C 119.709,106.94 116.375,102.94 113.5,98.5C 114.808,95.536 116.808,93.2026 119.5,91.5C 121.463,90.0401 123.296,88.3734 125,86.5C 126,87.1667 127,87.8333 128,88.5C 150.411,88.3266 172.411,87.9932 194,87.5C 195.882,88.0933 196.882,89.4267 197,91.5C 196.892,87.8432 196.892,84.1765 197,80.5C 197.232,81.7375 197.732,82.7375 198.5,83.5 Z"/></g>
<g><path style="opacity:0.999" fill="#100642" d="M 75.5,111.5 C 72.3851,116.117 68.7185,120.284 64.5,124C 54.8391,124.5 45.1724,124.666 35.5,124.5C 35.5,130.833 35.5,137.167 35.5,143.5C 34.6717,137.013 34.1717,130.346 34,123.5C 33.7811,124.938 33.2811,126.271 32.5,127.5C 24.258,127.523 15.9247,127.19 7.5,126.5C 6.80762,127.025 6.30762,127.692 6,128.5C 5.23029,127.402 4.39695,127.402 3.5,128.5C 3.16667,128.5 2.83333,128.5 2.5,128.5C 2.76781,126.901 2.43448,125.568 1.5,124.5C 1.76781,122.901 1.43448,121.568 0.5,120.5C 0.794717,118.265 0.461384,116.265 -0.5,114.5C -0.5,111.5 -0.5,108.5 -0.5,105.5C 0.117425,105.389 0.617425,105.056 1,104.5C 1.33333,106.833 1.66667,109.167 2,111.5C 2.1955,109.096 3.36217,107.429 5.5,106.5C 28.5696,107.234 51.7363,107.234 75,106.5C 75.5,107 76,107.5 76.5,108C 75.6634,109.011 75.33,110.178 75.5,111.5 Z"/></g>
<g><path style="opacity:0.998" fill="#100642" d="M 199.5,105.5 C 199.5,108.5 199.5,111.5 199.5,114.5C 198.539,116.265 198.205,118.265 198.5,120.5C 197.566,121.568 197.232,122.901 197.5,124.5C 196.566,125.568 196.232,126.901 196.5,128.5C 196.167,128.5 195.833,128.5 195.5,128.5C 193.657,129.043 191.99,128.376 190.5,126.5C 182.28,127.272 174.113,127.605 166,127.5C 165.667,126.167 165.333,124.833 165,123.5C 164.821,127.025 164.321,130.359 163.5,133.5C 163.5,130.5 163.5,127.5 163.5,124.5C 153.828,124.666 144.161,124.5 134.5,124C 129.84,120.187 126.173,115.687 123.5,110.5C 123.414,109.504 123.748,108.671 124.5,108C 126.101,107.727 127.601,107.227 129,106.5C 151.43,107.263 173.763,107.263 196,106.5C 196.333,108.167 196.667,109.833 197,111.5C 197.333,109.167 197.667,106.833 198,104.5C 198.383,105.056 198.883,105.389 199.5,105.5 Z"/></g>
<g><path style="opacity:0.016" fill="#080031" d="M -0.5,120.5 C -0.166667,120.5 0.166667,120.5 0.5,120.5C 0.5,121.833 0.5,123.167 0.5,124.5C 0.166667,124.5 -0.166667,124.5 -0.5,124.5C -0.5,123.167 -0.5,121.833 -0.5,120.5 Z"/></g>
<g><path style="opacity:0.016" fill="#080031" d="M 198.5,120.5 C 198.833,120.5 199.167,120.5 199.5,120.5C 199.5,121.833 199.5,123.167 199.5,124.5C 199.167,124.5 198.833,124.5 198.5,124.5C 198.5,123.167 198.5,121.833 198.5,120.5 Z"/></g>
<g><path style="opacity:0.016" fill="#00003d" d="M 0.5,124.5 C 0.833333,124.5 1.16667,124.5 1.5,124.5C 1.16667,128.5 0.833333,128.5 0.5,124.5 Z"/></g>
<g><path style="opacity:0.016" fill="#00003d" d="M 197.5,124.5 C 197.833,124.5 198.167,124.5 198.5,124.5C 198.167,128.5 197.833,128.5 197.5,124.5 Z"/></g>
<g><path style="opacity:0.012" fill="#0a002f" d="M 2.5,128.5 C 2.5,129.5 2.5,130.5 2.5,131.5C 1.16667,130.5 1.16667,129.5 2.5,128.5 Z"/></g>
<g><path style="opacity:0.012" fill="#0a002f" d="M 196.5,128.5 C 197.833,129.5 197.833,130.5 196.5,131.5C 196.5,130.5 196.5,129.5 196.5,128.5 Z"/></g>
<g><path style="opacity:0.012" fill="#00003d" d="M 195.5,131.5 C 195.833,131.5 196.167,131.5 196.5,131.5C 196.672,132.492 196.338,133.158 195.5,133.5C 195.5,132.833 195.5,132.167 195.5,131.5 Z"/></g>
<g><path style="opacity:1" fill="#120648" d="M 163.5,133.5 C 164.321,130.359 164.821,127.025 165,123.5C 165.333,124.833 165.667,126.167 166,127.5C 174.113,127.605 182.28,127.272 190.5,126.5C 191.99,128.376 193.657,129.043 195.5,128.5C 195.5,129.5 195.5,130.5 195.5,131.5C 194.167,132.167 194.167,132.833 195.5,133.5C 194.234,139.36 191.9,144.693 188.5,149.5C 188.5,149.167 188.5,148.833 188.5,148.5C 188.5,148.167 188.5,147.833 188.5,147.5C 188.5,147.167 188.5,146.833 188.5,146.5C 189.167,146.5 189.5,146.167 189.5,145.5C 189.5,145.167 189.5,144.833 189.5,144.5C 190.167,144.5 190.5,144.167 190.5,143.5C 190.5,143.167 190.5,142.833 190.5,142.5C 191.833,142.167 191.833,141.833 190.5,141.5C 189.448,141.351 188.448,141.517 187.5,142C 187.833,142.333 188.167,142.667 188.5,143C 186.895,144.36 185.395,145.86 184,147.5C 182,146.167 180,146.167 178,147.5C 175.132,145.575 172.465,145.575 170,147.5C 162.467,145.965 154.8,145.299 147,145.5C 139.389,145.289 131.889,145.956 124.5,147.5C 122.941,146.926 121.441,146.26 120,145.5C 116.333,146.167 112.667,146.833 109,147.5C 96.8263,146.301 84.1596,146.301 71,147.5C 69.7964,146.529 69.2964,145.529 69.5,144.5C 51.9182,145.168 34.7515,146.168 18,147.5C 16.6012,146.773 15.1012,146.273 13.5,146C 11.3325,144.365 10.1659,142.532 10,140.5C 9.61742,141.056 9.11742,141.389 8.5,141.5C 7.16667,141.833 7.16667,142.167 8.5,142.5C 9.16667,142.5 9.5,142.833 9.5,143.5C 8.16667,143.833 8.16667,144.167 9.5,144.5C 10.1667,144.5 10.5,144.833 10.5,145.5C 9.16667,145.833 9.16667,146.167 10.5,146.5C 11.1667,146.5 11.5,146.833 11.5,147.5C 10.8333,147.5 10.5,147.833 10.5,148.5C 10.5,148.833 10.5,149.167 10.5,149.5C 6.76728,144.03 4.10062,138.03 2.5,131.5C 3.40397,130.791 3.73731,129.791 3.5,128.5C 4.39695,127.402 5.23029,127.402 6,128.5C 6.30762,127.692 6.80762,127.025 7.5,126.5C 15.9247,127.19 24.258,127.523 32.5,127.5C 33.2811,126.271 33.7811,124.938 34,123.5C 34.1717,130.346 34.6717,137.013 35.5,143.5C 48.2414,143.941 60.908,143.441 73.5,142C 77.4402,140.114 80.9402,137.614 84,134.5C 89.0075,127.997 94.1742,121.664 99.5,115.5C 105.659,122.496 111.659,129.662 117.5,137C 120.502,139.503 123.835,141.503 127.5,143C 139.495,143.5 151.495,143.667 163.5,143.5C 163.5,140.167 163.5,136.833 163.5,133.5 Z"/></g>
<g><path style="opacity:0.998" fill="#14044d" d="M 190.5,141.5 C 190.5,141.833 190.5,142.167 190.5,142.5C 190.5,142.833 190.5,143.167 190.5,143.5C 189.833,143.5 189.5,143.833 189.5,144.5C 189.5,144.833 189.5,145.167 189.5,145.5C 188.833,145.5 188.5,145.833 188.5,146.5C 188.5,146.833 188.5,147.167 188.5,147.5C 187.167,147.833 187.167,148.167 188.5,148.5C 188.5,148.833 188.5,149.167 188.5,149.5C 187.231,153.054 185.231,156.054 182.5,158.5C 182.167,157.167 181.833,157.167 181.5,158.5C 180.167,158.833 180.167,159.167 181.5,159.5C 181.573,161.027 180.906,162.027 179.5,162.5C 179.167,161.167 178.833,161.167 178.5,162.5C 177.833,162.5 177.5,162.833 177.5,163.5C 176.167,163.833 176.167,164.167 177.5,164.5C 177.262,166.404 176.262,167.738 174.5,168.5C 174.167,167.167 173.833,167.167 173.5,168.5C 172.833,168.5 172.5,168.833 172.5,169.5C 171.833,169.5 171.5,169.833 171.5,170.5C 170.833,170.5 170.5,170.833 170.5,171.5C 169.833,171.5 169.5,171.833 169.5,172.5C 168.833,172.5 168.5,172.833 168.5,173.5C 168.167,173.5 167.833,173.5 167.5,173.5C 167.5,172.167 167.5,170.833 167.5,169.5C 123.34,169.749 78.0065,169.749 31.5,169.5C 31.5,170.833 31.5,172.167 31.5,173.5C 28.5272,170.282 25.3606,167.948 22,166.5C 21.3828,165.551 21.5494,164.718 22.5,164C 21.2566,161.966 19.7566,161.133 18,161.5C 17.3828,160.551 17.5494,159.718 18.5,159C 14.9099,157.224 12.2432,154.058 10.5,149.5C 10.5,149.167 10.5,148.833 10.5,148.5C 11.1667,148.5 11.5,148.167 11.5,147.5C 11.5,146.833 11.1667,146.5 10.5,146.5C 10.5,146.167 10.5,145.833 10.5,145.5C 10.5,144.833 10.1667,144.5 9.5,144.5C 9.5,144.167 9.5,143.833 9.5,143.5C 9.5,142.833 9.16667,142.5 8.5,142.5C 8.5,142.167 8.5,141.833 8.5,141.5C 9.11742,141.389 9.61742,141.056 10,140.5C 10.1659,142.532 11.3325,144.365 13.5,146C 15.1012,146.273 16.6012,146.773 18,147.5C 34.7515,146.168 51.9182,145.168 69.5,144.5C 69.2964,145.529 69.7964,146.529 71,147.5C 84.1596,146.301 96.8263,146.301 109,147.5C 112.667,146.833 116.333,146.167 120,145.5C 121.441,146.26 122.941,146.926 124.5,147.5C 131.889,145.956 139.389,145.289 147,145.5C 154.8,145.299 162.467,145.965 170,147.5C 172.465,145.575 175.132,145.575 178,147.5C 180,146.167 182,146.167 184,147.5C 185.395,145.86 186.895,144.36 188.5,143C 188.167,142.667 187.833,142.333 187.5,142C 188.448,141.517 189.448,141.351 190.5,141.5 Z"/></g>
<g><path style="opacity:0.012" fill="#000041" d="M 181.5,158.5 C 181.833,158.5 182.167,158.5 182.5,158.5C 182.315,159.17 181.981,159.17 181.5,158.5 Z"/></g>
<g><path style="opacity:0.012" fill="#000041" d="M 178.5,162.5 C 178.833,162.5 179.167,162.5 179.5,162.5C 179.315,163.17 178.981,163.17 178.5,162.5 Z"/></g>
<g><path style="opacity:0.016" fill="#000037" d="M 177.5,163.5 C 177.833,163.5 178.167,163.5 178.5,163.5C 178.315,164.17 177.981,164.17 177.5,163.5 Z"/></g>
<g><path style="opacity:0.999" fill="#160554" d="M 167.5,173.5 C 167.5,174.167 167.833,174.5 168.5,174.5C 167.738,176.262 166.404,177.262 164.5,177.5C 164.167,176.167 163.833,176.167 163.5,177.5C 162.833,177.5 162.5,177.833 162.5,178.5C 161.833,178.5 161.5,178.833 161.5,179.5C 160.508,179.328 159.842,179.662 159.5,180.5C 158.833,180.5 158.5,180.833 158.5,181.5C 157.833,181.5 157.5,181.833 157.5,182.5C 156.508,182.328 155.842,182.662 155.5,183.5C 154.833,183.5 154.5,183.833 154.5,184.5C 153.508,184.328 152.842,184.662 152.5,185.5C 151.508,185.328 150.842,185.662 150.5,186.5C 149.833,186.5 149.5,186.833 149.5,187.5C 148.508,187.328 147.842,187.662 147.5,188.5C 146.508,188.328 145.842,188.662 145.5,189.5C 144.508,189.328 143.842,189.662 143.5,190.5C 142.508,190.328 141.842,190.662 141.5,191.5C 140.508,191.328 139.842,191.662 139.5,192.5C 138.209,192.263 137.209,192.596 136.5,193.5C 135.508,193.328 134.842,193.662 134.5,194.5C 133.209,194.263 132.209,194.596 131.5,195.5C 130.209,195.263 129.209,195.596 128.5,196.5C 126.901,196.232 125.568,196.566 124.5,197.5C 122.901,197.232 121.568,197.566 120.5,198.5C 118.265,198.205 116.265,198.539 114.5,199.5C 104.5,199.5 94.5,199.5 84.5,199.5C 82.7354,198.539 80.7354,198.205 78.5,198.5C 62.355,194.511 47.855,187.177 35,176.5C 33.1291,177.668 31.6291,177.168 30.5,175C 31.056,174.617 31.3893,174.117 31.5,173.5C 31.5,172.167 31.5,170.833 31.5,169.5C 78.0065,169.749 123.34,169.749 167.5,169.5C 167.5,170.833 167.5,172.167 167.5,173.5 Z"/></g>
<g><path style="opacity:0.008" fill="#000044" d="M 173.5,168.5 C 173.833,168.5 174.167,168.5 174.5,168.5C 174.315,169.17 173.981,169.17 173.5,168.5 Z"/></g>
<g><path style="opacity:0.012" fill="#000041" d="M 172.5,169.5 C 172.833,169.5 173.167,169.5 173.5,169.5C 173.315,170.17 172.981,170.17 172.5,169.5 Z"/></g>
<g><path style="opacity:0.012" fill="#000041" d="M 171.5,170.5 C 171.833,170.5 172.167,170.5 172.5,170.5C 172.315,171.17 171.981,171.17 171.5,170.5 Z"/></g>
<g><path style="opacity:0.012" fill="#000041" d="M 170.5,171.5 C 170.833,171.5 171.167,171.5 171.5,171.5C 171.315,172.17 170.981,172.17 170.5,171.5 Z"/></g>
<g><path style="opacity:0.012" fill="#000041" d="M 169.5,172.5 C 169.833,172.5 170.167,172.5 170.5,172.5C 170.315,173.17 169.981,173.17 169.5,172.5 Z"/></g>
<g><path style="opacity:0.008" fill="#000044" d="M 168.5,173.5 C 168.833,173.5 169.167,173.5 169.5,173.5C 169.315,174.17 168.981,174.17 168.5,173.5 Z"/></g>
<g><path style="opacity:0.016" fill="#000037" d="M 163.5,177.5 C 163.833,177.5 164.167,177.5 164.5,177.5C 164.315,178.17 163.981,178.17 163.5,177.5 Z"/></g>
<g><path style="opacity:0.016" fill="#000037" d="M 162.5,178.5 C 162.833,178.5 163.167,178.5 163.5,178.5C 163.315,179.17 162.981,179.17 162.5,178.5 Z"/></g>
<g><path style="opacity:0.008" fill="#000044" d="M 161.5,179.5 C 161.833,179.5 162.167,179.5 162.5,179.5C 162.315,180.17 161.981,180.17 161.5,179.5 Z"/></g>
<g><path style="opacity:0.004" fill="#0a001a" d="M 159.5,181.5 C 159.5,181.167 159.5,180.833 159.5,180.5C 160.167,180.5 160.833,180.5 161.5,180.5C 161.158,181.338 160.492,181.672 159.5,181.5 Z"/></g>
<g><path style="opacity:0.016" fill="#000037" d="M 158.5,181.5 C 158.833,181.5 159.167,181.5 159.5,181.5C 159.315,182.17 158.981,182.17 158.5,181.5 Z"/></g>
<g><path style="opacity:0.008" fill="#000044" d="M 157.5,182.5 C 157.833,182.5 158.167,182.5 158.5,182.5C 158.315,183.17 157.981,183.17 157.5,182.5 Z"/></g>
<g><path style="opacity:0.004" fill="#050017" d="M 155.5,184.5 C 155.5,184.167 155.5,183.833 155.5,183.5C 156.167,183.5 156.833,183.5 157.5,183.5C 157.158,184.338 156.492,184.672 155.5,184.5 Z"/></g>
<g><path style="opacity:0.012" fill="#000041" d="M 154.5,184.5 C 154.833,184.5 155.167,184.5 155.5,184.5C 155.315,185.17 154.981,185.17 154.5,184.5 Z"/></g>
<g><path style="opacity:0.004" fill="#050017" d="M 152.5,186.5 C 152.5,186.167 152.5,185.833 152.5,185.5C 153.167,185.5 153.833,185.5 154.5,185.5C 154.158,186.338 153.492,186.672 152.5,186.5 Z"/></g>
<g><path style="opacity:0.008" fill="#000044" d="M 150.5,187.5 C 150.5,187.167 150.5,186.833 150.5,186.5C 151.167,186.5 151.833,186.5 152.5,186.5C 152.158,187.338 151.492,187.672 150.5,187.5 Z"/></g>
<g><path style="opacity:0.012" fill="#000041" d="M 149.5,187.5 C 149.833,187.5 150.167,187.5 150.5,187.5C 150.315,188.17 149.981,188.17 149.5,187.5 Z"/></g>
<g><path style="opacity:0.004" fill="#050017" d="M 147.5,189.5 C 147.5,189.167 147.5,188.833 147.5,188.5C 148.167,188.5 148.833,188.5 149.5,188.5C 149.158,189.338 148.492,189.672 147.5,189.5 Z"/></g>
<g><path style="opacity:0.004" fill="#0a001a" d="M 145.5,190.5 C 145.5,190.167 145.5,189.833 145.5,189.5C 146.167,189.5 146.833,189.5 147.5,189.5C 147.158,190.338 146.492,190.672 145.5,190.5 Z"/></g>
<g><path style="opacity:0.01" fill="#000042" d="M 143.5,191.5 C 143.5,191.167 143.5,190.833 143.5,190.5C 144.167,190.5 144.833,190.5 145.5,190.5C 145.158,191.338 144.492,191.672 143.5,191.5 Z"/></g>
<g><path style="opacity:0.01" fill="#000042" d="M 141.5,192.5 C 141.5,192.167 141.5,191.833 141.5,191.5C 142.167,191.5 142.833,191.5 143.5,191.5C 143.158,192.338 142.492,192.672 141.5,192.5 Z"/></g>
<g><path style="opacity:0.004" fill="#050017" d="M 139.5,193.5 C 139.5,193.167 139.5,192.833 139.5,192.5C 140.167,192.5 140.833,192.5 141.5,192.5C 141.158,193.338 140.492,193.672 139.5,193.5 Z"/></g>
<g><path style="opacity:0.01" fill="#0b0033" d="M 136.5,194.5 C 136.5,194.167 136.5,193.833 136.5,193.5C 137.5,193.5 138.5,193.5 139.5,193.5C 138.791,194.404 137.791,194.737 136.5,194.5 Z"/></g>
<g><path style="opacity:0.008" fill="#00003f" d="M 134.5,195.5 C 134.5,195.167 134.5,194.833 134.5,194.5C 135.167,194.5 135.833,194.5 136.5,194.5C 136.158,195.338 135.492,195.672 134.5,195.5 Z"/></g>
<g><path style="opacity:0.012" fill="#0b0032" d="M 131.5,196.5 C 131.5,196.167 131.5,195.833 131.5,195.5C 132.5,195.5 133.5,195.5 134.5,195.5C 133.791,196.404 132.791,196.737 131.5,196.5 Z"/></g>
<g><path style="opacity:0.012" fill="#0a002f" d="M 128.5,197.5 C 128.5,197.167 128.5,196.833 128.5,196.5C 129.5,196.5 130.5,196.5 131.5,196.5C 130.791,197.404 129.791,197.737 128.5,197.5 Z"/></g>
<g><path style="opacity:0.016" fill="#090032" d="M 124.5,198.5 C 124.5,198.167 124.5,197.833 124.5,197.5C 125.833,197.5 127.167,197.5 128.5,197.5C 127.432,198.434 126.099,198.768 124.5,198.5 Z"/></g>
<g><path style="opacity:0.012" fill="#090033" d="M 74.5,199.5 C 75.5676,198.566 76.901,198.232 78.5,198.5C 78.5,198.833 78.5,199.167 78.5,199.5C 77.1667,199.5 75.8333,199.5 74.5,199.5 Z"/></g>
<g><path style="opacity:0.016" fill="#080031" d="M 120.5,199.5 C 120.5,199.167 120.5,198.833 120.5,198.5C 121.833,198.5 123.167,198.5 124.5,198.5C 124.5,198.833 124.5,199.167 124.5,199.5C 123.167,199.5 121.833,199.5 120.5,199.5 Z"/></g>
</svg>
