<?xml version="1.0" encoding="UTF-8"?>
<!DOCTYPE svg PUBLIC "-//W3C//DTD SVG 1.1//EN" "http://www.w3.org/Graphics/SVG/1.1/DTD/svg11.dtd">
<svg xmlns="http://www.w3.org/2000/svg" version="1.1" width="200px" height="200px" style="shape-rendering:geometricPrecision; text-rendering:geometricPrecision; image-rendering:optimizeQuality; fill-rule:evenodd; clip-rule:evenodd" xmlns:xlink="http://www.w3.org/1999/xlink">
<g><path style="opacity:0.991" fill="#ff4e33" d="M 96.5,4.5 C 82.2574,25.9777 67.7574,47.3111 53,68.5C 51.872,70.3453 51.372,72.3453 51.5,74.5C 48.8712,77.6306 46.0379,80.6306 43,83.5C 40.9594,86.2478 39.4594,89.2478 38.5,92.5C 37.5041,92.4142 36.6708,92.7476 36,93.5C 26.9501,106.301 18.4501,119.301 10.5,132.5C 7.74486,126.481 6.07819,120.147 5.5,113.5C 30.2169,78.1126 54.5502,42.446 78.5,6.5C 84.3798,4.93476 90.3798,4.2681 96.5,4.5 Z"/></g>
<g><path style="opacity:0.99" fill="#ff5431" d="M 96.5,4.5 C 101.032,4.18178 105.366,4.51511 109.5,5.5C 102.915,15.9335 96.0816,26.2668 89,36.5C 88.5304,37.5768 88.6971,38.5768 89.5,39.5C 86.6987,40.7347 84.0321,42.2347 81.5,44C 71.2706,54.0618 61.2706,64.2284 51.5,74.5C 51.372,72.3453 51.872,70.3453 53,68.5C 67.7574,47.3111 82.2574,25.9777 96.5,4.5 Z"/></g>
<g><path style="opacity:0.986" fill="#ff5a2e" d="M 109.5,5.5 C 113.618,5.53041 117.618,6.19707 121.5,7.5C 115.608,18.2703 108.942,28.6036 101.5,38.5C 97.4338,38.307 93.4338,38.6403 89.5,39.5C 88.6971,38.5768 88.5304,37.5768 89,36.5C 96.0816,26.2668 102.915,15.9335 109.5,5.5 Z"/></g>
<g><path style="opacity:0.991" fill="#ff4735" d="M 78.5,6.5 C 54.5502,42.446 30.2169,78.1126 5.5,113.5C 4.50984,107.355 4.1765,101.022 4.5,94.5C 23.8832,67.1133 42.8832,39.4466 61.5,11.5C 66.9787,9.22968 72.6454,7.56301 78.5,6.5 Z"/></g>
<g><path style="opacity:0.988" fill="#ff612b" d="M 121.5,7.5 C 125.579,8.63732 129.579,9.97065 133.5,11.5C 127.639,21.5402 121.139,31.2069 114,40.5C 113.805,41.8193 113.972,43.1526 114.5,44.5C 110.561,41.6981 106.228,39.6981 101.5,38.5C 108.942,28.6036 115.608,18.2703 121.5,7.5 Z"/></g>
<g><path style="opacity:0.995" fill="#ff682b" d="M 133.5,11.5 C 138.446,13.3061 143.112,15.6394 147.5,18.5C 145.255,19.5909 143.422,21.2575 142,23.5C 133.392,37.1065 124.392,50.4398 115,63.5C 114.53,64.5768 114.697,65.5768 115.5,66.5C 98.2635,83.2806 81.2635,100.281 64.5,117.5C 64.5858,116.504 64.2524,115.671 63.5,115C 75.038,98.7594 86.2046,82.2594 97,65.5C 102.764,60.2422 107.931,54.5755 112.5,48.5C 113.167,47.1667 113.833,45.8333 114.5,44.5C 113.972,43.1526 113.805,41.8193 114,40.5C 121.139,31.2069 127.639,21.5402 133.5,11.5 Z"/></g>
<g><path style="opacity:0.994" fill="#ff6d26" d="M 147.5,18.5 C 150.81,20.4821 153.81,22.8154 156.5,25.5C 154.807,26.4749 153.307,27.8082 152,29.5C 145.167,39.8333 138.333,50.1667 131.5,60.5C 132.193,61.5178 132.859,62.5178 133.5,63.5C 126.689,60.0988 120.689,61.0988 115.5,66.5C 114.697,65.5768 114.53,64.5768 115,63.5C 124.392,50.4398 133.392,37.1065 142,23.5C 143.422,21.2575 145.255,19.5909 147.5,18.5 Z"/></g>
<g><path style="opacity:0.983" fill="#ff4038" d="M 61.5,11.5 C 42.8832,39.4466 23.8832,67.1133 4.5,94.5C 7.30804,55.6953 26.308,28.0286 61.5,11.5 Z"/></g>
<g><path style="opacity:0.991" fill="#ff7323" d="M 156.5,25.5 C 160.12,27.4528 163.12,30.1195 165.5,33.5C 163.983,33.5106 162.816,34.1772 162,35.5C 155.247,46.0063 148.247,56.3396 141,66.5C 140.616,68.1966 140.782,69.8632 141.5,71.5C 138.5,69.1667 135.833,66.5 133.5,63.5C 132.859,62.5178 132.193,61.5178 131.5,60.5C 138.333,50.1667 145.167,39.8333 152,29.5C 153.307,27.8082 154.807,26.4749 156.5,25.5 Z"/></g>
<g><path style="opacity:1" fill="#ff7a21" d="M 165.5,33.5 C 168.516,36.5203 171.183,39.8536 173.5,43.5C 165.196,54.652 157.03,65.9854 149,77.5C 147.981,76.3128 146.814,75.3128 145.5,74.5C 144.893,74.6236 144.56,74.9569 144.5,75.5C 142.738,74.7377 141.738,73.4044 141.5,71.5C 140.782,69.8632 140.616,68.1966 141,66.5C 148.247,56.3396 155.247,46.0063 162,35.5C 162.816,34.1772 163.983,33.5106 165.5,33.5 Z"/></g>
<g><path style="opacity:1" fill="#fffcfb" d="M 101.5,38.5 C 106.228,39.6981 110.561,41.6981 114.5,44.5C 113.833,45.8333 113.167,47.1667 112.5,48.5C 90.4373,69.2279 69.4373,90.8946 49.5,113.5C 48.1851,114.476 46.8518,115.476 45.5,116.5C 39.1566,109.791 36.8233,101.791 38.5,92.5C 39.4594,89.2478 40.9594,86.2478 43,83.5C 46.0379,80.6306 48.8712,77.6306 51.5,74.5C 61.2706,64.2284 71.2706,54.0618 81.5,44C 84.0321,42.2347 86.6987,40.7347 89.5,39.5C 93.4338,38.6403 97.4338,38.307 101.5,38.5 Z"/></g>
<g><path style="opacity:0.999" fill="#ff801f" d="M 173.5,43.5 C 176.231,45.9464 178.231,48.9464 179.5,52.5C 172.691,64.9905 165.024,76.9905 156.5,88.5C 153.027,83.7448 149.027,79.4114 144.5,75.5C 144.56,74.9569 144.893,74.6236 145.5,74.5C 146.814,75.3128 147.981,76.3128 149,77.5C 157.03,65.9854 165.196,54.652 173.5,43.5 Z"/></g>
<g><path style="opacity:0.985" fill="#ff861b" d="M 179.5,52.5 C 182.616,57.0697 184.95,62.0697 186.5,67.5C 185.504,67.4142 184.671,67.7476 184,68.5C 176,80.5 168,92.5 160,104.5C 159.819,101.305 159.319,98.3054 158.5,95.5C 158.122,93.079 157.455,90.7457 156.5,88.5C 165.024,76.9905 172.691,64.9905 179.5,52.5 Z"/></g>
<g><path style="opacity:1" fill="#fffdfc" d="M 133.5,63.5 C 135.833,66.5 138.5,69.1667 141.5,71.5C 141.738,73.4044 142.738,74.7377 144.5,75.5C 149.027,79.4114 153.027,83.7448 156.5,88.5C 157.455,90.7457 158.122,93.079 158.5,95.5C 159.457,103.05 157.957,110.05 154,116.5C 148.63,121.702 143.464,127.035 138.5,132.5C 130.368,140.131 122.368,147.964 114.5,156C 111.676,158.079 108.676,159.579 105.5,160.5C 101.167,160.5 96.8333,160.5 92.5,160.5C 87.9997,159.603 84.6664,157.27 82.5,153.5C 84.5,152.167 86.1667,150.5 87.5,148.5C 100.798,135.702 113.965,122.702 127,109.5C 129.374,105.106 130.041,100.44 129,95.5C 128.255,94.0096 127.088,93.0096 125.5,92.5C 120.882,95.4497 116.882,99.1164 113.5,103.5C 101.443,115.56 89.1093,127.227 76.5,138.5C 72.3586,139.921 68.3586,139.588 64.5,137.5C 61.5222,134.187 58.5222,130.853 55.5,127.5C 58.5222,124.147 61.5222,120.813 64.5,117.5C 81.2635,100.281 98.2635,83.2806 115.5,66.5C 120.689,61.0988 126.689,60.0988 133.5,63.5 Z"/></g>
<g><path style="opacity:1" fill="#ff632b" d="M 112.5,48.5 C 107.931,54.5755 102.764,60.2422 97,65.5C 86.2046,82.2594 75.038,98.7594 63.5,115C 64.2524,115.671 64.5858,116.504 64.5,117.5C 61.5222,120.813 58.5222,124.147 55.5,127.5C 58.5222,130.853 61.5222,134.187 64.5,137.5C 56.0099,148.987 48.3432,160.987 41.5,173.5C 33.7671,168.102 27.4337,161.435 22.5,153.5C 32.2757,140.718 41.2757,127.385 49.5,113.5C 69.4373,90.8946 90.4373,69.2279 112.5,48.5 Z"/></g>
<g><path style="opacity:0.997" fill="#ff8c1a" d="M 186.5,67.5 C 188.145,72.0819 189.479,76.7486 190.5,81.5C 165.153,117.005 140.153,152.838 115.5,189C 116.056,189.383 116.389,189.883 116.5,190.5C 111.213,191.342 105.88,191.676 100.5,191.5C 112.399,173.385 124.566,155.385 137,137.5C 138.009,135.975 138.509,134.308 138.5,132.5C 143.464,127.035 148.63,121.702 154,116.5C 157.957,110.05 159.457,103.05 158.5,95.5C 159.319,98.3054 159.819,101.305 160,104.5C 168,92.5 176,80.5 184,68.5C 184.671,67.7476 185.504,67.4142 186.5,67.5 Z"/></g>
<g><path style="opacity:0.988" fill="#ff9216" d="M 190.5,81.5 C 191.307,87.4638 191.64,93.4638 191.5,99.5C 171.163,127.513 151.83,156.18 133.5,185.5C 127.981,187.63 122.314,189.297 116.5,190.5C 116.389,189.883 116.056,189.383 115.5,189C 140.153,152.838 165.153,117.005 190.5,81.5 Z"/></g>
<g><path style="opacity:1" fill="#ff7b26" d="M 87.5,148.5 C 87.1961,147.85 86.8627,147.183 86.5,146.5C 96.2903,132.42 105.957,118.253 115.5,104C 114.906,103.536 114.239,103.369 113.5,103.5C 116.882,99.1164 120.882,95.4497 125.5,92.5C 127.088,93.0096 128.255,94.0096 129,95.5C 130.041,100.44 129.374,105.106 127,109.5C 113.965,122.702 100.798,135.702 87.5,148.5 Z"/></g>
<g><path style="opacity:0.976" fill="#ff9814" d="M 191.5,99.5 C 189.197,139.779 169.863,168.446 133.5,185.5C 151.83,156.18 171.163,127.513 191.5,99.5 Z"/></g>
<g><path style="opacity:0.995" fill="#ff7423" d="M 113.5,103.5 C 114.239,103.369 114.906,103.536 115.5,104C 105.957,118.253 96.2903,132.42 86.5,146.5C 86.8627,147.183 87.1961,147.85 87.5,148.5C 86.1667,150.5 84.5,152.167 82.5,153.5C 75.197,162.749 68.3637,172.416 62,182.5C 61.3292,183.252 60.4959,183.586 59.5,183.5C 55.6907,182.668 52.3573,181.001 49.5,178.5C 59.0234,165.312 68.6901,152.145 78.5,139C 77.9056,138.536 77.2389,138.369 76.5,138.5C 89.1093,127.227 101.443,115.56 113.5,103.5 Z"/></g>
<g><path style="opacity:0.998" fill="#ff592f" d="M 38.5,92.5 C 36.8233,101.791 39.1566,109.791 45.5,116.5C 46.8518,115.476 48.1851,114.476 49.5,113.5C 41.2757,127.385 32.2757,140.718 22.5,153.5C 17.2392,147.323 13.2392,140.323 10.5,132.5C 18.4501,119.301 26.9501,106.301 36,93.5C 36.6708,92.7476 37.5041,92.4142 38.5,92.5 Z"/></g>
<g><path style="opacity:0.997" fill="#ff871c" d="M 138.5,132.5 C 138.509,134.308 138.009,135.975 137,137.5C 124.566,155.385 112.399,173.385 100.5,191.5C 95.8333,191.5 91.1667,191.5 86.5,191.5C 92.8636,180.957 99.8636,170.79 107.5,161C 106.906,160.536 106.239,160.369 105.5,160.5C 108.676,159.579 111.676,158.079 114.5,156C 122.368,147.964 130.368,140.131 138.5,132.5 Z"/></g>
<g><path style="opacity:0.997" fill="#ff6d26" d="M 64.5,137.5 C 68.3586,139.588 72.3586,139.921 76.5,138.5C 77.2389,138.369 77.9056,138.536 78.5,139C 68.6901,152.145 59.0234,165.312 49.5,178.5C 46.5251,177.345 43.8584,175.678 41.5,173.5C 48.3432,160.987 56.0099,148.987 64.5,137.5 Z"/></g>
<g><path style="opacity:0.986" fill="#ff7921" d="M 82.5,153.5 C 84.6664,157.27 87.9997,159.603 92.5,160.5C 86.1667,169.833 79.8333,179.167 73.5,188.5C 68.3308,188.001 63.6642,186.334 59.5,183.5C 60.4959,183.586 61.3292,183.252 62,182.5C 68.3637,172.416 75.197,162.749 82.5,153.5 Z"/></g>
<g><path style="opacity:0.985" fill="#ff8120" d="M 92.5,160.5 C 96.8333,160.5 101.167,160.5 105.5,160.5C 106.239,160.369 106.906,160.536 107.5,161C 99.8636,170.79 92.8636,180.957 86.5,191.5C 81.8485,191.373 77.5152,190.373 73.5,188.5C 79.8333,179.167 86.1667,169.833 92.5,160.5 Z"/></g>
</svg>
