<?xml version="1.0" encoding="UTF-8"?>
<!DOCTYPE svg PUBLIC "-//W3C//DTD SVG 1.1//EN" "http://www.w3.org/Graphics/SVG/1.1/DTD/svg11.dtd">
<svg xmlns="http://www.w3.org/2000/svg" version="1.1" width="200px" height="200px" style="shape-rendering:geometricPrecision; text-rendering:geometricPrecision; image-rendering:optimizeQuality; fill-rule:evenodd; clip-rule:evenodd" xmlns:xlink="http://www.w3.org/1999/xlink">
<g><path style="opacity:1" fill="#fd4b49" d="M 85.5,-0.5 C 94.8333,-0.5 104.167,-0.5 113.5,-0.5C 161.167,9.16667 189.833,37.8333 199.5,85.5C 199.5,94.8333 199.5,104.167 199.5,113.5C 189.833,161.167 161.167,189.833 113.5,199.5C 104.167,199.5 94.8333,199.5 85.5,199.5C 37.8333,189.833 9.16667,161.167 -0.5,113.5C -0.5,104.167 -0.5,94.8333 -0.5,85.5C 9.16667,37.8333 37.8333,9.16667 85.5,-0.5 Z"/></g>
<g><path style="opacity:1" fill="#f75352" d="M 180.5,73.5 C 165.163,73.3334 149.83,73.5001 134.5,74C 134,74.5 133.5,75 133,75.5C 132.333,88.1667 132.333,100.833 133,113.5C 133.717,114.044 134.217,114.711 134.5,115.5C 133.504,115.586 132.671,115.252 132,114.5C 131.5,101.171 131.333,87.8375 131.5,74.5C 129.833,74.5 128.167,74.5 126.5,74.5C 126.829,88.0105 126.496,101.344 125.5,114.5C 125.667,101.496 125.5,88.4957 125,75.5C 123.644,74.6198 122.144,74.2865 120.5,74.5C 124.301,73.3775 128.134,72.3775 132,71.5C 148.265,72.1598 164.431,72.8264 180.5,73.5 Z"/></g>
<g><path style="opacity:1" fill="#fdf5f4" d="M 28.5,75.5 C 28.5,84.8333 28.5,94.1667 28.5,103.5C 37.3494,103.826 46.0161,103.493 54.5,102.5C 54.1934,93.113 54.5267,83.7797 55.5,74.5C 59.0447,73.2086 62.5447,73.2086 66,74.5C 66.6667,87.5 66.6667,100.5 66,113.5C 65.5,114 65,114.5 64.5,115C 48.9256,115.824 33.4256,115.657 18,114.5C 16.8686,107.601 16.3686,100.601 16.5,93.5C 16.8333,87.1667 17.1667,80.8333 17.5,74.5C 20.773,73.4149 24.1064,73.2483 27.5,74C 28.056,74.3826 28.3893,74.8826 28.5,75.5 Z"/></g>
<g><path style="opacity:1" fill="#fdf8f7" d="M 120.5,74.5 C 122.144,74.2865 123.644,74.6198 125,75.5C 125.5,88.4957 125.667,101.496 125.5,114.5C 121.732,115.787 118.065,115.787 114.5,114.5C 114.83,107.8 114.497,101.134 113.5,94.5C 112.893,94.6236 112.56,94.9569 112.5,95.5C 108.412,98.2459 104.079,100.579 99.5,102.5C 95.0442,100.438 90.7109,98.1048 86.5,95.5C 85.6694,101.807 85.1694,108.141 85,114.5C 81.5915,115.622 78.0915,115.789 74.5,115C 73.3449,102.242 73.1783,89.4088 74,76.5C 75.4178,74.6368 77.2511,74.1368 79.5,75C 86.0729,79.9082 92.9062,84.4082 100,88.5C 106.969,83.94 113.802,79.2733 120.5,74.5 Z"/></g>
<g><path style="opacity:1" fill="#fdf6f5" d="M 180.5,73.5 C 180.783,74.2891 181.283,74.9558 182,75.5C 182.667,88.5 182.667,101.5 182,114.5C 178.943,115.451 175.777,115.784 172.5,115.5C 172.217,114.711 171.717,114.044 171,113.5C 170.5,104.173 170.334,94.8393 170.5,85.5C 161.983,85.1739 153.65,85.5073 145.5,86.5C 144.67,95.6577 144.17,104.991 144,114.5C 140.943,115.451 137.777,115.784 134.5,115.5C 134.217,114.711 133.717,114.044 133,113.5C 132.333,100.833 132.333,88.1667 133,75.5C 133.5,75 134,74.5 134.5,74C 149.83,73.5001 165.163,73.3334 180.5,73.5 Z"/></g>
<g><path style="opacity:1" fill="#f75c5b" d="M 145.5,86.5 C 153.65,85.5073 161.983,85.1739 170.5,85.5C 170.334,94.8393 170.5,104.173 171,113.5C 171.717,114.044 172.217,114.711 172.5,115.5C 171.265,115.721 170.265,116.388 169.5,117.5C 169.167,117.167 168.833,116.833 168.5,116.5C 169.475,106.553 169.808,96.5527 169.5,86.5C 161.5,86.5 153.5,86.5 145.5,86.5 Z"/></g>
<g><path style="opacity:1" fill="#fcf1ef" d="M 152.5,93.5 C 156.106,93.2108 159.606,93.5442 163,94.5C 163.789,98.0915 163.622,101.591 162.5,105C 152.251,107.249 148.918,103.416 152.5,93.5 Z"/></g>
<g><path style="opacity:1" fill="#f8c9c7" d="M 112.5,95.5 C 112.56,94.9569 112.893,94.6236 113.5,94.5C 114.497,101.134 114.83,107.8 114.5,114.5C 113.833,108.167 113.167,101.833 112.5,95.5 Z"/></g>
<g><path style="opacity:1" fill="#f77979" d="M 28.5,75.5 C 29.4933,84.3178 29.8266,93.3178 29.5,102.5C 37.8333,102.5 46.1667,102.5 54.5,102.5C 46.0161,103.493 37.3494,103.826 28.5,103.5C 28.5,94.1667 28.5,84.8333 28.5,75.5 Z"/></g>
</svg>
