<svg version="1.1" viewBox="0 0 149 44" xmlns="http://www.w3.org/2000/svg">
    <title>google_play</title>
    <desc>Created with Sketch.</desc>
    <defs>
        <linearGradient id="d" x1="60.99%" x2="26.536%" y1="4.9462%" y2="71.879%">
            <stop stop-color="#00A0FF" offset="0"/>
            <stop stop-color="#00A1FF" offset=".01"/>
            <stop stop-color="#00BEFF" offset=".26"/>
            <stop stop-color="#00D2FF" offset=".51"/>
            <stop stop-color="#00DFFF" offset=".76"/>
            <stop stop-color="#00E3FF" offset="1"/>
        </linearGradient>
        <linearGradient id="c" x1="107.68%" x2="-130.64%" y1="50%" y2="50%">
            <stop stop-color="#FFE000" offset="0"/>
            <stop stop-color="#FFBD00" offset=".41"/>
            <stop stop-color="#FFA500" offset=".78"/>
            <stop stop-color="#FF9C00" offset="1"/>
        </linearGradient>
        <linearGradient id="b" x1="86.271%" x2="-50.18%" y1="30.873%" y2="136.16%">
            <stop stop-color="#FF3A44" offset="0"/>
            <stop stop-color="#C31162" offset="1"/>
        </linearGradient>
        <linearGradient id="a" x1="-18.825%" x2="42.086%" y1="-11.91%" y2="35.079%">
            <stop stop-color="#32A071" offset="0"/>
            <stop stop-color="#2DA771" offset=".07"/>
            <stop stop-color="#15CF74" offset=".48"/>
            <stop stop-color="#06E775" offset=".8"/>
            <stop stop-color="#00F076" offset="1"/>
        </linearGradient>
    </defs>
    <g fill="none" fill-rule="evenodd">
        <g transform="translate(-421 -1737)">
            <g transform="translate(0 1011)">
                <g transform="translate(204 120)">
                    <g transform="translate(0 162)">
                        <g transform="translate(72 326)">
                            <g transform="translate(-0 118)">
                                <g transform="translate(145)">
                                    <g transform="translate(0)" fill-rule="nonzero">
                                        <path d="m9.5673 43.997c-0.38483 0-0.76024-0.0038078-1.143-0.012375-0.79109-0.0093849-1.5803-0.072068-2.3612-0.18753-0.72838-0.11417-1.434-0.32657-2.0935-0.63019-0.65343-0.30101-1.2494-0.69571-1.7652-1.169-0.5232-0.46802-0.95874-1.0108-1.2894-1.6069-0.33427-0.59964-0.56562-1.2424-0.686-1.9058-0.12994-0.71316-0.20021-1.4343-0.21019-2.1571-0.0083658-0.24179-0.018823-1.05-0.018823-1.05v-26.572s0.010457-0.79583 0.018823-1.0291c0.0094115-0.72158 0.079475-1.4412 0.20914-2.1533 0.12042-0.66525 0.35175-1.3099 0.686-1.9115 0.32954-0.59578 0.76284-1.1391 1.2831-1.6088 0.51934-0.47377 1.1171-0.87048 1.7715-1.1757 0.6581-0.30259 1.3624-0.51343 2.0894-0.62543 0.78429-0.11709 1.5759-0.18087 2.3696-0.18944l1.1398-0.013327h129.86l1.1534 0.014279c0.78638 0.0085675 1.5717 0.071396 2.3476 0.18658 0.7341 0.11423 1.4462 0.32652 2.1124 0.63019 1.311 0.61567 2.3776 1.5893 3.0504 2.7844 0.3294 0.59687 0.55737 1.2366 0.67658 1.8963 0.13176 0.71777 0.20496 1.4432 0.2196 2.1704 0.004183 0.32652 0.004183 0.67588 0.004183 1.0243 0.010457 0.43123 0.010457 0.84152 0.010457 1.2566v24.073c0 0.41791 0 0.82534-0.010457 1.2375 0 0.37316 0 0.71587-0.005229 1.069-0.01464 0.71396-0.086795 1.427-0.21646 2.1324-0.11784 0.66805-0.3478 1.3156-0.68181 1.9201-0.33294 0.58962-0.76596 1.1277-1.2831 1.5945-0.51625 0.4758-1.1133 0.87277-1.7683 1.1757-0.66386 0.3059-1.3746 0.51899-2.1082 0.63209-0.78116 0.11614-1.5707 0.17897-2.3612 0.18753-0.37019 0.0085676-0.75815 0.012375-1.1346 0.012375l-1.3699 0.0028558-128.49-0.0028558z" fill="#000"/>
                                        <g transform="translate(12 8)">
                                            <path d="m40.328 3.6324c0.035747 0.79851-0.25618 1.577-0.80816 2.1551-0.61914 0.63921-1.4814 0.98413-2.3706 0.94824-0.89374 0.019918-1.7558-0.33116-2.3814-0.9698-0.64537-0.62628-1.0007-1.4931-0.98057-2.3922-0.023137-0.90278 0.33242-1.7741 0.98057-2.4029 0.98155-0.95911 2.4429-1.2352 3.7068-0.70041 0.38857 0.15973 0.73515 0.40676 1.0129 0.72196l-0.5711 0.5711c-0.43387-0.52267-1.0888-0.81018-1.7672-0.77584-0.6801-0.0033362-1.3322 0.27056-1.8059 0.75853-0.47374 0.48797-0.72822 1.1479-0.70476 1.8276-0.014437 1.0271 0.59047 1.962 1.5333 2.3698 0.94281 0.40777 2.0384 0.20828 2.7769-0.50565 0.33227-0.35982 0.52688-0.82537 0.54955-1.3146h-2.3491v-0.77584h3.1357c0.024099 0.16062 0.038493 0.32255 0.043102 0.4849zm4.9352-2.6939h-2.9094v2.0473h2.6508v0.77584h-2.6508v2.0473h2.9094v0.79739h-3.7499v-6.4653h3.7499v0.79739zm3.5344 5.6679h-0.82971v-5.6679h-1.8103v-0.79739h4.4934v0.79739h-1.8534v5.6679zm5.0214 0v-6.4653h0.82971v6.4653h-0.82971zm4.5149 0h-0.82971v-5.6679h-1.8103v-0.79739h4.4395v0.79739h-1.7995v5.6679zm10.215-0.84049c-0.62855 0.62906-1.4813 0.98251-2.3706 0.98251s-1.7421-0.35345-2.3706-0.98251c-0.6335-0.6318-0.97683-1.4979-0.94824-2.3922-0.028581-0.89425 0.31474-1.7604 0.94824-2.3922 0.61581-0.64764 1.4772-1.004 2.3706-0.98057 0.89163-0.014105 1.7495 0.34073 2.3706 0.98057 0.62597 0.63674 0.96796 1.4995 0.94824 2.3922 0.028581 0.89425-0.31474 1.7604-0.94824 2.3922zm-4.127-0.53878c0.46367 0.46987 1.0963 0.73438 1.7564 0.73438 0.66013 0 1.2927-0.2645 1.7564-0.73438 0.4823-0.49416 0.74291-1.1632 0.72196-1.8534 0.0095769-0.6965-0.26697-1.3664-0.76506-1.8534-0.46367-0.46987-1.0963-0.73438-1.7564-0.73438-0.66013 0-1.2927 0.2645-1.7564 0.73438-0.46659 0.5012-0.71133 1.1694-0.67886 1.8534-0.020954 0.69019 0.23966 1.3592 0.72196 1.8534zm6.2498 1.3793v-6.4653h1.0021l3.1464 5.0322v-5.0322h0.82971v6.4653h-0.86204l-3.2865-5.2692v5.2692h-0.82971z" fill="#fff" stroke="#fff" stroke-width=".5"/>
                                            <path d="m62.655 16.035c-2.5352 0.0059581-4.5855 2.066-4.5796 4.6011 0.0059664 2.5352 2.066 4.5855 4.6011 4.5796 2.5352-0.0059617 4.5855-2.066 4.5796-4.6011 0.01775-1.2237-0.46202-2.4022-1.3294-3.2655s-2.0481-1.3376-3.2717-1.3141zm0 7.3597c-1.1387 0.079637-2.2104-0.5449-2.7025-1.5749-0.49207-1.03-0.3045-2.2561 0.47299-3.0919 0.77749-0.8358 1.9869-1.1114 3.0497-0.69497s1.7631 1.4402 1.7659 2.5817c0.035066 0.71406-0.21979 1.412-0.70672 1.9355-0.48694 0.52346-1.1647 0.82803-1.8794 0.84461zm-10.043-7.3597c-2.5352 0.0059581-4.5855 2.066-4.5796 4.6011 0.0059663 2.5352 2.066 4.5855 4.6011 4.5796 2.5352-0.0059617 4.5855-2.066 4.5796-4.6011 0.01775-1.2237-0.46202-2.4022-1.3294-3.2655s-2.0481-1.3376-3.2717-1.3141zm0 7.3597c-1.1387 0.079637-2.2104-0.5449-2.7025-1.5749-0.49207-1.03-0.3045-2.2561 0.47299-3.0919 0.77749-0.8358 1.9869-1.1114 3.0497-0.69497s1.7631 1.4402 1.7659 2.5817c0.035066 0.71406-0.21979 1.412-0.70672 1.9355-0.48694 0.52346-1.1647 0.82803-1.8794 0.84461zm-11.939-5.9481v1.9396h4.655c-0.07299 0.91355-0.45274 1.7756-1.0776 2.446-0.94431 0.9621-2.2521 1.479-3.599 1.4224-2.8566 0-5.1722-2.3157-5.1722-5.1722 0-2.8566 2.3157-5.1722 5.1722-5.1722 1.3151-0.019558 2.5849 0.47986 3.5344 1.39l1.3685-1.3685c-1.2974-1.2832-3.0568-1.99-4.8813-1.9611-2.6088-0.10153-5.0641 1.2324-6.3987 3.4762s-1.3346 5.0381 0 7.282 3.7899 3.5778 6.3987 3.4762c1.8644 0.074464 3.6718-0.65086 4.9675-1.9935 1.1316-1.2431 1.7345-2.8779 1.681-4.558 0.0038569-0.40438-0.0286-0.80828-0.09698-1.2069h-6.5515zm48.824 1.5086c-0.57533-1.6926-2.1358-2.8544-3.9223-2.9202-1.1914-0.0023211-2.3306 0.48858-3.1471 1.3561-0.81653 0.86756-1.2376 2.0344-1.1631 3.2235-0.018921 2.0202 1.2943 3.8118 3.2265 4.402 1.9322 0.59012 4.0223-0.16209 5.1353-1.8482l-1.5624-1.0776c-0.47394 0.78995-1.3309 1.2697-2.2521 1.2607-0.95597 0.03947-1.8379-0.51278-2.2198-1.39l6.1313-2.5322-0.22629-0.47412zm-6.2498 1.5301c-0.044116-0.67508 0.18607-1.3394 0.63842-1.8425 0.45235-0.50306 1.0886-0.80228 1.7645-0.82987 0.70738-0.045276 1.3734 0.3365 1.6918 0.9698l-4.0947 1.7025zm-4.9783 4.4395h2.015v-13.469h-2.015v13.469zm-3.2973-7.8661h-0.075428c-0.619-0.67376-1.4991-1.047-2.4137-1.0237-2.4459 0.11861-4.368 2.1362-4.368 4.585s1.9221 4.4664 4.368 4.585c0.92497 0.018554 1.81-0.37654 2.4137-1.0776h0.075428v0.65731c0 1.7564-0.93747 2.6939-2.446 2.6939-1.0307-0.022642-1.9457-0.66528-2.3167-1.6271l-1.7456 0.72196c0.6607 1.6594 2.2764 2.7394 4.0624 2.7154 2.3598 0 4.3102-1.39 4.3102-4.7736v-8.2109h-1.8642v0.75429zm-2.3167 6.336c-1.4654-0.091363-2.6071-1.3065-2.6071-2.7747s1.1417-2.6833 2.6071-2.7747c0.6972 0.030087 1.3523 0.34182 1.8155 0.86385 0.46312 0.52202 0.69457 1.2096 0.64136 1.9055 0.05941 0.69831-0.16954 1.3905-0.63363 1.9157-0.46409 0.52515-1.1229 0.8375-1.8232 0.86442zm26.281-11.939h-4.8274v13.469h2.015v-5.1076h2.8124c1.5653 0.11246 3.0624-0.65891 3.8793-1.9989 0.81695-1.34 0.81695-3.024 0-4.364-0.81695-1.34-2.314-2.1113-3.8793-1.9989zm0 6.4653h-2.8124v-4.5904h2.8555c1.2735 0 2.306 1.0324 2.306 2.306s-1.0324 2.306-2.306 2.306l-0.043102-0.021551zm12.435-1.9288c-1.4999-0.092481-2.9108 0.71679-3.5882 2.0581l1.778 0.74351c0.36702-0.6617 1.0888-1.0458 1.8426-0.98057 0.51672-0.060349 1.036 0.089404 1.4413 0.41562 0.40524 0.32622 0.66245 0.80155 0.71385 1.3192v0.12931c-0.64797-0.3406-1.3692-0.51813-2.1012-0.51722-1.918 0-3.8792 1.0776-3.8792 3.0387 0.038328 0.84219 0.41648 1.6329 1.0481 2.1913 0.63157 0.55846 1.4626 0.83699 2.3031 0.77194 1.0295 0.056946 2.0098-0.44553 2.5646-1.3146h0.064653v1.0776h1.9396v-5.183c0-2.3598-1.7887-3.7283-4.0839-3.7283l-0.043102-0.021551zm-0.24784 7.3812c-0.65731 0-1.5732-0.33404-1.5732-1.1422 0-1.0776 1.1422-1.4439 2.1551-1.4439 0.64011-0.015795 1.2727 0.1405 1.8318 0.45257-0.13991 1.2102-1.1526 2.1308-2.3706 2.1551l-0.043102-0.021551zm11.444-7.0687-2.306 5.8403h-0.064653l-2.3922-5.8403h-2.1551l3.5882 8.1678-2.0473 4.5365h2.1551l5.4632-12.704h-2.2413zm-18.103 8.6204h2.0042v-13.469h-2.0042v13.469z" fill="#fff"/>
                                            <path d="m0.4803 0.72304c-0.34348 0.42461-0.51294 0.9638-0.47412 1.5086v23.835c-0.036665 0.54996 0.14535 1.0921 0.50645 1.5086l0.075429 0.086204 13.319-13.351v-0.32327l-13.351-13.34-0.075429 0.075429z" fill="url(#d)"/>
                                            <path d="m18.325 18.761-4.418-4.4503v-0.32327l4.418-4.4503 0.09698 0.064653 5.2908 2.9956c1.5086 0.85127 1.5086 2.2521 0 3.1141l-5.2692 2.9956-0.11853 0.053878z" fill="url(#c)"/>
                                            <path d="m18.454 18.707-4.5473-4.558-13.426 13.426c0.62825 0.55922 1.5659 0.59093 2.2305 0.075429l15.743-8.9437" fill="url(#b)"/>
                                            <path d="m18.454 9.6021-15.743-8.9437c-0.66058-0.52291-1.6014-0.49564-2.2305 0.064653l13.426 13.426 4.5473-4.5473z" fill="url(#a)"/>
                                            <path d="m18.325 18.6-15.614 8.8898c-0.63774 0.48132-1.5174 0.48132-2.1551 0l-0.075429 0.075428 0.075429 0.086204c0.63774 0.48132 1.5174 0.48132 2.1551 0l15.743-8.9437-0.12931-0.10776z" fill="#000" opacity=".2"/>
                                            <path d="m0.4803 27.425c-0.34612-0.4274-0.51574-0.97095-0.47412-1.5193v0.16163c-0.036665 0.54996 0.14535 1.0921 0.50645 1.5086l0.075429-0.075428-0.10776-0.075429zm23.232-11.875-5.3878 3.0495 0.09698 0.10776 5.2908-3.0064c0.63618-0.269 1.0744-0.8643 1.1422-1.5517-0.13662 0.62186-0.56058 1.1418-1.1422 1.4008z" fill="#000" opacity=".12"/>
                                            <path d="m2.7108 0.80925 21.001 11.939c0.58162 0.25901 1.0056 0.77896 1.1422 1.4008-0.067821-0.68738-0.50602-1.2827-1.1422-1.5517l-21.001-11.939c-1.4978-0.86204-2.7047-0.15086-2.7047 1.5732v0.16163c0-1.7241 1.2069-2.4353 2.7047-1.584z" fill="#fff" opacity=".25"/>
                                        </g>
                                    </g>
                                </g>
                            </g>
                        </g>
                    </g>
                </g>
            </g>
        </g>
    </g>
</svg>
