<svg xmlns="http://www.w3.org/2000/svg" xmlns:xlink="http://www.w3.org/1999/xlink" width="80" height="80"><defs><linearGradient x1="50%" y1="0%" x2="50%" y2="100%" id="b"><stop stop-color="#E2E7ED" offset="0%"/><stop stop-color="#F6F7FB" offset="100%"/></linearGradient><linearGradient x1="52.905%" y1="63.107%" x2="52.905%" y2="133.209%" id="g"><stop stop-color="#FFF" offset="0%"/><stop stop-color="#EAEDF4" offset="100%"/></linearGradient><filter x="-13.1%" y="-13.1%" width="126.2%" height="126.2%" filterUnits="objectBoundingBox" id="c"><feGaussianBlur stdDeviation="10" in="SourceAlpha" result="shadowBlurInner1"/><feOffset dy="1" in="shadowBlurInner1" result="shadowOffsetInner1"/><feComposite in="shadowOffsetInner1" in2="SourceAlpha" operator="arithmetic" k2="-1" k3="1" result="shadowInnerInner1"/><feColorMatrix values="0 0 0 0 0 0 0 0 0 0 0 0 0 0 0 0 0 0 0.02 0" in="shadowInnerInner1"/></filter><filter x="-28.6%" y="-23.3%" width="157.1%" height="153.3%" filterUnits="objectBoundingBox" id="e"><feOffset dy="2" in="SourceAlpha" result="shadowOffsetOuter1"/><feGaussianBlur stdDeviation="5" in="shadowOffsetOuter1" result="shadowBlurOuter1"/><feColorMatrix values="0 0 0 0 0 0 0 0 0 0 0 0 0 0 0 0 0 0 0.1 0" in="shadowBlurOuter1"/></filter><circle id="a" cx="40" cy="40" r="40"/><rect id="f" x="0" y="9" width="56" height="60" rx="4"/></defs><g fill="none" fill-rule="evenodd"><mask id="d" fill="#fff"><use xlink:href="#a"/></mask><g fill-rule="nonzero"><use fill="url(#b)" xlink:href="#a"/><use fill="#000" filter="url(#c)" xlink:href="#a"/></g><g mask="url(#d)" fill-rule="nonzero"><g transform="translate(14 13)"><rect fill="#D3D9E7" transform="rotate(6 40.982 32.762)" x="12.982" y="2.762" width="56" height="60" rx="4"/><use fill="#000" filter="url(#e)" xlink:href="#f"/><use fill="url(#g)" xlink:href="#f"/><rect fill="#E9ECF3" x="8" y="33" width="40" height="4" rx="1"/><rect fill="#E9ECF3" x="22" y="19" width="26" height="6" rx="1"/><rect fill="#357CE1" x="8" y="17" width="10" height="10" rx="2"/><rect fill="#E9ECF3" x="8" y="41" width="40" height="4" rx="1"/><rect fill="#E9ECF3" x="8" y="49" width="40" height="4" rx="1"/></g></g></g></svg>