<svg width="80" height="80" viewBox="0 0 80 80" fill="none" xmlns="http://www.w3.org/2000/svg">
<path d="M22.8401 70C24.9112 70 26.5901 68.3211 26.5901 66.25V43.4467L19.0901 35.9467V22.5C19.0901 20.4289 17.4112 18.75 15.3401 18.75C13.269 18.75 11.5901 20.4289 11.5901 22.5V39.0533L19.0901 46.5533V66.25C19.0901 68.3211 20.769 70 22.8401 70ZM56.5901 70C58.6612 70 60.3401 68.3211 60.3401 66.25V46.7248L69.0901 39.2248V22.5C69.0901 20.4289 67.4112 18.75 65.3401 18.75C63.269 18.75 61.5901 20.4289 61.5901 22.5V35.7752L52.8401 43.2752V66.25C52.8401 68.3211 54.519 70 56.5901 70Z" fill="#16B979"/>
<path d="M22.8401 70C24.9112 70 26.5901 68.3211 26.5901 66.25V43.4467L19.0901 35.9467V22.84H24.6599L15 10L5.34009 22.84H11.5901V39.0533L19.0901 46.5533V66.25C19.0901 68.3211 20.769 70 22.8401 70Z" fill="#16B979"/>
<path d="M56.5901 70C58.6612 70 60.3401 68.3211 60.3401 66.25V46.7248L69.0901 39.2248V22.84H74.6599L65 10L55.3401 22.84H61.5901V35.7752L52.8401 43.2752V66.25C52.8401 68.3211 54.519 70 56.5901 70Z" fill="#16B979"/>
<path opacity="0.4" d="M40.3401 70C38.269 70 36.5901 68.3211 36.5901 66.25V22.84H30.3401L40 10L49.6599 22.84H44.0901V66.25C44.0901 68.3211 42.4112 70 40.3401 70Z" fill="#16B979"/>
<path d="M40.3401 70C38.269 70 36.5901 68.3211 36.5901 66.25V22.84H30.3401L40 10L49.6599 22.84H44.0901V66.25C44.0901 68.3211 42.4112 70 40.3401 70Z" fill="#3375F6"/>
</svg>
