<svg width="80" height="80" viewBox="0 0 80 80" fill="none" xmlns="http://www.w3.org/2000/svg">
<path d="M73.1134 24.7318C73.1134 34.6973 65.0347 42.776 55.0692 42.776C45.1036 42.776 37.0249 34.6973 37.0249 24.7318C37.0249 14.7662 45.1036 6.6875 55.0692 6.6875C65.0347 6.6875 73.1134 14.7662 73.1134 24.7318Z" fill="#16B979"/>
<path d="M31.4702 35.8359C31.4702 42.7352 25.8773 48.3281 18.978 48.3281C12.0788 48.3281 6.48584 42.7352 6.48584 35.8359C6.48584 28.9367 12.0788 23.3438 18.978 23.3438C25.8773 23.3438 31.4702 28.9367 31.4702 35.8359Z" fill="#3375F6"/>
<path d="M9.99048 61.7618C9.61901 59.6853 11.0012 57.7008 13.0777 57.3293L68.4092 47.4309C70.4857 47.0595 72.4702 48.4417 72.8416 50.5182C73.2131 52.5947 71.8309 54.5792 69.7544 54.9506L14.423 64.8491C12.3464 65.2205 10.362 63.8383 9.99048 61.7618Z" fill="#EBEBEB"/>
<path d="M42.5879 53.8802C43.2895 53.8802 43.9938 54.101 44.5577 54.5427C44.6684 54.6255 45.1244 55.0119 45.4213 55.3155L45.5832 55.4812C48.0415 57.7998 51.7383 63.5688 52.923 66.4946C52.95 66.4946 53.6543 68.2336 53.6785 69.0617L53.6785 69.1721C53.6785 70.4418 52.9796 71.6287 51.8463 72.236C51.2229 72.5672 49.415 72.8709 49.3907 72.8985C47.7689 73.1469 45.2863 73.3125 42.5609 73.3125C39.7032 73.3125 37.11 73.1469 35.5179 72.8433C35.4909 72.8433 34.0338 72.5396 33.548 72.3464C32.8491 72.0428 32.2528 71.4907 31.875 70.8007C31.6078 70.2486 31.4702 69.6689 31.4702 69.0617C31.4999 68.4268 31.902 67.2399 32.0909 66.7707C33.2782 63.6792 37.164 57.7722 39.5386 55.5088C39.9164 55.1223 40.3778 54.7083 40.4831 54.5979C41.0767 54.1286 41.8053 53.8802 42.5879 53.8802" fill="#16B979"/>
</svg>
