<svg version="1.1" viewBox="0 0 133 44" xmlns="http://www.w3.org/2000/svg">
    <title>app-store</title>
    <desc>Created with Sketch.</desc>
    <g fill="none" fill-rule="evenodd">
        <g transform="translate(-276 -1737)">
            <g transform="translate(0 1011)">
                <g transform="translate(204 120)">
                    <g transform="translate(0 162)">
                        <g transform="translate(72 326)">
                            <g transform="translate(-0 118)">
                                <g fill-rule="nonzero">
                                    <path d="m8.54 43.997c-0.3435 0-0.6786-0.0038078-1.0202-0.012375-0.70614-0.0093849-1.4106-0.072068-2.1077-0.18753-0.65016-0.11417-1.28-0.32657-1.8687-0.63019-0.58326-0.30101-1.1153-0.69571-1.5756-1.169-0.46702-0.46802-0.85579-1.0108-1.1509-1.6069-0.29837-0.59964-0.50488-1.2424-0.61233-1.9058-0.11599-0.71316-0.17871-1.4343-0.18762-2.1571-0.0074675-0.24179-0.016802-1.05-0.016802-1.05v-26.572s0.0093343-0.79583 0.016802-1.0291c0.0084009-0.72158 0.070941-1.4412 0.18669-2.1533 0.10748-0.66525 0.31398-1.3099 0.61233-1.9115 0.29415-0.59578 0.68093-1.1391 1.1453-1.6088 0.46358-0.47377 0.99713-0.87048 1.5812-1.1757 0.58743-0.30259 1.2161-0.51343 1.865-0.62543 0.70007-0.11709 1.4067-0.18087 2.1152-0.18944l1.0174-0.013327h115.91l1.0296 0.014279c0.70194 0.0085675 1.4029 0.071396 2.0956 0.18658 0.65527 0.11423 1.2909 0.32652 1.8855 0.63019 1.1703 0.61567 2.1223 1.5893 2.7228 2.7844 0.29403 0.59687 0.49752 1.2366 0.60393 1.8963 0.11761 0.71777 0.18295 1.4432 0.19602 2.1704 0.003734 0.32652 0.003734 0.67588 0.003734 1.0243 0.009334 0.43123 0.009334 0.84152 0.009334 1.2566v24.073c0 0.41791 0 0.82534-0.009334 1.2375 0 0.37316 0 0.71587-0.004667 1.069-0.013069 0.71396-0.077475 1.427-0.19322 2.1324-0.10519 0.66805-0.31045 1.3156-0.6086 1.9201-0.29718 0.58962-0.68371 1.1277-1.1453 1.5945-0.46081 0.4758-0.99379 0.87277-1.5784 1.1757-0.59257 0.3059-1.227 0.51899-1.8818 0.63209-0.69727 0.11614-1.402 0.17897-2.1077 0.18753-0.33044 0.0085676-0.67674 0.012375-1.0128 0.012375l-1.2228 0.0028558-114.7-0.0028558z" fill="#000"/>
                                    <g transform="translate(12 8)" fill="#fff">
                                        <g transform="translate(-0)">
                                            <path d="m16.1 13.148c0.023671-1.8406 0.98849-3.5408 2.5565-4.5051-0.99392-1.4194-2.5989-2.2869-4.3309-2.341-1.8229-0.19127-3.5882 1.0901-4.5167 1.0901-0.94645 0-2.376-1.0713-3.9151-1.0398-2.0256 0.065583-3.8682 1.1895-4.8535 2.9606-2.0985 3.6331-0.53339 8.9724 1.4762 11.909 1.0057 1.4385 2.182 3.0441 3.7193 2.9875 1.505-0.062857 2.0671-0.95902 3.8837-0.95902 1.8004 0 2.3275 0.95902 3.8971 0.9231 1.6145-0.026939 2.6319-1.4448 3.6026-2.8959 0.72238-1.0248 1.2782-2.1573 1.6469-3.3557-1.9181-0.81134-3.1651-2.6909-3.1671-4.7736h8.98e-4zm-2.9651-8.7776c0.88063-1.0571 1.3145-2.4158 1.2096-3.7876-1.3454 0.14138-2.5881 0.78455-3.4805 1.8013-0.88111 1.0027-1.3275 2.3146-1.241 3.6466 1.3632 0.014058 2.6576-0.59789 3.5119-1.6603z"/>
                                            <path d="m35.124 20.569h-5.1363l-1.2329 3.6421h-2.1749l4.8642-13.474h2.2602l4.8642 13.474h-2.2117l-1.2329-3.6421zm-4.6038-1.6801h4.0713l-2.0069-5.9113h-0.056571l-2.0078 5.9113zm18.555 0.41037c0 3.0531-1.6343 5.0142-4.0992 5.0142-1.2745 0.066579-2.4749-0.60095-3.0908-1.7187h-0.046694v4.866h-2.0168v-13.075h1.9522v1.6343h0.036816c0.64322-1.1111 1.8453-1.7784 3.1285-1.7367 2.4927 0 4.136 1.971 4.136 5.0151v8.98e-4zm-2.0725 0c0-1.9881-1.0273-3.2955-2.5951-3.2955-1.5418 0-2.5771 1.3344-2.5771 3.2955 0 1.98 1.0353 3.3045 2.5771 3.3045 1.5678 0 2.5951-1.2976 2.5951-3.3045zm12.885 0c0 3.0531-1.6343 5.0142-4.0992 5.0142-1.2745 0.066579-2.4749-0.60095-3.0908-1.7187h-0.046694v4.866h-2.0168v-13.075h1.9522v1.6343h0.035918c0.64322-1.1111 1.8453-1.7784 3.1285-1.7367 2.4936 0 4.1369 1.971 4.1369 5.0151v8.98e-4zm-2.0725 0c0-1.9881-1.0282-3.2955-2.596-3.2955-1.5409 0-2.5771 1.3344-2.5771 3.2955 0 1.98 1.0362 3.3045 2.5771 3.3045 1.5678 0 2.596-1.2976 2.596-3.3045z"/>
                                            <path d="m67.033 20.456c0.14996 1.3362 1.4475 2.2135 3.221 2.2135 1.6998 0 2.9229-0.87731 2.9229-2.0824 0-1.0452-0.73722-1.672-2.4838-2.1012l-1.7465-0.42024c-2.4739-0.59804-3.6224-1.7546-3.6224-3.6322 0-2.3257 2.0258-3.9214 4.9029-3.9214 2.8465 0 4.7987 1.5966 4.8642 3.9214h-2.0357c-0.12122-1.3451-1.2329-2.1569-2.8573-2.1569-1.6253 0-2.7361 0.82163-2.7361 2.0168 0 0.95184 0.70939 1.5131 2.4469 1.9423l1.4843 0.36457c2.7648 0.65371 3.9133 1.7645 3.9133 3.7355 0 2.5206-2.0078 4.0992-5.2019 4.0992-2.9884 0-5.0052-1.5418-5.1363-3.9789h2.0653-8.979e-4zm12.625-8.3941v2.3248h1.8678v1.5966h-1.8678v5.4156c0 0.84139 0.37445 1.2338 1.1952 1.2338 0.22184-0.0043234 0.44333-0.019908 0.66359-0.046694v1.5867c-0.36906 0.069143-0.74531 0.10057-1.1207 0.093388-1.9881 0-2.7639-0.7471-2.7639-2.6517v-5.6311h-1.4278v-1.5984h1.4278v-2.3239h2.0258v8.979e-4z"/>
                                            <path d="m82.608 19.299c0-3.0908 1.8202-5.0331 4.6595-5.0331 2.8483 0 4.6604 1.9423 4.6604 5.0331 0 3.0998-1.8031 5.0331-4.6604 5.0331s-4.6595-1.9333-4.6595-5.0331zm7.2645 0c0-2.1192-0.97159-3.3709-2.605-3.3709-1.6343 0-2.6041 1.2607-2.6041 3.3709 0 2.1291 0.9698 3.3709 2.6041 3.3709s2.605-1.2419 2.605-3.3709z"/>
                                            <path d="m93.59 14.387h1.9234v1.672h0.046694c0.26815-1.0759 1.2536-1.8167 2.3616-1.7753 0.23347 0 0.46514 0.025143 0.69143 0.075429v1.8857c-0.29341-0.089422-0.59944-0.13037-0.90604-0.12122-0.5928-0.023991-1.1665 0.21229-1.5704 0.6468-0.40396 0.43452-0.59785 1.0239-0.53078 1.6134v5.8269h-2.0159v-9.8237z"/>
                                            <path d="m107.91 21.326c-0.27118 1.7833-2.0078 3.0064-4.2294 3.0064-2.8582 0-4.6326-1.9144-4.6326-4.9864 0-3.0809 1.7833-5.0798 4.5473-5.0798 2.7172 0 4.4269 1.8678 4.4269 4.8463v0.69053h-6.9385v0.12212c-0.064361 0.7312 0.18834 1.4548 0.69389 1.987 0.50555 0.53217 1.2153 0.82165 1.9488 0.79488 0.97824 0.091638 1.9006-0.46993 2.2682-1.3811h1.9153zm-6.8164-2.9318h4.9109c0.036948-0.65724-0.20209-1.3001-0.65948-1.7735-0.45739-0.47342-1.0916-0.73444-1.7497-0.72014-0.66326-0.0038334-1.3006 0.2574-1.7703 0.72564-0.46976 0.46825-0.73305 1.1047-0.73138 1.768z"/>
                                        </g>
                                        <g transform="translate(27.837)">
                                            <path d="m2.4308 0.59445c0.856-0.061154 1.6943 0.2647 2.2843 0.88791 0.58999 0.62321 0.86948 1.4781 0.76157 2.3295 0 2.068-1.118 3.2569-3.0459 3.2569h-2.3392v-6.4743h2.3392zm-1.3335 5.5584h1.2212c0.61143 0.036203 1.2067-0.20482 1.6206-0.65625 0.41398-0.45142 0.60269-1.0652 0.51381-1.6713 0.08297-0.60376-0.1082-1.213-0.52123-1.6611-0.41303-0.44813-1.0047-0.68825-1.6132-0.65469h-1.2212v4.6442-8.9796e-4zm5.5153-1.5283c-0.084857-0.8764 0.33482-1.7251 1.0828-2.1896 0.74798-0.46455 1.6947-0.46455 2.4427 0 0.74798 0.46455 1.1677 1.3132 1.0828 2.1896 0.084857 0.8764-0.33482 1.7251-1.0828 2.1896-0.74798 0.46455-1.6947 0.46455-2.4427 0-0.74798-0.46455-1.1677-1.3132-1.0828-2.1896zm3.617 0c0-1.0596-0.47592-1.6792-1.311-1.6792-0.83869 0-1.3101 0.61959-1.3101 1.6792 0 1.0668 0.47233 1.6819 1.3101 1.6819 0.8351 0 1.311-0.61959 1.311-1.6828v8.9796e-4z"/>
                                            <path d="m17.347 7.0687h-1.0003l-1.0102-3.5981h-0.076326l-1.0057 3.5981h-0.99045l-1.3469-4.8849h0.97878l0.87461 3.7265h0.071837l1.0057-3.7265h0.9249l1.0039 3.7265h0.076327l0.87102-3.7265h0.96441l-1.3416 4.8849zm2.4739-4.8858h0.92849v0.77584h0.071837c0.25075-0.57139 0.83636-0.92081 1.4583-0.87012 0.48153-0.036023 0.95333 0.14882 1.2822 0.50236 0.32891 0.35354 0.47926 0.83743 0.40862 1.3151v3.1626h-0.96441v-2.9202c0-0.78482-0.34122-1.1754-1.0542-1.1754-0.32679-0.015478-0.64403 0.11262-0.86845 0.35068s-0.3336 0.56229-0.29889 0.88761v2.8582h-0.96351v-4.8849-0.0017959zm5.6859-1.9073h0.96441v6.7931h-0.96441v-6.7931z"/>
                                            <path d="m27.811 4.6245c-0.082968-0.87545 0.33725-1.7223 1.0846-2.1858 0.74733-0.46345 1.6927-0.46345 2.4401 0 0.74733 0.46345 1.1676 1.3103 1.0846 2.1858 0.082968 0.87545-0.33725 1.7223-1.0846 2.1858-0.74733 0.46345-1.6927 0.46345-2.4401 0-0.74733-0.46345-1.1676-1.3103-1.0846-2.1858zm3.617 0c0-1.0596-0.47592-1.6792-1.311-1.6792-0.8378 0-1.3092 0.61959-1.3092 1.6792 0 1.0668 0.47143 1.6819 1.3092 1.6819 0.8351 0 1.311-0.61959 1.311-1.6828v8.9796e-4zm2.0069 1.0623c0-0.8791 0.65551-1.3864 1.8175-1.4583l1.3236-0.076327v-0.42204c0-0.51543-0.34122-0.80727-1.0003-0.80727-0.53878 0-0.91143 0.19755-1.0183 0.54327h-0.93388c0.098776-0.83869 0.88898-1.3775 1.9971-1.3775 1.2248 0 1.9153 0.61061 1.9153 1.6424v3.3377h-0.92849v-0.68694h-0.076326c-0.31497 0.50166-0.87555 0.79499-1.4673 0.76776-0.41489 0.043136-0.82866-0.091261-1.139-0.36996-0.31035-0.2787-0.48831-0.67569-0.48988-1.0928zm3.1411-0.41755v-0.40767l-1.1934 0.076327c-0.67257 0.044898-0.97788 0.27388-0.97788 0.704 0 0.44 0.38163 0.69592 0.90694 0.69592 0.31045 0.03111 0.62025-0.065028 0.85855-0.26643 0.2383-0.2014 0.38472-0.49084 0.40578-0.80214zm2.2269-0.64473c0-1.5445 0.7938-2.5233 2.0285-2.5233 0.62325-0.028496 1.2069 0.30564 1.4978 0.85755h0.071837v-2.6831h0.96441v6.7931h-0.9231v-0.77224h-0.076326c-0.31314 0.54802-0.90478 0.87671-1.5355 0.85306-1.2419 0-2.0276-0.97878-2.0276-2.526v8.9796e-4zm0.99673 0c0 1.0353 0.48849 1.6594 1.3047 1.6594 0.81265 0 1.3155-0.63306 1.3155-1.6558 0-1.0183-0.50735-1.6603-1.3155-1.6603-0.81176 0-1.3047 0.62857-1.3047 1.6558v8.9796e-4zm7.5554 0c-0.084857-0.8764 0.33482-1.7251 1.0828-2.1896s1.6947-0.46455 2.4427 0c0.74798 0.46455 1.1677 1.3132 1.0828 2.1896 0.084857 0.8764-0.33482 1.7251-1.0828 2.1896-0.74798 0.46455-1.6947 0.46455-2.4427 0-0.74798-0.46455-1.1677-1.3132-1.0828-2.1896zm3.617 0c0-1.0596-0.47592-1.6792-1.311-1.6792-0.8378 0-1.3092 0.61959-1.3092 1.6792 0 1.0668 0.47143 1.6819 1.3092 1.6819 0.8351 0 1.311-0.61959 1.311-1.6828v8.9796e-4z"/>
                                            <path d="m53.257 2.1829h0.92849v0.77584h0.071837c0.25075-0.57139 0.83636-0.92081 1.4583-0.87012 0.48153-0.036023 0.95333 0.14882 1.2822 0.50236 0.32891 0.35354 0.47926 0.83743 0.40862 1.3151v3.1626h-0.96441v-2.9202c0-0.78482-0.34122-1.1754-1.0542-1.1754-0.32679-0.015478-0.64403 0.11262-0.86845 0.35068-0.22442 0.23806-0.3336 0.56229-0.29889 0.88761v2.8582h-0.96351v-4.8849-0.0017959zm9.5974-1.2167v1.2392h1.0596v0.81176h-1.0596v2.5125c0 0.51184 0.21102 0.73633 0.69143 0.73633 0.12302 0 0.24514-0.0080816 0.36816-0.022449v0.80278c-0.17342 0.031061-0.34913 0.047581-0.52531 0.049388-1.0722 0-1.4996-0.37714-1.4996-1.3191v-2.7594h-0.77494v-0.81176h0.77494v-1.2392h0.96531zm2.376-0.69053h0.95543v2.6921h0.076326c0.26286-0.57658 0.85906-0.9264 1.4906-0.87461 0.47865-0.025936 0.94395 0.16288 1.2692 0.51502 0.32523 0.35215 0.47653 0.83095 0.4127 1.306v3.1545h-0.96531v-2.9166c0-0.78033-0.36278-1.1763-1.0443-1.1763-0.33557-0.027565-0.66618 0.094445-0.90339 0.33339-0.23721 0.23894-0.35682 0.57044-0.32681 0.90579v2.8537h-0.96441v-6.7931z"/>
                                            <path d="m75.058 5.7496c-0.2705 0.92164-1.1625 1.5171-2.1174 1.4134-0.65155 0.017464-1.2778-0.25242-1.7126-0.73802-0.43476-0.4856-0.63402-1.1378-0.54489-1.7834-0.086712-0.64762 0.11189-1.301 0.54433-1.7908s1.0562-0.76786 1.7095-0.76208c1.3586 0 2.1784 0.92849 2.1784 2.4631v0.33673h-3.45v0.053878c-0.030658 0.36275 0.093231 0.72159 0.34116 0.98815 0.24793 0.26657 0.59686 0.41609 0.96088 0.41176 0.47168 0.056439 0.93072-0.17769 1.162-0.59265h0.92849zm-3.3925-1.5741h2.4685c0.024667-0.33175-0.091966-0.65849-0.32114-0.89963-0.22917-0.24114-0.54955-0.37425-0.88213-0.36649-0.33697-0.0041441-0.66133 0.12795-0.89954 0.36632s-0.37007 0.56283-0.36569 0.8998z"/>
                                        </g>
                                    </g>
                                </g>
                            </g>
                        </g>
                    </g>
                </g>
            </g>
        </g>
    </g>
</svg>
