<svg width="135" height="40" viewBox="0 0 135 40" fill="none" xmlns="http://www.w3.org/2000/svg">
<path d="M130.197 40H4.729C2.1182 39.9939 0.0038486 37.8778 0 35.267V4.726C0.00385872 2.11633 2.11933 0.00220266 4.729 0H130.197C132.803 0 135 2.12 135 4.726V35.267C135 37.872 132.803 40 130.197 40Z" fill="#A6A6A6"/>
<path d="M134.032 35.268C134.032 36.2845 133.628 37.2593 132.908 37.9776C132.189 38.696 131.214 39.0991 130.198 39.098H4.72865C2.61103 39.1002 0.892408 37.3856 0.889648 35.268V4.72501C0.892407 2.60658 2.61022 0.890565 4.72865 0.890015H130.197C131.214 0.890015 132.189 1.29409 132.908 2.01332C133.627 2.73255 134.031 3.708 134.031 4.72501L134.032 35.268Z" fill="black"/>
<path fill-rule="evenodd" clip-rule="evenodd" d="M26.9281 10.306C27.8021 9.21304 28.4001 7.72604 28.2341 6.21704C26.9691 6.27304 25.3871 7.09204 24.4761 8.16104C23.6701 9.10304 22.9501 10.647 23.1361 12.099C24.5571 12.205 26.0161 11.382 26.9281 10.306ZM30.1281 19.784C30.0993 16.5851 32.7273 15.0166 32.8859 14.9219L32.8891 14.92C31.3781 12.717 29.0361 12.416 28.2131 12.392C27.0097 12.2654 25.8284 12.7343 24.8631 13.1174C24.2506 13.3605 23.7251 13.569 23.3361 13.569C22.8932 13.569 22.3525 13.3518 21.7466 13.1083C20.9543 12.7899 20.0504 12.4268 19.1081 12.446C16.9681 12.479 14.9661 13.718 13.8681 15.642C11.6021 19.565 13.2921 25.33 15.4631 28.501C16.5491 30.054 17.8181 31.788 19.4791 31.727C20.2326 31.696 20.7672 31.471 21.3194 31.2386C21.9581 30.9698 22.6204 30.691 23.6721 30.691C24.6641 30.691 25.2982 30.9611 25.9068 31.2203C26.4901 31.4687 27.05 31.7071 27.8791 31.688C29.6231 31.66 30.7211 30.128 31.7691 28.561C33.0241 26.781 33.5281 25.028 33.5481 24.938C33.5071 24.924 30.1611 23.647 30.1281 19.784ZM51.3741 31.504H53.6451L49.3401 18.196H46.6941L42.4101 31.504H44.6211L45.8061 27.595H50.1301L51.3741 31.504ZM49.7551 25.955L48.6301 22.48C48.5111 22.125 48.2881 21.289 47.9591 19.973H47.9191C47.7196 20.8115 47.5089 21.6472 47.2871 22.48L46.1821 25.955H49.7551ZM63.3391 30.457C64.2211 29.51 64.6621 28.22 64.6621 26.588C64.6621 25.127 64.2841 23.949 63.5261 23.053C62.7701 22.158 61.8251 21.711 60.6931 21.711C59.2451 21.711 58.1661 22.283 57.4551 23.429H57.4151L57.2961 21.908H55.4211C55.4731 22.988 55.5001 24.041 55.5001 25.067V35.414H57.6321V30.359H57.6721C58.2251 31.267 59.1331 31.721 60.3971 31.721C61.5681 31.721 62.5491 31.3 63.3391 30.457ZM62.4901 26.666C62.4901 25.732 62.2801 24.962 61.8581 24.356C61.3971 23.724 60.7781 23.408 60.0021 23.408C59.4761 23.408 58.9981 23.584 58.5711 23.931C58.1431 24.281 57.8631 24.738 57.7321 25.304C57.6661 25.568 57.6331 25.784 57.6331 25.954V27.554C57.6331 28.252 57.8471 28.841 58.2751 29.322C58.7031 29.803 59.2591 30.043 59.9431 30.043C60.7461 30.043 61.3711 29.733 61.8181 29.115C62.2661 28.496 62.4901 27.68 62.4901 26.666ZM74.3751 30.457C75.2581 29.51 75.6991 28.22 75.6991 26.588C75.6991 25.127 75.3201 23.949 74.5651 23.053C73.8071 22.158 72.8621 21.711 71.7311 21.711C70.2821 21.711 69.2031 22.283 68.4931 23.429H68.4531L68.3341 21.908H66.4591C66.5111 22.988 66.5381 24.041 66.5381 25.067V35.414H68.6701V30.359H68.7101C69.2621 31.267 70.1701 31.721 71.4341 31.721C72.6051 31.721 73.5861 31.3 74.3751 30.457ZM73.5271 26.666C73.5271 25.732 73.3161 24.962 72.8941 24.356C72.4331 23.724 71.8161 23.408 71.0391 23.408C70.515 23.4079 70.0077 23.5931 69.6071 23.931C69.1791 24.281 68.9001 24.738 68.7691 25.304C68.7041 25.568 68.6701 25.784 68.6701 25.954V27.554C68.6701 28.252 68.8841 28.841 69.3101 29.322C69.7381 29.802 70.2941 30.043 70.9801 30.043C71.7831 30.043 72.4081 29.733 72.8551 29.115C73.3031 28.496 73.5271 27.68 73.5271 26.666ZM86.8571 30.536C87.6461 29.825 88.0391 28.904 88.0391 27.772C88.0391 26.852 87.7701 26.081 87.2311 25.465C86.6901 24.847 85.8491 24.308 84.7041 23.847C83.7681 23.478 83.1231 23.136 82.7681 22.82C82.3601 22.478 82.1571 22.043 82.1571 21.517C82.1508 21.0569 82.3454 20.6169 82.6901 20.312C83.1101 19.944 83.6961 19.759 84.4461 19.759C85.3951 19.759 86.2431 19.963 86.9931 20.371L87.5261 18.633C86.7231 18.212 85.7171 18.001 84.5061 18.001C83.1481 18.001 82.0621 18.35 81.2481 19.049C80.4311 19.747 80.0231 20.644 80.0231 21.738C80.0231 23.412 81.1871 24.685 83.5171 25.554C84.3731 25.871 84.9861 26.214 85.3531 26.583C85.7221 26.952 85.9061 27.407 85.9061 27.947C85.9061 28.553 85.6831 29.039 85.2361 29.401C84.7871 29.763 84.1621 29.945 83.3591 29.945C82.2401 29.945 81.2131 29.661 80.2771 29.095L79.7831 30.872C80.6521 31.425 81.8001 31.701 83.2321 31.701C84.7831 31.701 85.9901 31.313 86.8571 30.536ZM95.0881 23.508H92.7381V28.167C92.7381 29.352 93.1521 29.944 93.9821 29.944C94.3631 29.944 94.6791 29.911 94.9291 29.845L94.9881 31.464C94.5681 31.621 94.0151 31.7 93.3301 31.7C92.4881 31.7 91.8301 31.443 91.3551 30.93C90.8821 30.416 90.6441 29.554 90.6441 28.343V23.506H89.2441V21.906H90.6441V20.149L92.7381 19.517V21.906H95.0881V23.508ZM104.427 30.26C105.269 29.313 105.691 28.102 105.691 26.627C105.691 25.192 105.283 24.021 104.465 23.114C103.61 22.179 102.477 21.712 101.069 21.712C99.6081 21.712 98.4461 22.186 97.5851 23.134C96.7221 24.081 96.2921 25.299 96.2921 26.786C96.2921 28.207 96.7101 29.386 97.5461 30.32C98.3821 31.254 99.5031 31.721 100.911 31.721C102.372 31.721 103.544 31.235 104.427 30.26ZM103.479 26.696C103.479 25.811 103.29 25.052 102.907 24.419C102.46 23.653 101.821 23.271 100.993 23.271C100.136 23.271 99.4851 23.654 99.0381 24.419C98.6551 25.053 98.4661 25.824 98.4661 26.736C98.4661 27.621 98.6551 28.38 99.0381 29.012C99.4991 29.778 100.143 30.16 100.974 30.16C101.788 30.16 102.427 29.77 102.888 28.992C103.281 28.347 103.479 27.58 103.479 26.696ZM111.949 23.724C112.174 23.7232 112.399 23.743 112.621 23.783V21.75C112.463 21.725 112.285 21.711 112.088 21.711C111.532 21.7118 110.992 21.8921 110.547 22.225C110.061 22.606 109.706 23.114 109.481 23.745H109.422L109.344 21.909H107.487C107.54 22.817 107.567 23.824 107.567 24.93L107.547 31.504H109.678V26.469C109.678 25.706 109.856 25.074 110.211 24.574C110.619 24.007 111.199 23.724 111.949 23.724ZM122.156 26.252C122.161 26.5761 122.135 26.9 122.078 27.219H115.682C115.707 28.167 116.016 28.892 116.61 29.392C117.149 29.839 117.846 30.063 118.702 30.063C119.649 30.063 120.513 29.912 121.29 29.609L121.624 31.089C120.716 31.485 119.644 31.682 118.407 31.682C116.919 31.682 115.751 31.244 114.901 30.369C114.053 29.494 113.628 28.319 113.628 26.845C113.628 25.398 114.023 24.193 114.814 23.232C115.642 22.206 116.761 21.693 118.169 21.693C119.552 21.693 120.599 22.206 121.31 23.232C121.873 24.047 122.156 25.055 122.156 26.252ZM119.709 24.06C119.998 24.521 120.137 25.067 120.123 25.699V25.698H115.682C115.747 25.054 115.958 24.501 116.313 24.04C116.746 23.46 117.313 23.171 118.01 23.171C118.773 23.171 119.34 23.467 119.709 24.06Z" fill="white"/>
<path fill-rule="evenodd" clip-rule="evenodd" d="M71.0878 13.433H70.0408V6.55603H71.0878V13.433ZM47.9918 12.667C48.6968 12.072 49.0498 11.186 49.0498 10.009C49.0498 8.96103 48.7228 8.15603 48.0708 7.59303C47.4888 7.09503 46.6258 6.84603 45.4808 6.84603C44.8328 6.84603 44.2328 6.89203 43.6758 6.98203V13.413C44.1028 13.465 44.6128 13.491 45.2088 13.491C46.4108 13.491 47.3388 13.216 47.9918 12.667ZM47.3388 8.28203C47.7428 8.69003 47.9448 9.27503 47.9448 10.038C47.9448 10.892 47.7248 11.542 47.2888 11.988C46.8528 12.434 46.2338 12.657 45.4318 12.657C45.0888 12.657 44.8528 12.648 44.7238 12.628V7.73903C44.9568 7.69303 45.2378 7.67103 45.5678 7.67103C46.3448 7.67103 46.9348 7.87503 47.3388 8.28203ZM54.9088 11.037C54.9088 11.762 54.7018 12.356 54.2878 12.822C53.8538 13.301 53.2788 13.54 52.5608 13.54C51.8688 13.54 51.3178 13.311 50.9068 12.851C50.4968 12.392 50.2918 11.813 50.2918 11.115C50.2918 10.385 50.5028 9.78603 50.9268 9.32103C51.3508 8.85603 51.9208 8.62303 52.6388 8.62303C53.3308 8.62303 53.8868 8.85203 54.3078 9.31103C54.7078 9.75703 54.9088 10.333 54.9088 11.037ZM53.5408 9.95203C53.7278 10.263 53.8218 10.636 53.8218 11.071C53.8218 11.506 53.7248 11.882 53.5308 12.199C53.3048 12.582 52.9908 12.773 52.5908 12.773C52.1828 12.773 51.8668 12.585 51.6398 12.209C51.4528 11.898 51.3588 11.525 51.3588 11.09C51.3588 10.642 51.4518 10.263 51.6398 9.95203C51.8598 9.57603 52.1798 9.38803 52.6008 9.38803C53.0078 9.38803 53.3208 9.57603 53.5408 9.95203ZM62.7648 8.71903L62.7645 8.72003H61.7358L61.1638 10.922C61.0218 11.472 60.9148 11.989 60.8438 12.474H60.8148C60.7178 11.976 60.5918 11.459 60.4368 10.922L59.7958 8.72003H58.9418L58.2728 10.97C58.0908 11.577 57.9618 12.079 57.8838 12.473H57.8648C57.7798 11.995 57.6738 11.49 57.5448 10.96L57.0118 8.71903H55.9348L57.3218 13.433H58.2928L58.9418 11.386C59.1037 10.8879 59.2304 10.379 59.3208 9.86303H59.3398C59.44 10.3768 59.5665 10.8852 59.7188 11.386L60.3298 13.433H61.2898L62.7645 8.72003H62.7648V8.71903ZM67.1498 13.433H68.1978V10.609C68.1978 9.91703 68.0168 9.39603 67.6548 9.04703C67.3638 8.76203 66.9978 8.62003 66.5578 8.62003C66.2098 8.62003 65.8918 8.70903 65.6078 8.88503C65.3688 9.03603 65.1868 9.22503 65.0648 9.45403H65.0358L64.9868 8.71703H64.0658C64.0908 9.20303 64.1038 9.65203 64.1038 10.066V13.432H65.1518V10.636C65.1474 10.3403 65.2508 10.0531 65.4428 9.82803C65.6287 9.60304 65.908 9.47647 66.1998 9.48503C66.8338 9.48503 67.1498 9.90103 67.1498 10.733V13.433ZM76.6368 12.822C77.0508 12.356 77.2578 11.762 77.2578 11.037C77.2578 10.333 77.0568 9.75703 76.6568 9.31103C76.2348 8.85203 75.6798 8.62303 74.9868 8.62303C74.2698 8.62303 73.6998 8.85603 73.2758 9.32103C72.8518 9.78603 72.6408 10.385 72.6408 11.115C72.6408 11.813 72.8458 12.392 73.2558 12.851C73.6658 13.311 74.2168 13.54 74.9098 13.54C75.6268 13.54 76.2028 13.301 76.6368 12.822ZM76.1698 11.071C76.1698 10.636 76.0758 10.263 75.8888 9.95203C75.6698 9.57603 75.3558 9.38803 74.9498 9.38803C74.5278 9.38803 74.2078 9.57603 73.9888 9.95203C73.8008 10.263 73.7078 10.642 73.7078 11.09C73.7078 11.525 73.8018 11.898 73.9888 12.209C74.2158 12.585 74.5318 12.773 74.9398 12.773C75.3398 12.773 75.6528 12.582 75.8788 12.199C76.0738 11.882 76.1698 11.506 76.1698 11.071ZM81.3888 13.433H82.3298C82.2848 13.155 82.2618 12.78 82.2618 12.309V10.573C82.2618 9.27303 81.6438 8.62303 80.4118 8.62303C79.7738 8.62303 79.2328 8.75903 78.7948 9.03003L79.0078 9.71803C79.3618 9.48603 79.7718 9.36903 80.2368 9.36903C80.8898 9.36903 81.2158 9.67903 81.2158 10.3V10.388C80.3428 10.381 79.6648 10.53 79.1828 10.834C78.6998 11.138 78.4598 11.577 78.4598 12.153C78.4501 12.5094 78.5829 12.8549 78.8288 13.113C79.0998 13.397 79.4598 13.54 79.9048 13.54C80.5008 13.54 80.9598 13.323 81.2818 12.89H81.3108L81.3888 13.433ZM81.2418 11.813V11.086C80.0858 11.066 79.5078 11.383 79.5078 12.036C79.5078 12.282 79.5738 12.466 79.7088 12.589C79.8438 12.712 80.0158 12.773 80.2208 12.773C80.4508 12.773 80.6658 12.7 80.8618 12.555C81.1032 12.3856 81.2454 12.1079 81.2418 11.813ZM87.3548 13.433H88.2848C88.2598 13.045 88.2478 12.622 88.2478 12.163V6.55603H87.1988V9.26203H87.1788C86.9268 8.83503 86.4838 8.62203 85.8508 8.62203C85.2748 8.62203 84.7908 8.84203 84.3958 9.28203C83.9878 9.75403 83.7848 10.372 83.7848 11.135C83.7848 11.846 83.9718 12.425 84.3468 12.871C84.7218 13.317 85.1948 13.54 85.7628 13.54C86.4738 13.54 86.9798 13.252 87.2768 12.676H87.3058L87.3548 13.433ZM87.1988 11.445V10.659C87.2187 10.2917 87.0682 9.93567 86.7908 9.69403C86.5975 9.52371 86.3474 9.43201 86.0898 9.43703C85.6988 9.43703 85.3928 9.59203 85.1678 9.90303C84.9448 10.214 84.8318 10.611 84.8318 11.096C84.8318 11.562 84.9388 11.94 85.1538 12.231C85.3808 12.541 85.6868 12.696 86.0698 12.696C86.4138 12.696 86.6888 12.567 86.8978 12.308C87.0998 12.069 87.1988 11.781 87.1988 11.445ZM96.6268 12.822C97.0408 12.356 97.2478 11.762 97.2478 11.037C97.2478 10.333 97.0468 9.75703 96.6468 9.31103C96.2268 8.85203 95.6698 8.62303 94.9788 8.62303C94.2598 8.62303 93.6898 8.85603 93.2658 9.32103C92.8418 9.78603 92.6308 10.385 92.6308 11.115C92.6308 11.813 92.8358 12.392 93.2458 12.851C93.6578 13.311 94.2088 13.54 94.8998 13.54C95.6188 13.54 96.1928 13.301 96.6268 12.822ZM96.1618 11.071C96.1618 10.636 96.0678 10.263 95.8808 9.95203C95.6598 9.57603 95.3478 9.38803 94.9398 9.38803C94.5198 9.38803 94.1998 9.57603 93.9788 9.95203C93.7908 10.263 93.6978 10.642 93.6978 11.09C93.6978 11.525 93.7918 11.898 93.9788 12.209C94.2058 12.585 94.5218 12.773 94.9298 12.773C95.3298 12.773 95.6448 12.582 95.8708 12.199C96.0638 11.882 96.1618 11.506 96.1618 11.071ZM101.836 13.433H102.883V10.609C102.883 9.91703 102.703 9.39603 102.34 9.04703C102.049 8.76203 101.683 8.62003 101.244 8.62003C100.895 8.62003 100.578 8.70903 100.293 8.88503C100.065 9.02414 99.8781 9.22029 99.7498 9.45403H99.7208L99.6718 8.71703H98.7518C98.7768 9.20303 98.7888 9.65203 98.7888 10.066V13.432H99.8378V10.636C99.8378 10.327 99.9348 10.057 100.129 9.82803C100.323 9.59903 100.574 9.48503 100.885 9.48503C101.52 9.48503 101.836 9.90103 101.836 10.733V13.433ZM109.935 9.50403H108.782V11.794C108.782 12.376 108.987 12.667 109.393 12.667C109.581 12.667 109.737 12.651 109.86 12.618L109.887 13.413C109.68 13.491 109.408 13.53 109.073 13.53C108.659 13.53 108.337 13.404 108.104 13.152C107.87 12.9 107.754 12.476 107.754 11.881V9.50403H107.065V8.71903H107.754V7.85503L108.781 7.54503V8.71803H109.935V9.50403ZM114.435 13.433H115.484V10.63C115.484 9.93203 115.306 9.40403 114.951 9.04903C114.666 8.76403 114.307 8.62203 113.873 8.62203C113.26 8.62203 112.787 8.88003 112.457 9.39703H112.437V6.55603H111.39V13.432H112.437V10.597C112.435 10.4697 112.451 10.3427 112.486 10.22C112.668 9.73003 113 9.48503 113.486 9.48503C114.119 9.48503 114.435 9.90803 114.435 10.753V13.433ZM121.207 10.853C121.207 11.041 121.193 11.199 121.168 11.328H118.025C118.039 11.794 118.189 12.149 118.48 12.395C118.746 12.615 119.089 12.725 119.509 12.725C119.974 12.725 120.398 12.651 120.78 12.502L120.944 13.23C120.497 13.424 119.971 13.521 119.362 13.521C118.632 13.521 118.057 13.306 117.641 12.876C117.223 12.446 117.016 11.869 117.016 11.145C117.016 10.434 117.209 9.84203 117.598 9.37003C118.004 8.86603 118.553 8.61403 119.246 8.61403C119.924 8.61403 120.439 8.86603 120.787 9.37003C121.068 9.77003 121.207 10.265 121.207 10.853ZM120.004 9.77703C120.151 10.0189 120.221 10.2994 120.207 10.582H118.025C118.05 10.2866 118.158 10.0043 118.336 9.76703C118.525 9.49452 118.838 9.33438 119.17 9.34003C119.545 9.34003 119.822 9.48603 120.004 9.77703Z" fill="white"/>
</svg>
