<svg width="135" height="40" viewBox="0 0 135 40" fill="none" xmlns="http://www.w3.org/2000/svg">
<path d="M130 40H5C2.2 40 0 37.8 0 35V5C0 2.2 2.2 0 5 0H130C132.8 0 135 2.2 135 5V35C135 37.7 132.8 40 130 40Z" fill="black"/>
<path fill-rule="evenodd" clip-rule="evenodd" d="M5 0H130C132.8 0 135 2.3 135 5V35C135 37.8 132.8 40 130 40H5C2.2 40 0 37.8 0 35V5C0 2.2 2.2 0 5 0ZM134.2 5C134.2 2.7 132.3 0.8 130 0.8H5C2.7 0.8 0.8 2.7 0.8 5V35C0.8 37.3 2.7 39.2 5 39.2H130C132.3 39.2 134.2 37.3 134.2 35V5Z" fill="#A6A6A6"/>
<path fill-rule="evenodd" clip-rule="evenodd" d="M46.7004 12.2C47.2004 11.7 47.4004 11 47.4004 10.2V9.90002H44.5004V10.6H46.7004C46.7004 11.1 46.5004 11.5 46.2004 11.8C45.7004 12.3 45.2004 12.5 44.5004 12.5C43.9004 12.5 43.4004 12.2 42.9004 11.8C42.4004 11.4 42.2004 10.8 42.2004 10.1C42.2004 9.40002 42.4004 8.80002 42.9004 8.40002C43.3004 7.90002 43.9004 7.70002 44.5004 7.70002C45.2004 7.70002 45.7004 7.90002 46.1004 8.40002L46.6004 7.90002C46.4004 7.60002 46.1004 7.40002 45.7004 7.20002C45.3004 7.00002 44.9004 6.90002 44.5004 6.90002C43.6004 6.90002 42.9004 7.20002 42.3004 7.80002C41.7004 8.40002 41.4004 9.10002 41.4004 10C41.4004 10.9 41.7004 11.6 42.3004 12.2C42.9004 12.8 43.6004 13.1 44.5004 13.1C45.4004 13.1 46.1004 12.8 46.7004 12.2ZM49.3004 7.70002H52.0004V7.00002H48.5004V13H52.0004V12.2H49.3004V10.3H51.8004V9.60002H49.3004V7.70002ZM55.3004 13H54.5004V7.70002H52.8004V7.00002H57.0004V7.70002H55.3004V13ZM60.7004 7.00002H59.9004V13H60.7004V7.00002ZM64.0004 13H63.3004V7.70002H61.6004V7.00002H65.7004V7.70002H64.0004V13ZM71.4004 13.1C72.3004 13.1 73.0004 12.8 73.6004 12.2C74.2004 11.6 74.5004 10.9 74.5004 10C74.5004 9.10002 74.2004 8.40002 73.6004 7.80002C73.0004 7.20002 72.3004 6.90002 71.4004 6.90002C70.5004 6.90002 69.8004 7.20002 69.2004 7.80002C68.6004 8.40002 68.3004 9.10002 68.3004 10C68.3004 10.9 68.6004 11.6 69.2004 12.2C69.8004 12.8 70.5004 13.1 71.4004 13.1ZM69.8004 11.7C70.2004 12.1 70.8004 12.4 71.4004 12.4C72.0004 12.4 72.6004 12.2 73.0004 11.7C73.4004 11.3 73.7004 10.7 73.7004 10C73.7004 9.30002 73.5004 8.70002 73.0004 8.30002C72.6004 7.90002 72.0004 7.60002 71.4004 7.60002C70.8004 7.60002 70.2004 7.80002 69.8004 8.30002C69.4004 8.70002 69.1004 9.30002 69.1004 10C69.1004 10.7 69.3004 11.3 69.8004 11.7ZM76.5004 7.00002H75.6004V13H76.3004V8.10002L79.4004 13H80.2004V7.00002H79.4004V11.7L76.5004 7.00002Z" fill="white"/>
<path d="M47.4004 9.90002H47.5004V9.80002H47.4004V9.90002ZM44.5004 9.90002V9.80002H44.4004V9.90002H44.5004ZM44.5004 10.6H44.4004V10.7H44.5004V10.6ZM46.7004 10.6H46.8004V10.5H46.7004V10.6ZM42.9004 8.40002L42.9629 8.47811L42.9715 8.47117L42.9785 8.46249L42.9004 8.40002ZM46.1004 8.40002L46.0223 8.46249L46.0921 8.54974L46.1711 8.47074L46.1004 8.40002ZM46.6004 7.90002L46.6711 7.97074L46.7291 7.91277L46.6836 7.84455L46.6004 7.90002ZM45.7004 7.20002L45.6557 7.28947L45.7004 7.20002ZM52.0004 7.70002V7.80002H52.1004V7.70002H52.0004ZM49.3004 7.70002V7.60002H49.2004V7.70002H49.3004ZM52.0004 7.00002H52.1004V6.90002H52.0004V7.00002ZM48.5004 7.00002V6.90002H48.4004V7.00002H48.5004ZM48.5004 13H48.4004V13.1H48.5004V13ZM52.0004 13V13.1H52.1004V13H52.0004ZM52.0004 12.2H52.1004V12.1H52.0004V12.2ZM49.3004 12.2H49.2004V12.3H49.3004V12.2ZM49.3004 10.3V10.2H49.2004V10.3H49.3004ZM51.8004 10.3V10.4H51.9004V10.3H51.8004ZM51.8004 9.60002H51.9004V9.50002H51.8004V9.60002ZM49.3004 9.60002H49.2004V9.70002H49.3004V9.60002ZM54.5004 13H54.4004V13.1H54.5004V13ZM55.3004 13V13.1H55.4004V13H55.3004ZM54.5004 7.70002H54.6004V7.60002H54.5004V7.70002ZM52.8004 7.70002H52.7004V7.80002H52.8004V7.70002ZM52.8004 7.00002V6.90002H52.7004V7.00002H52.8004ZM57.0004 7.00002H57.1004V6.90002H57.0004V7.00002ZM57.0004 7.70002V7.80002H57.1004V7.70002H57.0004ZM55.3004 7.70002V7.60002H55.2004V7.70002H55.3004ZM59.9004 7.00002V6.90002H59.8004V7.00002H59.9004ZM60.7004 7.00002H60.8004V6.90002H60.7004V7.00002ZM59.9004 13H59.8004V13.1H59.9004V13ZM60.7004 13V13.1H60.8004V13H60.7004ZM63.3004 13H63.2004V13.1H63.3004V13ZM64.0004 13V13.1H64.1004V13H64.0004ZM63.3004 7.70002H63.4004V7.60002H63.3004V7.70002ZM61.6004 7.70002H61.5004V7.80002H61.6004V7.70002ZM61.6004 7.00002V6.90002H61.5004V7.00002H61.6004ZM65.7004 7.00002H65.8004V6.90002H65.7004V7.00002ZM65.7004 7.70002V7.80002H65.8004V7.70002H65.7004ZM64.0004 7.70002V7.60002H63.9004V7.70002H64.0004ZM73.6004 12.2L73.6711 12.2707L73.6004 12.2ZM73.6004 7.80002L73.6711 7.72931V7.72931L73.6004 7.80002ZM69.8004 11.7L69.8715 11.6289L69.8629 11.6219L69.8004 11.7ZM73.0004 11.7L72.9292 11.6289L72.9223 11.6376L73.0004 11.7ZM73.0004 8.30002L72.9292 8.37117L72.9379 8.37811L73.0004 8.30002ZM69.8004 8.30002L69.8715 8.37117L69.8785 8.36249L69.8004 8.30002ZM75.6004 7.00002V6.90002H75.5004V7.00002H75.6004ZM76.5004 7.00002L76.5855 6.94751L76.5562 6.90002H76.5004V7.00002ZM75.6004 13H75.5004V13.1H75.6004V13ZM76.3004 13V13.1H76.4004V13H76.3004ZM76.3004 8.10002L76.3849 8.04656L76.2004 7.75492V8.10002H76.3004ZM79.4004 13L79.3159 13.0535L79.3453 13.1H79.4004V13ZM80.2004 13V13.1H80.3004V13H80.2004ZM80.2004 7.00002H80.3004V6.90002H80.2004V7.00002ZM79.4004 7.00002V6.90002H79.3004V7.00002H79.4004ZM79.4004 11.7L79.3153 11.7525L79.5004 12.0525V11.7H79.4004ZM47.3004 10.2C47.3004 10.9846 47.1043 11.6547 46.6297 12.1293L46.7711 12.2707C47.2965 11.7454 47.5004 11.0154 47.5004 10.2H47.3004ZM47.3004 9.90002V10.2H47.5004V9.90002H47.3004ZM44.5004 10H47.4004V9.80002H44.5004V10ZM44.6004 10.6V9.90002H44.4004V10.6H44.6004ZM46.7004 10.5H44.5004V10.7H46.7004V10.5ZM46.2711 11.8707C46.5878 11.554 46.8004 11.1293 46.8004 10.6H46.6004C46.6004 11.0707 46.413 11.446 46.1297 11.7293L46.2711 11.8707ZM44.5004 12.6C44.8602 12.6 45.1736 12.5486 45.4633 12.4301C45.753 12.3115 46.0138 12.128 46.2711 11.8707L46.1297 11.7293C45.887 11.972 45.6478 12.1385 45.3875 12.245C45.1272 12.3515 44.8406 12.4 44.5004 12.4V12.6ZM42.8379 11.8781C43.3421 12.2814 43.8649 12.6 44.5004 12.6V12.4C43.9359 12.4 43.4587 12.1186 42.9629 11.7219L42.8379 11.8781ZM42.1004 10.1C42.1004 10.8184 42.3062 11.4527 42.8379 11.8781L42.9629 11.7219C42.4946 11.3473 42.3004 10.7816 42.3004 10.1H42.1004ZM42.8379 8.32194C42.3062 8.7473 42.1004 9.3816 42.1004 10.1H42.3004C42.3004 9.41845 42.4946 8.85275 42.9629 8.47811L42.8379 8.32194ZM44.5004 7.60002C43.8794 7.60002 43.2465 7.80737 42.8223 8.33755L42.9785 8.46249C43.3543 7.99268 43.9214 7.80002 44.5004 7.80002V7.60002ZM46.1785 8.33755C45.7557 7.80908 45.2241 7.60002 44.5004 7.60002V7.80002C45.1767 7.80002 45.6451 7.99097 46.0223 8.46249L46.1785 8.33755ZM46.5297 7.82931L46.0297 8.32931L46.1711 8.47074L46.6711 7.97074L46.5297 7.82931ZM45.6557 7.28947C46.0514 7.48734 46.332 7.67774 46.5172 7.95549L46.6836 7.84455C46.4688 7.52231 46.1494 7.31271 45.7451 7.11058L45.6557 7.28947ZM44.5004 7.00002C44.8831 7.00002 45.2679 7.09558 45.6557 7.28947L45.7451 7.11058C45.3329 6.90447 44.9177 6.80002 44.5004 6.80002V7.00002ZM42.3711 7.87074C42.9523 7.28953 43.6269 7.00002 44.5004 7.00002V6.80002C43.5739 6.80002 42.8485 7.11052 42.2297 7.72931L42.3711 7.87074ZM41.5004 10C41.5004 9.12649 41.7899 8.45194 42.3711 7.87074L42.2297 7.72931C41.6109 8.3481 41.3004 9.07355 41.3004 10H41.5004ZM42.3711 12.1293C41.7899 11.5481 41.5004 10.8736 41.5004 10H41.3004C41.3004 10.9265 41.6109 11.6519 42.2297 12.2707L42.3711 12.1293ZM44.5004 13C43.6269 13 42.9523 12.7105 42.3711 12.1293L42.2297 12.2707C42.8485 12.8895 43.5739 13.2 44.5004 13.2V13ZM46.6297 12.1293C46.0485 12.7105 45.3739 13 44.5004 13V13.2C45.4269 13.2 46.1523 12.8895 46.7711 12.2707L46.6297 12.1293ZM52.0004 7.60002H49.3004V7.80002H52.0004V7.60002ZM51.9004 7.00002V7.70002H52.1004V7.00002H51.9004ZM48.5004 7.10002H52.0004V6.90002H48.5004V7.10002ZM48.6004 13V7.00002H48.4004V13H48.6004ZM52.0004 12.9H48.5004V13.1H52.0004V12.9ZM51.9004 12.2V13H52.1004V12.2H51.9004ZM49.3004 12.3H52.0004V12.1H49.3004V12.3ZM49.2004 10.3V12.2H49.4004V10.3H49.2004ZM51.8004 10.2H49.3004V10.4H51.8004V10.2ZM51.7004 9.60002V10.3H51.9004V9.60002H51.7004ZM49.3004 9.70002H51.8004V9.50002H49.3004V9.70002ZM49.2004 7.70002V9.60002H49.4004V7.70002H49.2004ZM54.5004 13.1H55.3004V12.9H54.5004V13.1ZM54.4004 7.70002V13H54.6004V7.70002H54.4004ZM52.8004 7.80002H54.5004V7.60002H52.8004V7.80002ZM52.7004 7.00002V7.70002H52.9004V7.00002H52.7004ZM57.0004 6.90002H52.8004V7.10002H57.0004V6.90002ZM57.1004 7.70002V7.00002H56.9004V7.70002H57.1004ZM55.3004 7.80002H57.0004V7.60002H55.3004V7.80002ZM55.4004 13V7.70002H55.2004V13H55.4004ZM59.9004 7.10002H60.7004V6.90002H59.9004V7.10002ZM60.0004 13V7.00002H59.8004V13H60.0004ZM60.7004 12.9H59.9004V13.1H60.7004V12.9ZM60.6004 7.00002V13H60.8004V7.00002H60.6004ZM63.3004 13.1H64.0004V12.9H63.3004V13.1ZM63.2004 7.70002V13H63.4004V7.70002H63.2004ZM61.6004 7.80002H63.3004V7.60002H61.6004V7.80002ZM61.5004 7.00002V7.70002H61.7004V7.00002H61.5004ZM65.7004 6.90002H61.6004V7.10002H65.7004V6.90002ZM65.8004 7.70002V7.00002H65.6004V7.70002H65.8004ZM64.0004 7.80002H65.7004V7.60002H64.0004V7.80002ZM64.1004 13V7.70002H63.9004V13H64.1004ZM73.5297 12.1293C72.9485 12.7105 72.2739 13 71.4004 13V13.2C72.3269 13.2 73.0523 12.8895 73.6711 12.2707L73.5297 12.1293ZM74.4004 10C74.4004 10.8736 74.1109 11.5481 73.5297 12.1293L73.6711 12.2707C74.2899 11.6519 74.6004 10.9265 74.6004 10H74.4004ZM73.5297 7.87073C74.1109 8.45194 74.4004 9.12649 74.4004 10H74.6004C74.6004 9.07355 74.2899 8.3481 73.6711 7.72931L73.5297 7.87073ZM71.4004 7.00002C72.2739 7.00002 72.9485 7.28953 73.5297 7.87074L73.6711 7.72931C73.0523 7.11052 72.3269 6.80002 71.4004 6.80002V7.00002ZM69.2711 7.87074C69.8523 7.28953 70.5269 7.00002 71.4004 7.00002V6.80002C70.4739 6.80002 69.7485 7.11052 69.1297 7.72931L69.2711 7.87074ZM68.4004 10C68.4004 9.12649 68.6899 8.45194 69.2711 7.87074L69.1297 7.72931C68.5109 8.3481 68.2004 9.07355 68.2004 10H68.4004ZM69.2711 12.1293C68.6899 11.5481 68.4004 10.8736 68.4004 10H68.2004C68.2004 10.9265 68.5109 11.6519 69.1297 12.2707L69.2711 12.1293ZM71.4004 13C70.5269 13 69.8523 12.7105 69.2711 12.1293L69.1297 12.2707C69.7485 12.8895 70.4739 13.2 71.4004 13.2V13ZM71.4004 12.3C70.8316 12.3 70.256 12.0142 69.8711 11.6293L69.7297 11.7707C70.1448 12.1859 70.7692 12.5 71.4004 12.5V12.3ZM72.9223 11.6376C72.5465 12.1074 71.9794 12.3 71.4004 12.3V12.5C72.0214 12.5 72.6543 12.2927 73.0785 11.7625L72.9223 11.6376ZM73.6004 10C73.6004 10.671 73.3127 11.2463 72.9297 11.6293L73.0711 11.7707C73.488 11.3538 73.8004 10.729 73.8004 10H73.6004ZM72.9379 8.37811C73.4062 8.75275 73.6004 9.31845 73.6004 10H73.8004C73.8004 9.2816 73.5946 8.6473 73.0629 8.22194L72.9379 8.37811ZM71.4004 7.70002C71.9692 7.70002 72.5448 7.98589 72.9297 8.37074L73.0711 8.22931C72.656 7.81416 72.0316 7.50002 71.4004 7.50002V7.70002ZM69.8785 8.36249C70.2543 7.89268 70.8214 7.70002 71.4004 7.70002V7.50002C70.7794 7.50002 70.1465 7.70737 69.7223 8.23755L69.8785 8.36249ZM69.2004 10C69.2004 9.32901 69.488 8.7538 69.8711 8.37074L69.7297 8.22931C69.3127 8.64625 69.0004 9.27104 69.0004 10H69.2004ZM69.8629 11.6219C69.3946 11.2473 69.2004 10.6816 69.2004 10H69.0004C69.0004 10.7184 69.2062 11.3527 69.7379 11.7781L69.8629 11.6219ZM75.6004 7.10002H76.5004V6.90002H75.6004V7.10002ZM75.7004 13V7.00002H75.5004V13H75.7004ZM76.3004 12.9H75.6004V13.1H76.3004V12.9ZM76.2004 8.10002V13H76.4004V8.10002H76.2004ZM79.4849 12.9466L76.3849 8.04656L76.2159 8.15349L79.3159 13.0535L79.4849 12.9466ZM80.2004 12.9H79.4004V13.1H80.2004V12.9ZM80.1004 7.00002V13H80.3004V7.00002H80.1004ZM79.4004 7.10002H80.2004V6.90002H79.4004V7.10002ZM79.5004 11.7V7.00002H79.3004V11.7H79.5004ZM76.4153 7.05254L79.3153 11.7525L79.4855 11.6475L76.5855 6.94751L76.4153 7.05254Z" fill="white"/>
<path fill-rule="evenodd" clip-rule="evenodd" d="M47.6996 23.1V24.9H51.9996C51.8996 25.9 51.4996 26.7 50.9996 27.2C50.3996 27.8 49.3996 28.5 47.6996 28.5C44.9996 28.5 42.9996 26.4 42.9996 23.7C42.9996 21 45.0996 18.9 47.6996 18.9C49.0996 18.9 50.1996 19.5 50.9996 20.2L52.2996 18.9C51.1996 17.9 49.7996 17.1 47.7996 17.1C44.1996 17.1 41.0996 20.1 41.0996 23.7C41.0996 27.3 44.1996 30.3 47.7996 30.3C49.7996 30.3 51.1996 29.7 52.3996 28.4C53.5996 27.2 53.9996 25.5 53.9996 24.2V24.2C53.9996 23.8 53.9996 23.4 53.8996 23.1H47.6996ZM58.7996 21.8C56.3996 21.8 54.4996 23.6 54.4996 26.1C54.4996 28.5 56.3996 30.4 58.7996 30.4C61.1996 30.4 63.0996 28.6 63.0996 26.1C63.0996 23.5 61.1996 21.8 58.7996 21.8ZM63.7996 26.1C63.7996 23.6 65.6996 21.8 68.0996 21.8C70.4996 21.8 72.3996 23.5 72.3996 26.1C72.3996 28.6 70.4996 30.4 68.0996 30.4C65.6996 30.4 63.7996 28.5 63.7996 26.1ZM65.6996 26C65.6996 27.5 66.7996 28.6 68.0996 28.6C69.3996 28.6 70.4996 27.5 70.4996 26C70.4996 24.4 69.3996 23.4 68.0996 23.4C66.7996 23.4 65.6996 24.5 65.6996 26ZM56.3996 26C56.3996 27.5 57.4996 28.6 58.7996 28.6C60.0996 28.6 61.1996 27.5 61.1996 26C61.1996 24.4 60.0996 23.4 58.7996 23.4C57.4996 23.4 56.3996 24.5 56.3996 26ZM89.4996 21.8C91.6996 21.8 92.6996 23.5 93.0996 24.5L93.2996 25L87.5996 27.4C88.0996 28.3 88.6996 28.7 89.6996 28.7C90.6996 28.7 91.2996 28.2 91.7996 27.5L93.1996 28.5C92.7996 29.2 91.5996 30.4 89.6996 30.4C87.2996 30.4 85.4996 28.5 85.4996 26.1C85.4996 23.5 87.2996 21.8 89.4996 21.8ZM87.2996 25.9C87.2996 24.3 88.5996 23.4 89.4996 23.4C90.1996 23.4 90.8996 23.8 91.0996 24.3L87.2996 25.9ZM84.4996 30H82.5996V17.5H84.4996V30ZM79.5996 22.7C79.0996 22.2 78.2996 21.7 77.2996 21.7C75.1996 21.7 73.1996 23.6 73.1996 26C73.1996 28.4 75.0996 30.2 77.2996 30.2C78.2996 30.2 79.0996 29.7 79.4996 29.2H79.5996V29.8C79.5996 31.4 78.6996 32.3 77.2996 32.3C76.1996 32.3 75.3996 31.5 75.1996 30.8L73.5996 31.5C74.0996 32.6 75.2996 34 77.3996 34C79.5996 34 81.3996 32.7 81.3996 29.6V22H79.5996V22.7ZM74.9996 26C74.9996 27.5 76.0996 28.6 77.3996 28.6C78.6996 28.6 79.6996 27.5 79.6996 26C79.6996 24.5 78.6996 23.4 77.3996 23.4C76.0996 23.4 74.9996 24.5 74.9996 26ZM101.8 17.5H97.2996V30H99.1996V25.3H101.8C103.9 25.3 105.9 23.8 105.9 21.4C105.9 19 103.9 17.5 101.8 17.5ZM99.1996 23.5H101.9C103.2 23.5 104 22.4 104.1 21.3C104.1 20.4 103.3 19.2 101.9 19.2H99.1996V23.5ZM113.4 21.7C112 21.7 110.6 22.3 110.1 23.6L111.8 24.3C112.2 23.6 112.8 23.4 113.5 23.4C114.5 23.4 115.4 24 115.5 25V25.1C115.2 24.9 114.4 24.6 113.6 24.6C111.8 24.6 110 25.6 110 27.4C110 29.1 111.5 30.2 113.1 30.2C114.4 30.2 115 29.6 115.5 29H115.6V30H117.4V25.2C117.2 23 115.5 21.7 113.4 21.7ZM111.7 27.5C111.7 28.3 112.6 28.6 113.2 28.6C114.2 28.6 115.2 27.8 115.4 26.6C115.349 26.5798 115.3 26.5596 115.251 26.5396C114.815 26.3616 114.419 26.2 113.7 26.2C112.8 26.2 111.7 26.5 111.7 27.5ZM123.7 22L121.6 27.4H121.5L119.3 22H117.3L120.6 29.6L118.7 33.8H120.6L125.7 22H123.7ZM108.8 30H106.9V17.5H108.8V30Z" fill="white"/>
<path d="M10.4004 7.5C10.1004 7.8 9.90039 8.3 9.90039 8.9V31C9.90039 31.6 10.1004 32.1 10.4004 32.4L10.5004 32.5L22.9004 20.1V19.9L10.4004 7.5Z" fill="url(#paint0_linear)"/>
<path d="M27.0004 24.3L22.9004 20.2V19.9L27.0004 15.8L27.1004 15.9L32.0004 18.7C33.4004 19.5 33.4004 20.8 32.0004 21.6L27.0004 24.3Z" fill="url(#paint1_linear)"/>
<path d="M27.1004 24.2L22.9004 20L10.4004 32.5C10.9004 33 11.6004 33 12.5004 32.6L27.1004 24.2Z" fill="url(#paint2_linear)"/>
<path d="M27.1004 15.8L12.5004 7.49999C11.6004 6.99999 10.9004 7.09999 10.4004 7.59999L22.9004 20L27.1004 15.8Z" fill="url(#paint3_linear)"/>
<path opacity="0.2" d="M27.0004 24.1L12.5004 32.3C11.7004 32.8 11.0004 32.7 10.5004 32.3L10.4004 32.4L10.5004 32.5C11.0004 32.9 11.7004 33 12.5004 32.5L27.0004 24.1Z" fill="black"/>
<path opacity="0.12" d="M10.4 32.3C10.1 32 10 31.5 10 30.9V31C10 31.6 10.2 32.1 10.5 32.4V32.3H10.4Z" fill="black"/>
<path opacity="0.12" d="M32 21.3L27 24.1L27.1 24.2L32 21.4C32.7 21 33 20.5 33 20C33 20.5 32.6 20.9 32 21.3Z" fill="black"/>
<path opacity="0.25" d="M12.5 7.6L32 18.7C32.6 19.1 33 19.5 33 20C33 19.5 32.7 19 32 18.6L12.5 7.5C11.1 6.7 10 7.4 10 9V9.1C10 7.5 11.1 6.8 12.5 7.6Z" fill="white"/>
<defs>
<linearGradient id="paint0_linear" x1="32.0062" y1="-50.968" x2="-30.9492" y2="-46.365" gradientUnits="userSpaceOnUse">
<stop stop-color="#00A0FF"/>
<stop offset="0.007" stop-color="#00A1FF"/>
<stop offset="0.26" stop-color="#00BEFF"/>
<stop offset="0.512" stop-color="#00D2FF"/>
<stop offset="0.76" stop-color="#00DFFF"/>
<stop offset="1" stop-color="#00E3FF"/>
</linearGradient>
<linearGradient id="paint1_linear" x1="33.8348" y1="9.86973" x2="9.63789" y2="9.86973" gradientUnits="userSpaceOnUse">
<stop stop-color="#FFE000"/>
<stop offset="0.409" stop-color="#FFBD00"/>
<stop offset="0.775" stop-color="#FFA500"/>
<stop offset="1" stop-color="#FF9C00"/>
</linearGradient>
<linearGradient id="paint2_linear" x1="0.0731871" y1="10.6978" x2="-14.5111" y2="51.8067" gradientUnits="userSpaceOnUse">
<stop stop-color="#FF3A44"/>
<stop offset="1" stop-color="#C31162"/>
</linearGradient>
<linearGradient id="paint3_linear" x1="-3.91141" y1="-5.23462" x2="2.53618" y2="13.2805" gradientUnits="userSpaceOnUse">
<stop stop-color="#32A071"/>
<stop offset="0.069" stop-color="#2DA771"/>
<stop offset="0.476" stop-color="#15CF74"/>
<stop offset="0.801" stop-color="#06E775"/>
<stop offset="1" stop-color="#00F076"/>
</linearGradient>
</defs>
</svg>
